<?xml version="1.0" encoding="utf-8"?>
<!-- Generator: Adobe Illustrator 15.1.0, SVG Export Plug-In . SVG Version: 6.00 Build 0)  -->
<!DOCTYPE svg PUBLIC "-//W3C//DTD SVG 1.1//EN" "http://www.w3.org/Graphics/SVG/1.1/DTD/svg11.dtd">
<svg version="1.1" id="Layer_1" xmlns="http://www.w3.org/2000/svg" xmlns:xlink="http://www.w3.org/1999/xlink" x="0px" y="0px"
	 width="306.142px" height="306.141px" viewBox="0 0 306.142 306.141" enable-background="new 0 0 306.142 306.141"
	 xml:space="preserve">
<g>
	
		<line fill="none" stroke="#000000" stroke-width="3" stroke-miterlimit="10" x1="242.361" y1="272.125" x2="233.857" y2="272.125"/>
	
		<line fill="none" stroke="#000000" stroke-width="3" stroke-miterlimit="10" x1="248.739" y1="266.456" x2="227.479" y2="266.456"/>
	
		<line fill="none" stroke="#000000" stroke-width="3" stroke-miterlimit="10" x1="238.109" y1="238.111" x2="238.109" y2="260.787"/>
	
		<line fill="none" stroke="#000000" stroke-width="3" stroke-miterlimit="10" x1="221.102" y1="260.787" x2="255.117" y2="260.787"/>
	<path fill="none" stroke="#000000" stroke-width="3" stroke-miterlimit="10" d="M242.361,271.747"/>
	<path fill="none" stroke="#000000" stroke-width="3" stroke-miterlimit="10" d="M255.117,258.14"/>
	<path fill="none" stroke="#000000" stroke-width="3" stroke-miterlimit="10" d="M221.102,258.14"/>
	<path fill="none" stroke="#000000" stroke-width="3" stroke-miterlimit="10" d="M233.857,271.747"/>
</g>
<path fill="none" stroke="#000000" stroke-width="3" stroke-miterlimit="10" d="M34.016,68.03c0,3.132-2.54,5.671-5.673,5.671
	c-3.127,0-5.666-2.539-5.666-5.671c0-3.13,2.539-5.668,5.666-5.668C31.476,62.362,34.016,64.9,34.016,68.03z"/>
<path fill="none" stroke="#000000" stroke-width="3" stroke-miterlimit="10" d="M283.464,68.03c0,3.132-2.54,5.671-5.673,5.671
	c-3.127,0-5.666-2.539-5.666-5.671c0-3.13,2.539-5.668,5.666-5.668C280.924,62.362,283.464,64.899,283.464,68.03z"/>
<g>
	<path d="M22.917,58.849l-5.824-15.032h2.153l3.907,10.92c0.314,0.875,0.578,1.695,0.79,2.461c0.232-0.82,0.502-1.641,0.81-2.461
		l4.061-10.92h2.03l-5.886,15.032H22.917z"/>
	<path d="M31.804,51.472v-1.213h1.055v1.213H31.804z M31.804,58.849v-6.223h1.055v6.223H31.804z"/>
	<path d="M34.464,58.849v-6.223h0.949v0.885c0.457-0.684,1.117-1.025,1.98-1.025c0.375,0,0.72,0.067,1.034,0.202
		s0.55,0.312,0.706,0.53s0.266,0.479,0.328,0.779c0.039,0.195,0.059,0.537,0.059,1.025v3.826h-1.055v-3.785
		c0-0.43-0.041-0.751-0.123-0.964s-0.228-0.383-0.437-0.51s-0.454-0.19-0.735-0.19c-0.449,0-0.837,0.143-1.163,0.428
		s-0.489,0.826-0.489,1.623v3.398H34.464z"/>
</g>
<g>
	<path d="M272.198,58.849l-5.824-15.032h2.153l3.907,10.92c0.314,0.875,0.578,1.695,0.79,2.461c0.232-0.82,0.502-1.641,0.81-2.461
		l4.061-10.92h2.03l-5.886,15.032H272.198z"/>
	<path d="M280.687,55.737c0-1.152,0.32-2.006,0.961-2.561c0.535-0.461,1.188-0.691,1.957-0.691c0.855,0,1.555,0.28,2.098,0.841
		s0.814,1.335,0.814,2.323c0,0.801-0.12,1.431-0.36,1.89s-0.59,0.815-1.049,1.069s-0.96,0.381-1.503,0.381
		c-0.871,0-1.575-0.279-2.112-0.838S280.687,56.788,280.687,55.737z M281.771,55.737c0,0.797,0.174,1.394,0.521,1.79
		s0.785,0.595,1.313,0.595c0.523,0,0.959-0.199,1.307-0.598s0.521-1.006,0.521-1.822c0-0.77-0.175-1.353-0.524-1.749
		s-0.784-0.595-1.304-0.595c-0.527,0-0.965,0.197-1.313,0.592S281.771,54.94,281.771,55.737z"/>
	<path d="M291.831,58.849v-0.914c-0.484,0.703-1.143,1.055-1.975,1.055c-0.367,0-0.71-0.07-1.028-0.211s-0.555-0.317-0.709-0.53
		s-0.263-0.474-0.325-0.782c-0.043-0.207-0.064-0.535-0.064-0.984v-3.855h1.055v3.451c0,0.551,0.021,0.922,0.064,1.113
		c0.066,0.277,0.207,0.495,0.422,0.653s0.48,0.237,0.797,0.237s0.613-0.081,0.891-0.243s0.474-0.383,0.589-0.662
		s0.173-0.685,0.173-1.216v-3.334h1.055v6.223H291.831z"/>
	<path d="M296.729,57.905l0.152,0.932c-0.297,0.063-0.563,0.094-0.797,0.094c-0.383,0-0.68-0.061-0.891-0.182
		s-0.359-0.28-0.445-0.478s-0.129-0.612-0.129-1.245v-3.58h-0.773v-0.82h0.773v-1.541l1.049-0.633v2.174h1.061v0.82h-1.061v3.639
		c0,0.301,0.019,0.494,0.056,0.58s0.098,0.154,0.182,0.205s0.204,0.076,0.36,0.076C296.384,57.946,296.538,57.933,296.729,57.905z"
		/>
</g>
<g>
	
		<line fill="none" stroke="#000000" stroke-width="3" stroke-miterlimit="10" x1="272.125" y1="175.747" x2="204.094" y2="175.747"/>
	
		<line fill="none" stroke="#000000" stroke-width="3" stroke-miterlimit="10" x1="272.125" y1="164.409" x2="204.094" y2="164.409"/>
	
		<line fill="none" stroke="#000000" stroke-width="3" stroke-miterlimit="10" x1="238.109" y1="204.094" x2="238.109" y2="176.094"/>
	
		<line fill="none" stroke="#000000" stroke-width="3" stroke-miterlimit="10" x1="238.109" y1="164.409" x2="238.109" y2="136.063"/>
</g>
<line fill="none" stroke="#000000" stroke-width="3" stroke-miterlimit="10" x1="204.093" y1="68.032" x2="272.125" y2="68.032"/>
<g>
	<line fill="none" stroke="#000000" stroke-width="3" stroke-miterlimit="10" x1="102.047" y1="68.031" x2="68.031" y2="68.031"/>
	<line fill="none" stroke="#000000" stroke-width="3" stroke-miterlimit="10" x1="170.079" y1="68.031" x2="204.094" y2="68.031"/>
	
		<rect x="102.047" y="51.023" fill="none" stroke="#000000" stroke-width="3" stroke-miterlimit="10" width="68.031" height="34.016"/>
</g>
<line fill="none" stroke="#000000" stroke-width="3" stroke-miterlimit="10" x1="238.109" y1="68.031" x2="238.109" y2="102.047"/>
<line fill="none" stroke="#000000" stroke-width="3" stroke-miterlimit="10" x1="34.016" y1="68.032" x2="68.031" y2="68.032"/>
<line fill="none" stroke="#000000" stroke-width="3" stroke-miterlimit="10" x1="238.109" y1="102.047" x2="238.109" y2="136.063"/>
<line fill="none" stroke="#000000" stroke-width="3" stroke-miterlimit="10" x1="238.109" y1="204.094" x2="238.109" y2="238.109"/>
</svg>
