<?xml version="1.0" encoding="utf-8"?>
<!-- Generator: Adobe Illustrator 15.1.0, SVG Export Plug-In . SVG Version: 6.00 Build 0)  -->
<!DOCTYPE svg PUBLIC "-//W3C//DTD SVG 1.1//EN" "http://www.w3.org/Graphics/SVG/1.1/DTD/svg11.dtd">
<svg version="1.1" id="Layer_1" xmlns="http://www.w3.org/2000/svg" xmlns:xlink="http://www.w3.org/1999/xlink" x="0px" y="0px"
	 width="136.063px" height="408.189px" viewBox="0 0 136.063 408.189" enable-background="new 0 0 136.063 408.189"
	 xml:space="preserve">
<g>
	<line fill="none" stroke="#000000" stroke-width="3" stroke-miterlimit="10" x1="51.023" y1="40.837" x2="51.023" y2="68.032"/>
	<line fill="none" stroke="#000000" stroke-width="3" stroke-miterlimit="10" x1="68.031" y1="34.014" x2="34.016" y2="47.611"/>
</g>
<g>
	<line fill="none" stroke="#000000" stroke-width="3" stroke-miterlimit="10" x1="51.025" y1="170.078" x2="51.025" y2="204.094"/>
	<line fill="none" stroke="#000000" stroke-width="3" stroke-miterlimit="10" x1="51.025" y1="102.046" x2="51.025" y2="68.031"/>
	
		<rect x="34.018" y="102.046" fill="none" stroke="#000000" stroke-width="3" stroke-miterlimit="10" width="34.016" height="68.031"/>
</g>
<g>
	<line fill="none" stroke="#000000" stroke-width="3" stroke-miterlimit="10" x1="51.025" y1="306.14" x2="51.025" y2="340.156"/>
	<line fill="none" stroke="#000000" stroke-width="3" stroke-miterlimit="10" x1="51.025" y1="238.109" x2="51.025" y2="204.093"/>
	
		<rect x="34.018" y="238.109" fill="none" stroke="#000000" stroke-width="3" stroke-miterlimit="10" width="34.016" height="68.031"/>
</g>
<g>
	<line fill="none" stroke="#000000" stroke-width="3" stroke-miterlimit="10" x1="55.275" y1="374.173" x2="46.771" y2="374.173"/>
	<line fill="none" stroke="#000000" stroke-width="3" stroke-miterlimit="10" x1="61.653" y1="368.503" x2="40.394" y2="368.503"/>
	<line fill="none" stroke="#000000" stroke-width="3" stroke-miterlimit="10" x1="51.023" y1="340.158" x2="51.023" y2="362.834"/>
	<line fill="none" stroke="#000000" stroke-width="3" stroke-miterlimit="10" x1="34.016" y1="362.834" x2="68.031" y2="362.834"/>
	<path fill="none" stroke="#000000" stroke-width="3" stroke-miterlimit="10" d="M55.275,373.794"/>
	<path fill="none" stroke="#000000" stroke-width="3" stroke-miterlimit="10" d="M68.031,360.188"/>
	<path fill="none" stroke="#000000" stroke-width="3" stroke-miterlimit="10" d="M34.016,360.188"/>
	<path fill="none" stroke="#000000" stroke-width="3" stroke-miterlimit="10" d="M46.771,373.794"/>
</g>
<line fill="none" stroke="#000000" stroke-width="3" stroke-miterlimit="10" x1="68.031" y1="204.094" x2="102.047" y2="204.094"/>
<line fill="none" stroke="#000000" stroke-width="3" stroke-miterlimit="10" x1="51.023" y1="204.094" x2="85.039" y2="204.094"/>
<g>
	<path d="M51.019,208.264c-2.296,0-4.165-1.871-4.165-4.17c0-2.299,1.869-4.169,4.165-4.169c2.301,0,4.174,1.87,4.174,4.169
		C55.193,206.393,53.32,208.264,51.019,208.264z"/>
	<path d="M51.019,201.425c1.474,0,2.674,1.197,2.674,2.669c0,1.472-1.2,2.67-2.674,2.67c-1.47,0-2.665-1.198-2.665-2.67
		C48.354,202.622,49.549,201.425,51.019,201.425 M51.019,198.425c-3.125,0-5.665,2.538-5.665,5.669c0,3.131,2.54,5.67,5.665,5.67
		c3.134,0,5.674-2.539,5.674-5.67C56.693,200.962,54.153,198.425,51.019,198.425L51.019,198.425z"/>
</g>
<path fill="none" stroke="#000000" stroke-width="3" stroke-miterlimit="10" d="M113.386,204.093c0,3.132-2.54,5.671-5.673,5.671
	c-3.127,0-5.666-2.539-5.666-5.671c0-3.13,2.539-5.668,5.666-5.668C110.846,198.425,113.386,200.962,113.386,204.093z"/>
<g>
	<path d="M104.297,193.984l-5.824-15.032h2.153l3.907,10.92c0.314,0.875,0.578,1.695,0.79,2.461c0.232-0.82,0.502-1.641,0.81-2.461
		l4.061-10.92h2.03l-5.886,15.032H104.297z"/>
	<path d="M112.475,193.984l2.273-3.234l-2.104-2.988h1.318l0.955,1.459c0.18,0.277,0.324,0.51,0.434,0.697
		c0.172-0.258,0.33-0.486,0.475-0.686l1.049-1.471h1.26l-2.15,2.93l2.314,3.293h-1.295l-1.277-1.934l-0.34-0.521l-1.635,2.455
		H112.475z"/>
</g>
</svg>
