<?xml version="1.0" encoding="utf-8"?>
<!-- Generator: Adobe Illustrator 15.1.0, SVG Export Plug-In . SVG Version: 6.00 Build 0)  -->
<!DOCTYPE svg PUBLIC "-//W3C//DTD SVG 1.1//EN" "http://www.w3.org/Graphics/SVG/1.1/DTD/svg11.dtd">
<svg version="1.1" id="Layer_1" xmlns="http://www.w3.org/2000/svg" xmlns:xlink="http://www.w3.org/1999/xlink" x="0px" y="0px"
	 width="544.251px" height="442.204px" viewBox="0 0 544.251 442.204" enable-background="new 0 0 544.251 442.204"
	 xml:space="preserve">
<g>
	<line fill="none" stroke="#000000" stroke-width="3" stroke-miterlimit="10" x1="136.063" y1="40.838" x2="136.063" y2="68.033"/>
	<line fill="none" stroke="#000000" stroke-width="3" stroke-miterlimit="10" x1="153.071" y1="34.015" x2="119.055" y2="47.612"/>
</g>
<g>
	<line fill="none" stroke="#000000" stroke-width="3" stroke-miterlimit="10" x1="408.188" y1="40.838" x2="408.188" y2="68.033"/>
	<line fill="none" stroke="#000000" stroke-width="3" stroke-miterlimit="10" x1="425.196" y1="34.015" x2="391.181" y2="47.612"/>
</g>
<g>
	<polyline fill="none" stroke="#000000" stroke-width="3" stroke-miterlimit="10" points="136.063,374.174 136.063,340.158 
		102.047,340.158 102.047,272.126 136.063,272.126 136.063,238.11 	"/>
	<line fill="none" stroke="#000000" stroke-width="3" stroke-miterlimit="10" x1="90.709" y1="272.126" x2="90.709" y2="340.158"/>
	<line fill="none" stroke="#000000" stroke-width="3" stroke-miterlimit="10" x1="90.709" y1="306.142" x2="34.017" y2="306.142"/>
</g>
<path fill="none" stroke="#000000" stroke-width="3" stroke-miterlimit="10" d="M34.017,306.141c0,3.132-2.54,5.671-5.673,5.671
	c-3.127,0-5.666-2.539-5.666-5.671c0-3.13,2.539-5.668,5.666-5.668C31.477,300.473,34.017,303.01,34.017,306.141z"/>
<g>
	<path d="M22.647,294.804l5.773-15.032h2.143l6.152,15.032h-2.266l-1.753-4.553H26.41l-1.651,4.553H22.647z M26.984,288.631h5.096
		l-1.569-4.163c-0.479-1.265-0.834-2.304-1.066-3.117c-0.191,0.964-0.461,1.921-0.81,2.871L26.984,288.631z"/>
</g>
<g>
	
		<line fill="none" stroke="#000000" stroke-width="3" stroke-miterlimit="10" x1="140.315" y1="408.189" x2="131.811" y2="408.189"/>
	<line fill="none" stroke="#000000" stroke-width="3" stroke-miterlimit="10" x1="146.693" y1="402.52" x2="125.433" y2="402.52"/>
	
		<line fill="none" stroke="#000000" stroke-width="3" stroke-miterlimit="10" x1="136.063" y1="374.175" x2="136.063" y2="396.851"/>
	
		<line fill="none" stroke="#000000" stroke-width="3" stroke-miterlimit="10" x1="119.055" y1="396.851" x2="153.071" y2="396.851"/>
	<path fill="none" stroke="#000000" stroke-width="3" stroke-miterlimit="10" d="M140.315,407.811"/>
	<path fill="none" stroke="#000000" stroke-width="3" stroke-miterlimit="10" d="M153.071,394.204"/>
	<path fill="none" stroke="#000000" stroke-width="3" stroke-miterlimit="10" d="M119.055,394.204"/>
	<path fill="none" stroke="#000000" stroke-width="3" stroke-miterlimit="10" d="M131.811,407.811"/>
</g>
<g>
	<line fill="none" stroke="#000000" stroke-width="3" stroke-miterlimit="10" x1="412.44" y1="408.189" x2="403.937" y2="408.189"/>
	<line fill="none" stroke="#000000" stroke-width="3" stroke-miterlimit="10" x1="418.818" y1="402.52" x2="397.559" y2="402.52"/>
	
		<line fill="none" stroke="#000000" stroke-width="3" stroke-miterlimit="10" x1="408.188" y1="374.175" x2="408.188" y2="396.851"/>
	
		<line fill="none" stroke="#000000" stroke-width="3" stroke-miterlimit="10" x1="391.181" y1="396.851" x2="425.196" y2="396.851"/>
	<path fill="none" stroke="#000000" stroke-width="3" stroke-miterlimit="10" d="M412.44,407.811"/>
	<path fill="none" stroke="#000000" stroke-width="3" stroke-miterlimit="10" d="M425.196,394.204"/>
	<path fill="none" stroke="#000000" stroke-width="3" stroke-miterlimit="10" d="M391.181,394.204"/>
	<path fill="none" stroke="#000000" stroke-width="3" stroke-miterlimit="10" d="M403.937,407.811"/>
</g>
<g>
	<path d="M136.06,208.264c-2.297,0-4.166-1.871-4.166-4.17c0-2.299,1.869-4.169,4.166-4.169c2.301,0,4.173,1.87,4.173,4.169
		C140.232,206.394,138.36,208.264,136.06,208.264z"/>
	<path d="M136.06,201.425c1.474,0,2.673,1.197,2.673,2.669c0,1.472-1.199,2.67-2.673,2.67c-1.47,0-2.666-1.198-2.666-2.67
		C133.394,202.623,134.59,201.425,136.06,201.425 M136.06,198.425c-3.126,0-5.666,2.538-5.666,5.669c0,3.131,2.54,5.67,5.666,5.67
		c3.133,0,5.673-2.539,5.673-5.67C141.732,200.963,139.192,198.425,136.06,198.425L136.06,198.425z"/>
</g>
<g>
	<path d="M408.185,208.264c-2.297,0-4.166-1.871-4.166-4.17c0-2.299,1.869-4.169,4.166-4.169c2.301,0,4.173,1.87,4.173,4.169
		C412.357,206.394,410.485,208.264,408.185,208.264z"/>
	<path d="M408.185,201.425c1.474,0,2.673,1.197,2.673,2.669c0,1.472-1.199,2.67-2.673,2.67c-1.47,0-2.666-1.198-2.666-2.67
		C405.519,202.623,406.715,201.425,408.185,201.425 M408.185,198.425c-3.126,0-5.666,2.538-5.666,5.669
		c0,3.131,2.54,5.67,5.666,5.67c3.133,0,5.673-2.539,5.673-5.67C413.857,200.963,411.317,198.425,408.185,198.425L408.185,198.425z"
		/>
</g>
<g>
	<path d="M136.06,242.28c-2.297,0-4.166-1.871-4.166-4.17c0-2.299,1.869-4.169,4.166-4.169c2.301,0,4.173,1.87,4.173,4.169
		C140.232,240.409,138.36,242.28,136.06,242.28z"/>
	<path d="M136.06,235.441c1.474,0,2.673,1.197,2.673,2.669c0,1.472-1.199,2.67-2.673,2.67c-1.47,0-2.666-1.198-2.666-2.67
		C133.394,236.638,134.589,235.441,136.06,235.441 M136.06,232.441c-3.126,0-5.666,2.538-5.666,5.669c0,3.131,2.54,5.67,5.666,5.67
		c3.133,0,5.673-2.539,5.673-5.67C141.732,234.979,139.192,232.441,136.06,232.441L136.06,232.441z"/>
</g>
<g>
	<path d="M408.185,242.28c-2.297,0-4.166-1.871-4.166-4.17c0-2.299,1.869-4.169,4.166-4.169c2.301,0,4.173,1.87,4.173,4.169
		C412.357,240.409,410.485,242.28,408.185,242.28z"/>
	<path d="M408.185,235.441c1.474,0,2.673,1.197,2.673,2.669c0,1.472-1.199,2.67-2.673,2.67c-1.47,0-2.666-1.198-2.666-2.67
		C405.519,236.638,406.715,235.441,408.185,235.441 M408.185,232.441c-3.126,0-5.666,2.538-5.666,5.669
		c0,3.131,2.54,5.67,5.666,5.67c3.133,0,5.673-2.539,5.673-5.67C413.857,234.979,411.317,232.441,408.185,232.441L408.185,232.441z"
		/>
</g>
<line fill="none" stroke="#000000" stroke-width="3" stroke-miterlimit="10" x1="68.031" y1="238.11" x2="136.063" y2="238.11"/>
<line fill="none" stroke="#000000" stroke-width="3" stroke-miterlimit="10" x1="408.188" y1="238.11" x2="476.22" y2="238.11"/>
<path fill="none" stroke="#000000" stroke-width="3" stroke-miterlimit="10" d="M68.032,238.109c0,3.132-2.54,5.671-5.673,5.671
	c-3.127,0-5.666-2.539-5.666-5.671c0-3.13,2.539-5.668,5.666-5.668C65.492,232.441,68.032,234.979,68.032,238.109z"/>
<path fill="none" stroke="#000000" stroke-width="3" stroke-miterlimit="10" d="M487.561,238.109c0,3.132-2.541,5.671-5.674,5.671
	c-3.127,0-5.666-2.539-5.666-5.671c0-3.131,2.539-5.668,5.666-5.668C485.02,232.441,487.561,234.979,487.561,238.109z"/>
<g>
	<path d="M57.522,225.333v-6.368l-5.793-8.665h2.42l2.963,4.532c0.547,0.848,1.056,1.695,1.528,2.543
		c0.451-0.786,0.998-1.671,1.641-2.656l2.912-4.419h2.317l-5.999,8.665v6.368H57.522z"/>
	<path d="M76.769,216.495h-9.926v-1.723h9.926V216.495z M76.769,221.058h-9.926v-1.723h9.926V221.058z"/>
	<path d="M77.907,225.333l5.773-15.032h2.143l6.152,15.032h-2.266l-1.753-4.553H81.67l-1.651,4.553H77.907z M82.244,219.161h5.096
		l-1.569-4.163c-0.479-1.265-0.834-2.304-1.066-3.117c-0.191,0.964-0.461,1.921-0.81,2.871L82.244,219.161z"/>
	<path d="M91.657,212.291v-2.143h1.979v1.692c0,0.916-0.106,1.576-0.318,1.979c-0.294,0.554-0.752,0.971-1.374,1.251l-0.451-0.728
		c0.369-0.15,0.644-0.388,0.825-0.713c0.181-0.324,0.282-0.771,0.303-1.338H91.657z"/>
</g>
<g>
	<path d="M482.076,225.333v-6.368l-5.794-8.665h2.42l2.964,4.532c0.546,0.848,1.056,1.695,1.527,2.543
		c0.451-0.786,0.998-1.671,1.641-2.656l2.912-4.419h2.317l-5.999,8.665v6.368H482.076z"/>
	<path d="M491.499,212.291v-2.143h1.979v1.692c0,0.916-0.106,1.576-0.318,1.979c-0.294,0.554-0.752,0.971-1.374,1.251l-0.451-0.728
		c0.369-0.15,0.645-0.388,0.825-0.713c0.182-0.324,0.282-0.771,0.303-1.338H491.499z"/>
	<path d="M505.987,216.495h-9.926v-1.723h9.926V216.495z M505.987,221.058h-9.926v-1.723h9.926V221.058z"/>
	<path d="M507.125,225.333l5.773-15.032h2.143l6.152,15.032h-2.266l-1.754-4.553h-6.285l-1.65,4.553H507.125z M511.463,219.161
		h5.096l-1.568-4.163c-0.479-1.265-0.834-2.304-1.066-3.117c-0.191,0.964-0.461,1.921-0.811,2.871L511.463,219.161z"/>
</g>
<g>
	<polyline fill="none" stroke="#000000" stroke-width="3" stroke-miterlimit="10" points="408.188,374.172 408.188,340.157 
		442.204,340.157 442.204,272.125 408.188,272.125 408.188,238.11 	"/>
	
		<line fill="none" stroke="#000000" stroke-width="3" stroke-miterlimit="10" x1="453.543" y1="272.125" x2="453.543" y2="340.157"/>
	
		<line fill="none" stroke="#000000" stroke-width="3" stroke-miterlimit="10" x1="467.716" y1="306.141" x2="510.235" y2="306.141"/>
	<circle fill="none" stroke="#000000" stroke-width="3" stroke-miterlimit="10" cx="460.629" cy="306.141" r="7.086"/>
</g>
<g>
	<polyline fill="none" stroke="#000000" stroke-width="3" stroke-miterlimit="10" points="136.063,204.094 136.063,170.078 
		170.079,170.078 170.079,102.047 136.063,102.047 136.063,68.031 	"/>
	
		<line fill="none" stroke="#000000" stroke-width="3" stroke-miterlimit="10" x1="181.418" y1="102.047" x2="181.418" y2="170.078"/>
	<polyline fill="none" stroke="#000000" stroke-width="3" stroke-miterlimit="10" points="195.591,136.063 204.094,136.063 
		204.094,136.063 340.157,204.095 408.189,204.095 	"/>
	<circle fill="none" stroke="#000000" stroke-width="3" stroke-miterlimit="10" cx="188.504" cy="136.062" r="7.086"/>
</g>
<g>
	<polyline fill="none" stroke="#000000" stroke-width="3" stroke-miterlimit="10" points="408.189,204.094 408.189,170.078 
		374.174,170.078 374.174,102.047 408.189,102.047 408.189,68.031 	"/>
	
		<line fill="none" stroke="#000000" stroke-width="3" stroke-miterlimit="10" x1="362.835" y1="102.047" x2="362.835" y2="170.078"/>
	<polyline fill="none" stroke="#000000" stroke-width="3" stroke-miterlimit="10" points="348.662,136.063 340.158,136.063 
		340.158,136.063 204.096,204.095 136.063,204.095 	"/>
	<circle fill="none" stroke="#000000" stroke-width="3" stroke-miterlimit="10" cx="355.749" cy="136.062" r="7.086"/>
</g>
<path fill="none" stroke="#000000" stroke-width="3" stroke-miterlimit="10" d="M521.574,306.14c0,3.132-2.54,5.671-5.673,5.671
	c-3.127,0-5.666-2.539-5.666-5.671c0-3.13,2.539-5.668,5.666-5.668C519.034,300.472,521.574,303.009,521.574,306.14z"/>
<g>
	<path d="M510.204,294.804l5.773-15.032h2.143l6.152,15.032h-2.266l-1.754-4.553h-6.285l-1.651,4.553H510.204z M514.542,288.631
		h5.096l-1.568-4.163c-0.479-1.265-0.834-2.304-1.066-3.117c-0.191,0.964-0.462,1.921-0.811,2.871L514.542,288.631z"/>
	<path d="M523.955,281.761v-2.143h1.979v1.692c0,0.916-0.105,1.576-0.317,1.979c-0.294,0.554-0.752,0.971-1.374,1.251l-0.451-0.728
		c0.369-0.15,0.644-0.388,0.825-0.713c0.181-0.324,0.282-0.771,0.303-1.338H523.955z"/>
</g>
<line fill="none" stroke="#000000" stroke-width="3" stroke-miterlimit="10" x1="136.063" y1="204.094" x2="136.063" y2="238.11"/>
<line fill="none" stroke="#000000" stroke-width="3" stroke-miterlimit="10" x1="408.188" y1="204.094" x2="408.188" y2="238.11"/>
</svg>
