<?xml version="1.0" encoding="utf-8"?>
<!-- Generator: Adobe Illustrator 15.1.0, SVG Export Plug-In . SVG Version: 6.00 Build 0)  -->
<!DOCTYPE svg PUBLIC "-//W3C//DTD SVG 1.1//EN" "http://www.w3.org/Graphics/SVG/1.1/DTD/svg11.dtd">
<svg version="1.1" id="Layer_1" xmlns="http://www.w3.org/2000/svg" xmlns:xlink="http://www.w3.org/1999/xlink" x="0px" y="0px"
	 width="476.22px" height="510.235px" viewBox="0 0 476.22 510.235" enable-background="new 0 0 476.22 510.235"
	 xml:space="preserve">
<g>
	<line fill="none" stroke="#000000" stroke-width="3" stroke-miterlimit="10" x1="102.047" y1="40.838" x2="102.047" y2="68.033"/>
	<line fill="none" stroke="#000000" stroke-width="3" stroke-miterlimit="10" x1="119.055" y1="34.015" x2="85.04" y2="47.612"/>
</g>
<g>
	<line fill="none" stroke="#000000" stroke-width="3" stroke-miterlimit="10" x1="374.173" y1="40.838" x2="374.173" y2="68.033"/>
	<line fill="none" stroke="#000000" stroke-width="3" stroke-miterlimit="10" x1="391.181" y1="34.015" x2="357.165" y2="47.612"/>
</g>
<g>
	<path d="M102.044,208.264c-2.297,0-4.166-1.871-4.166-4.17c0-2.299,1.869-4.169,4.166-4.169c2.301,0,4.173,1.87,4.173,4.169
		C106.217,206.394,104.345,208.264,102.044,208.264z"/>
	<path d="M102.044,201.425c1.474,0,2.673,1.197,2.673,2.669c0,1.472-1.199,2.67-2.673,2.67c-1.47,0-2.666-1.198-2.666-2.67
		C99.378,202.623,100.574,201.425,102.044,201.425 M102.044,198.425c-3.126,0-5.666,2.538-5.666,5.669c0,3.131,2.54,5.67,5.666,5.67
		c3.133,0,5.673-2.539,5.673-5.67C107.717,200.963,105.177,198.425,102.044,198.425L102.044,198.425z"/>
</g>
<g>
	<path d="M374.169,208.264c-2.297,0-4.166-1.871-4.166-4.17c0-2.299,1.869-4.169,4.166-4.169c2.301,0,4.173,1.87,4.173,4.169
		C378.342,206.394,376.47,208.264,374.169,208.264z"/>
	<path d="M374.169,201.425c1.474,0,2.673,1.197,2.673,2.669c0,1.472-1.199,2.67-2.673,2.67c-1.47,0-2.666-1.198-2.666-2.67
		C371.503,202.623,372.699,201.425,374.169,201.425 M374.169,198.425c-3.126,0-5.666,2.538-5.666,5.669
		c0,3.131,2.54,5.67,5.666,5.67c3.133,0,5.673-2.539,5.673-5.67C379.842,200.963,377.302,198.425,374.169,198.425L374.169,198.425z"
		/>
</g>
<g>
	<path d="M102.044,242.28c-2.297,0-4.166-1.871-4.166-4.17c0-2.299,1.869-4.169,4.166-4.169c2.301,0,4.173,1.87,4.173,4.169
		C106.217,240.409,104.345,242.28,102.044,242.28z"/>
	<path d="M102.044,235.441c1.474,0,2.673,1.197,2.673,2.669c0,1.472-1.199,2.67-2.673,2.67c-1.47,0-2.666-1.198-2.666-2.67
		C99.378,236.638,100.574,235.441,102.044,235.441 M102.044,232.441c-3.126,0-5.666,2.538-5.666,5.669c0,3.131,2.54,5.67,5.666,5.67
		c3.133,0,5.673-2.539,5.673-5.67C107.717,234.979,105.177,232.441,102.044,232.441L102.044,232.441z"/>
</g>
<g>
	<path d="M374.169,242.28c-2.297,0-4.166-1.871-4.166-4.17c0-2.299,1.869-4.169,4.166-4.169c2.301,0,4.173,1.87,4.173,4.169
		C378.342,240.409,376.47,242.28,374.169,242.28z"/>
	<path d="M374.169,235.441c1.474,0,2.673,1.197,2.673,2.669c0,1.472-1.199,2.67-2.673,2.67c-1.47,0-2.666-1.198-2.666-2.67
		C371.503,236.638,372.699,235.441,374.169,235.441 M374.169,232.441c-3.126,0-5.666,2.538-5.666,5.669
		c0,3.131,2.54,5.67,5.666,5.67c3.133,0,5.673-2.539,5.673-5.67C379.842,234.979,377.302,232.441,374.169,232.441L374.169,232.441z"
		/>
</g>
<line fill="none" stroke="#000000" stroke-width="3" stroke-miterlimit="10" x1="34.016" y1="238.11" x2="102.047" y2="238.11"/>
<line fill="none" stroke="#000000" stroke-width="3" stroke-miterlimit="10" x1="374.173" y1="238.11" x2="442.204" y2="238.11"/>
<path fill="none" stroke="#000000" stroke-width="3" stroke-miterlimit="10" d="M34.017,238.109c0,3.132-2.54,5.671-5.673,5.671
	c-3.127,0-5.666-2.539-5.666-5.671c0-3.13,2.539-5.668,5.666-5.668C31.477,232.441,34.017,234.979,34.017,238.109z"/>
<path fill="none" stroke="#000000" stroke-width="3" stroke-miterlimit="10" d="M453.545,238.109c0,3.132-2.541,5.671-5.674,5.671
	c-3.127,0-5.666-2.539-5.666-5.671c0-3.131,2.539-5.668,5.666-5.668C451.004,232.441,453.545,234.979,453.545,238.109z"/>
<g>
	<path d="M27.23,228.766v-6.368l-5.793-8.665h2.42l2.963,4.532c0.547,0.848,1.056,1.695,1.528,2.543
		c0.451-0.786,0.998-1.671,1.641-2.656l2.912-4.419h2.317l-5.999,8.665v6.368H27.23z"/>
</g>
<g>
	<path d="M446.748,228.766v-6.368l-5.793-8.665h2.42l2.963,4.532c0.547,0.848,1.057,1.695,1.527,2.543
		c0.451-0.786,0.998-1.671,1.641-2.656l2.912-4.419h2.318l-6,8.665v6.368H446.748z"/>
	<path d="M456.172,215.723v-2.143h1.979v1.692c0,0.916-0.105,1.576-0.318,1.979c-0.293,0.554-0.752,0.971-1.373,1.251l-0.451-0.728
		c0.369-0.15,0.645-0.388,0.824-0.713c0.182-0.324,0.283-0.771,0.303-1.338H456.172z"/>
</g>
<g>
	<polyline fill="none" stroke="#000000" stroke-width="3" stroke-miterlimit="10" points="102.048,204.094 102.048,170.078 
		136.063,170.078 136.063,102.047 102.048,102.047 102.048,68.031 	"/>
	
		<line fill="none" stroke="#000000" stroke-width="3" stroke-miterlimit="10" x1="147.402" y1="102.047" x2="147.402" y2="170.078"/>
	<polyline fill="none" stroke="#000000" stroke-width="3" stroke-miterlimit="10" points="161.575,136.063 170.079,136.063 
		170.079,136.063 306.142,204.095 374.174,204.095 	"/>
	<circle fill="none" stroke="#000000" stroke-width="3" stroke-miterlimit="10" cx="154.489" cy="136.062" r="7.086"/>
</g>
<g>
	<polyline fill="none" stroke="#000000" stroke-width="3" stroke-miterlimit="10" points="374.174,204.094 374.174,170.078 
		340.158,170.078 340.158,102.047 374.174,102.047 374.174,68.031 	"/>
	
		<line fill="none" stroke="#000000" stroke-width="3" stroke-miterlimit="10" x1="328.819" y1="102.047" x2="328.819" y2="170.078"/>
	<polyline fill="none" stroke="#000000" stroke-width="3" stroke-miterlimit="10" points="314.646,136.063 306.143,136.063 
		306.143,136.063 170.08,204.095 102.048,204.095 	"/>
	<circle fill="none" stroke="#000000" stroke-width="3" stroke-miterlimit="10" cx="321.733" cy="136.062" r="7.086"/>
</g>
<line fill="none" stroke="#000000" stroke-width="3" stroke-miterlimit="10" x1="102.047" y1="204.094" x2="102.047" y2="238.11"/>
<line fill="none" stroke="#000000" stroke-width="3" stroke-miterlimit="10" x1="374.173" y1="204.094" x2="374.173" y2="238.11"/>
<rect x="323.149" y="272.125" fill="none" stroke="#000000" stroke-width="3" stroke-miterlimit="10" width="102.047" height="136.063"/>
<rect x="51.024" y="272.125" fill="none" stroke="#000000" stroke-width="3" stroke-miterlimit="10" width="102.047" height="136.063"/>
<line fill="none" stroke="#000000" stroke-width="3" stroke-miterlimit="10" x1="102.047" y1="238.109" x2="102.047" y2="272.125"/>
<line fill="none" stroke="#000000" stroke-width="3" stroke-miterlimit="10" x1="374.172" y1="238.109" x2="374.172" y2="272.125"/>
<line fill="none" stroke="#000000" stroke-width="3" stroke-miterlimit="10" x1="102.047" y1="408.188" x2="102.047" y2="442.204"/>
<line fill="none" stroke="#000000" stroke-width="3" stroke-miterlimit="10" x1="374.172" y1="408.188" x2="374.172" y2="442.204"/>
<g>
	<line fill="none" stroke="#000000" stroke-width="3" stroke-miterlimit="10" x1="106.298" y1="476.22" x2="97.794" y2="476.22"/>
	<line fill="none" stroke="#000000" stroke-width="3" stroke-miterlimit="10" x1="112.676" y1="470.55" x2="91.417" y2="470.55"/>
	
		<line fill="none" stroke="#000000" stroke-width="3" stroke-miterlimit="10" x1="102.046" y1="442.205" x2="102.046" y2="464.881"/>
	<line fill="none" stroke="#000000" stroke-width="3" stroke-miterlimit="10" x1="85.039" y1="464.881" x2="119.054" y2="464.881"/>
	<path fill="none" stroke="#000000" stroke-width="3" stroke-miterlimit="10" d="M106.298,475.841"/>
	<path fill="none" stroke="#000000" stroke-width="3" stroke-miterlimit="10" d="M119.054,462.234"/>
	<path fill="none" stroke="#000000" stroke-width="3" stroke-miterlimit="10" d="M85.039,462.234"/>
	<path fill="none" stroke="#000000" stroke-width="3" stroke-miterlimit="10" d="M97.794,475.841"/>
</g>
<g>
	<line fill="none" stroke="#000000" stroke-width="3" stroke-miterlimit="10" x1="378.424" y1="476.22" x2="369.92" y2="476.22"/>
	<line fill="none" stroke="#000000" stroke-width="3" stroke-miterlimit="10" x1="384.802" y1="470.55" x2="363.542" y2="470.55"/>
	
		<line fill="none" stroke="#000000" stroke-width="3" stroke-miterlimit="10" x1="374.172" y1="442.205" x2="374.172" y2="464.881"/>
	<line fill="none" stroke="#000000" stroke-width="3" stroke-miterlimit="10" x1="357.164" y1="464.881" x2="391.18" y2="464.881"/>
	<path fill="none" stroke="#000000" stroke-width="3" stroke-miterlimit="10" d="M378.424,475.841"/>
	<path fill="none" stroke="#000000" stroke-width="3" stroke-miterlimit="10" d="M391.18,462.234"/>
	<path fill="none" stroke="#000000" stroke-width="3" stroke-miterlimit="10" d="M357.164,462.234"/>
	<path fill="none" stroke="#000000" stroke-width="3" stroke-miterlimit="10" d="M369.92,475.841"/>
</g>
<g>
	<path d="M101.205,342.72v-8.755h-1.407v-1.407h1.407v-0.483c0-1.428,0.336-2.729,1.176-3.548c0.693-0.672,1.617-0.945,2.478-0.945
		c0.672,0,1.218,0.147,1.575,0.294l-0.252,1.428c-0.273-0.126-0.63-0.231-1.176-0.231c-1.575,0-1.974,1.365-1.974,2.939v0.546h2.457
		v1.407h-2.457v8.755H101.205z"/>
</g>
<g>
	<path d="M373.331,342.72v-8.755h-1.407v-1.407h1.407v-0.483c0-1.428,0.336-2.729,1.176-3.548c0.692-0.672,1.616-0.945,2.478-0.945
		c0.672,0,1.218,0.147,1.574,0.294l-0.252,1.428c-0.272-0.126-0.629-0.231-1.176-0.231c-1.574,0-1.973,1.365-1.973,2.939v0.546
		h2.456v1.407h-2.456v8.755H373.331z"/>
	<path d="M382.969,328.191c-0.482,1.764-1.385,4.031-1.952,4.997l-1.176,0.126c0.44-1.239,1.008-3.401,1.239-4.913L382.969,328.191z
		"/>
</g>
</svg>
