<?xml version="1.0" encoding="utf-8"?>
<!-- Generator: Adobe Illustrator 15.1.0, SVG Export Plug-In . SVG Version: 6.00 Build 0)  -->
<!DOCTYPE svg PUBLIC "-//W3C//DTD SVG 1.1//EN" "http://www.w3.org/Graphics/SVG/1.1/DTD/svg11.dtd">
<svg version="1.1" id="Layer_1" xmlns="http://www.w3.org/2000/svg" xmlns:xlink="http://www.w3.org/1999/xlink" x="0px" y="0px"
	 width="680.314px" height="612.283px" viewBox="0 0 680.314 612.283" enable-background="new 0 0 680.314 612.283"
	 xml:space="preserve">
<g>
	
		<line fill="none" stroke="#000000" stroke-width="3" stroke-miterlimit="10" x1="215.433" y1="102.048" x2="215.433" y2="170.079"/>
	<circle fill="none" stroke="#000000" stroke-width="3" stroke-miterlimit="10" cx="222.52" cy="136.063" r="7.086"/>
	<polyline fill="none" stroke="#000000" stroke-width="3" stroke-miterlimit="10" points="476.221,204.095 408.188,204.095 
		272.125,136.064 229.606,136.064 	"/>
	<polyline fill="none" stroke="#000000" stroke-width="3" stroke-miterlimit="10" points="204.094,204.095 170.079,204.095 
		170.079,170.079 204.094,170.079 204.094,102.048 170.079,102.048 170.079,68.033 	"/>
</g>
<g>
	
		<line fill="none" stroke="#000000" stroke-width="3" stroke-miterlimit="10" x1="464.881" y1="102.048" x2="464.881" y2="170.079"/>
	<circle fill="none" stroke="#000000" stroke-width="3" stroke-miterlimit="10" cx="457.795" cy="136.063" r="7.086"/>
	<polyline fill="none" stroke="#000000" stroke-width="3" stroke-miterlimit="10" points="204.094,204.095 272.126,204.095 
		408.189,136.064 450.709,136.064 	"/>
	<polyline fill="none" stroke="#000000" stroke-width="3" stroke-miterlimit="10" points="476.22,204.095 510.236,204.095 
		510.236,170.079 476.221,170.079 476.221,102.048 510.236,102.048 510.236,68.033 	"/>
</g>
<g>
	<line fill="none" stroke="#000000" stroke-width="3" stroke-miterlimit="10" x1="170.079" y1="40.838" x2="170.079" y2="68.033"/>
	<line fill="none" stroke="#000000" stroke-width="3" stroke-miterlimit="10" x1="187.086" y1="34.015" x2="153.071" y2="47.612"/>
</g>
<g>
	<line fill="none" stroke="#000000" stroke-width="3" stroke-miterlimit="10" x1="510.235" y1="40.838" x2="510.235" y2="68.033"/>
	<line fill="none" stroke="#000000" stroke-width="3" stroke-miterlimit="10" x1="527.243" y1="34.015" x2="493.228" y2="47.612"/>
</g>
<g>
	
		<line fill="none" stroke="#000000" stroke-width="3" stroke-miterlimit="10" x1="430.867" y1="306.142" x2="430.867" y2="374.173"/>
	
		<line fill="none" stroke="#000000" stroke-width="3" stroke-miterlimit="10" x1="430.867" y1="340.158" x2="374.174" y2="340.158"/>
	
		<line fill="none" stroke="#000000" stroke-width="3" stroke-miterlimit="10" x1="589.605" y1="306.142" x2="589.605" y2="374.173"/>
	
		<line fill="none" stroke="#000000" stroke-width="3" stroke-miterlimit="10" x1="589.605" y1="340.158" x2="646.299" y2="340.158"/>
	<polyline fill="none" stroke="#000000" stroke-width="3" stroke-miterlimit="10" points="476.221,408.189 476.221,374.173 
		442.205,374.173 442.205,306.142 476.221,306.142 476.221,272.126 544.252,272.126 544.252,306.142 578.268,306.142 
		578.268,374.173 544.252,374.173 544.252,408.189 	"/>
</g>
<path fill="none" stroke="#000000" stroke-width="3" stroke-miterlimit="10" d="M374.174,340.156c0,3.132-2.541,5.671-5.674,5.671
	c-3.126,0-5.665-2.539-5.665-5.671c0-3.13,2.539-5.668,5.665-5.668C371.633,334.488,374.174,337.026,374.174,340.156z"/>
<path fill="none" stroke="#000000" stroke-width="3" stroke-miterlimit="10" d="M657.639,340.156c0,3.132-2.541,5.671-5.674,5.671
	c-3.127,0-5.666-2.539-5.666-5.671c0-3.131,2.539-5.668,5.666-5.668C655.098,334.488,657.639,337.025,657.639,340.156z"/>
<g>
	<path d="M362.805,328.819l5.773-15.032h2.143l6.152,15.032h-2.266l-1.754-4.553h-6.285l-1.65,4.553H362.805z M367.143,322.646
		h5.096l-1.568-4.163c-0.479-1.265-0.834-2.304-1.066-3.117c-0.191,0.964-0.461,1.921-0.811,2.871L367.143,322.646z"/>
</g>
<g>
	<path d="M646.27,328.818l5.772-15.032h2.144l6.152,15.032h-2.267l-1.753-4.553h-6.286l-1.651,4.553H646.27z M650.606,322.646h5.097
		l-1.569-4.163c-0.479-1.265-0.834-2.304-1.066-3.117c-0.191,0.964-0.462,1.921-0.81,2.871L650.606,322.646z"/>
	<path d="M660.02,315.775v-2.143h1.979v1.692c0,0.916-0.105,1.576-0.317,1.979c-0.294,0.554-0.752,0.971-1.374,1.251l-0.451-0.728
		c0.369-0.15,0.645-0.388,0.825-0.712s0.282-0.771,0.303-1.338H660.02z"/>
</g>
<line fill="none" stroke="#000000" stroke-width="3" stroke-miterlimit="10" x1="510.235" y1="204.095" x2="510.235" y2="272.126"/>
<g>
	
		<line fill="none" stroke="#000000" stroke-width="3" stroke-miterlimit="10" x1="514.487" y1="578.268" x2="505.983" y2="578.268"/>
	
		<line fill="none" stroke="#000000" stroke-width="3" stroke-miterlimit="10" x1="520.865" y1="572.598" x2="499.605" y2="572.598"/>
	
		<line fill="none" stroke="#000000" stroke-width="3" stroke-miterlimit="10" x1="510.235" y1="544.253" x2="510.235" y2="566.929"/>
	
		<line fill="none" stroke="#000000" stroke-width="3" stroke-miterlimit="10" x1="493.228" y1="566.929" x2="527.243" y2="566.929"/>
	<path fill="none" stroke="#000000" stroke-width="3" stroke-miterlimit="10" d="M514.487,577.889"/>
	<path fill="none" stroke="#000000" stroke-width="3" stroke-miterlimit="10" d="M527.243,564.282"/>
	<path fill="none" stroke="#000000" stroke-width="3" stroke-miterlimit="10" d="M493.228,564.282"/>
	<path fill="none" stroke="#000000" stroke-width="3" stroke-miterlimit="10" d="M505.983,577.889"/>
</g>
<g>
	<path d="M170.075,208.264c-2.297,0-4.166-1.871-4.166-4.17c0-2.299,1.869-4.169,4.166-4.169c2.301,0,4.173,1.87,4.173,4.169
		C174.248,206.394,172.376,208.264,170.075,208.264z"/>
	<path d="M170.075,201.425c1.474,0,2.673,1.197,2.673,2.669c0,1.472-1.199,2.67-2.673,2.67c-1.47,0-2.666-1.198-2.666-2.67
		C167.409,202.623,168.605,201.425,170.075,201.425 M170.075,198.425c-3.126,0-5.666,2.538-5.666,5.669
		c0,3.131,2.54,5.67,5.666,5.67c3.133,0,5.673-2.539,5.673-5.67C175.748,200.963,173.208,198.425,170.075,198.425L170.075,198.425z"
		/>
</g>
<g>
	<path d="M510.231,208.264c-2.297,0-4.166-1.871-4.166-4.17c0-2.299,1.869-4.169,4.166-4.169c2.301,0,4.173,1.87,4.173,4.169
		C514.404,206.394,512.532,208.264,510.231,208.264z"/>
	<path d="M510.231,201.425c1.474,0,2.673,1.197,2.673,2.669c0,1.472-1.199,2.67-2.673,2.67c-1.47,0-2.666-1.198-2.666-2.67
		C507.565,202.623,508.762,201.425,510.231,201.425 M510.231,198.425c-3.126,0-5.666,2.538-5.666,5.669
		c0,3.131,2.54,5.67,5.666,5.67c3.133,0,5.673-2.539,5.673-5.67C515.904,200.963,513.364,198.425,510.231,198.425L510.231,198.425z"
		/>
</g>
<g>
	<path d="M510.231,276.295c-2.297,0-4.166-1.871-4.166-4.17c0-2.299,1.869-4.169,4.166-4.169c2.301,0,4.173,1.87,4.173,4.169
		C514.404,274.425,512.532,276.295,510.231,276.295z"/>
	<path d="M510.231,269.457c1.474,0,2.673,1.197,2.673,2.669c0,1.472-1.199,2.67-2.673,2.67c-1.47,0-2.666-1.198-2.666-2.67
		C507.565,270.654,508.762,269.457,510.231,269.457 M510.231,266.457c-3.126,0-5.666,2.538-5.666,5.669
		c0,3.131,2.54,5.67,5.666,5.67c3.133,0,5.673-2.539,5.673-5.67C515.904,268.994,513.364,266.457,510.231,266.457L510.231,266.457z"
		/>
</g>
<g>
	<path d="M170.075,242.28c-2.297,0-4.166-1.871-4.166-4.17c0-2.299,1.869-4.169,4.166-4.169c2.301,0,4.173,1.87,4.173,4.169
		C174.248,240.409,172.376,242.28,170.075,242.28z"/>
	<path d="M170.075,235.441c1.474,0,2.673,1.197,2.673,2.669c0,1.472-1.199,2.67-2.673,2.67c-1.47,0-2.666-1.198-2.666-2.67
		C167.409,236.638,168.605,235.441,170.075,235.441 M170.075,232.441c-3.126,0-5.666,2.538-5.666,5.669
		c0,3.131,2.54,5.67,5.666,5.67c3.133,0,5.673-2.539,5.673-5.67C175.748,234.979,173.208,232.441,170.075,232.441L170.075,232.441z"
		/>
</g>
<g>
	<path d="M510.231,242.28c-2.297,0-4.166-1.871-4.166-4.17c0-2.299,1.869-4.169,4.166-4.169c2.301,0,4.173,1.87,4.173,4.169
		C514.404,240.409,512.532,242.28,510.231,242.28z"/>
	<path d="M510.231,235.441c1.474,0,2.673,1.197,2.673,2.669c0,1.472-1.199,2.67-2.673,2.67c-1.47,0-2.666-1.198-2.666-2.67
		C507.565,236.638,508.762,235.441,510.231,235.441 M510.231,232.441c-3.126,0-5.666,2.538-5.666,5.669
		c0,3.131,2.54,5.67,5.666,5.67c3.133,0,5.673-2.539,5.673-5.67C515.904,234.979,513.364,232.441,510.231,232.441L510.231,232.441z"
		/>
</g>
<line fill="none" stroke="#000000" stroke-width="3" stroke-miterlimit="10" x1="102.047" y1="238.11" x2="170.079" y2="238.11"/>
<line fill="none" stroke="#000000" stroke-width="3" stroke-miterlimit="10" x1="510.235" y1="238.11" x2="578.267" y2="238.11"/>
<path fill="none" stroke="#000000" stroke-width="3" stroke-miterlimit="10" d="M102.048,238.109c0,3.132-2.54,5.671-5.673,5.671
	c-3.127,0-5.666-2.539-5.666-5.671c0-3.13,2.539-5.668,5.666-5.668C99.508,232.441,102.048,234.979,102.048,238.109z"/>
<path fill="none" stroke="#000000" stroke-width="3" stroke-miterlimit="10" d="M589.607,238.109c0,3.132-2.541,5.671-5.674,5.671
	c-3.127,0-5.666-2.539-5.666-5.671c0-3.131,2.539-5.668,5.666-5.668C587.066,232.441,589.607,234.979,589.607,238.109z"/>
<g>
	<path d="M550.105,225.333v-6.368l-5.793-8.665h2.42l2.963,4.532c0.547,0.848,1.057,1.695,1.528,2.543
		c0.451-0.786,0.998-1.671,1.641-2.656l2.912-4.419h2.317l-5.998,8.665v6.368H550.105z"/>
	<path d="M569.353,216.495h-9.926v-1.723h9.926V216.495z M569.353,221.058h-9.926v-1.723h9.926V221.058z"/>
	<path d="M570.49,225.333l5.773-15.032h2.143l6.152,15.032h-2.266l-1.754-4.553h-6.285l-1.65,4.553H570.49z M574.828,219.161h5.096
		l-1.568-4.163c-0.479-1.265-0.834-2.304-1.066-3.117c-0.191,0.964-0.461,1.921-0.811,2.871L574.828,219.161z"/>
	<path d="M599.643,210.517c1.62,0,3.107,0.371,4.461,1.113s2.414,1.788,3.184,3.138c0.769,1.35,1.153,2.873,1.153,4.568
		c0,1.661-0.374,3.164-1.123,4.506c-0.748,1.344-1.802,2.398-3.158,3.164s-2.862,1.148-4.517,1.148
		c-1.634,0-3.129-0.378-4.486-1.133s-2.411-1.81-3.163-3.163s-1.128-2.861-1.128-4.522c0-1.675,0.385-3.189,1.153-4.542
		c0.77-1.354,1.827-2.404,3.174-3.153C596.539,210.891,598.022,210.517,599.643,210.517z M595.951,212.772
		c-1.128,0.622-2.014,1.511-2.656,2.666c-0.547,0.991-0.857,2.082-0.933,3.271h6.593v-6.85
		C597.889,211.949,596.888,212.253,595.951,212.772z M593.285,223.18c0.629,1.148,1.511,2.044,2.646,2.687
		c0.943,0.54,1.952,0.854,3.024,0.943v-6.87h-6.593C592.438,221.116,592.745,222.196,593.285,223.18z M606.01,215.428
		c-0.635-1.155-1.518-2.044-2.645-2.666c-0.943-0.52-1.977-0.82-3.098-0.902v6.85h6.676
		C606.861,217.506,606.551,216.413,606.01,215.428z M600.268,219.94v6.88c1.143-0.089,2.188-0.407,3.139-0.954
		c1.127-0.643,2.002-1.542,2.625-2.697c0.525-0.991,0.83-2.068,0.912-3.23H600.268z"/>
	<path d="M617.475,225.333v-15.032h5.639c1.148,0,2.07,0.152,2.764,0.456c0.693,0.305,1.237,0.773,1.631,1.405
		c0.393,0.632,0.59,1.293,0.59,1.984c0,0.643-0.175,1.248-0.523,1.815s-0.875,1.025-1.579,1.374
		c0.909,0.267,1.608,0.721,2.097,1.364s0.733,1.401,0.733,2.276c0,0.704-0.148,1.359-0.446,1.963
		c-0.297,0.605-0.664,1.072-1.102,1.4s-0.986,0.576-1.646,0.744s-1.468,0.251-2.425,0.251H617.475z M619.463,216.618h3.251
		c0.882,0,1.515-0.058,1.897-0.174c0.506-0.15,0.887-0.4,1.143-0.749c0.257-0.349,0.385-0.786,0.385-1.313
		c0-0.499-0.119-0.938-0.359-1.317c-0.238-0.38-0.58-0.639-1.025-0.779c-0.443-0.14-1.206-0.21-2.286-0.21h-3.005V216.618z
		 M619.463,223.56h3.743c0.643,0,1.094-0.024,1.354-0.072c0.458-0.082,0.841-0.219,1.148-0.41s0.561-0.47,0.759-0.836
		c0.198-0.365,0.297-0.788,0.297-1.266c0-0.561-0.143-1.047-0.43-1.461c-0.287-0.413-0.686-0.704-1.195-0.871
		s-1.242-0.251-2.199-0.251h-3.477V223.56z"/>
</g>
<g>
	<path d="M39.873,225.333v-6.368l-5.794-8.665h2.42l2.964,4.532c0.546,0.848,1.056,1.695,1.527,2.543
		c0.451-0.786,0.998-1.671,1.641-2.656l2.912-4.419h2.317l-5.999,8.665v6.368H39.873z"/>
	<path d="M49.296,212.291v-2.143h1.979v1.692c0,0.916-0.106,1.576-0.318,1.979c-0.294,0.554-0.752,0.971-1.374,1.251l-0.451-0.728
		c0.369-0.15,0.645-0.388,0.825-0.713c0.182-0.324,0.282-0.771,0.303-1.338H49.296z"/>
	<path d="M63.784,216.495h-9.926v-1.723h9.926V216.495z M63.784,221.058h-9.926v-1.723h9.926V221.058z"/>
	<path d="M64.922,225.333l5.773-15.032h2.143l6.152,15.032h-2.266l-1.754-4.553h-6.285l-1.65,4.553H64.922z M69.26,219.161h5.096
		l-1.568-4.163c-0.479-1.265-0.834-2.304-1.066-3.117c-0.191,0.964-0.461,1.921-0.811,2.871L69.26,219.161z"/>
	<path d="M80.498,225.333v-15.032h5.64c1.148,0,2.069,0.152,2.764,0.456c0.693,0.305,1.237,0.773,1.63,1.405
		c0.394,0.632,0.59,1.293,0.59,1.984c0,0.643-0.174,1.248-0.523,1.815c-0.348,0.567-0.875,1.025-1.578,1.374
		c0.908,0.267,1.607,0.721,2.097,1.364c0.488,0.643,0.733,1.401,0.733,2.276c0,0.704-0.149,1.359-0.446,1.963
		c-0.298,0.605-0.665,1.072-1.103,1.4s-0.986,0.576-1.646,0.744c-0.66,0.167-1.469,0.251-2.425,0.251H80.498z M82.487,216.618h3.251
		c0.881,0,1.514-0.058,1.896-0.174c0.506-0.15,0.887-0.4,1.144-0.749c0.256-0.349,0.384-0.786,0.384-1.313
		c0-0.499-0.119-0.938-0.358-1.317c-0.239-0.38-0.581-0.639-1.025-0.779s-1.207-0.21-2.286-0.21h-3.005V216.618z M82.487,223.56
		h3.743c0.642,0,1.093-0.024,1.354-0.072c0.457-0.082,0.84-0.219,1.148-0.41c0.307-0.191,0.56-0.47,0.758-0.836
		c0.198-0.365,0.298-0.788,0.298-1.266c0-0.561-0.144-1.047-0.431-1.461c-0.287-0.413-0.686-0.704-1.194-0.871
		c-0.51-0.167-1.243-0.251-2.2-0.251h-3.476V223.56z"/>
	<path d="M104.061,222.903v-4.122H99.97v-1.723h4.091v-4.091h1.744v4.091h4.091v1.723h-4.091v4.122H104.061z"/>
	<path d="M115.709,225.333l5.773-15.032h2.143l6.152,15.032h-2.266l-1.754-4.553h-6.285l-1.65,4.553H115.709z M120.047,219.161
		h5.096l-1.568-4.163c-0.479-1.265-0.834-2.304-1.066-3.117c-0.191,0.964-0.461,1.921-0.811,2.871L120.047,219.161z"/>
	<path d="M129.459,212.291v-2.143h1.979v1.692c0,0.916-0.105,1.576-0.317,1.979c-0.294,0.554-0.752,0.971-1.374,1.251l-0.451-0.728
		c0.369-0.15,0.645-0.388,0.825-0.713c0.182-0.324,0.282-0.771,0.303-1.338H129.459z"/>
	<path d="M134.392,225.333v-15.032h5.64c1.148,0,2.069,0.152,2.764,0.456c0.693,0.305,1.237,0.773,1.63,1.405
		c0.394,0.632,0.59,1.293,0.59,1.984c0,0.643-0.175,1.248-0.522,1.815c-0.35,0.567-0.876,1.025-1.58,1.374
		c0.909,0.267,1.608,0.721,2.098,1.364c0.488,0.643,0.732,1.401,0.732,2.276c0,0.704-0.148,1.359-0.445,1.963
		c-0.298,0.605-0.665,1.072-1.103,1.4s-0.986,0.576-1.646,0.744c-0.66,0.167-1.469,0.251-2.426,0.251H134.392z M136.381,216.618
		h3.25c0.883,0,1.515-0.058,1.897-0.174c0.506-0.15,0.887-0.4,1.144-0.749c0.256-0.349,0.385-0.786,0.385-1.313
		c0-0.499-0.12-0.938-0.359-1.317c-0.239-0.38-0.581-0.639-1.025-0.779s-1.207-0.21-2.287-0.21h-3.004V216.618z M136.381,223.56
		h3.742c0.643,0,1.094-0.024,1.354-0.072c0.458-0.082,0.842-0.219,1.148-0.41c0.309-0.191,0.561-0.47,0.76-0.836
		c0.197-0.365,0.297-0.788,0.297-1.266c0-0.561-0.144-1.047-0.431-1.461c-0.287-0.413-0.686-0.704-1.194-0.871
		c-0.51-0.167-1.243-0.251-2.199-0.251h-3.477V223.56z"/>
	<path d="M148.131,212.291v-2.143h1.979v1.692c0,0.916-0.105,1.576-0.317,1.979c-0.294,0.554-0.752,0.971-1.374,1.251l-0.451-0.728
		c0.369-0.15,0.645-0.388,0.825-0.713c0.182-0.324,0.282-0.771,0.303-1.338H148.131z"/>
</g>
<g>
	
		<line fill="none" stroke="#000000" stroke-width="3" stroke-miterlimit="10" x1="430.867" y1="442.204" x2="430.867" y2="510.236"/>
	
		<line fill="none" stroke="#000000" stroke-width="3" stroke-miterlimit="10" x1="430.867" y1="476.221" x2="374.174" y2="476.221"/>
	
		<line fill="none" stroke="#000000" stroke-width="3" stroke-miterlimit="10" x1="589.605" y1="442.204" x2="589.605" y2="510.236"/>
	
		<line fill="none" stroke="#000000" stroke-width="3" stroke-miterlimit="10" x1="589.605" y1="476.221" x2="646.299" y2="476.221"/>
	<polyline fill="none" stroke="#000000" stroke-width="3" stroke-miterlimit="10" points="544.252,408.188 544.252,442.204 
		578.268,442.204 578.268,510.236 544.252,510.236 544.252,544.252 476.221,544.252 476.221,510.236 442.205,510.236 
		442.205,442.204 476.221,442.204 476.221,408.188 	"/>
</g>
<path fill="none" stroke="#000000" stroke-width="3" stroke-miterlimit="10" d="M374.174,476.219c0,3.132-2.541,5.671-5.674,5.671
	c-3.126,0-5.665-2.539-5.665-5.671c0-3.13,2.539-5.668,5.665-5.668C371.633,470.551,374.174,473.089,374.174,476.219z"/>
<path fill="none" stroke="#000000" stroke-width="3" stroke-miterlimit="10" d="M657.639,476.219c0,3.132-2.541,5.671-5.674,5.671
	c-3.127,0-5.666-2.539-5.666-5.671c0-3.131,2.539-5.668,5.666-5.668C655.098,470.551,657.639,473.088,657.639,476.219z"/>
<g>
	<path d="M364.374,464.883V449.85h5.64c1.148,0,2.069,0.152,2.764,0.457c0.693,0.305,1.236,0.772,1.63,1.404
		c0.394,0.633,0.59,1.294,0.59,1.984c0,0.643-0.175,1.248-0.522,1.814c-0.35,0.568-0.875,1.025-1.58,1.375
		c0.91,0.266,1.608,0.721,2.098,1.363c0.488,0.643,0.732,1.401,0.732,2.276c0,0.704-0.148,1.358-0.445,1.964
		c-0.298,0.605-0.665,1.071-1.103,1.399s-0.986,0.576-1.646,0.743c-0.66,0.168-1.469,0.252-2.426,0.252H364.374z M366.363,456.166
		h3.25c0.883,0,1.515-0.058,1.897-0.174c0.506-0.15,0.887-0.4,1.144-0.748c0.256-0.35,0.385-0.787,0.385-1.313
		c0-0.5-0.12-0.939-0.359-1.318s-0.581-0.639-1.025-0.779c-0.444-0.14-1.207-0.21-2.287-0.21h-3.004V456.166z M366.363,463.108
		h3.742c0.643,0,1.094-0.024,1.354-0.071c0.459-0.082,0.842-0.219,1.148-0.41c0.309-0.191,0.561-0.471,0.76-0.836
		c0.197-0.365,0.297-0.788,0.297-1.267c0-0.561-0.144-1.048-0.431-1.462c-0.287-0.412-0.686-0.703-1.194-0.871
		c-0.51-0.167-1.242-0.251-2.199-0.251h-3.477V463.108z"/>
</g>
<g>
	<path d="M647.838,464.881V449.85h5.64c1.148,0,2.069,0.152,2.764,0.456c0.693,0.304,1.237,0.772,1.63,1.404
		c0.393,0.633,0.59,1.294,0.59,1.984c0,0.643-0.174,1.247-0.523,1.815c-0.348,0.566-0.875,1.025-1.578,1.373
		c0.908,0.268,1.607,0.722,2.097,1.364c0.488,0.643,0.733,1.401,0.733,2.276c0,0.704-0.149,1.358-0.446,1.964
		c-0.298,0.604-0.665,1.071-1.103,1.399s-0.986,0.576-1.646,0.743c-0.66,0.168-1.468,0.251-2.425,0.251H647.838z M649.827,456.166
		h3.251c0.881,0,1.514-0.059,1.896-0.175c0.506-0.15,0.887-0.399,1.144-0.749c0.256-0.348,0.384-0.785,0.384-1.313
		c0-0.498-0.119-0.938-0.358-1.317c-0.239-0.379-0.581-0.639-1.025-0.779c-0.444-0.14-1.206-0.21-2.286-0.21h-3.005V456.166z
		 M649.827,463.107h3.743c0.643,0,1.094-0.023,1.354-0.072c0.457-0.082,0.84-0.219,1.148-0.41c0.307-0.191,0.561-0.469,0.758-0.835
		c0.199-0.366,0.298-0.788,0.298-1.267c0-0.561-0.144-1.047-0.431-1.461s-0.686-0.704-1.194-0.872
		c-0.51-0.167-1.243-0.251-2.2-0.251h-3.476V463.107z"/>
	<path d="M661.578,451.838v-2.143h1.979v1.691c0,0.916-0.105,1.576-0.317,1.979c-0.294,0.554-0.752,0.971-1.374,1.251l-0.451-0.729
		c0.369-0.15,0.645-0.387,0.825-0.712s0.282-0.771,0.303-1.339H661.578z"/>
</g>
<g>
	<path d="M510.231,548.421c-2.297,0-4.166-1.87-4.166-4.17c0-2.299,1.869-4.169,4.166-4.169c2.301,0,4.173,1.87,4.173,4.169
		C514.404,546.551,512.532,548.421,510.231,548.421z"/>
	<path d="M510.231,541.582c1.474,0,2.673,1.197,2.673,2.669c0,1.473-1.199,2.67-2.673,2.67c-1.47,0-2.666-1.197-2.666-2.67
		C507.565,542.779,508.762,541.582,510.231,541.582 M510.231,538.582c-3.126,0-5.666,2.537-5.666,5.669
		c0,3.131,2.54,5.67,5.666,5.67c3.133,0,5.673-2.539,5.673-5.67C515.904,541.119,513.364,538.582,510.231,538.582L510.231,538.582z"
		/>
</g>
<g>
	<line fill="none" stroke="#000000" stroke-width="3" stroke-miterlimit="10" x1="90.711" y1="306.142" x2="90.711" y2="374.173"/>
	<line fill="none" stroke="#000000" stroke-width="3" stroke-miterlimit="10" x1="90.711" y1="340.158" x2="34.018" y2="340.158"/>
	
		<line fill="none" stroke="#000000" stroke-width="3" stroke-miterlimit="10" x1="249.449" y1="306.142" x2="249.449" y2="374.173"/>
	
		<line fill="none" stroke="#000000" stroke-width="3" stroke-miterlimit="10" x1="249.449" y1="340.158" x2="306.143" y2="340.158"/>
	<polyline fill="none" stroke="#000000" stroke-width="3" stroke-miterlimit="10" points="136.064,408.189 136.064,374.173 
		102.049,374.173 102.049,306.142 136.064,306.142 136.064,272.126 204.096,272.126 204.096,306.142 238.111,306.142 
		238.111,374.173 204.096,374.173 204.096,408.189 	"/>
</g>
<path fill="none" stroke="#000000" stroke-width="3" stroke-miterlimit="10" d="M34.018,340.156c0,3.132-2.541,5.671-5.674,5.671
	c-3.126,0-5.665-2.539-5.665-5.671c0-3.13,2.539-5.668,5.665-5.668C31.477,334.488,34.018,337.026,34.018,340.156z"/>
<path fill="none" stroke="#000000" stroke-width="3" stroke-miterlimit="10" d="M317.482,340.156c0,3.132-2.541,5.671-5.674,5.671
	c-3.127,0-5.666-2.539-5.666-5.671c0-3.131,2.539-5.668,5.666-5.668C314.941,334.488,317.482,337.025,317.482,340.156z"/>
<g>
	<path d="M22.648,328.819l5.773-15.032h2.143l6.152,15.032H34.45l-1.753-4.553h-6.286l-1.651,4.553H22.648z M26.985,322.646h5.096
		l-1.569-4.163c-0.479-1.265-0.834-2.304-1.066-3.117c-0.191,0.964-0.461,1.921-0.81,2.871L26.985,322.646z"/>
</g>
<g>
	<path d="M306.111,328.818l5.773-15.032h2.143l6.152,15.032h-2.266l-1.754-4.553h-6.285l-1.651,4.553H306.111z M310.449,322.646
		h5.096l-1.568-4.163c-0.479-1.265-0.834-2.304-1.066-3.117c-0.191,0.964-0.462,1.921-0.811,2.871L310.449,322.646z"/>
	<path d="M319.861,315.775v-2.143h1.979v1.692c0,0.916-0.106,1.576-0.317,1.979c-0.295,0.554-0.752,0.971-1.375,1.251l-0.451-0.728
		c0.369-0.15,0.645-0.388,0.826-0.712c0.181-0.325,0.281-0.771,0.303-1.338H319.861z"/>
</g>
<line fill="none" stroke="#000000" stroke-width="3" stroke-miterlimit="10" x1="170.079" y1="204.095" x2="170.079" y2="272.126"/>
<g>
	
		<line fill="none" stroke="#000000" stroke-width="3" stroke-miterlimit="10" x1="174.331" y1="578.268" x2="165.827" y2="578.268"/>
	
		<line fill="none" stroke="#000000" stroke-width="3" stroke-miterlimit="10" x1="180.709" y1="572.598" x2="159.449" y2="572.598"/>
	
		<line fill="none" stroke="#000000" stroke-width="3" stroke-miterlimit="10" x1="170.079" y1="544.253" x2="170.079" y2="566.929"/>
	
		<line fill="none" stroke="#000000" stroke-width="3" stroke-miterlimit="10" x1="153.071" y1="566.929" x2="187.087" y2="566.929"/>
	<path fill="none" stroke="#000000" stroke-width="3" stroke-miterlimit="10" d="M174.331,577.889"/>
	<path fill="none" stroke="#000000" stroke-width="3" stroke-miterlimit="10" d="M187.087,564.282"/>
	<path fill="none" stroke="#000000" stroke-width="3" stroke-miterlimit="10" d="M153.071,564.282"/>
	<path fill="none" stroke="#000000" stroke-width="3" stroke-miterlimit="10" d="M165.827,577.889"/>
</g>
<g>
	<path d="M170.075,276.295c-2.297,0-4.166-1.871-4.166-4.17c0-2.299,1.869-4.169,4.166-4.169c2.301,0,4.173,1.87,4.173,4.169
		C174.248,274.425,172.376,276.295,170.075,276.295z"/>
	<path d="M170.075,269.457c1.474,0,2.673,1.197,2.673,2.669c0,1.472-1.199,2.67-2.673,2.67c-1.47,0-2.666-1.198-2.666-2.67
		C167.409,270.654,168.605,269.457,170.075,269.457 M170.075,266.457c-3.126,0-5.666,2.538-5.666,5.669
		c0,3.131,2.54,5.67,5.666,5.67c3.133,0,5.673-2.539,5.673-5.67C175.748,268.994,173.208,266.457,170.075,266.457L170.075,266.457z"
		/>
</g>
<g>
	<line fill="none" stroke="#000000" stroke-width="3" stroke-miterlimit="10" x1="90.711" y1="442.204" x2="90.711" y2="510.236"/>
	<line fill="none" stroke="#000000" stroke-width="3" stroke-miterlimit="10" x1="90.711" y1="476.221" x2="34.018" y2="476.221"/>
	
		<line fill="none" stroke="#000000" stroke-width="3" stroke-miterlimit="10" x1="249.449" y1="442.204" x2="249.449" y2="510.236"/>
	
		<line fill="none" stroke="#000000" stroke-width="3" stroke-miterlimit="10" x1="249.449" y1="476.221" x2="306.143" y2="476.221"/>
	<polyline fill="none" stroke="#000000" stroke-width="3" stroke-miterlimit="10" points="204.096,408.188 204.096,442.204 
		238.111,442.204 238.111,510.236 204.096,510.236 204.096,544.252 136.064,544.252 136.064,510.236 102.049,510.236 
		102.049,442.204 136.064,442.204 136.064,408.188 	"/>
</g>
<path fill="none" stroke="#000000" stroke-width="3" stroke-miterlimit="10" d="M34.018,476.219c0,3.132-2.541,5.671-5.674,5.671
	c-3.126,0-5.665-2.539-5.665-5.671c0-3.13,2.539-5.668,5.665-5.668C31.477,470.551,34.018,473.089,34.018,476.219z"/>
<path fill="none" stroke="#000000" stroke-width="3" stroke-miterlimit="10" d="M317.482,476.219c0,3.132-2.541,5.671-5.674,5.671
	c-3.127,0-5.666-2.539-5.666-5.671c0-3.131,2.539-5.668,5.666-5.668C314.941,470.551,317.482,473.088,317.482,476.219z"/>
<g>
	<path d="M24.217,464.883V449.85h5.64c1.148,0,2.069,0.152,2.764,0.457c0.693,0.305,1.237,0.772,1.63,1.404
		c0.393,0.633,0.59,1.294,0.59,1.984c0,0.643-0.174,1.248-0.523,1.814c-0.349,0.568-0.875,1.025-1.579,1.375
		c0.909,0.266,1.608,0.721,2.097,1.363c0.488,0.643,0.733,1.401,0.733,2.276c0,0.704-0.149,1.358-0.446,1.964
		c-0.298,0.605-0.665,1.071-1.103,1.399s-0.986,0.576-1.646,0.743c-0.66,0.168-1.468,0.252-2.425,0.252H24.217z M26.206,456.166
		h3.25c0.882,0,1.514-0.058,1.897-0.174c0.506-0.15,0.887-0.4,1.144-0.748c0.256-0.35,0.384-0.787,0.384-1.313
		c0-0.5-0.12-0.939-0.359-1.318s-0.581-0.639-1.025-0.779c-0.444-0.14-1.207-0.21-2.287-0.21h-3.004V456.166z M26.206,463.108h3.743
		c0.643,0,1.094-0.024,1.354-0.071c0.458-0.082,0.841-0.219,1.148-0.41s0.561-0.471,0.759-0.836s0.297-0.788,0.297-1.267
		c0-0.561-0.144-1.048-0.431-1.462c-0.287-0.412-0.686-0.703-1.194-0.871c-0.51-0.167-1.243-0.251-2.2-0.251h-3.476V463.108z"/>
	<path d="M37.957,451.84v-2.144h1.979v1.692c0,0.916-0.106,1.575-0.318,1.979c-0.294,0.554-0.752,0.971-1.374,1.251l-0.451-0.728
		c0.369-0.15,0.644-0.389,0.825-0.713s0.282-0.771,0.303-1.338H37.957z"/>
</g>
<g>
	<path d="M307.68,464.881V449.85h5.641c1.148,0,2.068,0.152,2.764,0.456c0.693,0.304,1.236,0.772,1.629,1.404
		c0.394,0.633,0.59,1.294,0.59,1.984c0,0.643-0.174,1.247-0.522,1.815c-0.349,0.566-0.875,1.025-1.579,1.373
		c0.909,0.268,1.607,0.722,2.098,1.364c0.488,0.643,0.732,1.401,0.732,2.276c0,0.704-0.148,1.358-0.445,1.964
		c-0.299,0.604-0.666,1.071-1.104,1.399s-0.986,0.576-1.645,0.743c-0.66,0.168-1.469,0.251-2.426,0.251H307.68z M309.67,456.166
		h3.25c0.882,0,1.514-0.059,1.896-0.175c0.506-0.15,0.887-0.399,1.145-0.749c0.256-0.348,0.384-0.785,0.384-1.313
		c0-0.498-0.12-0.938-0.358-1.317c-0.24-0.379-0.582-0.639-1.025-0.779c-0.445-0.14-1.207-0.21-2.287-0.21h-3.004V456.166z
		 M309.67,463.107h3.742c0.643,0,1.094-0.023,1.354-0.072c0.458-0.082,0.841-0.219,1.148-0.41s0.561-0.469,0.759-0.835
		s0.298-0.788,0.298-1.267c0-0.561-0.145-1.047-0.432-1.461s-0.686-0.704-1.193-0.872c-0.51-0.167-1.243-0.251-2.2-0.251h-3.476
		V463.107z"/>
</g>
<g>
	<path d="M170.075,548.421c-2.297,0-4.166-1.871-4.166-4.17s1.869-4.169,4.166-4.169c2.301,0,4.173,1.87,4.173,4.169
		S172.376,548.421,170.075,548.421z"/>
	<path d="M170.075,541.582c1.474,0,2.673,1.197,2.673,2.669s-1.199,2.67-2.673,2.67c-1.47,0-2.666-1.198-2.666-2.67
		S168.605,541.582,170.075,541.582 M170.075,538.582c-3.126,0-5.666,2.537-5.666,5.669c0,3.131,2.54,5.67,5.666,5.67
		c3.133,0,5.673-2.539,5.673-5.67C175.748,541.119,173.208,538.582,170.075,538.582L170.075,538.582z"/>
</g>
</svg>
