<?xml version="1.0" encoding="utf-8"?>
<!-- Generator: Adobe Illustrator 15.1.0, SVG Export Plug-In . SVG Version: 6.00 Build 0)  -->
<!DOCTYPE svg PUBLIC "-//W3C//DTD SVG 1.1//EN" "http://www.w3.org/Graphics/SVG/1.1/DTD/svg11.dtd">
<svg version="1.1" id="Layer_1" xmlns="http://www.w3.org/2000/svg" xmlns:xlink="http://www.w3.org/1999/xlink" x="0px" y="0px"
	 width="612.282px" height="504.566px" viewBox="0 0 612.282 504.566" enable-background="new 0 0 612.282 504.566"
	 xml:space="preserve">
<g>
	<line fill="none" stroke="#000000" stroke-width="3" stroke-miterlimit="10" x1="170.079" y1="40.838" x2="170.079" y2="68.033"/>
	<line fill="none" stroke="#000000" stroke-width="3" stroke-miterlimit="10" x1="187.086" y1="34.015" x2="153.071" y2="47.612"/>
</g>
<g>
	<line fill="none" stroke="#000000" stroke-width="3" stroke-miterlimit="10" x1="442.204" y1="40.838" x2="442.204" y2="68.033"/>
	<line fill="none" stroke="#000000" stroke-width="3" stroke-miterlimit="10" x1="459.212" y1="34.015" x2="425.196" y2="47.612"/>
</g>
<g>
	<path d="M170.075,208.264c-2.297,0-4.166-1.871-4.166-4.17c0-2.299,1.869-4.169,4.166-4.169c2.301,0,4.173,1.87,4.173,4.169
		C174.248,206.394,172.376,208.264,170.075,208.264z"/>
	<path d="M170.075,201.425c1.474,0,2.673,1.197,2.673,2.669c0,1.472-1.199,2.67-2.673,2.67c-1.47,0-2.666-1.198-2.666-2.67
		C167.409,202.623,168.605,201.425,170.075,201.425 M170.075,198.425c-3.126,0-5.666,2.538-5.666,5.669
		c0,3.131,2.54,5.67,5.666,5.67c3.133,0,5.673-2.539,5.673-5.67C175.748,200.963,173.208,198.425,170.075,198.425L170.075,198.425z"
		/>
</g>
<g>
	<path d="M442.2,208.264c-2.297,0-4.166-1.871-4.166-4.17c0-2.299,1.869-4.169,4.166-4.169c2.301,0,4.173,1.87,4.173,4.169
		C446.373,206.394,444.501,208.264,442.2,208.264z"/>
	<path d="M442.2,201.425c1.474,0,2.673,1.197,2.673,2.669c0,1.472-1.199,2.67-2.673,2.67c-1.47,0-2.666-1.198-2.666-2.67
		C439.534,202.623,440.73,201.425,442.2,201.425 M442.2,198.425c-3.126,0-5.666,2.538-5.666,5.669c0,3.131,2.54,5.67,5.666,5.67
		c3.133,0,5.673-2.539,5.673-5.67C447.873,200.963,445.333,198.425,442.2,198.425L442.2,198.425z"/>
</g>
<g>
	<path d="M170.075,242.28c-2.297,0-4.166-1.871-4.166-4.17c0-2.299,1.869-4.169,4.166-4.169c2.301,0,4.173,1.87,4.173,4.169
		C174.248,240.409,172.376,242.28,170.075,242.28z"/>
	<path d="M170.075,235.441c1.474,0,2.673,1.197,2.673,2.669c0,1.472-1.199,2.67-2.673,2.67c-1.47,0-2.666-1.198-2.666-2.67
		C167.409,236.638,168.605,235.441,170.075,235.441 M170.075,232.441c-3.126,0-5.666,2.538-5.666,5.669
		c0,3.131,2.54,5.67,5.666,5.67c3.133,0,5.673-2.539,5.673-5.67C175.748,234.979,173.208,232.441,170.075,232.441L170.075,232.441z"
		/>
</g>
<g>
	<path d="M442.2,242.28c-2.297,0-4.166-1.871-4.166-4.17c0-2.299,1.869-4.169,4.166-4.169c2.301,0,4.173,1.87,4.173,4.169
		C446.373,240.409,444.501,242.28,442.2,242.28z"/>
	<path d="M442.2,235.441c1.474,0,2.673,1.197,2.673,2.669c0,1.472-1.199,2.67-2.673,2.67c-1.47,0-2.666-1.198-2.666-2.67
		C439.534,236.638,440.73,235.441,442.2,235.441 M442.2,232.441c-3.126,0-5.666,2.538-5.666,5.669c0,3.131,2.54,5.67,5.666,5.67
		c3.133,0,5.673-2.539,5.673-5.67C447.873,234.979,445.333,232.441,442.2,232.441L442.2,232.441z"/>
</g>
<path fill="none" stroke="#000000" stroke-width="3" stroke-miterlimit="10" d="M34.016,238.109c0,3.132-2.54,5.671-5.673,5.671
	c-3.127,0-5.666-2.539-5.666-5.671c0-3.13,2.539-5.668,5.666-5.668C31.476,232.441,34.016,234.979,34.016,238.109z"/>
<path fill="none" stroke="#000000" stroke-width="3" stroke-miterlimit="10" d="M590.918,238.109c0,3.132-2.541,5.671-5.674,5.671
	c-3.127,0-5.666-2.539-5.666-5.671c0-3.131,2.539-5.668,5.666-5.668C588.377,232.441,590.918,234.979,590.918,238.109z"/>
<g>
	<path d="M27.229,228.766v-6.368l-5.793-8.665h2.42l2.963,4.532c0.547,0.848,1.056,1.695,1.528,2.543
		c0.451-0.786,0.998-1.671,1.641-2.656l2.912-4.419h2.317l-5.999,8.665v6.368H27.229z"/>
	<path d="M36.653,215.723v-2.143h1.979v1.692c0,0.916-0.106,1.576-0.318,1.979c-0.294,0.554-0.752,0.971-1.374,1.251l-0.451-0.728
		c0.369-0.15,0.644-0.388,0.825-0.713c0.181-0.324,0.282-0.771,0.303-1.338H36.653z"/>
</g>
<g>
	<path d="M584.122,228.766v-6.368l-5.794-8.665h2.42l2.964,4.532c0.546,0.848,1.056,1.695,1.527,2.543
		c0.451-0.786,0.998-1.671,1.641-2.656l2.912-4.419h2.317l-5.999,8.665v6.368H584.122z"/>
</g>
<g>
	<polyline fill="none" stroke="#000000" stroke-width="3" stroke-miterlimit="10" points="170.079,204.094 170.079,170.078 
		204.095,170.078 204.095,102.047 170.079,102.047 170.079,68.031 	"/>
	
		<line fill="none" stroke="#000000" stroke-width="3" stroke-miterlimit="10" x1="215.434" y1="102.047" x2="215.434" y2="170.078"/>
	<polyline fill="none" stroke="#000000" stroke-width="3" stroke-miterlimit="10" points="229.606,136.063 238.11,136.063 
		238.11,136.063 374.173,204.095 442.205,204.095 	"/>
	<circle fill="none" stroke="#000000" stroke-width="3" stroke-miterlimit="10" cx="222.52" cy="136.062" r="7.086"/>
</g>
<g>
	<polyline fill="none" stroke="#000000" stroke-width="3" stroke-miterlimit="10" points="442.205,204.094 442.205,170.078 
		408.189,170.078 408.189,102.047 442.205,102.047 442.205,68.031 	"/>
	
		<line fill="none" stroke="#000000" stroke-width="3" stroke-miterlimit="10" x1="396.851" y1="102.047" x2="396.851" y2="170.078"/>
	<polyline fill="none" stroke="#000000" stroke-width="3" stroke-miterlimit="10" points="382.678,136.063 374.174,136.063 
		374.174,136.063 238.111,204.095 170.079,204.095 	"/>
	<circle fill="none" stroke="#000000" stroke-width="3" stroke-miterlimit="10" cx="389.764" cy="136.062" r="7.086"/>
</g>
<line fill="none" stroke="#000000" stroke-width="3" stroke-miterlimit="10" x1="170.079" y1="204.094" x2="170.079" y2="238.11"/>
<line fill="none" stroke="#000000" stroke-width="3" stroke-miterlimit="10" x1="442.204" y1="204.094" x2="442.204" y2="238.11"/>
<rect x="391.181" y="272.125" fill="none" stroke="#000000" stroke-width="3" stroke-miterlimit="10" width="102.047" height="136.063"/>
<rect x="119.056" y="272.125" fill="none" stroke="#000000" stroke-width="3" stroke-miterlimit="10" width="102.047" height="136.063"/>
<line fill="none" stroke="#000000" stroke-width="3" stroke-miterlimit="10" x1="170.078" y1="238.109" x2="170.078" y2="272.125"/>
<line fill="none" stroke="#000000" stroke-width="3" stroke-miterlimit="10" x1="442.203" y1="238.109" x2="442.203" y2="272.125"/>
<line fill="none" stroke="#000000" stroke-width="3" stroke-miterlimit="10" x1="170.078" y1="408.188" x2="170.078" y2="442.204"/>
<line fill="none" stroke="#000000" stroke-width="3" stroke-miterlimit="10" x1="442.203" y1="408.188" x2="442.203" y2="442.204"/>
<g>
	<line fill="none" stroke="#000000" stroke-width="3" stroke-miterlimit="10" x1="174.33" y1="476.22" x2="165.826" y2="476.22"/>
	<line fill="none" stroke="#000000" stroke-width="3" stroke-miterlimit="10" x1="180.708" y1="470.55" x2="159.448" y2="470.55"/>
	
		<line fill="none" stroke="#000000" stroke-width="3" stroke-miterlimit="10" x1="170.078" y1="442.205" x2="170.078" y2="464.881"/>
	<line fill="none" stroke="#000000" stroke-width="3" stroke-miterlimit="10" x1="153.07" y1="464.881" x2="187.085" y2="464.881"/>
	<path fill="none" stroke="#000000" stroke-width="3" stroke-miterlimit="10" d="M174.33,475.841"/>
	<path fill="none" stroke="#000000" stroke-width="3" stroke-miterlimit="10" d="M187.085,462.234"/>
	<path fill="none" stroke="#000000" stroke-width="3" stroke-miterlimit="10" d="M153.07,462.234"/>
	<path fill="none" stroke="#000000" stroke-width="3" stroke-miterlimit="10" d="M165.826,475.841"/>
</g>
<g>
	<line fill="none" stroke="#000000" stroke-width="3" stroke-miterlimit="10" x1="446.455" y1="476.22" x2="437.951" y2="476.22"/>
	<line fill="none" stroke="#000000" stroke-width="3" stroke-miterlimit="10" x1="452.833" y1="470.55" x2="431.573" y2="470.55"/>
	
		<line fill="none" stroke="#000000" stroke-width="3" stroke-miterlimit="10" x1="442.203" y1="442.205" x2="442.203" y2="464.881"/>
	
		<line fill="none" stroke="#000000" stroke-width="3" stroke-miterlimit="10" x1="425.195" y1="464.881" x2="459.211" y2="464.881"/>
	<path fill="none" stroke="#000000" stroke-width="3" stroke-miterlimit="10" d="M446.455,475.841"/>
	<path fill="none" stroke="#000000" stroke-width="3" stroke-miterlimit="10" d="M459.211,462.234"/>
	<path fill="none" stroke="#000000" stroke-width="3" stroke-miterlimit="10" d="M425.195,462.234"/>
	<path fill="none" stroke="#000000" stroke-width="3" stroke-miterlimit="10" d="M437.951,475.841"/>
</g>
<g>
	<path d="M169.236,342.72v-8.755h-1.407v-1.407h1.407v-0.483c0-1.428,0.336-2.729,1.176-3.548c0.693-0.672,1.617-0.945,2.478-0.945
		c0.672,0,1.218,0.147,1.575,0.294l-0.252,1.428c-0.273-0.126-0.63-0.231-1.176-0.231c-1.575,0-1.974,1.365-1.974,2.939v0.546h2.457
		v1.407h-2.457v8.755H169.236z"/>
</g>
<g>
	<path d="M441.362,342.72v-8.755h-1.407v-1.407h1.407v-0.483c0-1.428,0.336-2.729,1.176-3.548c0.692-0.672,1.616-0.945,2.478-0.945
		c0.672,0,1.218,0.147,1.574,0.294l-0.252,1.428c-0.272-0.126-0.629-0.231-1.176-0.231c-1.574,0-1.973,1.365-1.973,2.939v0.546
		h2.456v1.407h-2.456v8.755H441.362z"/>
	<path d="M451,328.191c-0.482,1.764-1.385,4.031-1.952,4.997l-1.176,0.126c0.44-1.239,1.008-3.401,1.239-4.913L451,328.191z"/>
</g>
<g>
	<line fill="none" stroke="#000000" stroke-width="3" stroke-miterlimit="10" x1="476.22" y1="238.11" x2="442.204" y2="238.11"/>
	<line fill="none" stroke="#000000" stroke-width="3" stroke-miterlimit="10" x1="542.229" y1="238.11" x2="578.267" y2="238.11"/>
	<path fill="none" stroke="#000000" stroke-width="3" stroke-miterlimit="10" d="M476.163,254.62"/>
	<path fill="none" stroke="#000000" stroke-width="3" stroke-miterlimit="10" d="M528.551,237.612"/>
	<polyline fill="none" stroke="#000000" stroke-width="3" stroke-miterlimit="10" points="528.608,238.11 476.22,255.118 
		476.22,238.11 476.22,221.103 528.608,238.11 	"/>
	<circle fill="none" stroke="#000000" stroke-width="3" stroke-miterlimit="10" cx="535.149" cy="238.426" r="7.086"/>
</g>
<g>
	<line fill="none" stroke="#000000" stroke-width="3" stroke-miterlimit="10" x1="136.063" y1="238.11" x2="170.078" y2="238.11"/>
	<line fill="none" stroke="#000000" stroke-width="3" stroke-miterlimit="10" x1="70.053" y1="238.11" x2="34.016" y2="238.11"/>
	<path fill="none" stroke="#000000" stroke-width="3" stroke-miterlimit="10" d="M136.119,221.601"/>
	<path fill="none" stroke="#000000" stroke-width="3" stroke-miterlimit="10" d="M83.731,238.608"/>
	<polyline fill="none" stroke="#000000" stroke-width="3" stroke-miterlimit="10" points="83.674,238.11 136.063,221.103 
		136.063,238.11 136.063,255.118 83.674,238.11 	"/>
	<circle fill="none" stroke="#000000" stroke-width="3" stroke-miterlimit="10" cx="77.133" cy="237.795" r="7.086"/>
</g>
</svg>
