<?xml version="1.0" encoding="utf-8"?>
<!-- Generator: Adobe Illustrator 15.1.0, SVG Export Plug-In . SVG Version: 6.00 Build 0)  -->
<!DOCTYPE svg PUBLIC "-//W3C//DTD SVG 1.1//EN" "http://www.w3.org/Graphics/SVG/1.1/DTD/svg11.dtd">
<svg version="1.1" id="Layer_1" xmlns="http://www.w3.org/2000/svg" xmlns:xlink="http://www.w3.org/1999/xlink" x="0px" y="0px"
	 width="680.314px" height="646.298px" viewBox="0 0 680.314 646.298" enable-background="new 0 0 680.314 646.298"
	 xml:space="preserve">
<g>
	<line fill="none" stroke="#000000" stroke-width="3" stroke-miterlimit="10" x1="204.095" y1="40.838" x2="204.095" y2="68.033"/>
	<line fill="none" stroke="#000000" stroke-width="3" stroke-miterlimit="10" x1="221.103" y1="34.015" x2="187.086" y2="47.612"/>
</g>
<g>
	<line fill="none" stroke="#000000" stroke-width="3" stroke-miterlimit="10" x1="476.22" y1="40.838" x2="476.22" y2="68.033"/>
	<line fill="none" stroke="#000000" stroke-width="3" stroke-miterlimit="10" x1="493.228" y1="34.015" x2="459.212" y2="47.612"/>
</g>
<g>
	<path d="M204.091,242.28c-2.297,0-4.166-1.871-4.166-4.17c0-2.299,1.869-4.169,4.166-4.169c2.301,0,4.173,1.87,4.173,4.169
		C208.264,240.409,206.392,242.28,204.091,242.28z"/>
	<path d="M204.091,235.441c1.474,0,2.673,1.197,2.673,2.669c0,1.472-1.199,2.67-2.673,2.67c-1.47,0-2.666-1.198-2.666-2.67
		C201.425,236.638,202.621,235.441,204.091,235.441 M204.091,232.441c-3.126,0-5.666,2.538-5.666,5.669
		c0,3.131,2.54,5.67,5.666,5.67c3.133,0,5.673-2.539,5.673-5.67C209.764,234.979,207.224,232.441,204.091,232.441L204.091,232.441z"
		/>
</g>
<g>
	<path d="M476.216,242.28c-2.297,0-4.166-1.871-4.166-4.17c0-2.299,1.869-4.169,4.166-4.169c2.301,0,4.173,1.87,4.173,4.169
		C480.389,240.409,478.517,242.28,476.216,242.28z"/>
	<path d="M476.216,235.441c1.474,0,2.673,1.197,2.673,2.669c0,1.472-1.199,2.67-2.673,2.67c-1.47,0-2.666-1.198-2.666-2.67
		C473.55,236.638,474.746,235.441,476.216,235.441 M476.216,232.441c-3.126,0-5.666,2.538-5.666,5.669c0,3.131,2.54,5.67,5.666,5.67
		c3.133,0,5.673-2.539,5.673-5.67C481.889,234.979,479.349,232.441,476.216,232.441L476.216,232.441z"/>
</g>
<path fill="none" stroke="#000000" stroke-width="3" stroke-miterlimit="10" d="M34.016,238.108c0,3.132-2.54,5.671-5.673,5.671
	c-3.127,0-5.666-2.539-5.666-5.671c0-3.13,2.539-5.668,5.666-5.668C31.476,232.44,34.016,234.978,34.016,238.108z"/>
<path fill="none" stroke="#000000" stroke-width="3" stroke-miterlimit="10" d="M657.637,238.108c0,3.132-2.541,5.671-5.674,5.671
	c-3.127,0-5.666-2.539-5.666-5.671c0-3.131,2.539-5.668,5.666-5.668C655.096,232.44,657.637,234.978,657.637,238.108z"/>
<g>
	<path d="M27.229,228.765v-6.368l-5.793-8.665h2.42l2.963,4.532c0.547,0.848,1.056,1.695,1.528,2.543
		c0.451-0.786,0.998-1.671,1.641-2.656l2.912-4.419h2.317l-5.999,8.665v6.368H27.229z"/>
	<path d="M36.653,215.722v-2.143h1.979v1.692c0,0.916-0.106,1.576-0.318,1.979c-0.294,0.554-0.752,0.971-1.374,1.251l-0.451-0.728
		c0.369-0.15,0.644-0.388,0.825-0.713c0.181-0.324,0.282-0.771,0.303-1.338H36.653z"/>
</g>
<g>
	<path d="M650.796,228.084v-6.368l-5.794-8.665h2.42l2.964,4.532c0.546,0.848,1.056,1.695,1.527,2.543
		c0.451-0.786,0.998-1.671,1.641-2.656l2.912-4.419h2.317l-5.999,8.665v6.368H650.796z"/>
</g>
<polyline fill="none" stroke="#000000" stroke-width="3" stroke-miterlimit="10" points="204.095,204.094 204.095,170.078 
	238.11,170.078 238.11,102.047 204.095,102.047 204.095,68.031 "/>
<line fill="none" stroke="#000000" stroke-width="3" stroke-miterlimit="10" x1="249.449" y1="102.047" x2="249.449" y2="170.078"/>
<polyline fill="none" stroke="#000000" stroke-width="3" stroke-miterlimit="10" points="263.622,136.063 272.126,136.063 
	272.126,136.063 "/>
<circle fill="none" stroke="#000000" stroke-width="3" stroke-miterlimit="10" cx="256.536" cy="136.062" r="7.086"/>
<polyline fill="none" stroke="#000000" stroke-width="3" stroke-miterlimit="10" points="476.221,204.094 476.221,170.078 
	442.205,170.078 442.205,102.047 476.221,102.047 476.221,68.031 "/>
<line fill="none" stroke="#000000" stroke-width="3" stroke-miterlimit="10" x1="430.866" y1="102.047" x2="430.866" y2="170.078"/>
<polyline fill="none" stroke="#000000" stroke-width="3" stroke-miterlimit="10" points="416.693,136.063 408.189,136.063 
	408.189,136.063 "/>
<circle fill="none" stroke="#000000" stroke-width="3" stroke-miterlimit="10" cx="423.78" cy="136.062" r="7.086"/>
<line fill="none" stroke="#000000" stroke-width="3" stroke-miterlimit="10" x1="204.095" y1="204.094" x2="204.095" y2="238.11"/>
<line fill="none" stroke="#000000" stroke-width="3" stroke-miterlimit="10" x1="476.22" y1="204.094" x2="476.22" y2="238.11"/>
<rect x="425.196" y="272.125" fill="none" stroke="#000000" stroke-width="3" stroke-miterlimit="10" width="102.047" height="136.063"/>
<rect x="153.071" y="272.125" fill="none" stroke="#000000" stroke-width="3" stroke-miterlimit="10" width="102.047" height="136.063"/>
<line fill="none" stroke="#000000" stroke-width="3" stroke-miterlimit="10" x1="204.094" y1="238.109" x2="204.094" y2="272.125"/>
<line fill="none" stroke="#000000" stroke-width="3" stroke-miterlimit="10" x1="476.219" y1="238.109" x2="476.219" y2="272.125"/>
<g>
	
		<line fill="none" stroke="#000000" stroke-width="3" stroke-miterlimit="10" x1="344.408" y1="612.282" x2="335.904" y2="612.282"/>
	
		<line fill="none" stroke="#000000" stroke-width="3" stroke-miterlimit="10" x1="350.786" y1="606.612" x2="329.526" y2="606.612"/>
	
		<line fill="none" stroke="#000000" stroke-width="3" stroke-miterlimit="10" x1="340.156" y1="578.268" x2="340.156" y2="600.943"/>
	
		<line fill="none" stroke="#000000" stroke-width="3" stroke-miterlimit="10" x1="323.148" y1="600.943" x2="357.164" y2="600.943"/>
	<path fill="none" stroke="#000000" stroke-width="3" stroke-miterlimit="10" d="M344.408,611.903"/>
	<path fill="none" stroke="#000000" stroke-width="3" stroke-miterlimit="10" d="M357.164,598.297"/>
	<path fill="none" stroke="#000000" stroke-width="3" stroke-miterlimit="10" d="M323.148,598.297"/>
	<path fill="none" stroke="#000000" stroke-width="3" stroke-miterlimit="10" d="M335.904,611.903"/>
</g>
<g>
	<path d="M203.251,342.72v-8.755h-1.407v-1.407h1.407v-0.483c0-1.428,0.336-2.729,1.176-3.548c0.693-0.672,1.617-0.945,2.478-0.945
		c0.672,0,1.218,0.147,1.575,0.294l-0.252,1.428c-0.273-0.126-0.63-0.231-1.176-0.231c-1.575,0-1.974,1.365-1.974,2.939v0.546h2.457
		v1.407h-2.457v8.755H203.251z"/>
</g>
<g>
	<path d="M475.378,342.72v-8.755h-1.407v-1.407h1.407v-0.483c0-1.428,0.336-2.729,1.176-3.548c0.692-0.672,1.616-0.945,2.478-0.945
		c0.672,0,1.218,0.147,1.574,0.294l-0.252,1.428c-0.272-0.126-0.629-0.231-1.176-0.231c-1.574,0-1.973,1.365-1.973,2.939v0.546
		h2.456v1.407h-2.456v8.755H475.378z"/>
	<path d="M485.016,328.191c-0.482,1.764-1.385,4.031-1.952,4.997l-1.176,0.126c0.44-1.239,1.008-3.401,1.239-4.913L485.016,328.191z
		"/>
</g>
<g>
	<line fill="none" stroke="#000000" stroke-width="3" stroke-miterlimit="10" x1="510.235" y1="238.11" x2="476.22" y2="238.11"/>
	<line fill="none" stroke="#000000" stroke-width="3" stroke-miterlimit="10" x1="576.245" y1="238.11" x2="612.282" y2="238.11"/>
	<path fill="none" stroke="#000000" stroke-width="3" stroke-miterlimit="10" d="M510.179,254.62"/>
	<path fill="none" stroke="#000000" stroke-width="3" stroke-miterlimit="10" d="M562.566,237.612"/>
	<polyline fill="none" stroke="#000000" stroke-width="3" stroke-miterlimit="10" points="562.624,238.11 510.235,255.118 
		510.235,238.11 510.235,221.103 562.624,238.11 	"/>
	<circle fill="none" stroke="#000000" stroke-width="3" stroke-miterlimit="10" cx="569.165" cy="238.426" r="7.086"/>
</g>
<g>
	<line fill="none" stroke="#000000" stroke-width="3" stroke-miterlimit="10" x1="170.078" y1="238.11" x2="204.094" y2="238.11"/>
	<line fill="none" stroke="#000000" stroke-width="3" stroke-miterlimit="10" x1="104.068" y1="238.11" x2="68.031" y2="238.11"/>
	<path fill="none" stroke="#000000" stroke-width="3" stroke-miterlimit="10" d="M170.135,221.601"/>
	<path fill="none" stroke="#000000" stroke-width="3" stroke-miterlimit="10" d="M117.747,238.608"/>
	<polyline fill="none" stroke="#000000" stroke-width="3" stroke-miterlimit="10" points="117.689,238.11 170.078,221.103 
		170.078,238.11 170.078,255.118 117.689,238.11 	"/>
	<circle fill="none" stroke="#000000" stroke-width="3" stroke-miterlimit="10" cx="111.148" cy="237.795" r="7.086"/>
</g>
<line fill="none" stroke="#000000" stroke-width="3" stroke-miterlimit="10" x1="272.126" y1="136.063" x2="408.188" y2="136.063"/>
<line fill="none" stroke="#000000" stroke-width="3" stroke-miterlimit="10" x1="340.157" y1="102.047" x2="340.157" y2="136.063"/>
<path fill="none" stroke="#000000" stroke-width="3" stroke-miterlimit="10" d="M345.826,96.376c0,3.132-2.54,5.671-5.673,5.671
	c-3.127,0-5.666-2.539-5.666-5.671c0-3.13,2.539-5.668,5.666-5.668C343.286,90.708,345.826,93.246,345.826,96.376z"/>
<polyline fill="none" stroke="#000000" stroke-width="3" stroke-miterlimit="10" points="476.219,408.188 476.219,442.204 
	204.094,442.204 204.094,408.188 "/>
<g>
	<polyline fill="none" stroke="#000000" stroke-width="3" stroke-miterlimit="10" points="340.156,578.266 340.156,544.25 
		306.141,544.25 306.141,476.219 340.156,476.219 340.156,442.203 	"/>
	<line fill="none" stroke="#000000" stroke-width="3" stroke-miterlimit="10" x1="294.802" y1="476.219" x2="294.802" y2="544.25"/>
	<line fill="none" stroke="#000000" stroke-width="3" stroke-miterlimit="10" x1="294.802" y1="510.234" x2="238.11" y2="510.234"/>
</g>
<path fill="none" stroke="#000000" stroke-width="3" stroke-miterlimit="10" d="M238.109,510.234c0,3.132-2.54,5.671-5.673,5.671
	c-3.127,0-5.666-2.539-5.666-5.671c0-3.13,2.539-5.668,5.666-5.668C235.569,504.566,238.109,507.104,238.109,510.234z"/>
<g>
	<path d="M338.312,72.013l-0.358,1.6c-1.416,0.472-2.123,1.709-2.123,3.712c0,1.06,0.278,2.004,0.836,2.835
		c0.557,0.83,1.389,1.365,2.496,1.604v-6.768c0-0.725,0.052-1.283,0.154-1.677c0.103-0.393,0.336-0.714,0.703-0.964
		c0.365-0.249,0.862-0.374,1.491-0.374c0.978,0,1.772,0.198,2.384,0.595s1.13,1.022,1.554,1.876s0.636,1.774,0.636,2.758
		c0,0.82-0.168,1.643-0.502,2.466c-0.336,0.824-0.879,1.581-1.631,2.271s-1.74,1.166-2.963,1.425v3.917h-1.826v-3.917
		c-1.271,0-2.461-0.557-3.568-1.671s-1.66-2.546-1.66-4.296c0-1.62,0.441-2.931,1.328-3.932
		C336.146,72.473,337.163,71.985,338.312,72.013z M340.988,81.682c0.867-0.157,1.611-0.643,2.23-1.456
		c0.617-0.813,0.928-1.88,0.928-3.199c0-1.224-0.227-2.116-0.678-2.676s-0.93-0.841-1.436-0.841c-0.361,0-0.627,0.125-0.795,0.375
		c-0.167,0.25-0.25,0.798-0.25,1.646V81.682z"/>
</g>
<g>
	<path d="M340.153,446.374c-2.297,0-4.166-1.871-4.166-4.17s1.869-4.169,4.166-4.169c2.301,0,4.173,1.87,4.173,4.169
		S342.454,446.374,340.153,446.374z"/>
	<path d="M340.153,439.535c1.474,0,2.673,1.197,2.673,2.669s-1.199,2.67-2.673,2.67c-1.47,0-2.666-1.198-2.666-2.67
		S338.684,439.535,340.153,439.535 M340.153,436.535c-3.126,0-5.666,2.537-5.666,5.669c0,3.131,2.54,5.67,5.666,5.67
		c3.133,0,5.673-2.539,5.673-5.67C345.826,439.072,343.286,436.535,340.153,436.535L340.153,436.535z"/>
</g>
<g>
	
		<line fill="none" stroke="#000000" stroke-width="3" stroke-miterlimit="10" x1="124.725" y1="102.047" x2="124.725" y2="170.078"/>
	<circle fill="none" stroke="#000000" stroke-width="3" stroke-miterlimit="10" cx="117.638" cy="136.062" r="7.086"/>
</g>
<g>
	<line fill="none" stroke="#000000" stroke-width="3" stroke-miterlimit="10" x1="555.59" y1="102.047" x2="555.59" y2="170.078"/>
	<circle fill="none" stroke="#000000" stroke-width="3" stroke-miterlimit="10" cx="562.676" cy="136.062" r="7.086"/>
</g>
<polyline fill="none" stroke="#000000" stroke-width="3" stroke-miterlimit="10" points="476.221,204.094 510.235,204.094 
	510.235,170.078 544.251,170.078 544.251,102.047 510.235,102.047 510.235,68.031 476.22,68.033 "/>
<polyline fill="none" stroke="#000000" stroke-width="3" stroke-miterlimit="10" points="204.095,204.094 170.079,204.094 
	170.079,170.078 136.063,170.078 136.063,102.047 170.079,102.047 170.079,68.031 204.095,68.033 "/>
<g>
	<path d="M204.091,208.264c-2.297,0-4.166-1.871-4.166-4.17c0-2.299,1.869-4.169,4.166-4.169c2.301,0,4.173,1.87,4.173,4.169
		C208.264,206.393,206.392,208.264,204.091,208.264z"/>
	<path d="M204.091,201.425c1.474,0,2.673,1.197,2.673,2.669c0,1.472-1.199,2.67-2.673,2.67c-1.47,0-2.666-1.198-2.666-2.67
		C201.425,202.622,202.621,201.425,204.091,201.425 M204.091,198.425c-3.126,0-5.666,2.538-5.666,5.669
		c0,3.131,2.54,5.67,5.666,5.67c3.133,0,5.673-2.539,5.673-5.67C209.764,200.962,207.224,198.425,204.091,198.425L204.091,198.425z"
		/>
</g>
<g>
	<path d="M476.217,208.264c-2.297,0-4.166-1.871-4.166-4.17c0-2.299,1.869-4.169,4.166-4.169c2.301,0,4.173,1.87,4.173,4.169
		C480.39,206.393,478.518,208.264,476.217,208.264z"/>
	<path d="M476.217,201.425c1.474,0,2.673,1.197,2.673,2.669c0,1.472-1.199,2.67-2.673,2.67c-1.47,0-2.666-1.198-2.666-2.67
		C473.551,202.622,474.747,201.425,476.217,201.425 M476.217,198.425c-3.126,0-5.666,2.538-5.666,5.669
		c0,3.131,2.54,5.67,5.666,5.67c3.133,0,5.673-2.539,5.673-5.67C481.89,200.962,479.35,198.425,476.217,198.425L476.217,198.425z"/>
</g>
<g>
	<path d="M476.217,72.201c-2.297,0-4.166-1.871-4.166-4.17c0-2.299,1.869-4.169,4.166-4.169c2.301,0,4.173,1.87,4.173,4.169
		C480.39,70.331,478.518,72.201,476.217,72.201z"/>
	<path d="M476.217,65.362c1.474,0,2.673,1.197,2.673,2.669c0,1.472-1.199,2.67-2.673,2.67c-1.47,0-2.666-1.198-2.666-2.67
		C473.551,66.56,474.747,65.362,476.217,65.362 M476.217,62.362c-3.126,0-5.666,2.538-5.666,5.669c0,3.131,2.54,5.67,5.666,5.67
		c3.133,0,5.673-2.539,5.673-5.67C481.89,64.9,479.35,62.362,476.217,62.362L476.217,62.362z"/>
</g>
<g>
	<path d="M204.092,72.201c-2.297,0-4.166-1.871-4.166-4.17c0-2.299,1.869-4.169,4.166-4.169c2.301,0,4.173,1.87,4.173,4.169
		C208.265,70.331,206.393,72.201,204.092,72.201z"/>
	<path d="M204.092,65.362c1.474,0,2.673,1.197,2.673,2.669c0,1.472-1.199,2.67-2.673,2.67c-1.47,0-2.666-1.198-2.666-2.67
		C201.426,66.56,202.622,65.362,204.092,65.362 M204.092,62.362c-3.126,0-5.666,2.538-5.666,5.669c0,3.131,2.54,5.67,5.666,5.67
		c3.133,0,5.673-2.539,5.673-5.67C209.765,64.9,207.225,62.362,204.092,62.362L204.092,62.362z"/>
</g>
<g>
	<path d="M68.028,242.28c-2.297,0-4.166-1.871-4.166-4.17c0-2.299,1.869-4.169,4.166-4.169c2.301,0,4.173,1.87,4.173,4.169
		C72.201,240.409,70.329,242.28,68.028,242.28z"/>
	<path d="M68.028,235.441c1.474,0,2.673,1.197,2.673,2.669c0,1.472-1.199,2.67-2.673,2.67c-1.47,0-2.666-1.198-2.666-2.67
		C65.362,236.638,66.559,235.441,68.028,235.441 M68.028,232.441c-3.126,0-5.666,2.538-5.666,5.669c0,3.131,2.54,5.67,5.666,5.67
		c3.133,0,5.673-2.539,5.673-5.67C73.701,234.979,71.161,232.441,68.028,232.441L68.028,232.441z"/>
</g>
<g>
	<path d="M612.278,242.28c-2.297,0-4.166-1.871-4.166-4.17c0-2.299,1.869-4.169,4.166-4.169c2.301,0,4.173,1.87,4.173,4.169
		C616.451,240.409,614.579,242.28,612.278,242.28z"/>
	<path d="M612.278,235.441c1.474,0,2.673,1.197,2.673,2.669c0,1.472-1.199,2.67-2.673,2.67c-1.47,0-2.666-1.198-2.666-2.67
		C609.612,236.638,610.809,235.441,612.278,235.441 M612.278,232.441c-3.126,0-5.666,2.538-5.666,5.669
		c0,3.131,2.54,5.67,5.666,5.67c3.133,0,5.673-2.539,5.673-5.67C617.951,234.979,615.411,232.441,612.278,232.441L612.278,232.441z"
		/>
</g>
<g>
	<path d="M212.916,504.801l-0.359,1.6c-1.415,0.473-2.123,1.709-2.123,3.713c0,1.059,0.278,2.004,0.835,2.835
		c0.557,0.83,1.39,1.365,2.497,1.604v-6.768c0-0.725,0.051-1.283,0.154-1.677c0.103-0.393,0.336-0.714,0.703-0.964
		c0.365-0.249,0.863-0.374,1.492-0.374c0.978,0,1.772,0.198,2.384,0.595c0.611,0.396,1.129,1.021,1.553,1.877
		c0.424,0.854,0.636,1.773,0.636,2.758c0,0.82-0.167,1.643-0.502,2.466c-0.335,0.824-0.878,1.581-1.63,2.271
		s-1.74,1.165-2.963,1.425v3.918h-1.825v-3.918c-1.271,0-2.461-0.557-3.568-1.671s-1.661-2.546-1.661-4.296
		c0-1.621,0.442-2.932,1.328-3.933C210.75,505.262,211.767,504.773,212.916,504.801z M215.592,514.471
		c0.868-0.157,1.611-0.643,2.23-1.456c0.618-0.813,0.928-1.88,0.928-3.199c0-1.224-0.226-2.116-0.677-2.677s-0.93-0.84-1.436-0.84
		c-0.362,0-0.627,0.125-0.795,0.374s-0.251,0.798-0.251,1.646V514.471z"/>
</g>
<polyline fill="none" stroke="#000000" stroke-width="3" stroke-miterlimit="10" points="612.283,238.11 612.283,136.063 
	569.763,136.063 "/>
<line fill="none" stroke="#000000" stroke-width="3" stroke-miterlimit="10" x1="646.299" y1="238.11" x2="612.283" y2="238.11"/>
<polyline fill="none" stroke="#000000" stroke-width="3" stroke-miterlimit="10" points="68.032,238.11 68.032,136.063 
	110.552,136.063 "/>
<line fill="none" stroke="#000000" stroke-width="3" stroke-miterlimit="10" x1="68.032" y1="238.11" x2="34.016" y2="238.11"/>
</svg>
