<?xml version="1.0" encoding="utf-8"?>
<!-- Generator: Adobe Illustrator 15.1.0, SVG Export Plug-In . SVG Version: 6.00 Build 0)  -->
<!DOCTYPE svg PUBLIC "-//W3C//DTD SVG 1.1//EN" "http://www.w3.org/Graphics/SVG/1.1/DTD/svg11.dtd">
<svg version="1.1" id="Layer_1" xmlns="http://www.w3.org/2000/svg" xmlns:xlink="http://www.w3.org/1999/xlink" x="0px" y="0px"
	 width="841.891px" height="595.275px" viewBox="0 0 841.891 595.275" enable-background="new 0 0 841.891 595.275"
	 xml:space="preserve">
<g>
	<path d="M68.027,128.893c-2.297,0-4.166-1.871-4.166-4.17c0-2.299,1.869-4.169,4.166-4.169c2.301,0,4.173,1.87,4.173,4.169
		C72.2,127.022,70.328,128.893,68.027,128.893z"/>
	<path d="M68.027,122.054c1.474,0,2.673,1.197,2.673,2.669c0,1.472-1.199,2.67-2.673,2.67c-1.47,0-2.666-1.198-2.666-2.67
		C65.362,123.251,66.558,122.054,68.027,122.054 M68.027,119.054c-3.126,0-5.666,2.538-5.666,5.669c0,3.131,2.54,5.67,5.666,5.67
		c3.133,0,5.673-2.539,5.673-5.67C73.7,121.592,71.161,119.054,68.027,119.054L68.027,119.054z"/>
</g>
<text transform="matrix(1 0 0 1 476.2207 286.0986)"><tspan x="0" y="0" font-family="'Arial'" font-size="12">Ole Herman Schumacher Elgesem (CC BY 4.0) </tspan><tspan x="0" y="14.399" font-family="'Arial'" font-size="12">github.com/olehermanse/schem</tspan><tspan x="0" y="28.8" font-family="'Arial'" font-size="12">Licensed under CC Attribution 4.0 International:</tspan><tspan x="0" y="43.2" font-family="'Arial'" font-size="12">creativecommons.org/licenses/by/4.0/</tspan></text>
<line fill="none" stroke="#000000" stroke-width="3" stroke-miterlimit="10" x1="45.354" y1="68.031" x2="45.354" y2="102.046"/>
<line fill="none" stroke="#000000" stroke-width="3" stroke-miterlimit="10" x1="34.015" y1="68.031" x2="34.015" y2="136.063"/>
<g>
	<polyline fill="none" stroke="#000000" stroke-width="3" stroke-miterlimit="10" points="203.89,170.078 203.89,136.062
		169.874,136.062 169.874,68.031 203.89,68.031 203.89,34.015 	"/>
	<line fill="none" stroke="#000000" stroke-width="3" stroke-miterlimit="10" x1="158.535" y1="68.031" x2="158.535" y2="136.062"/>

		<line fill="none" stroke="#000000" stroke-width="3" stroke-miterlimit="10" x1="158.535" y1="102.046" x2="101.843" y2="102.046"/>
</g>
<g>
	<polyline fill="none" stroke="#000000" stroke-width="3" stroke-miterlimit="10" points="340.157,170.078 340.157,136.063
		306.142,136.063 306.142,68.031 340.157,68.031 340.157,34.016 	"/>
	<line fill="none" stroke="#000000" stroke-width="3" stroke-miterlimit="10" x1="294.803" y1="68.031" x2="294.803" y2="136.063"/>
	<line fill="none" stroke="#000000" stroke-width="3" stroke-miterlimit="10" x1="280.63" y1="102.047" x2="238.11" y2="102.047"/>
	<circle fill="none" stroke="#000000" stroke-width="3" stroke-miterlimit="10" cx="287.716" cy="102.046" r="7.086"/>
</g>
<g>

		<line fill="none" stroke="#000000" stroke-width="3" stroke-miterlimit="10" x1="413.857" y1="136.063" x2="413.857" y2="204.094"/>
	<line fill="none" stroke="#000000" stroke-width="3" stroke-miterlimit="10" x1="402.52" y1="136.063" x2="402.52" y2="204.094"/>

		<line fill="none" stroke="#000000" stroke-width="3" stroke-miterlimit="10" x1="442.204" y1="170.078" x2="414.204" y2="170.078"/>
	<line fill="none" stroke="#000000" stroke-width="3" stroke-miterlimit="10" x1="402.52" y1="170.078" x2="374.173" y2="170.078"/>
</g>
<g>
	<line fill="none" stroke="#000000" stroke-width="3" stroke-miterlimit="10" x1="374.173" y1="62.361" x2="442.204" y2="62.361"/>
	<line fill="none" stroke="#000000" stroke-width="3" stroke-miterlimit="10" x1="374.173" y1="73.7" x2="442.204" y2="73.7"/>
	<line fill="none" stroke="#000000" stroke-width="3" stroke-miterlimit="10" x1="408.188" y1="34.015" x2="408.188" y2="62.016"/>
	<line fill="none" stroke="#000000" stroke-width="3" stroke-miterlimit="10" x1="408.188" y1="73.7" x2="408.188" y2="102.046"/>
</g>
<g>

		<line fill="none" stroke="#000000" stroke-width="3" stroke-miterlimit="10" x1="493.229" y1="136.062" x2="493.229" y2="170.078"/>
	<line fill="none" stroke="#000000" stroke-width="3" stroke-miterlimit="10" x1="493.229" y1="68.031" x2="493.229" y2="34.015"/>

		<rect x="476.221" y="68.031" fill="none" stroke="#000000" stroke-width="3" stroke-miterlimit="10" width="34.016" height="68.031"/>
</g>
<g>
	<line fill="none" stroke="#000000" stroke-width="3" stroke-miterlimit="10" x1="561.26" y1="68.032" x2="561.26" y2="34.016"/>
	<line fill="none" stroke="#000000" stroke-width="3" stroke-miterlimit="10" x1="561.26" y1="134.041" x2="561.26" y2="170.079"/>
	<path fill="none" stroke="#000000" stroke-width="3" stroke-miterlimit="10" d="M544.75,67.975"/>
	<path fill="none" stroke="#000000" stroke-width="3" stroke-miterlimit="10" d="M561.758,120.362"/>
	<polyline fill="none" stroke="#000000" stroke-width="3" stroke-miterlimit="10" points="561.26,120.419 544.252,68.032
		561.26,68.032 578.268,68.032 561.26,120.419 	"/>
	<circle fill="none" stroke="#000000" stroke-width="3" stroke-miterlimit="10" cx="560.944" cy="126.961" r="7.086"/>
</g>
<g>
	<path d="M68.028,99.377c1.474,0,2.673,1.197,2.673,2.668c0,1.473-1.199,2.671-2.673,2.671c-1.47,0-2.666-1.198-2.666-2.671
		C65.362,100.574,66.558,99.377,68.028,99.377 M68.028,96.377c-3.127,0-5.666,2.538-5.666,5.668c0,3.132,2.539,5.671,5.666,5.671
		c3.133,0,5.673-2.539,5.673-5.671C73.701,98.915,71.161,96.377,68.028,96.377L68.028,96.377z"/>
</g>
<g>
	<line fill="none" stroke="#000000" stroke-width="3" stroke-miterlimit="10" x1="55.275" y1="339.778" x2="46.771" y2="339.778"/>
	<line fill="none" stroke="#000000" stroke-width="3" stroke-miterlimit="10" x1="61.653" y1="332.976" x2="40.394" y2="332.976"/>
	<line fill="none" stroke="#000000" stroke-width="3" stroke-miterlimit="10" x1="51.023" y1="306.143" x2="51.023" y2="326.172"/>
	<line fill="none" stroke="#000000" stroke-width="3" stroke-miterlimit="10" x1="34.016" y1="326.172" x2="68.031" y2="326.172"/>
	<path fill="none" stroke="#000000" stroke-width="3" stroke-miterlimit="10" d="M55.275,339.778"/>
	<path fill="none" stroke="#000000" stroke-width="3" stroke-miterlimit="10" d="M68.031,326.172"/>
	<path fill="none" stroke="#000000" stroke-width="3" stroke-miterlimit="10" d="M34.016,326.172"/>
	<path fill="none" stroke="#000000" stroke-width="3" stroke-miterlimit="10" d="M46.771,339.778"/>
</g>
<g>
	<polyline fill="none" stroke="#000000" stroke-width="3" stroke-miterlimit="10" points="204.095,340.157 204.095,306.142
		170.079,306.142 170.079,238.11 204.095,238.11 204.095,204.094 	"/>
	<polyline fill="none" stroke="#000000" stroke-width="3" stroke-miterlimit="10" points="102.048,272.126 158.74,272.126
		158.74,238.11 158.74,306.142 	"/>
	<path fill="none" stroke="#000000" stroke-width="3" stroke-miterlimit="10" d="M204.095,272.128h-17.008H204.095z"/>
	<polygon stroke="#000000" stroke-width="3" stroke-miterlimit="10" points="187.087,263.622 172.358,272.126 187.087,280.63 	"/>
</g>
<g>
	<polyline fill="none" stroke="#000000" stroke-width="3" stroke-miterlimit="10" points="340.157,340.158 340.157,306.143
		306.142,306.143 306.142,238.111 340.157,238.111 340.157,204.094 	"/>

		<line fill="none" stroke="#000000" stroke-width="3" stroke-miterlimit="10" x1="294.803" y1="238.111" x2="294.803" y2="306.143"/>
	<path fill="none" stroke="#000000" stroke-width="3" stroke-miterlimit="10" d="M280.631,272.127H238.11H280.631z"/>
	<path fill="none" stroke="#000000" stroke-width="3" stroke-miterlimit="10" d="M306.142,272.127h17.008H306.142z"/>
	<polygon stroke="#000000" stroke-width="3" stroke-miterlimit="10" points="323.149,263.623 337.879,272.127 323.149,280.631 	"/>
	<circle fill="none" stroke="#000000" stroke-width="3" stroke-miterlimit="10" cx="287.717" cy="272.127" r="7.086"/>
</g>
<line fill="none" stroke="#000000" stroke-width="3" stroke-miterlimit="10" x1="34.015" y1="147.401" x2="68.031" y2="147.401"/>
<line fill="none" stroke="#000000" stroke-width="3" stroke-miterlimit="10" x1="34.015" y1="158.739" x2="102.047" y2="158.739"/>
<g>
	<line fill="none" stroke="#000000" stroke-width="3" stroke-miterlimit="10" x1="51.023" y1="210.917" x2="51.023" y2="238.111"/>
	<line fill="none" stroke="#000000" stroke-width="3" stroke-miterlimit="10" x1="68.031" y1="204.094" x2="34.016" y2="217.69"/>
</g>
<g>

		<line fill="none" stroke="#000000" stroke-width="3" stroke-miterlimit="10" x1="714.331" y1="119.055" x2="748.347" y2="119.055"/>
	<line fill="none" stroke="#000000" stroke-width="3" stroke-miterlimit="10" x1="646.3" y1="119.055" x2="612.284" y2="119.055"/>

		<rect x="646.3" y="102.047" fill="none" stroke="#000000" stroke-width="3" stroke-miterlimit="10" width="68.031" height="34.016"/>
</g>
<text transform="matrix(1 0 0 1 612.2832 181.417)"><tspan x="0" y="0" font-family="'Arial'" font-size="14">Grid size:         12mm</tspan><tspan x="0" y="11.3" font-family="'Arial'" font-size="14">Subdivisions:     3mm</tspan><tspan x="0" y="22.6" font-family="'Arial'" font-size="14">Keyboard Inc:    4mm</tspan></text>
<circle fill="none" stroke="#000000" stroke-width="3" stroke-miterlimit="10" cx="68.031" cy="79.37" r="7.086"/>
<g>
	<line fill="none" stroke="#000000" stroke-width="3" stroke-miterlimit="10" x1="646.3" y1="50.967" x2="612.284" y2="50.967"/>
	<line fill="none" stroke="#000000" stroke-width="3" stroke-miterlimit="10" x1="712.31" y1="50.967" x2="748.347" y2="50.967"/>
	<path fill="none" stroke="#000000" stroke-width="3" stroke-miterlimit="10" d="M646.243,67.477"/>
	<path fill="none" stroke="#000000" stroke-width="3" stroke-miterlimit="10" d="M698.631,50.469"/>
	<polyline fill="none" stroke="#000000" stroke-width="3" stroke-miterlimit="10" points="698.688,50.967 646.3,67.975
		646.3,50.967 646.3,33.959 698.688,50.967 	"/>
	<circle fill="none" stroke="#000000" stroke-width="3" stroke-miterlimit="10" cx="705.229" cy="51.282" r="7.086"/>
</g>
</svg>
