<?xml version="1.0" encoding="utf-8"?>
<!-- Generator: Adobe Illustrator 15.1.0, SVG Export Plug-In  -->
<!DOCTYPE svg PUBLIC "-//W3C//DTD SVG 1.1//EN" "http://www.w3.org/Graphics/SVG/1.1/DTD/svg11.dtd" [
	<!ENTITY ns_flows "http://ns.adobe.com/Flows/1.0/">
]>
<svg version="1.1"
	 xmlns="http://www.w3.org/2000/svg" xmlns:xlink="http://www.w3.org/1999/xlink" xmlns:a="http://ns.adobe.com/AdobeSVGViewerExtensions/3.0/"
	 x="0px" y="0px" width="842px" height="595px" viewBox="-35.841 -164.147 842 595"
	 enable-background="new -35.841 -164.147 842 595" xml:space="preserve">
<defs>
</defs>
<line fill="none" stroke="#000000" stroke-width="3" stroke-miterlimit="10" x1="74.972" y1="40.602" x2="43.532" y2="40.602"/>
<line fill="none" stroke="#000000" stroke-width="3" stroke-miterlimit="10" x1="43.532" y1="40.602" x2="43.532" y2="120.41"/>
<line fill="none" stroke="#000000" stroke-width="3" stroke-miterlimit="10" x1="74.972" y1="120.41" x2="43.532" y2="120.41"/>
<line fill="none" stroke="#000000" stroke-width="3" stroke-miterlimit="10" x1="31.44" y1="40.602" x2="31.44" y2="120.41"/>
<line fill="none" stroke="#000000" stroke-width="3" stroke-miterlimit="10" x1="31.44" y1="80.506" x2="0" y2="80.506"/>
<line fill="none" stroke="#000000" stroke-width="3" stroke-miterlimit="10" x1="74.972" y1="120.41" x2="74.972" y2="151.85"/>
<line fill="none" stroke="#000000" stroke-width="3" stroke-miterlimit="10" x1="74.972" y1="9.162" x2="74.972" y2="40.602"/>
<line fill="none" stroke="#000000" stroke-width="3" stroke-miterlimit="10" x1="183.801" y1="40.602" x2="152.361" y2="40.602"/>
<line fill="none" stroke="#000000" stroke-width="3" stroke-miterlimit="10" x1="152.361" y1="40.602" x2="152.361" y2="120.41"/>
<line fill="none" stroke="#000000" stroke-width="3" stroke-miterlimit="10" x1="183.801" y1="120.41" x2="152.361" y2="120.41"/>
<line fill="none" stroke="#000000" stroke-width="3" stroke-miterlimit="10" x1="140.27" y1="40.602" x2="140.27" y2="120.41"/>
<circle fill="none" stroke="#000000" stroke-width="3" stroke-miterlimit="10" cx="130.597" cy="80.506" r="9.673"/>
<line fill="none" stroke="#000000" stroke-width="3" stroke-miterlimit="10" x1="120.924" y1="80.506" x2="108.829" y2="80.506"/>
<line fill="none" stroke="#000000" stroke-width="3" stroke-miterlimit="10" x1="183.801" y1="9.162" x2="183.801" y2="40.602"/>
<line fill="none" stroke="#000000" stroke-width="3" stroke-miterlimit="10" x1="183.801" y1="120.41" x2="183.801" y2="151.85"/>
<path stroke="#000000" stroke-width="3" stroke-miterlimit="10" d="M322.883,80.506c0,2.803-2.273,5.076-5.079,5.076
	c-2.799,0-5.073-2.273-5.073-5.076s2.273-5.075,5.073-5.075C320.61,75.431,322.883,77.703,322.883,80.506z"/>
<line fill="none" stroke="#000000" stroke-width="3" stroke-miterlimit="10" x1="257.439" y1="40.602" x2="257.439" y2="120.41"/>
<line fill="none" stroke="#000000" stroke-width="3" stroke-miterlimit="10" x1="245.346" y1="40.602" x2="245.346" y2="120.41"/>
<line fill="none" stroke="#000000" stroke-width="3" stroke-miterlimit="10" x1="257.439" y1="80.506" x2="288.875" y2="80.506"/>
<line fill="none" stroke="#000000" stroke-width="3" stroke-miterlimit="10" x1="213.908" y1="80.506" x2="245.346" y2="80.506"/>
<line fill="none" stroke="#000000" stroke-width="3" stroke-miterlimit="10" x1="360.167" y1="151.852" x2="439.974" y2="151.852"/>
<line fill="none" stroke="#000000" stroke-width="3" stroke-miterlimit="10" x1="415.793" y1="169.265" x2="384.352" y2="169.265"/>
<line fill="none" stroke="#000000" stroke-width="3" stroke-miterlimit="10" x1="372.87" y1="160.558" x2="427.271" y2="160.558"/>
<line fill="none" stroke="#000000" stroke-width="3" stroke-miterlimit="10" x1="400.07" y1="120.41" x2="400.07" y2="151.852"/>
<line fill="none" stroke="#000000" stroke-width="3" stroke-miterlimit="10" x1="400.07" y1="64.785" x2="400.07" y2="96.227"/>
<line fill="none" stroke="#000000" stroke-width="3" stroke-miterlimit="10" x1="400.07" y1="9.16" x2="400.07" y2="40.602"/>
<line fill="none" stroke="#000000" stroke-width="3" stroke-miterlimit="10" x1="413.684" y1="1.299" x2="386.455" y2="17.021"/>
<line fill="none" stroke="#000000" stroke-width="3" stroke-miterlimit="10" x1="495.101" y1="57.116" x2="574.909" y2="57.116"/>
<line fill="none" stroke="#000000" stroke-width="3" stroke-miterlimit="10" x1="495.101" y1="25.681" x2="574.909" y2="25.681"/>
<line fill="none" stroke="#000000" stroke-width="3" stroke-miterlimit="10" x1="574.909" y1="41.398" x2="606.344" y2="41.398"/>
<line fill="none" stroke="#000000" stroke-width="3" stroke-miterlimit="10" x1="463.662" y1="41.398" x2="495.103" y2="41.398"/>
<line fill="none" stroke="#000000" stroke-width="3" stroke-miterlimit="10" x1="495.101" y1="57.116" x2="495.101" y2="25.681"/>
<line fill="none" stroke="#000000" stroke-width="3" stroke-miterlimit="10" x1="574.906" y1="57.116" x2="574.906" y2="25.681"/>
<line fill="none" stroke="#000000" stroke-width="3" stroke-miterlimit="10" x1="555.557" y1="110.908" x2="495.095" y2="86.483"/>
<line fill="none" stroke="#000000" stroke-width="3" stroke-miterlimit="10" x1="555.557" y1="110.908" x2="495.095" y2="135.332"/>
<line fill="none" stroke="#000000" stroke-width="3" stroke-miterlimit="10" x1="495.095" y1="110.908" x2="463.659" y2="110.908"/>
<line fill="none" stroke="#000000" stroke-width="3" stroke-miterlimit="10" x1="606.344" y1="110.908" x2="574.903" y2="110.908"/>
<line fill="none" stroke="#000000" stroke-width="3" stroke-miterlimit="10" x1="495.101" y1="86.483" x2="495.101" y2="135.332"/>
<path fill="none" stroke="#000000" stroke-width="3" stroke-miterlimit="10" d="M574.903,110.908c0,5.345-4.331,9.675-9.671,9.675
	c-5.344,0-9.675-4.331-9.675-9.675c0-5.339,4.331-9.67,9.675-9.67C570.572,101.237,574.903,105.568,574.903,110.908z"/>
<line fill="none" stroke="#000000" stroke-width="3" stroke-miterlimit="10" x1="345.411" y1="120.41" x2="345.411" y2="40.602"/>
<text transform="matrix(1 0 0 1 539.9087 201.6709)"><tspan x="0" y="0" font-family="'ArialMT'" font-size="11.1388">Ole Herman Schumacher Elgesem (CC BY 4.0) </tspan><tspan x="0" y="13.367" font-family="'ArialMT'" font-size="11.1388">https://github.com/olehermanse/schem</tspan><tspan x="0" y="26.733" font-family="'ArialMT'" font-size="11.1388">Licensed under CC Attribution 4.0 International:</tspan><tspan x="0" y="40.1" font-family="'ArialMT'" font-size="11.1388">https://creativecommons.org/licenses/by/4.0/</tspan></text>
</svg>
