<?xml version="1.0" encoding="utf-8"?>
<!-- Generator: Adobe Illustrator 15.1.0, SVG Export Plug-In  -->
<!DOCTYPE svg PUBLIC "-//W3C//DTD SVG 1.1//EN" "http://www.w3.org/Graphics/SVG/1.1/DTD/svg11.dtd" [
	<!ENTITY ns_flows "http://ns.adobe.com/Flows/1.0/">
]>
<svg version="1.1"
	 xmlns="http://www.w3.org/2000/svg" xmlns:xlink="http://www.w3.org/1999/xlink" xmlns:a="http://ns.adobe.com/AdobeSVGViewerExtensions/3.0/"
	 x="0px" y="0px" width="842px" height="595px" viewBox="-8.5 -8.701 842 595" enable-background="new -8.5 -8.701 842 595"
	 xml:space="preserve">
<defs>
</defs>
<line fill="none" stroke="#000000" stroke-width="3" stroke-miterlimit="10" x1="182.88" y1="32.739" x2="151.44" y2="32.739"/>
<line fill="none" stroke="#000000" stroke-width="3" stroke-miterlimit="10" x1="182.88" y1="1.299" x2="182.88" y2="32.739"/>
<line fill="none" stroke="#000000" stroke-width="3" stroke-miterlimit="10" x1="151.44" y1="32.738" x2="151.44" y2="95.619"/>
<line fill="none" stroke="#000000" stroke-width="3" stroke-miterlimit="10" x1="182.88" y1="95.619" x2="151.44" y2="95.619"/>
<line fill="none" stroke="#000000" stroke-width="3" stroke-miterlimit="10" x1="141.44" y1="32.738" x2="141.44" y2="95.619"/>
<line fill="none" stroke="#000000" stroke-width="3" stroke-miterlimit="10" x1="182.88" y1="95.619" x2="182.88" y2="127.06"/>
<line fill="none" stroke="#000000" stroke-width="3" stroke-miterlimit="10" x1="88.56" y1="64.179" x2="141.44" y2="64.179"/>
<path stroke="#000000" stroke-width="3" stroke-miterlimit="10" d="M38.017,32.739c0,2.803-2.273,5.076-5.079,5.076
	c-2.799,0-5.073-2.273-5.073-5.076s2.273-5.075,5.073-5.075C35.743,27.664,38.017,29.936,38.017,32.739z"/>
<line fill="none" stroke="#000000" stroke-width="3" stroke-miterlimit="10" x1="424.911" y1="9.16" x2="424.911" y2="40.602"/>
<line fill="none" stroke="#000000" stroke-width="3" stroke-miterlimit="10" x1="438.525" y1="1.299" x2="411.294" y2="17.021"/>
<text transform="matrix(1 0 0 1 487.4277 148.4365)"><tspan x="0" y="0" font-family="'ArialMT'" font-size="11.1388">Ole Herman Schumacher Elgesem (CC BY 4.0) </tspan><tspan x="0" y="13.367" font-family="'ArialMT'" font-size="11.1388">https://github.com/olehermanse/schem</tspan><tspan x="0" y="26.733" font-family="'ArialMT'" font-size="11.1388">Licensed under CC Attribution 4.0 International:</tspan><tspan x="0" y="40.1" font-family="'ArialMT'" font-size="11.1388">https://creativecommons.org/licenses/by/4.0/</tspan></text>
<line fill="none" stroke="#000000" stroke-width="3" stroke-miterlimit="10" x1="1.5" y1="1.299" x2="1.5" y2="64.18"/>
<line fill="none" stroke="#000000" stroke-width="3" stroke-miterlimit="10" x1="11.5" y1="1.299" x2="11.5" y2="32.739"/>
<line fill="none" stroke="#000000" stroke-width="3" stroke-miterlimit="10" x1="1.5" y1="82.3" x2="64.381" y2="82.3"/>
<line fill="none" stroke="#000000" stroke-width="3" stroke-miterlimit="10" x1="1.5" y1="72.3" x2="32.94" y2="72.3"/>
<circle fill="none" stroke="#000000" stroke-width="3" stroke-miterlimit="10" cx="54.708" cy="32.739" r="9.673"/>
<line fill="none" stroke="#000000" stroke-width="3" stroke-miterlimit="10" x1="293.612" y1="32.739" x2="262.173" y2="32.739"/>
<line fill="none" stroke="#000000" stroke-width="3" stroke-miterlimit="10" x1="293.612" y1="1.298" x2="293.612" y2="32.739"/>
<line fill="none" stroke="#000000" stroke-width="3" stroke-miterlimit="10" x1="262.173" y1="32.738" x2="262.173" y2="95.619"/>
<line fill="none" stroke="#000000" stroke-width="3" stroke-miterlimit="10" x1="293.612" y1="95.619" x2="262.173" y2="95.619"/>
<line fill="none" stroke="#000000" stroke-width="3" stroke-miterlimit="10" x1="252.173" y1="32.738" x2="252.173" y2="95.619"/>
<line fill="none" stroke="#000000" stroke-width="3" stroke-miterlimit="10" x1="293.612" y1="95.619" x2="293.612" y2="127.059"/>
<line fill="none" stroke="#000000" stroke-width="3" stroke-miterlimit="10" x1="199.292" y1="64.178" x2="232.827" y2="64.178"/>
<circle fill="none" stroke="#000000" stroke-width="3" stroke-miterlimit="10" cx="242.5" cy="64.178" r="9.673"/>
<line fill="none" stroke="#000000" stroke-width="3" stroke-miterlimit="10" x1="349.635" y1="96.996" x2="349.635" y2="159.877"/>
<line fill="none" stroke="#000000" stroke-width="3" stroke-miterlimit="10" x1="339.635" y1="96.996" x2="339.635" y2="159.877"/>
<line fill="none" stroke="#000000" stroke-width="3" stroke-miterlimit="10" x1="349.635" y1="128.437" x2="376.076" y2="128.437"/>
<line fill="none" stroke="#000000" stroke-width="3" stroke-miterlimit="10" x1="313.195" y1="128.437" x2="339.635" y2="128.437"/>
<line fill="none" stroke="#000000" stroke-width="3" stroke-miterlimit="10" x1="313.195" y1="27.739" x2="376.076" y2="27.739"/>
<line fill="none" stroke="#000000" stroke-width="3" stroke-miterlimit="10" x1="313.195" y1="37.739" x2="376.076" y2="37.739"/>
<line fill="none" stroke="#000000" stroke-width="3" stroke-miterlimit="10" x1="344.635" y1="27.739" x2="344.635" y2="1.298"/>
<line fill="none" stroke="#000000" stroke-width="3" stroke-miterlimit="10" x1="344.635" y1="64.179" x2="344.635" y2="37.739"/>
<line fill="none" stroke="#000000" stroke-width="3" stroke-miterlimit="10" x1="393.469" y1="128.437" x2="456.349" y2="128.437"/>
<line fill="none" stroke="#000000" stroke-width="3" stroke-miterlimit="10" x1="417.049" y1="158.436" x2="432.769" y2="158.436"/>
<line fill="none" stroke="#000000" stroke-width="3" stroke-miterlimit="10" x1="401.33" y1="138.437" x2="447.904" y2="138.437"/>
<line fill="none" stroke="#000000" stroke-width="3" stroke-miterlimit="10" x1="409.189" y1="148.437" x2="440.629" y2="148.437"/>
<line fill="none" stroke="#000000" stroke-width="3" stroke-miterlimit="10" x1="424.617" y1="96.996" x2="424.617" y2="128.437"/>
<line fill="none" stroke="#000000" stroke-width="3" stroke-miterlimit="10" x1="495.542" y1="95.621" x2="495.542" y2="32.74"/>
<line fill="none" stroke="#000000" stroke-width="3" stroke-miterlimit="10" x1="511.263" y1="127.061" x2="511.263" y2="95.62"/>
<line fill="none" stroke="#000000" stroke-width="3" stroke-miterlimit="10" x1="511.263" y1="32.739" x2="511.263" y2="1.297"/>
<line fill="none" stroke="#000000" stroke-width="3" stroke-miterlimit="10" x1="495.542" y1="95.621" x2="526.983" y2="95.621"/>
<line fill="none" stroke="#000000" stroke-width="3" stroke-miterlimit="10" x1="495.542" y1="32.74" x2="526.983" y2="32.74"/>
<line fill="none" stroke="#000000" stroke-width="3" stroke-miterlimit="10" x1="526.983" y1="95.621" x2="526.983" y2="32.74"/>
<line fill="none" stroke="#000000" stroke-width="3" stroke-miterlimit="10" x1="552.9" y1="32.738" x2="568.62" y2="76.273"/>
<line fill="none" stroke="#000000" stroke-width="3" stroke-miterlimit="10" x1="568.62" y1="1.297" x2="568.62" y2="32.739"/>
<line fill="none" stroke="#000000" stroke-width="3" stroke-miterlimit="10" x1="568.62" y1="95.62" x2="568.62" y2="127.061"/>
<line fill="none" stroke="#000000" stroke-width="3" stroke-miterlimit="10" x1="552.9" y1="32.738" x2="584.34" y2="32.738"/>
<line fill="none" stroke="#000000" stroke-width="3" stroke-miterlimit="10" x1="584.34" y1="32.738" x2="568.62" y2="76.273"/>
<circle fill="none" stroke="#000000" stroke-width="3" stroke-miterlimit="10" cx="568.62" cy="85.946" r="9.673"/>
<line fill="none" stroke="#000000" stroke-width="3" stroke-miterlimit="10" x1="633.545" y1="19.779" x2="696.426" y2="19.779"/>
<line fill="none" stroke="#000000" stroke-width="3" stroke-miterlimit="10" x1="602.105" y1="35.5" x2="633.546" y2="35.5"/>
<line fill="none" stroke="#000000" stroke-width="3" stroke-miterlimit="10" x1="696.427" y1="35.5" x2="727.869" y2="35.5"/>
<line fill="none" stroke="#000000" stroke-width="3" stroke-miterlimit="10" x1="633.545" y1="19.779" x2="633.545" y2="51.22"/>
<line fill="none" stroke="#000000" stroke-width="3" stroke-miterlimit="10" x1="696.426" y1="19.779" x2="696.426" y2="51.22"/>
<line fill="none" stroke="#000000" stroke-width="3" stroke-miterlimit="10" x1="633.545" y1="51.22" x2="696.426" y2="51.22"/>
<line fill="none" stroke="#000000" stroke-width="3" stroke-miterlimit="10" x1="633.545" y1="77.136" x2="677.081" y2="92.856"/>
<line fill="none" stroke="#000000" stroke-width="3" stroke-miterlimit="10" x1="602.105" y1="92.856" x2="633.546" y2="92.856"/>
<line fill="none" stroke="#000000" stroke-width="3" stroke-miterlimit="10" x1="696.427" y1="92.856" x2="727.869" y2="92.856"/>
<line fill="none" stroke="#000000" stroke-width="3" stroke-miterlimit="10" x1="633.545" y1="77.136" x2="633.545" y2="108.577"/>
<line fill="none" stroke="#000000" stroke-width="3" stroke-miterlimit="10" x1="633.545" y1="108.577" x2="677.081" y2="92.856"/>
<circle fill="none" stroke="#000000" stroke-width="3" stroke-miterlimit="10" cx="686.753" cy="92.856" r="9.673"/>
</svg>
