<?xml version="1.0" encoding="utf-8"?>
<!-- Generator: Adobe Illustrator 15.1.0, SVG Export Plug-In . SVG Version: 6.00 Build 0)  -->
<!DOCTYPE svg PUBLIC "-//W3C//DTD SVG 1.1//EN" "http://www.w3.org/Graphics/SVG/1.1/DTD/svg11.dtd">
<svg version="1.1" id="Layer_1" xmlns="http://www.w3.org/2000/svg" xmlns:xlink="http://www.w3.org/1999/xlink" x="0px" y="0px"
	 width="918.424px" height="510.235px" viewBox="0 0 918.424 510.235" enable-background="new 0 0 918.424 510.235"
	 xml:space="preserve">
<polyline fill="none" stroke="#000000" stroke-width="3" stroke-miterlimit="10" points="102.047,272.126 102.047,442.205 
	136.063,442.205 "/>
<path fill="none" stroke="#000000" stroke-width="3" stroke-miterlimit="10" d="M136.063,272.126"/>
<line fill="none" stroke="#000000" stroke-width="3" stroke-miterlimit="10" x1="136.063" y1="68.032" x2="34.016" y2="68.032"/>
<line fill="none" stroke="#000000" stroke-width="3" stroke-miterlimit="10" x1="102.047" y1="136.063" x2="34.016" y2="136.063"/>
<g>
	<path d="M136.061,72.203c-2.297,0-4.165-1.871-4.165-4.17s1.868-4.17,4.165-4.17c2.301,0,4.173,1.871,4.173,4.17
		S138.361,72.203,136.061,72.203z"/>
	<path d="M136.061,65.363c1.474,0,2.673,1.198,2.673,2.67s-1.199,2.67-2.673,2.67c-1.47,0-2.665-1.198-2.665-2.67
		S134.591,65.363,136.061,65.363 M136.061,62.363c-3.126,0-5.665,2.538-5.665,5.67c0,3.131,2.539,5.67,5.665,5.67
		c3.134,0,5.673-2.539,5.673-5.67C141.733,64.901,139.194,62.363,136.061,62.363L136.061,62.363z"/>
</g>
<g>
	<path d="M102.045,140.234c-2.296,0-4.165-1.871-4.165-4.17s1.869-4.17,4.165-4.17c2.301,0,4.173,1.871,4.173,4.17
		S104.346,140.234,102.045,140.234z"/>
	<path d="M102.045,133.395c1.474,0,2.673,1.198,2.673,2.67s-1.199,2.67-2.673,2.67c-1.47,0-2.665-1.198-2.665-2.67
		S100.575,133.395,102.045,133.395 M102.045,130.395c-3.126,0-5.665,2.538-5.665,5.67c0,3.131,2.539,5.67,5.665,5.67
		c3.134,0,5.673-2.539,5.673-5.67C107.718,132.933,105.179,130.395,102.045,130.395L102.045,130.395z"/>
</g>
<path fill="none" stroke="#000000" stroke-width="3" stroke-miterlimit="10" d="M34.016,136.062c0,3.133-2.541,5.672-5.674,5.672
	c-3.127,0-5.666-2.539-5.666-5.672c0-3.13,2.539-5.668,5.666-5.668C31.475,130.394,34.016,132.932,34.016,136.062z"/>
<path fill="none" stroke="#000000" stroke-width="3" stroke-miterlimit="10" d="M34.016,68.03c0,3.133-2.541,5.672-5.674,5.672
	c-3.127,0-5.666-2.539-5.666-5.672c0-3.13,2.539-5.668,5.666-5.668C31.475,62.362,34.016,64.9,34.016,68.03z"/>
<g>
	<path d="M14.822,57.25l12.096-31.496h4.49L44.298,57.25H39.55l-3.674-9.539h-13.17l-3.459,9.539H14.822z M23.91,44.316h10.678
		L31.3,35.594c-1.003-2.649-1.748-4.827-2.234-6.531c-0.401,2.02-0.967,4.025-1.697,6.016L23.91,44.316z"/>
</g>
<g>
	<path d="M16.895,125.282V93.786h11.816c2.406,0,4.336,0.319,5.79,0.956c1.454,0.638,2.592,1.619,3.416,2.943
		c0.823,1.325,1.235,2.711,1.235,4.157c0,1.347-0.365,2.614-1.096,3.803c-0.73,1.189-1.833,2.148-3.309,2.879
		c1.905,0.559,3.369,1.511,4.394,2.857c1.024,1.347,1.536,2.937,1.536,4.77c0,1.476-0.312,2.847-0.935,4.114
		s-1.393,2.245-2.31,2.933c-0.917,0.688-2.066,1.207-3.448,1.558c-1.382,0.351-3.076,0.526-5.081,0.526H16.895z M21.063,107.02
		h6.811c1.848,0,3.172-0.122,3.975-0.365c1.06-0.315,1.858-0.838,2.396-1.568s0.806-1.647,0.806-2.75
		c0-1.045-0.251-1.966-0.752-2.761c-0.501-0.795-1.218-1.339-2.148-1.633c-0.931-0.293-2.528-0.44-4.791-0.44h-6.295V107.02z
		 M21.063,121.565h7.842c1.346,0,2.292-0.05,2.836-0.15c0.959-0.172,1.762-0.458,2.406-0.859c0.645-0.401,1.174-0.984,1.59-1.751
		c0.415-0.766,0.623-1.65,0.623-2.653c0-1.174-0.301-2.195-0.902-3.062c-0.602-0.866-1.436-1.475-2.503-1.826
		c-1.067-0.351-2.604-0.526-4.608-0.526h-7.283V121.565z"/>
</g>
<g>
	
		<line fill="none" stroke="#000000" stroke-width="3" stroke-miterlimit="10" x1="170.078" y1="442.205" x2="136.062" y2="442.205"/>
	<polyline fill="none" stroke="#000000" stroke-width="3" stroke-miterlimit="10" points="170.078,374.173 136.063,374.173 
		136.063,204.095 	"/>
	<path fill="none" stroke="#000000" stroke-width="3" stroke-miterlimit="10" d="M272.125,476.221
		c37.573,0,68.032-30.459,68.032-68.032c0-37.573-30.459-68.032-68.032-68.032"/>
	
		<line fill="none" stroke="#000000" stroke-width="3" stroke-miterlimit="10" x1="272.125" y1="476.221" x2="204.093" y2="476.221"/>
	
		<line fill="none" stroke="#000000" stroke-width="3" stroke-miterlimit="10" x1="272.125" y1="340.158" x2="204.093" y2="340.158"/>
	
		<line fill="none" stroke="#000000" stroke-width="3" stroke-miterlimit="10" x1="374.172" y1="408.189" x2="340.156" y2="408.189"/>
	<polyline fill="none" stroke="#000000" stroke-width="3" stroke-miterlimit="10" points="204.093,476.221 170.078,476.221 
		170.078,408.189 	"/>
	<polyline fill="none" stroke="#000000" stroke-width="3" stroke-miterlimit="10" points="204.093,340.158 170.078,340.158 
		170.078,408.189 	"/>
</g>
<g>
	<path fill="none" stroke="#000000" stroke-width="3" stroke-miterlimit="10" d="M238.109,34.023
		c40.909,0,77.105,26.325,102.047,67.993"/>
	<path fill="none" stroke="#000000" stroke-width="3" stroke-miterlimit="10" d="M238.109,170.078
		c40.909,0,77.105-26.325,102.047-67.993"/>
	<path fill="none" stroke="#000000" stroke-width="3" stroke-miterlimit="10" d="M204.094,170.048l-34.016,0.02
		c22.679-37.581,22.674-98.475,0.002-136.044"/>
	
		<line fill="none" stroke="#000000" stroke-width="3" stroke-miterlimit="10" x1="374.172" y1="102.057" x2="340.156" y2="102.057"/>
	
		<line fill="none" stroke="#000000" stroke-width="3" stroke-miterlimit="10" x1="238.109" y1="170.078" x2="204.094" y2="170.078"/>
	<line fill="none" stroke="#000000" stroke-width="3" stroke-miterlimit="10" x1="238.109" y1="34.016" x2="204.094" y2="34.016"/>
	<path fill="none" stroke="#000000" stroke-width="3" stroke-miterlimit="10" d="M204.094,170.048l-34.016,0.02
		c22.679-37.581,22.674-98.475,0.002-136.044"/>
	
		<line fill="none" stroke="#000000" stroke-width="3" stroke-miterlimit="10" x1="183.355" y1="136.063" x2="136.063" y2="136.063"/>
	<path fill="none" stroke="#000000" stroke-width="3" stroke-miterlimit="10" d="M204.094,34.044l-34.016-0.02
		c22.679,37.581,22.674,98.475,0.002,136.044"/>
	<path fill="none" stroke="#000000" stroke-width="3" stroke-miterlimit="10" d="M204.094,34.044l-34.016-0.02
		c22.679,37.581,22.674,98.475,0.002,136.044"/>
	<line fill="none" stroke="#000000" stroke-width="3" stroke-miterlimit="10" x1="183.355" y1="68.029" x2="136.063" y2="68.029"/>
	<path fill="none" stroke="#000000" stroke-width="3" stroke-miterlimit="10" d="M158.74,34.024
		c22.679,37.581,22.674,98.475,0.002,136.044"/>
</g>
<polyline fill="none" stroke="#000000" stroke-width="3" stroke-miterlimit="10" points="408.19,170.079 374.175,170.079 
	374.175,340.157 408.191,340.158 "/>
<path fill="none" stroke="#000000" stroke-width="3" stroke-miterlimit="10" d="M374.174,102.047"/>
<path fill="none" stroke="#000000" stroke-width="3" stroke-miterlimit="10" d="M408.19,102.047"/>
<g>
	<path d="M408.188,106.219c-2.297,0-4.165-1.871-4.165-4.17s1.868-4.17,4.165-4.17c2.301,0,4.173,1.871,4.173,4.17
		S410.489,106.219,408.188,106.219z"/>
	<path d="M408.188,99.379c1.474,0,2.673,1.198,2.673,2.67s-1.199,2.67-2.673,2.67c-1.47,0-2.665-1.198-2.665-2.67
		S406.719,99.379,408.188,99.379 M408.188,96.379c-3.126,0-5.665,2.538-5.665,5.67c0,3.131,2.539,5.67,5.665,5.67
		c3.134,0,5.673-2.539,5.673-5.67C413.861,98.917,411.322,96.379,408.188,96.379L408.188,96.379z"/>
</g>
<g>
	<path d="M374.173,208.266c-2.297,0-4.165-1.871-4.165-4.17s1.868-4.17,4.165-4.17c2.301,0,4.173,1.871,4.173,4.17
		S376.474,208.266,374.173,208.266z"/>
	<path d="M374.173,201.426c1.474,0,2.673,1.198,2.673,2.67s-1.199,2.67-2.673,2.67c-1.47,0-2.665-1.198-2.665-2.67
		S372.703,201.426,374.173,201.426 M374.173,198.426c-3.126,0-5.665,2.538-5.665,5.67c0,3.131,2.539,5.67,5.665,5.67
		c3.134,0,5.673-2.539,5.673-5.67C379.846,200.964,377.307,198.426,374.173,198.426L374.173,198.426z"/>
</g>
<path fill="none" stroke="#000000" stroke-width="3" stroke-miterlimit="10" d="M657.64,136.062c0,3.133-2.541,5.672-5.674,5.672
	c-3.127,0-5.666-2.539-5.666-5.672c0-3.13,2.539-5.668,5.666-5.668C655.099,130.394,657.64,132.932,657.64,136.062z"/>
<path fill="none" stroke="#000000" stroke-width="3" stroke-miterlimit="10" d="M895.749,340.155c0,3.133-2.541,5.672-5.674,5.672
	c-3.127,0-5.666-2.539-5.666-5.672c0-3.13,2.539-5.668,5.666-5.668C893.208,334.487,895.749,337.025,895.749,340.155z"/>
<g>
	<path d="M639.275,115.48l3.932-0.344c0.186,1.576,0.619,2.868,1.299,3.878c0.681,1.01,1.736,1.826,3.17,2.449
		c1.432,0.623,3.043,0.935,4.834,0.935c1.59,0,2.992-0.236,4.211-0.709c1.217-0.473,2.123-1.121,2.717-1.944
		c0.595-0.823,0.893-1.722,0.893-2.696c0-0.988-0.287-1.851-0.859-2.589c-0.574-0.737-1.52-1.357-2.836-1.858
		c-0.846-0.329-2.715-0.841-5.607-1.536c-2.895-0.694-4.92-1.35-6.08-1.966c-1.504-0.788-2.625-1.765-3.363-2.933
		c-0.737-1.167-1.105-2.474-1.105-3.921c0-1.59,0.451-3.076,1.354-4.458c0.902-1.382,2.219-2.431,3.953-3.147
		c1.732-0.716,3.658-1.074,5.779-1.074c2.334,0,4.393,0.376,6.176,1.128s3.154,1.858,4.115,3.319
		c0.959,1.461,1.475,3.115,1.547,4.963l-3.996,0.301c-0.215-1.991-0.942-3.495-2.182-4.512c-1.238-1.017-3.068-1.525-5.488-1.525
		c-2.521,0-4.358,0.462-5.512,1.386c-1.152,0.924-1.729,2.038-1.729,3.341c0,1.132,0.408,2.063,1.225,2.793
		c0.801,0.73,2.896,1.479,6.283,2.245c3.388,0.767,5.711,1.436,6.973,2.009c1.832,0.845,3.186,1.916,4.061,3.212
		c0.873,1.296,1.311,2.79,1.311,4.479c0,1.676-0.48,3.255-1.439,4.737c-0.961,1.482-2.339,2.636-4.137,3.459
		c-1.797,0.823-3.82,1.235-6.068,1.235c-2.852,0-5.239-0.416-7.166-1.246c-1.926-0.831-3.438-2.08-4.533-3.749
		C639.908,119.473,639.332,117.585,639.275,115.48z"/>
</g>
<g>
	<path d="M879.792,317.775l4.168,1.053c-0.874,3.423-2.446,6.034-4.716,7.831c-2.271,1.798-5.045,2.696-8.325,2.696
		c-3.395,0-6.155-0.691-8.282-2.073c-2.127-1.382-3.746-3.384-4.855-6.005c-1.11-2.621-1.665-5.436-1.665-8.443
		c0-3.28,0.626-6.141,1.88-8.583c1.253-2.442,3.036-4.297,5.35-5.564c2.313-1.268,4.859-1.901,7.638-1.901
		c3.151,0,5.801,0.802,7.949,2.406c2.148,1.604,3.646,3.86,4.49,6.768l-4.104,0.967c-0.73-2.292-1.79-3.96-3.18-5.006
		c-1.39-1.045-3.137-1.568-5.242-1.568c-2.421,0-4.444,0.58-6.069,1.74c-1.626,1.16-2.768,2.718-3.427,4.673
		s-0.988,3.971-0.988,6.048c0,2.679,0.39,5.017,1.171,7.015c0.78,1.998,1.994,3.491,3.642,4.479s3.431,1.482,5.35,1.482
		c2.335,0,4.312-0.673,5.93-2.02C878.123,322.423,879.219,320.425,879.792,317.775z"/>
	<path d="M886.397,323.374c0-2.017,0.561-3.51,1.682-4.481c0.937-0.807,2.078-1.21,3.425-1.21c1.497,0,2.721,0.491,3.671,1.471
		c0.95,0.981,1.425,2.336,1.425,4.066c0,1.401-0.21,2.504-0.63,3.307c-0.421,0.803-1.032,1.427-1.836,1.871s-1.68,0.667-2.63,0.667
		c-1.524,0-2.757-0.489-3.696-1.466C886.867,326.621,886.397,325.212,886.397,323.374z M888.295,323.374
		c0,1.395,0.304,2.439,0.912,3.133s1.374,1.041,2.297,1.041c0.916,0,1.678-0.349,2.287-1.046c0.607-0.697,0.912-1.76,0.912-3.189
		c0-1.347-0.307-2.367-0.918-3.061s-1.372-1.041-2.281-1.041c-0.923,0-1.688,0.345-2.297,1.036S888.295,321.979,888.295,323.374z"/>
	<path d="M905.9,328.818v-1.6c-0.848,1.23-2,1.846-3.455,1.846c-0.643,0-1.243-0.123-1.8-0.369
		c-0.558-0.246-0.972-0.555-1.241-0.928c-0.27-0.372-0.459-0.829-0.568-1.369c-0.076-0.362-0.113-0.937-0.113-1.723v-6.747h1.846
		v6.04c0,0.964,0.037,1.613,0.113,1.948c0.115,0.485,0.361,0.866,0.738,1.144c0.375,0.276,0.84,0.415,1.395,0.415
		c0.553,0,1.072-0.142,1.559-0.426c0.484-0.283,0.828-0.669,1.03-1.158c0.201-0.489,0.302-1.198,0.302-2.128v-5.834h1.846v10.89
		H905.9z"/>
	<path d="M914.473,327.167l0.267,1.63c-0.52,0.109-0.984,0.164-1.395,0.164c-0.67,0-1.189-0.106-1.559-0.318
		s-0.629-0.49-0.779-0.836c-0.15-0.345-0.226-1.071-0.226-2.179v-6.265h-1.354v-1.436h1.354v-2.697l1.836-1.107v3.804h1.855v1.436
		h-1.855v6.368c0,0.526,0.031,0.865,0.097,1.015s0.171,0.27,0.318,0.359c0.146,0.089,0.356,0.133,0.63,0.133
		C913.867,327.239,914.138,327.215,914.473,327.167z"/>
</g>
<g>
	<line fill="none" stroke="#000000" stroke-width="3" stroke-miterlimit="10" x1="442.206" y1="340.157" x2="408.19" y2="340.157"/>
	<polyline fill="none" stroke="#000000" stroke-width="3" stroke-miterlimit="10" points="442.206,272.126 408.19,272.125 
		408.19,102.047 	"/>
	<path fill="none" stroke="#000000" stroke-width="3" stroke-miterlimit="10" d="M544.253,374.173
		c37.572,0,68.031-30.459,68.031-68.031c0-37.573-30.459-68.032-68.031-68.032"/>
	
		<line fill="none" stroke="#000000" stroke-width="3" stroke-miterlimit="10" x1="544.253" y1="374.173" x2="476.222" y2="374.173"/>
	<line fill="none" stroke="#000000" stroke-width="3" stroke-miterlimit="10" x1="544.253" y1="238.11" x2="476.222" y2="238.11"/>
	<line fill="none" stroke="#000000" stroke-width="3" stroke-miterlimit="10" x1="646.3" y1="306.142" x2="612.284" y2="306.142"/>
	<polyline fill="none" stroke="#000000" stroke-width="3" stroke-miterlimit="10" points="476.222,374.173 442.206,374.173 
		442.206,306.142 	"/>
	<polyline fill="none" stroke="#000000" stroke-width="3" stroke-miterlimit="10" points="476.222,238.11 442.206,238.11 
		442.206,306.142 	"/>
</g>
<g>
	<path fill="none" stroke="#000000" stroke-width="3" stroke-miterlimit="10" d="M510.237,68.039
		c40.909,0,77.105,26.325,102.047,67.993"/>
	<path fill="none" stroke="#000000" stroke-width="3" stroke-miterlimit="10" d="M510.237,204.094
		c40.909,0,77.105-26.325,102.047-67.993"/>
	<path fill="none" stroke="#000000" stroke-width="3" stroke-miterlimit="10" d="M476.222,204.063l-34.016,0.02
		c22.679-37.581,22.674-98.475,0.002-136.044"/>
	<line fill="none" stroke="#000000" stroke-width="3" stroke-miterlimit="10" x1="646.3" y1="136.072" x2="612.284" y2="136.072"/>
	
		<line fill="none" stroke="#000000" stroke-width="3" stroke-miterlimit="10" x1="510.237" y1="204.094" x2="476.222" y2="204.094"/>
	<line fill="none" stroke="#000000" stroke-width="3" stroke-miterlimit="10" x1="510.237" y1="68.031" x2="476.222" y2="68.031"/>
	<path fill="none" stroke="#000000" stroke-width="3" stroke-miterlimit="10" d="M476.222,204.063l-34.016,0.02
		c22.679-37.581,22.674-98.475,0.002-136.044"/>
	<line fill="none" stroke="#000000" stroke-width="3" stroke-miterlimit="10" x1="455.483" y1="170.078" x2="408.19" y2="170.078"/>
	<path fill="none" stroke="#000000" stroke-width="3" stroke-miterlimit="10" d="M476.222,68.06l-34.016-0.02
		c22.679,37.581,22.674,98.475,0.002,136.044"/>
	<path fill="none" stroke="#000000" stroke-width="3" stroke-miterlimit="10" d="M476.222,68.06l-34.016-0.02
		c22.679,37.581,22.674,98.475,0.002,136.044"/>
	<line fill="none" stroke="#000000" stroke-width="3" stroke-miterlimit="10" x1="455.483" y1="102.045" x2="408.19" y2="102.045"/>
	<path fill="none" stroke="#000000" stroke-width="3" stroke-miterlimit="10" d="M430.868,68.04
		c22.679,37.581,22.674,98.475,0.002,136.044"/>
</g>
<line fill="none" stroke="#000000" stroke-width="3" stroke-miterlimit="10" x1="136.063" y1="136.063" x2="102.047" y2="136.063"/>
<line fill="none" stroke="#000000" stroke-width="3" stroke-miterlimit="10" x1="136.063" y1="68.032" x2="136.063" y2="204.095"/>
<line fill="none" stroke="#000000" stroke-width="3" stroke-miterlimit="10" x1="102.047" y1="136.063" x2="102.047" y2="272.126"/>
<path fill="none" stroke="#000000" stroke-width="3" stroke-miterlimit="10" d="M374.175,170.079"/>
<path fill="none" stroke="#000000" stroke-width="3" stroke-miterlimit="10" d="M34.016,204.095"/>
<path fill="none" stroke="#000000" stroke-width="3" stroke-miterlimit="10" d="M34.016,204.093c0,3.133-2.541,5.672-5.674,5.672
	c-3.127,0-5.666-2.539-5.666-5.672c0-3.13,2.539-5.668,5.666-5.668C31.475,198.425,34.016,200.963,34.016,204.093z"/>
<g>
	<path d="M35.823,181.713l4.168,1.053c-0.874,3.423-2.446,6.034-4.716,7.831c-2.271,1.798-5.045,2.696-8.325,2.696
		c-3.395,0-6.155-0.691-8.282-2.073c-2.127-1.382-3.746-3.384-4.855-6.005c-1.11-2.621-1.665-5.436-1.665-8.443
		c0-3.28,0.626-6.141,1.88-8.583c1.253-2.442,3.036-4.297,5.35-5.564c2.313-1.268,4.859-1.901,7.638-1.901
		c3.151,0,5.801,0.802,7.949,2.406c2.148,1.604,3.645,3.86,4.49,6.768l-4.104,0.967c-0.73-2.292-1.791-3.96-3.18-5.006
		c-1.39-1.045-3.137-1.568-5.242-1.568c-2.421,0-4.444,0.58-6.069,1.74c-1.626,1.16-2.768,2.718-3.427,4.673
		c-0.659,1.955-0.988,3.971-0.988,6.048c0,2.679,0.39,5.017,1.171,7.015c0.78,1.998,1.994,3.491,3.642,4.479
		c1.647,0.988,3.43,1.482,5.35,1.482c2.334,0,4.311-0.673,5.93-2.02C34.154,186.361,35.25,184.363,35.823,181.713z"/>
	<path d="M43.125,179.846v-2.123h1.846v2.123H43.125z M43.125,192.756v-10.89h1.846v10.89H43.125z"/>
	<path d="M47.781,192.756v-10.89h1.661v1.548c0.8-1.196,1.955-1.794,3.466-1.794c0.656,0,1.259,0.118,1.81,0.354
		c0.55,0.235,0.962,0.545,1.236,0.928s0.465,0.837,0.574,1.364c0.068,0.342,0.103,0.94,0.103,1.794v6.696h-1.846v-6.624
		c0-0.752-0.072-1.314-0.215-1.687c-0.144-0.372-0.398-0.669-0.764-0.892c-0.366-0.222-0.795-0.333-1.287-0.333
		c-0.786,0-1.465,0.25-2.035,0.749c-0.571,0.499-0.856,1.446-0.856,2.84v5.947H47.781z"/>
</g>
<line fill="none" stroke="#000000" stroke-width="3" stroke-miterlimit="10" x1="306.143" y1="204.095" x2="374.178" y2="204.083"/>
<path fill="none" stroke="#000000" stroke-width="3" stroke-miterlimit="10" d="M646.301,408.189"/>
<line fill="none" stroke="#000000" stroke-width="3" stroke-miterlimit="10" x1="374.172" y1="102.057" x2="408.19" y2="102.047"/>
<line fill="none" stroke="#000000" stroke-width="3" stroke-miterlimit="10" x1="306.143" y1="204.095" x2="34.016" y2="204.095"/>
<g>
	<path fill="none" stroke="#000000" stroke-width="3" stroke-miterlimit="10" d="M748.348,272.133
		c40.909,0,77.105,26.325,102.047,67.993"/>
	<path fill="none" stroke="#000000" stroke-width="3" stroke-miterlimit="10" d="M748.348,408.188
		c40.909,0,77.105-26.325,102.047-67.993"/>
	<path fill="none" stroke="#000000" stroke-width="3" stroke-miterlimit="10" d="M714.332,408.157l-34.016,0.02
		c22.679-37.581,22.674-98.475,0.002-136.044"/>
	<line fill="none" stroke="#000000" stroke-width="3" stroke-miterlimit="10" x1="884.41" y1="340.166" x2="850.395" y2="340.166"/>
	
		<line fill="none" stroke="#000000" stroke-width="3" stroke-miterlimit="10" x1="748.348" y1="408.188" x2="714.332" y2="408.188"/>
	
		<line fill="none" stroke="#000000" stroke-width="3" stroke-miterlimit="10" x1="748.348" y1="272.125" x2="714.332" y2="272.125"/>
	<path fill="none" stroke="#000000" stroke-width="3" stroke-miterlimit="10" d="M714.332,408.157l-34.016,0.02
		c22.679-37.581,22.674-98.475,0.002-136.044"/>
	<path fill="none" stroke="#000000" stroke-width="3" stroke-miterlimit="10" d="M714.332,272.153l-34.016-0.02
		c22.679,37.581,22.674,98.475,0.002,136.044"/>
	<path fill="none" stroke="#000000" stroke-width="3" stroke-miterlimit="10" d="M714.332,272.153l-34.016-0.02
		c22.679,37.581,22.674,98.475,0.002,136.044"/>
	
		<line fill="none" stroke="#000000" stroke-width="3" stroke-miterlimit="10" x1="693.594" y1="306.139" x2="646.301" y2="306.139"/>
	<polyline fill="none" stroke="#000000" stroke-width="3" stroke-miterlimit="10" points="693.594,374.172 646.301,374.172 
		646.301,408.189 374.172,408.189 	"/>
</g>
</svg>
