<?xml version="1.0" encoding="utf-8"?>
<!-- Generator: Adobe Illustrator 15.1.0, SVG Export Plug-In . SVG Version: 6.00 Build 0)  -->
<!DOCTYPE svg PUBLIC "-//W3C//DTD SVG 1.1//EN" "http://www.w3.org/Graphics/SVG/1.1/DTD/svg11.dtd">
<svg version="1.1" id="Layer_1" xmlns="http://www.w3.org/2000/svg" xmlns:xlink="http://www.w3.org/1999/xlink" x="0px" y="0px"
	 width="918.424px" height="510.235px" viewBox="0 0 918.424 510.235" enable-background="new 0 0 918.424 510.235"
	 xml:space="preserve">
<polyline fill="none" stroke="#000000" stroke-width="3" stroke-miterlimit="10" points="102.047,272.126 102.047,442.205 
	136.063,442.205 "/>
<path fill="none" stroke="#000000" stroke-width="3" stroke-miterlimit="10" d="M136.063,272.126"/>
<line fill="none" stroke="#000000" stroke-width="3" stroke-miterlimit="10" x1="136.063" y1="68.032" x2="34.016" y2="68.032"/>
<line fill="none" stroke="#000000" stroke-width="3" stroke-miterlimit="10" x1="102.047" y1="136.063" x2="34.016" y2="136.063"/>
<g>
	<path d="M136.061,72.203c-2.297,0-4.165-1.871-4.165-4.17s1.868-4.17,4.165-4.17c2.301,0,4.173,1.871,4.173,4.17
		S138.361,72.203,136.061,72.203z"/>
	<path d="M136.061,65.363c1.474,0,2.673,1.198,2.673,2.67s-1.199,2.67-2.673,2.67c-1.47,0-2.665-1.198-2.665-2.67
		S134.591,65.363,136.061,65.363 M136.061,62.363c-3.126,0-5.665,2.538-5.665,5.67c0,3.131,2.539,5.67,5.665,5.67
		c3.134,0,5.673-2.539,5.673-5.67C141.733,64.901,139.194,62.363,136.061,62.363L136.061,62.363z"/>
</g>
<g>
	<path d="M102.045,140.234c-2.296,0-4.165-1.871-4.165-4.17s1.869-4.17,4.165-4.17c2.301,0,4.173,1.871,4.173,4.17
		S104.346,140.234,102.045,140.234z"/>
	<path d="M102.045,133.395c1.474,0,2.673,1.198,2.673,2.67s-1.199,2.67-2.673,2.67c-1.47,0-2.665-1.198-2.665-2.67
		S100.575,133.395,102.045,133.395 M102.045,130.395c-3.126,0-5.665,2.538-5.665,5.67c0,3.131,2.539,5.67,5.665,5.67
		c3.134,0,5.673-2.539,5.673-5.67C107.718,132.933,105.179,130.395,102.045,130.395L102.045,130.395z"/>
</g>
<path fill="none" stroke="#000000" stroke-width="3" stroke-miterlimit="10" d="M34.016,136.062c0,3.133-2.541,5.672-5.674,5.672
	c-3.127,0-5.666-2.539-5.666-5.672c0-3.13,2.539-5.668,5.666-5.668C31.475,130.394,34.016,132.932,34.016,136.062z"/>
<path fill="none" stroke="#000000" stroke-width="3" stroke-miterlimit="10" d="M34.016,68.03c0,3.133-2.541,5.672-5.674,5.672
	c-3.127,0-5.666-2.539-5.666-5.672c0-3.13,2.539-5.668,5.666-5.668C31.475,62.362,34.016,64.9,34.016,68.03z"/>
<g>
	<path d="M21.892,57.25l5.773-15.032h2.143L35.96,57.25h-2.266l-1.753-4.553h-6.286l-1.651,4.553H21.892z M26.229,51.077h5.096
		l-1.569-4.163c-0.479-1.265-0.834-2.304-1.066-3.117c-0.191,0.964-0.461,1.921-0.81,2.871L26.229,51.077z"/>
</g>
<g>
	<path d="M22.881,125.282V110.25h5.64c1.148,0,2.069,0.152,2.764,0.457c0.693,0.304,1.237,0.772,1.63,1.404
		c0.393,0.633,0.59,1.294,0.59,1.984c0,0.643-0.174,1.248-0.523,1.815s-0.875,1.025-1.579,1.374
		c0.909,0.267,1.608,0.721,2.097,1.364c0.488,0.643,0.733,1.401,0.733,2.276c0,0.704-0.149,1.358-0.446,1.964
		c-0.298,0.604-0.665,1.071-1.103,1.399s-0.986,0.576-1.646,0.743c-0.66,0.168-1.468,0.251-2.425,0.251H22.881z M24.87,116.566h3.25
		c0.882,0,1.514-0.058,1.897-0.174c0.506-0.15,0.887-0.4,1.144-0.749c0.256-0.349,0.384-0.786,0.384-1.313
		c0-0.499-0.12-0.938-0.359-1.318c-0.239-0.379-0.581-0.639-1.025-0.779c-0.444-0.14-1.207-0.21-2.287-0.21H24.87V116.566z
		 M24.87,123.508h3.743c0.643,0,1.094-0.024,1.354-0.072c0.458-0.082,0.841-0.219,1.148-0.41s0.561-0.47,0.759-0.835
		s0.297-0.788,0.297-1.267c0-0.561-0.144-1.047-0.431-1.461s-0.686-0.704-1.194-0.872c-0.51-0.167-1.243-0.251-2.2-0.251H24.87
		V123.508z"/>
</g>
<g>
	
		<line fill="none" stroke="#000000" stroke-width="3" stroke-miterlimit="10" x1="170.078" y1="442.205" x2="136.062" y2="442.205"/>
	<polyline fill="none" stroke="#000000" stroke-width="3" stroke-miterlimit="10" points="170.078,374.173 136.063,374.173 
		136.063,204.095 	"/>
	<path fill="none" stroke="#000000" stroke-width="3" stroke-miterlimit="10" d="M272.125,476.221
		c37.573,0,68.032-30.459,68.032-68.032c0-37.573-30.459-68.032-68.032-68.032"/>
	
		<line fill="none" stroke="#000000" stroke-width="3" stroke-miterlimit="10" x1="272.125" y1="476.221" x2="204.093" y2="476.221"/>
	
		<line fill="none" stroke="#000000" stroke-width="3" stroke-miterlimit="10" x1="272.125" y1="340.158" x2="204.093" y2="340.158"/>
	
		<line fill="none" stroke="#000000" stroke-width="3" stroke-miterlimit="10" x1="374.172" y1="408.189" x2="340.156" y2="408.189"/>
	<polyline fill="none" stroke="#000000" stroke-width="3" stroke-miterlimit="10" points="204.093,476.221 170.078,476.221 
		170.078,408.189 	"/>
	<polyline fill="none" stroke="#000000" stroke-width="3" stroke-miterlimit="10" points="204.093,340.158 170.078,340.158 
		170.078,408.189 	"/>
</g>
<g>
	<path fill="none" stroke="#000000" stroke-width="3" stroke-miterlimit="10" d="M238.109,34.023
		c40.909,0,77.105,26.325,102.047,67.993"/>
	<path fill="none" stroke="#000000" stroke-width="3" stroke-miterlimit="10" d="M238.109,170.078
		c40.909,0,77.105-26.325,102.047-67.993"/>
	<path fill="none" stroke="#000000" stroke-width="3" stroke-miterlimit="10" d="M204.094,170.048l-34.016,0.02
		c22.679-37.581,22.674-98.475,0.002-136.044"/>
	
		<line fill="none" stroke="#000000" stroke-width="3" stroke-miterlimit="10" x1="374.172" y1="102.057" x2="340.156" y2="102.057"/>
	
		<line fill="none" stroke="#000000" stroke-width="3" stroke-miterlimit="10" x1="238.109" y1="170.078" x2="204.094" y2="170.078"/>
	<line fill="none" stroke="#000000" stroke-width="3" stroke-miterlimit="10" x1="238.109" y1="34.016" x2="204.094" y2="34.016"/>
	<path fill="none" stroke="#000000" stroke-width="3" stroke-miterlimit="10" d="M204.094,170.048l-34.016,0.02
		c22.679-37.581,22.674-98.475,0.002-136.044"/>
	
		<line fill="none" stroke="#000000" stroke-width="3" stroke-miterlimit="10" x1="183.355" y1="136.063" x2="136.063" y2="136.063"/>
	<path fill="none" stroke="#000000" stroke-width="3" stroke-miterlimit="10" d="M204.094,34.044l-34.016-0.02
		c22.679,37.581,22.674,98.475,0.002,136.044"/>
	<path fill="none" stroke="#000000" stroke-width="3" stroke-miterlimit="10" d="M204.094,34.044l-34.016-0.02
		c22.679,37.581,22.674,98.475,0.002,136.044"/>
	<line fill="none" stroke="#000000" stroke-width="3" stroke-miterlimit="10" x1="183.355" y1="68.029" x2="136.063" y2="68.029"/>
	<path fill="none" stroke="#000000" stroke-width="3" stroke-miterlimit="10" d="M158.74,34.024
		c22.679,37.581,22.674,98.475,0.002,136.044"/>
</g>
<polyline fill="none" stroke="#000000" stroke-width="3" stroke-miterlimit="10" points="408.19,170.079 374.175,170.079 
	374.175,340.157 408.191,340.158 "/>
<path fill="none" stroke="#000000" stroke-width="3" stroke-miterlimit="10" d="M374.174,102.047"/>
<path fill="none" stroke="#000000" stroke-width="3" stroke-miterlimit="10" d="M408.19,102.047"/>
<g>
	<path d="M408.188,106.219c-2.297,0-4.165-1.871-4.165-4.17s1.868-4.17,4.165-4.17c2.301,0,4.173,1.871,4.173,4.17
		S410.489,106.219,408.188,106.219z"/>
	<path d="M408.188,99.379c1.474,0,2.673,1.198,2.673,2.67s-1.199,2.67-2.673,2.67c-1.47,0-2.665-1.198-2.665-2.67
		S406.719,99.379,408.188,99.379 M408.188,96.379c-3.126,0-5.665,2.538-5.665,5.67c0,3.131,2.539,5.67,5.665,5.67
		c3.134,0,5.673-2.539,5.673-5.67C413.861,98.917,411.322,96.379,408.188,96.379L408.188,96.379z"/>
</g>
<g>
	<path d="M374.173,208.266c-2.297,0-4.165-1.871-4.165-4.17s1.868-4.17,4.165-4.17c2.301,0,4.173,1.871,4.173,4.17
		S376.474,208.266,374.173,208.266z"/>
	<path d="M374.173,201.426c1.474,0,2.673,1.198,2.673,2.67s-1.199,2.67-2.673,2.67c-1.47,0-2.665-1.198-2.665-2.67
		S372.703,201.426,374.173,201.426 M374.173,198.426c-3.126,0-5.665,2.538-5.665,5.67c0,3.131,2.539,5.67,5.665,5.67
		c3.134,0,5.673-2.539,5.673-5.67C379.846,200.964,377.307,198.426,374.173,198.426L374.173,198.426z"/>
</g>
<path fill="none" stroke="#000000" stroke-width="3" stroke-miterlimit="10" d="M657.64,136.062c0,3.133-2.541,5.672-5.674,5.672
	c-3.127,0-5.666-2.539-5.666-5.672c0-3.13,2.539-5.668,5.666-5.668C655.099,130.394,657.64,132.932,657.64,136.062z"/>
<path fill="none" stroke="#000000" stroke-width="3" stroke-miterlimit="10" d="M895.749,340.155c0,3.133-2.541,5.672-5.674,5.672
	c-3.127,0-5.666-2.539-5.666-5.672c0-3.13,2.539-5.668,5.666-5.668C893.208,334.487,895.749,337.025,895.749,340.155z"/>
<g>
	<path d="M645.912,120.77l1.877-0.164c0.088,0.752,0.295,1.369,0.62,1.851c0.324,0.482,0.829,0.872,1.513,1.169
		c0.684,0.298,1.452,0.446,2.307,0.446c0.759,0,1.429-0.113,2.01-0.338s1.014-0.535,1.297-0.928
		c0.283-0.393,0.426-0.822,0.426-1.287c0-0.472-0.137-0.883-0.41-1.236c-0.273-0.352-0.725-0.647-1.354-0.887
		c-0.403-0.157-1.295-0.401-2.676-0.733c-1.381-0.331-2.349-0.644-2.902-0.938c-0.718-0.376-1.253-0.842-1.604-1.4
		c-0.353-0.557-0.528-1.181-0.528-1.871c0-0.759,0.215-1.468,0.646-2.128c0.43-0.659,1.059-1.16,1.887-1.502
		c0.826-0.342,1.746-0.513,2.758-0.513c1.114,0,2.097,0.18,2.948,0.538c0.851,0.359,1.505,0.887,1.964,1.584
		c0.457,0.697,0.703,1.487,0.738,2.369l-1.908,0.144c-0.102-0.95-0.449-1.668-1.04-2.153c-0.592-0.485-1.465-0.728-2.62-0.728
		c-1.203,0-2.08,0.22-2.63,0.662c-0.551,0.44-0.825,0.972-0.825,1.594c0,0.54,0.194,0.984,0.584,1.333
		c0.383,0.349,1.383,0.706,2.999,1.072s2.726,0.685,3.327,0.958c0.875,0.403,1.521,0.915,1.938,1.533
		c0.417,0.619,0.626,1.332,0.626,2.138c0,0.8-0.229,1.553-0.688,2.261c-0.458,0.707-1.116,1.258-1.974,1.65
		c-0.858,0.393-1.823,0.59-2.897,0.59c-1.359,0-2.5-0.198-3.419-0.595c-0.92-0.396-1.641-0.993-2.164-1.789
		C646.215,122.675,645.939,121.774,645.912,120.77z"/>
</g>
<g>
	<path d="M887.199,324.423l1.99,0.502c-0.418,1.634-1.168,2.88-2.251,3.737c-1.084,0.858-2.408,1.287-3.974,1.287
		c-1.62,0-2.938-0.33-3.953-0.989c-1.015-0.66-1.787-1.615-2.317-2.866s-0.794-2.594-0.794-4.03c0-1.565,0.299-2.931,0.896-4.096
		s1.449-2.051,2.554-2.656c1.104-0.604,2.319-0.907,3.646-0.907c1.504,0,2.768,0.383,3.793,1.148s1.74,1.842,2.144,3.23
		l-1.958,0.461c-0.35-1.094-0.855-1.89-1.518-2.389c-0.664-0.499-1.498-0.749-2.502-0.749c-1.156,0-2.121,0.277-2.897,0.831
		s-1.321,1.297-1.636,2.23c-0.314,0.934-0.471,1.896-0.471,2.887c0,1.278,0.186,2.395,0.559,3.348
		c0.372,0.954,0.951,1.667,1.738,2.138c0.785,0.472,1.637,0.708,2.553,0.708c1.114,0,2.058-0.321,2.83-0.964
		S886.926,325.688,887.199,324.423z"/>
	<path d="M890.385,326.842c0-1.056,0.293-1.839,0.881-2.347c0.49-0.422,1.088-0.634,1.794-0.634c0.784,0,1.425,0.257,1.923,0.771
		c0.498,0.514,0.746,1.224,0.746,2.129c0,0.734-0.109,1.312-0.33,1.732c-0.22,0.421-0.541,0.748-0.961,0.98
		c-0.421,0.233-0.881,0.349-1.378,0.349c-0.798,0-1.444-0.256-1.937-0.768S890.385,327.805,890.385,326.842z M891.379,326.842
		c0,0.73,0.158,1.277,0.478,1.641c0.319,0.364,0.72,0.545,1.203,0.545c0.479,0,0.879-0.183,1.198-0.548
		c0.318-0.365,0.478-0.922,0.478-1.67c0-0.706-0.16-1.24-0.48-1.604c-0.321-0.363-0.72-0.545-1.195-0.545
		c-0.483,0-0.884,0.181-1.203,0.542S891.379,326.111,891.379,326.842z"/>
	<path d="M900.601,329.694v-0.838c-0.444,0.645-1.048,0.967-1.81,0.967c-0.337,0-0.651-0.064-0.943-0.193
		c-0.291-0.129-0.508-0.291-0.649-0.486c-0.142-0.195-0.241-0.435-0.298-0.717c-0.04-0.19-0.06-0.491-0.06-0.902v-3.534h0.967v3.164
		c0,0.505,0.02,0.845,0.06,1.021c0.061,0.254,0.189,0.454,0.387,0.599c0.196,0.146,0.439,0.218,0.73,0.218
		c0.289,0,0.562-0.074,0.816-0.223c0.254-0.149,0.434-0.351,0.539-0.607c0.105-0.256,0.158-0.627,0.158-1.114v-3.056h0.967v5.704
		H900.601z"/>
	<path d="M905.091,328.829l0.14,0.854c-0.271,0.057-0.516,0.086-0.73,0.086c-0.352,0-0.623-0.056-0.816-0.167
		s-0.33-0.257-0.408-0.438c-0.078-0.181-0.118-0.562-0.118-1.142v-3.282h-0.709v-0.752h0.709v-1.413l0.962-0.58v1.993h0.972v0.752
		h-0.972v3.335c0,0.276,0.017,0.453,0.051,0.532c0.033,0.079,0.09,0.142,0.166,0.188c0.077,0.046,0.188,0.07,0.33,0.07
		C904.773,328.867,904.916,328.854,905.091,328.829z"/>
</g>
<g>
	<line fill="none" stroke="#000000" stroke-width="3" stroke-miterlimit="10" x1="442.206" y1="340.157" x2="408.19" y2="340.157"/>
	<polyline fill="none" stroke="#000000" stroke-width="3" stroke-miterlimit="10" points="442.206,272.126 408.19,272.125 
		408.19,102.047 	"/>
	<path fill="none" stroke="#000000" stroke-width="3" stroke-miterlimit="10" d="M544.253,374.173
		c37.572,0,68.031-30.459,68.031-68.031c0-37.573-30.459-68.032-68.031-68.032"/>
	
		<line fill="none" stroke="#000000" stroke-width="3" stroke-miterlimit="10" x1="544.253" y1="374.173" x2="476.222" y2="374.173"/>
	<line fill="none" stroke="#000000" stroke-width="3" stroke-miterlimit="10" x1="544.253" y1="238.11" x2="476.222" y2="238.11"/>
	<line fill="none" stroke="#000000" stroke-width="3" stroke-miterlimit="10" x1="646.3" y1="306.142" x2="612.284" y2="306.142"/>
	<polyline fill="none" stroke="#000000" stroke-width="3" stroke-miterlimit="10" points="476.222,374.173 442.206,374.173 
		442.206,306.142 	"/>
	<polyline fill="none" stroke="#000000" stroke-width="3" stroke-miterlimit="10" points="476.222,238.11 442.206,238.11 
		442.206,306.142 	"/>
</g>
<g>
	<path fill="none" stroke="#000000" stroke-width="3" stroke-miterlimit="10" d="M510.237,68.039
		c40.909,0,77.105,26.325,102.047,67.993"/>
	<path fill="none" stroke="#000000" stroke-width="3" stroke-miterlimit="10" d="M510.237,204.094
		c40.909,0,77.105-26.325,102.047-67.993"/>
	<path fill="none" stroke="#000000" stroke-width="3" stroke-miterlimit="10" d="M476.222,204.063l-34.016,0.02
		c22.679-37.581,22.674-98.475,0.002-136.044"/>
	<line fill="none" stroke="#000000" stroke-width="3" stroke-miterlimit="10" x1="646.3" y1="136.072" x2="612.284" y2="136.072"/>
	
		<line fill="none" stroke="#000000" stroke-width="3" stroke-miterlimit="10" x1="510.237" y1="204.094" x2="476.222" y2="204.094"/>
	<line fill="none" stroke="#000000" stroke-width="3" stroke-miterlimit="10" x1="510.237" y1="68.031" x2="476.222" y2="68.031"/>
	<path fill="none" stroke="#000000" stroke-width="3" stroke-miterlimit="10" d="M476.222,204.063l-34.016,0.02
		c22.679-37.581,22.674-98.475,0.002-136.044"/>
	<line fill="none" stroke="#000000" stroke-width="3" stroke-miterlimit="10" x1="455.483" y1="170.078" x2="408.19" y2="170.078"/>
	<path fill="none" stroke="#000000" stroke-width="3" stroke-miterlimit="10" d="M476.222,68.06l-34.016-0.02
		c22.679,37.581,22.674,98.475,0.002,136.044"/>
	<path fill="none" stroke="#000000" stroke-width="3" stroke-miterlimit="10" d="M476.222,68.06l-34.016-0.02
		c22.679,37.581,22.674,98.475,0.002,136.044"/>
	<line fill="none" stroke="#000000" stroke-width="3" stroke-miterlimit="10" x1="455.483" y1="102.045" x2="408.19" y2="102.045"/>
	<path fill="none" stroke="#000000" stroke-width="3" stroke-miterlimit="10" d="M430.868,68.04
		c22.679,37.581,22.674,98.475,0.002,136.044"/>
</g>
<line fill="none" stroke="#000000" stroke-width="3" stroke-miterlimit="10" x1="136.063" y1="136.063" x2="102.047" y2="136.063"/>
<line fill="none" stroke="#000000" stroke-width="3" stroke-miterlimit="10" x1="136.063" y1="68.032" x2="136.063" y2="204.095"/>
<line fill="none" stroke="#000000" stroke-width="3" stroke-miterlimit="10" x1="102.047" y1="136.063" x2="102.047" y2="272.126"/>
<path fill="none" stroke="#000000" stroke-width="3" stroke-miterlimit="10" d="M374.175,170.079"/>
<path fill="none" stroke="#000000" stroke-width="3" stroke-miterlimit="10" d="M34.016,204.095"/>
<path fill="none" stroke="#000000" stroke-width="3" stroke-miterlimit="10" d="M34.016,204.093c0,3.133-2.541,5.672-5.674,5.672
	c-3.127,0-5.666-2.539-5.666-5.672c0-3.13,2.539-5.668,5.666-5.668C31.475,198.425,34.016,200.963,34.016,204.093z"/>
<g>
	<path d="M28.828,188.042l1.989,0.502c-0.417,1.634-1.167,2.88-2.251,3.737c-1.083,0.858-2.408,1.287-3.973,1.287
		c-1.62,0-2.938-0.33-3.953-0.989c-1.016-0.66-1.788-1.615-2.317-2.866c-0.53-1.251-0.795-2.594-0.795-4.03
		c0-1.565,0.299-2.931,0.897-4.096c0.598-1.166,1.449-2.051,2.553-2.656c1.104-0.604,2.319-0.907,3.646-0.907
		c1.504,0,2.769,0.383,3.794,1.148s1.74,1.842,2.143,3.23l-1.958,0.461c-0.349-1.094-0.854-1.89-1.518-2.389
		s-1.497-0.749-2.502-0.749c-1.155,0-2.121,0.277-2.896,0.831c-0.776,0.554-1.321,1.297-1.636,2.23
		c-0.314,0.934-0.472,1.896-0.472,2.887c0,1.278,0.186,2.395,0.559,3.348c0.373,0.954,0.952,1.667,1.738,2.138
		s1.637,0.708,2.553,0.708c1.114,0,2.058-0.321,2.83-0.964S28.555,189.307,28.828,188.042z"/>
	<path d="M32.378,186.551v-1.112h0.967v1.112H32.378z M32.378,193.313v-5.704h0.967v5.704H32.378z"/>
	<path d="M34.817,193.313v-5.704h0.87v0.811c0.419-0.626,1.024-0.94,1.815-0.94c0.344,0,0.66,0.062,0.948,0.185
		c0.289,0.124,0.504,0.286,0.647,0.486s0.244,0.438,0.301,0.714c0.036,0.179,0.054,0.492,0.054,0.94v3.507h-0.967v-3.47
		c0-0.394-0.038-0.688-0.113-0.883c-0.075-0.195-0.208-0.351-0.4-0.468c-0.192-0.116-0.417-0.174-0.674-0.174
		c-0.412,0-0.767,0.131-1.066,0.392c-0.299,0.261-0.449,0.757-0.449,1.488v3.115H34.817z"/>
</g>
<line fill="none" stroke="#000000" stroke-width="3" stroke-miterlimit="10" x1="306.143" y1="204.095" x2="374.178" y2="204.083"/>
<path fill="none" stroke="#000000" stroke-width="3" stroke-miterlimit="10" d="M646.301,408.189"/>
<line fill="none" stroke="#000000" stroke-width="3" stroke-miterlimit="10" x1="374.172" y1="102.057" x2="408.19" y2="102.047"/>
<line fill="none" stroke="#000000" stroke-width="3" stroke-miterlimit="10" x1="306.143" y1="204.095" x2="34.016" y2="204.095"/>
<g>
	<path fill="none" stroke="#000000" stroke-width="3" stroke-miterlimit="10" d="M748.348,272.133
		c40.909,0,77.105,26.325,102.047,67.993"/>
	<path fill="none" stroke="#000000" stroke-width="3" stroke-miterlimit="10" d="M748.348,408.188
		c40.909,0,77.105-26.325,102.047-67.993"/>
	<path fill="none" stroke="#000000" stroke-width="3" stroke-miterlimit="10" d="M714.332,408.157l-34.016,0.02
		c22.679-37.581,22.674-98.475,0.002-136.044"/>
	<line fill="none" stroke="#000000" stroke-width="3" stroke-miterlimit="10" x1="884.41" y1="340.166" x2="850.395" y2="340.166"/>
	
		<line fill="none" stroke="#000000" stroke-width="3" stroke-miterlimit="10" x1="748.348" y1="408.188" x2="714.332" y2="408.188"/>
	
		<line fill="none" stroke="#000000" stroke-width="3" stroke-miterlimit="10" x1="748.348" y1="272.125" x2="714.332" y2="272.125"/>
	<path fill="none" stroke="#000000" stroke-width="3" stroke-miterlimit="10" d="M714.332,408.157l-34.016,0.02
		c22.679-37.581,22.674-98.475,0.002-136.044"/>
	<path fill="none" stroke="#000000" stroke-width="3" stroke-miterlimit="10" d="M714.332,272.153l-34.016-0.02
		c22.679,37.581,22.674,98.475,0.002,136.044"/>
	<path fill="none" stroke="#000000" stroke-width="3" stroke-miterlimit="10" d="M714.332,272.153l-34.016-0.02
		c22.679,37.581,22.674,98.475,0.002,136.044"/>
	
		<line fill="none" stroke="#000000" stroke-width="3" stroke-miterlimit="10" x1="693.594" y1="306.139" x2="646.301" y2="306.139"/>
	<polyline fill="none" stroke="#000000" stroke-width="3" stroke-miterlimit="10" points="693.594,374.172 646.301,374.172 
		646.301,408.189 374.172,408.189 	"/>
</g>
</svg>
