<?xml version="1.0" encoding="utf-8"?>
<!-- Generator: Adobe Illustrator 15.1.0, SVG Export Plug-In . SVG Version: 6.00 Build 0)  -->
<!DOCTYPE svg PUBLIC "-//W3C//DTD SVG 1.1//EN" "http://www.w3.org/Graphics/SVG/1.1/DTD/svg11.dtd">
<svg version="1.1" id="Layer_1" xmlns="http://www.w3.org/2000/svg" xmlns:xlink="http://www.w3.org/1999/xlink" x="0px" y="0px"
	 width="374.174px" height="374.173px" viewBox="0 0 374.174 374.173" enable-background="new 0 0 374.174 374.173"
	 xml:space="preserve">
<polyline fill="none" stroke="#000000" stroke-width="3" stroke-miterlimit="10" points="102.047,136.063 68.031,136.063 
	68.031,306.142 102.047,306.142 "/>
<line fill="none" stroke="#000000" stroke-width="3" stroke-miterlimit="10" x1="102.047" y1="68.032" x2="34.016" y2="68.032"/>
<line fill="none" stroke="#000000" stroke-width="3" stroke-miterlimit="10" x1="68.031" y1="136.063" x2="34.016" y2="136.063"/>
<g>
	<path d="M102.045,72.203c-2.297,0-4.165-1.871-4.165-4.17s1.868-4.17,4.165-4.17c2.301,0,4.173,1.871,4.173,4.17
		S104.346,72.203,102.045,72.203z"/>
	<path d="M102.045,65.363c1.474,0,2.673,1.198,2.673,2.67s-1.199,2.67-2.673,2.67c-1.47,0-2.665-1.198-2.665-2.67
		S100.575,65.363,102.045,65.363 M102.045,62.363c-3.126,0-5.665,2.538-5.665,5.67c0,3.131,2.539,5.67,5.665,5.67
		c3.134,0,5.673-2.539,5.673-5.67C107.718,64.901,105.179,62.363,102.045,62.363L102.045,62.363z"/>
</g>
<g>
	<path d="M68.029,140.234c-2.296,0-4.165-1.871-4.165-4.17s1.869-4.17,4.165-4.17c2.301,0,4.173,1.871,4.173,4.17
		S70.33,140.234,68.029,140.234z"/>
	<path d="M68.029,133.395c1.474,0,2.673,1.198,2.673,2.67s-1.199,2.67-2.673,2.67c-1.47,0-2.665-1.198-2.665-2.67
		S66.56,133.395,68.029,133.395 M68.029,130.395c-3.126,0-5.665,2.538-5.665,5.67c0,3.131,2.539,5.67,5.665,5.67
		c3.134,0,5.673-2.539,5.673-5.67C73.702,132.933,71.163,130.395,68.029,130.395L68.029,130.395z"/>
</g>
<path fill="none" stroke="#000000" stroke-width="3" stroke-miterlimit="10" d="M34.016,136.062c0,3.133-2.541,5.672-5.674,5.672
	c-3.127,0-5.666-2.539-5.666-5.672c0-3.13,2.539-5.668,5.666-5.668C31.475,130.394,34.016,132.932,34.016,136.062z"/>
<path fill="none" stroke="#000000" stroke-width="3" stroke-miterlimit="10" d="M34.016,68.03c0,3.133-2.541,5.672-5.674,5.672
	c-3.127,0-5.666-2.539-5.666-5.672c0-3.13,2.539-5.668,5.666-5.668C31.475,62.362,34.016,64.9,34.016,68.03z"/>
<path fill="none" stroke="#000000" stroke-width="3" stroke-miterlimit="10" d="M351.496,102.046c0,3.133-2.541,5.672-5.674,5.672
	c-3.127,0-5.666-2.539-5.666-5.672c0-3.13,2.539-5.668,5.666-5.668C348.955,96.378,351.496,98.916,351.496,102.046z"/>
<path fill="none" stroke="#000000" stroke-width="3" stroke-miterlimit="10" d="M351.496,272.124c0,3.133-2.541,5.672-5.674,5.672
	c-3.127,0-5.666-2.539-5.666-5.672c0-3.13,2.539-5.668,5.666-5.668C348.955,266.456,351.496,268.994,351.496,272.124z"/>
<g>
	<path d="M14.822,57.25l12.096-31.496h4.49L44.298,57.25H39.55l-3.674-9.539h-13.17l-3.459,9.539H14.822z M23.91,44.316h10.678
		L31.3,35.594c-1.003-2.649-1.748-4.827-2.234-6.531c-0.401,2.02-0.967,4.025-1.697,6.016L23.91,44.316z"/>
</g>
<g>
	<path d="M16.895,125.282V93.786h11.816c2.406,0,4.336,0.319,5.79,0.956c1.454,0.638,2.592,1.619,3.416,2.943
		c0.823,1.325,1.235,2.711,1.235,4.157c0,1.347-0.365,2.614-1.096,3.803c-0.73,1.189-1.833,2.148-3.309,2.879
		c1.905,0.559,3.369,1.511,4.394,2.857c1.024,1.347,1.536,2.937,1.536,4.77c0,1.476-0.312,2.847-0.935,4.114
		s-1.393,2.245-2.31,2.933c-0.917,0.688-2.066,1.207-3.448,1.558c-1.382,0.351-3.076,0.526-5.081,0.526H16.895z M21.063,107.02
		h6.811c1.848,0,3.172-0.122,3.975-0.365c1.06-0.315,1.858-0.838,2.396-1.568s0.806-1.647,0.806-2.75
		c0-1.045-0.251-1.966-0.752-2.761c-0.501-0.795-1.218-1.339-2.148-1.633c-0.931-0.293-2.528-0.44-4.791-0.44h-6.295V107.02z
		 M21.063,121.565h7.842c1.346,0,2.292-0.05,2.836-0.15c0.959-0.172,1.762-0.458,2.406-0.859c0.645-0.401,1.174-0.984,1.59-1.751
		c0.415-0.766,0.623-1.65,0.623-2.653c0-1.174-0.301-2.195-0.902-3.062c-0.602-0.866-1.436-1.475-2.503-1.826
		c-1.067-0.351-2.604-0.526-4.608-0.526h-7.283V121.565z"/>
</g>
<g>
	<path d="M333.131,81.464l3.932-0.344c0.186,1.576,0.619,2.868,1.299,3.878c0.681,1.01,1.736,1.826,3.17,2.449
		c1.432,0.623,3.043,0.935,4.834,0.935c1.59,0,2.992-0.236,4.211-0.709c1.217-0.473,2.123-1.121,2.717-1.944
		c0.595-0.823,0.893-1.722,0.893-2.696c0-0.988-0.287-1.851-0.859-2.589c-0.574-0.737-1.52-1.357-2.836-1.858
		c-0.846-0.329-2.715-0.841-5.607-1.536c-2.895-0.694-4.92-1.35-6.08-1.966c-1.504-0.788-2.625-1.765-3.363-2.933
		c-0.737-1.167-1.105-2.474-1.105-3.921c0-1.59,0.451-3.076,1.354-4.458c0.902-1.382,2.219-2.431,3.953-3.147
		c1.732-0.716,3.658-1.074,5.779-1.074c2.334,0,4.393,0.376,6.176,1.128s3.154,1.858,4.115,3.319
		c0.959,1.461,1.475,3.115,1.547,4.963l-3.996,0.301c-0.215-1.991-0.942-3.495-2.182-4.512c-1.238-1.017-3.068-1.525-5.488-1.525
		c-2.521,0-4.358,0.462-5.512,1.386c-1.152,0.924-1.729,2.038-1.729,3.341c0,1.132,0.408,2.063,1.225,2.793
		c0.801,0.73,2.896,1.479,6.283,2.245c3.388,0.767,5.711,1.436,6.973,2.009c1.832,0.845,3.186,1.916,4.061,3.212
		c0.873,1.296,1.311,2.79,1.311,4.479c0,1.676-0.48,3.255-1.439,4.737c-0.961,1.482-2.339,2.636-4.137,3.459
		c-1.797,0.823-3.82,1.235-6.068,1.235c-2.852,0-5.239-0.416-7.166-1.246c-1.926-0.831-3.438-2.08-4.533-3.749
		C333.764,85.457,333.188,83.57,333.131,81.464z"/>
</g>
<g>
	<path d="M334.711,251.619l4.168,1.053c-0.874,3.423-2.445,6.034-4.716,7.831c-2.271,1.798-5.046,2.696-8.325,2.696
		c-3.395,0-6.155-0.691-8.282-2.073c-2.127-1.382-3.745-3.384-4.855-6.005s-1.665-5.436-1.665-8.443c0-3.28,0.627-6.141,1.88-8.583
		c1.253-2.442,3.036-4.297,5.35-5.564s4.858-1.901,7.638-1.901c3.15,0,5.801,0.802,7.949,2.406c2.148,1.604,3.645,3.86,4.49,6.768
		l-4.104,0.967c-0.73-2.292-1.791-3.96-3.18-5.006c-1.39-1.045-3.137-1.568-5.242-1.568c-2.421,0-4.443,0.58-6.069,1.74
		s-2.769,2.718-3.427,4.673c-0.659,1.955-0.988,3.971-0.988,6.048c0,2.679,0.391,5.017,1.171,7.015s1.994,3.491,3.642,4.479
		c1.646,0.988,3.43,1.482,5.35,1.482c2.334,0,4.311-0.673,5.93-2.02C333.042,256.267,334.138,254.269,334.711,251.619z"/>
	<path d="M341.316,257.217c0-2.017,0.561-3.51,1.682-4.481c0.937-0.807,2.078-1.21,3.425-1.21c1.497,0,2.721,0.491,3.671,1.471
		c0.95,0.981,1.426,2.336,1.426,4.066c0,1.401-0.211,2.504-0.631,3.307c-0.421,0.803-1.033,1.427-1.836,1.871
		s-1.68,0.667-2.63,0.667c-1.524,0-2.757-0.489-3.696-1.466C341.786,260.464,341.316,259.056,341.316,257.217z M343.213,257.217
		c0,1.395,0.305,2.439,0.913,3.133s1.374,1.041,2.297,1.041c0.916,0,1.679-0.349,2.286-1.046c0.609-0.697,0.913-1.76,0.913-3.189
		c0-1.347-0.306-2.367-0.918-3.061s-1.372-1.041-2.281-1.041c-0.923,0-1.688,0.345-2.297,1.036S343.213,255.823,343.213,257.217z"/>
	<path d="M360.819,262.662v-1.6c-0.848,1.23-1.999,1.846-3.456,1.846c-0.643,0-1.242-0.123-1.799-0.369
		c-0.558-0.246-0.971-0.555-1.241-0.928c-0.271-0.372-0.46-0.829-0.569-1.369c-0.074-0.362-0.112-0.937-0.112-1.723v-6.747h1.846
		v6.04c0,0.964,0.038,1.613,0.112,1.948c0.117,0.485,0.363,0.866,0.738,1.144c0.377,0.276,0.842,0.415,1.395,0.415
		c0.555,0,1.074-0.142,1.559-0.426c0.486-0.283,0.829-0.669,1.031-1.158c0.201-0.489,0.303-1.198,0.303-2.128v-5.834h1.846v10.89
		H360.819z"/>
	<path d="M369.392,261.011l0.267,1.63c-0.52,0.109-0.984,0.164-1.395,0.164c-0.67,0-1.189-0.106-1.559-0.318
		s-0.629-0.49-0.779-0.836c-0.15-0.345-0.226-1.071-0.226-2.179v-6.265h-1.354v-1.436h1.354v-2.697l1.835-1.107v3.804h1.856v1.436
		h-1.856v6.368c0,0.526,0.033,0.865,0.098,1.015s0.171,0.27,0.318,0.359c0.146,0.089,0.357,0.133,0.631,0.133
		C368.787,261.083,369.057,261.059,369.392,261.011z"/>
</g>
<g>
	
		<line fill="none" stroke="#000000" stroke-width="3" stroke-miterlimit="10" x1="136.062" y1="306.142" x2="102.046" y2="306.142"/>
	<polyline fill="none" stroke="#000000" stroke-width="3" stroke-miterlimit="10" points="136.062,238.11 102.047,238.11 
		102.047,68.032 	"/>
	<path fill="none" stroke="#000000" stroke-width="3" stroke-miterlimit="10" d="M238.109,340.157
		c37.573,0,68.032-30.459,68.032-68.031c0-37.573-30.459-68.032-68.032-68.032"/>
	
		<line fill="none" stroke="#000000" stroke-width="3" stroke-miterlimit="10" x1="238.109" y1="340.157" x2="170.078" y2="340.157"/>
	
		<line fill="none" stroke="#000000" stroke-width="3" stroke-miterlimit="10" x1="238.109" y1="204.095" x2="170.078" y2="204.095"/>
	
		<line fill="none" stroke="#000000" stroke-width="3" stroke-miterlimit="10" x1="340.156" y1="272.126" x2="306.141" y2="272.126"/>
	<polyline fill="none" stroke="#000000" stroke-width="3" stroke-miterlimit="10" points="170.078,340.157 136.062,340.157 
		136.062,272.126 	"/>
	<polyline fill="none" stroke="#000000" stroke-width="3" stroke-miterlimit="10" points="170.078,204.095 136.062,204.095 
		136.062,272.126 	"/>
</g>
<g>
	<path fill="none" stroke="#000000" stroke-width="3" stroke-miterlimit="10" d="M204.094,34.023
		c40.909,0,77.105,26.325,102.047,67.993"/>
	<path fill="none" stroke="#000000" stroke-width="3" stroke-miterlimit="10" d="M204.094,170.078
		c40.909,0,77.105-26.325,102.047-67.993"/>
	<path fill="none" stroke="#000000" stroke-width="3" stroke-miterlimit="10" d="M170.078,170.048l-34.016,0.02
		c22.679-37.581,22.674-98.475,0.002-136.044"/>
	
		<line fill="none" stroke="#000000" stroke-width="3" stroke-miterlimit="10" x1="340.156" y1="102.057" x2="306.141" y2="102.057"/>
	
		<line fill="none" stroke="#000000" stroke-width="3" stroke-miterlimit="10" x1="204.094" y1="170.078" x2="170.078" y2="170.078"/>
	<line fill="none" stroke="#000000" stroke-width="3" stroke-miterlimit="10" x1="204.094" y1="34.016" x2="170.078" y2="34.016"/>
	<path fill="none" stroke="#000000" stroke-width="3" stroke-miterlimit="10" d="M170.078,170.048l-34.016,0.02
		c22.679-37.581,22.674-98.475,0.002-136.044"/>
	<line fill="none" stroke="#000000" stroke-width="3" stroke-miterlimit="10" x1="149.34" y1="136.063" x2="102.047" y2="136.063"/>
	<path fill="none" stroke="#000000" stroke-width="3" stroke-miterlimit="10" d="M170.078,34.044l-34.016-0.02
		c22.679,37.581,22.674,98.475,0.002,136.044"/>
	<path fill="none" stroke="#000000" stroke-width="3" stroke-miterlimit="10" d="M170.078,34.044l-34.016-0.02
		c22.679,37.581,22.674,98.475,0.002,136.044"/>
	<line fill="none" stroke="#000000" stroke-width="3" stroke-miterlimit="10" x1="149.34" y1="68.029" x2="102.047" y2="68.029"/>
	<path fill="none" stroke="#000000" stroke-width="3" stroke-miterlimit="10" d="M124.725,34.024
		c22.679,37.581,22.674,98.475,0.002,136.044"/>
</g>
</svg>
