<?xml version="1.0" encoding="utf-8"?>
<!-- Generator: Adobe Illustrator 15.1.0, SVG Export Plug-In . SVG Version: 6.00 Build 0)  -->
<!DOCTYPE svg PUBLIC "-//W3C//DTD SVG 1.1//EN" "http://www.w3.org/Graphics/SVG/1.1/DTD/svg11.dtd">
<svg version="1.1" id="Layer_1" xmlns="http://www.w3.org/2000/svg" xmlns:xlink="http://www.w3.org/1999/xlink" x="0px" y="0px"
	 width="408.189px" height="374.173px" viewBox="0 0 408.189 374.173" enable-background="new 0 0 408.189 374.173"
	 xml:space="preserve">
<g>
	
		<line fill="none" stroke="#000000" stroke-width="3" stroke-miterlimit="10" x1="170.078" y1="136.063" x2="136.062" y2="136.063"/>
	<path fill="none" stroke="#000000" stroke-width="3" stroke-miterlimit="10" d="M272.125,170.079
		c37.572,0,68.031-30.459,68.031-68.031c0-37.573-30.459-68.032-68.031-68.032"/>
	
		<line fill="none" stroke="#000000" stroke-width="3" stroke-miterlimit="10" x1="272.125" y1="170.079" x2="204.093" y2="170.079"/>
	<line fill="none" stroke="#000000" stroke-width="3" stroke-miterlimit="10" x1="272.125" y1="34.017" x2="204.093" y2="34.017"/>
	
		<line fill="none" stroke="#000000" stroke-width="3" stroke-miterlimit="10" x1="374.172" y1="102.048" x2="340.156" y2="102.048"/>
	<polyline fill="none" stroke="#000000" stroke-width="3" stroke-miterlimit="10" points="204.093,170.079 170.078,170.079 
		170.078,102.048 	"/>
	<polyline fill="none" stroke="#000000" stroke-width="3" stroke-miterlimit="10" points="204.093,34.017 170.078,34.017 
		170.078,102.048 	"/>
</g>
<g>
	<path fill="none" stroke="#000000" stroke-width="3" stroke-miterlimit="10" d="M238.109,204.103
		c40.909,0,77.105,26.325,102.047,67.993"/>
	<path fill="none" stroke="#000000" stroke-width="3" stroke-miterlimit="10" d="M238.109,340.157
		c40.909,0,77.105-26.325,102.047-67.993"/>
	<path fill="none" stroke="#000000" stroke-width="3" stroke-miterlimit="10" d="M204.094,340.127l-34.016,0.02
		c22.679-37.581,22.674-98.475,0.002-136.044"/>
	
		<line fill="none" stroke="#000000" stroke-width="3" stroke-miterlimit="10" x1="374.172" y1="272.136" x2="340.156" y2="272.136"/>
	
		<line fill="none" stroke="#000000" stroke-width="3" stroke-miterlimit="10" x1="238.109" y1="340.157" x2="204.094" y2="340.157"/>
	
		<line fill="none" stroke="#000000" stroke-width="3" stroke-miterlimit="10" x1="238.109" y1="204.095" x2="204.094" y2="204.095"/>
	<path fill="none" stroke="#000000" stroke-width="3" stroke-miterlimit="10" d="M204.094,340.127l-34.016,0.02
		c22.679-37.581,22.674-98.475,0.002-136.044"/>
	
		<line fill="none" stroke="#000000" stroke-width="3" stroke-miterlimit="10" x1="183.355" y1="306.142" x2="136.063" y2="306.142"/>
	<path fill="none" stroke="#000000" stroke-width="3" stroke-miterlimit="10" d="M204.094,204.123l-34.016-0.02
		c22.679,37.581,22.674,98.475,0.002,136.044"/>
	<path fill="none" stroke="#000000" stroke-width="3" stroke-miterlimit="10" d="M204.094,204.123l-34.016-0.02
		c22.679,37.581,22.674,98.475,0.002,136.044"/>
	<path fill="none" stroke="#000000" stroke-width="3" stroke-miterlimit="10" d="M158.74,204.104
		c22.679,37.581,22.674,98.475,0.002,136.044"/>
</g>
<polyline fill="none" stroke="#000000" stroke-width="3" stroke-miterlimit="10" points="136.063,136.063 102.047,136.063 
	102.047,306.142 136.063,306.142 "/>
<polyline fill="none" stroke="#000000" stroke-width="3" stroke-miterlimit="10" points="183.355,238.108 136.063,238.109 
	136.063,68.032 170.078,68.032 "/>
<line fill="none" stroke="#000000" stroke-width="3" stroke-miterlimit="10" x1="136.063" y1="68.032" x2="34.016" y2="68.032"/>
<line fill="none" stroke="#000000" stroke-width="3" stroke-miterlimit="10" x1="102.047" y1="136.063" x2="34.016" y2="136.063"/>
<g>
	<path d="M136.061,72.203c-2.297,0-4.165-1.871-4.165-4.17s1.868-4.17,4.165-4.17c2.301,0,4.173,1.871,4.173,4.17
		S138.361,72.203,136.061,72.203z"/>
	<path d="M136.061,65.363c1.474,0,2.673,1.198,2.673,2.67s-1.199,2.67-2.673,2.67c-1.47,0-2.665-1.198-2.665-2.67
		S134.591,65.363,136.061,65.363 M136.061,62.363c-3.126,0-5.665,2.538-5.665,5.67c0,3.131,2.539,5.67,5.665,5.67
		c3.134,0,5.673-2.539,5.673-5.67C141.733,64.901,139.194,62.363,136.061,62.363L136.061,62.363z"/>
</g>
<g>
	<path d="M102.045,140.234c-2.296,0-4.165-1.871-4.165-4.17s1.869-4.17,4.165-4.17c2.301,0,4.173,1.871,4.173,4.17
		S104.346,140.234,102.045,140.234z"/>
	<path d="M102.045,133.395c1.474,0,2.673,1.198,2.673,2.67s-1.199,2.67-2.673,2.67c-1.47,0-2.665-1.198-2.665-2.67
		S100.575,133.395,102.045,133.395 M102.045,130.395c-3.126,0-5.665,2.538-5.665,5.67c0,3.131,2.539,5.67,5.665,5.67
		c3.134,0,5.673-2.539,5.673-5.67C107.718,132.933,105.179,130.395,102.045,130.395L102.045,130.395z"/>
</g>
<path fill="none" stroke="#000000" stroke-width="3" stroke-miterlimit="10" d="M34.016,136.062c0,3.133-2.541,5.672-5.674,5.672
	c-3.127,0-5.666-2.539-5.666-5.672c0-3.13,2.539-5.668,5.666-5.668C31.475,130.394,34.016,132.932,34.016,136.062z"/>
<path fill="none" stroke="#000000" stroke-width="3" stroke-miterlimit="10" d="M34.016,68.03c0,3.133-2.541,5.672-5.674,5.672
	c-3.127,0-5.666-2.539-5.666-5.672c0-3.13,2.539-5.668,5.666-5.668C31.475,62.362,34.016,64.9,34.016,68.03z"/>
<path fill="none" stroke="#000000" stroke-width="3" stroke-miterlimit="10" d="M385.512,102.046c0,3.133-2.541,5.672-5.674,5.672
	c-3.127,0-5.666-2.539-5.666-5.672c0-3.13,2.539-5.668,5.666-5.668C382.971,96.378,385.512,98.916,385.512,102.046z"/>
<path fill="none" stroke="#000000" stroke-width="3" stroke-miterlimit="10" d="M385.512,272.124c0,3.133-2.541,5.672-5.674,5.672
	c-3.127,0-5.666-2.539-5.666-5.672c0-3.13,2.539-5.668,5.666-5.668C382.971,266.456,385.512,268.994,385.512,272.124z"/>
<g>
	<path d="M21.892,57.25l5.773-15.032h2.143L35.96,57.25h-2.266l-1.753-4.553h-6.286l-1.651,4.553H21.892z M26.229,51.077h5.096
		l-1.569-4.163c-0.479-1.265-0.834-2.304-1.066-3.117c-0.191,0.964-0.461,1.921-0.81,2.871L26.229,51.077z"/>
</g>
<g>
	<path d="M22.881,125.282V110.25h5.64c1.148,0,2.069,0.152,2.764,0.457c0.693,0.304,1.237,0.772,1.63,1.404
		c0.393,0.633,0.59,1.294,0.59,1.984c0,0.643-0.174,1.248-0.523,1.815s-0.875,1.025-1.579,1.374
		c0.909,0.267,1.608,0.721,2.097,1.364c0.488,0.643,0.733,1.401,0.733,2.276c0,0.704-0.149,1.358-0.446,1.964
		c-0.298,0.604-0.665,1.071-1.103,1.399s-0.986,0.576-1.646,0.743c-0.66,0.168-1.468,0.251-2.425,0.251H22.881z M24.87,116.566h3.25
		c0.882,0,1.514-0.058,1.897-0.174c0.506-0.15,0.887-0.4,1.144-0.749c0.256-0.349,0.384-0.786,0.384-1.313
		c0-0.499-0.12-0.938-0.359-1.318c-0.239-0.379-0.581-0.639-1.025-0.779c-0.444-0.14-1.207-0.21-2.287-0.21H24.87V116.566z
		 M24.87,123.508h3.743c0.643,0,1.094-0.024,1.354-0.072c0.458-0.082,0.841-0.219,1.148-0.41s0.561-0.47,0.759-0.835
		s0.297-0.788,0.297-1.267c0-0.561-0.144-1.047-0.431-1.461s-0.686-0.704-1.194-0.872c-0.51-0.167-1.243-0.251-2.2-0.251H24.87
		V123.508z"/>
</g>
<g>
	<path d="M373.783,256.833l1.877-0.164c0.088,0.752,0.295,1.369,0.62,1.851c0.324,0.482,0.829,0.872,1.513,1.169
		c0.684,0.298,1.452,0.446,2.307,0.446c0.759,0,1.429-0.113,2.01-0.338s1.014-0.535,1.297-0.928
		c0.283-0.393,0.426-0.822,0.426-1.287c0-0.472-0.137-0.883-0.41-1.236c-0.273-0.352-0.725-0.647-1.354-0.887
		c-0.403-0.157-1.295-0.401-2.676-0.733c-1.381-0.331-2.349-0.644-2.902-0.938c-0.718-0.376-1.253-0.842-1.604-1.4
		c-0.353-0.557-0.528-1.181-0.528-1.871c0-0.759,0.215-1.468,0.646-2.128c0.43-0.659,1.059-1.16,1.887-1.502
		c0.826-0.342,1.746-0.513,2.758-0.513c1.114,0,2.097,0.18,2.948,0.538c0.851,0.359,1.505,0.887,1.964,1.584
		c0.457,0.697,0.703,1.487,0.738,2.369l-1.908,0.144c-0.102-0.95-0.449-1.668-1.04-2.153c-0.592-0.485-1.465-0.728-2.62-0.728
		c-1.203,0-2.08,0.22-2.63,0.662c-0.551,0.44-0.825,0.972-0.825,1.594c0,0.54,0.194,0.984,0.584,1.333
		c0.383,0.349,1.383,0.706,2.999,1.072s2.726,0.685,3.327,0.958c0.875,0.403,1.521,0.915,1.938,1.533
		c0.417,0.619,0.626,1.332,0.626,2.138c0,0.8-0.229,1.553-0.688,2.261c-0.458,0.707-1.116,1.258-1.974,1.65
		c-0.858,0.393-1.823,0.59-2.897,0.59c-1.359,0-2.5-0.198-3.419-0.595c-0.92-0.396-1.641-0.993-2.164-1.789
		C374.086,258.738,373.811,257.837,373.783,256.833z"/>
</g>
<g>
	<path d="M384.606,86.313l1.989,0.502c-0.417,1.634-1.168,2.88-2.251,3.737c-1.083,0.858-2.407,1.287-3.974,1.287
		c-1.619,0-2.938-0.33-3.952-0.989c-1.016-0.66-1.788-1.615-2.317-2.866c-0.53-1.251-0.795-2.594-0.795-4.03
		c0-1.565,0.299-2.931,0.897-4.096c0.598-1.166,1.448-2.051,2.553-2.656c1.104-0.604,2.319-0.907,3.646-0.907
		c1.504,0,2.769,0.383,3.794,1.148s1.739,1.842,2.144,3.23l-1.959,0.461c-0.349-1.094-0.854-1.89-1.518-2.389
		s-1.497-0.749-2.502-0.749c-1.155,0-2.121,0.277-2.896,0.831c-0.776,0.554-1.321,1.297-1.636,2.23
		c-0.314,0.934-0.472,1.896-0.472,2.887c0,1.278,0.186,2.395,0.559,3.348c0.373,0.954,0.952,1.667,1.738,2.138
		s1.637,0.708,2.553,0.708c1.115,0,2.059-0.321,2.83-0.964C383.811,88.531,384.333,87.578,384.606,86.313z"/>
</g>
</svg>
