<?xml version="1.0" encoding="utf-8"?>
<!-- Generator: Adobe Illustrator 15.1.0, SVG Export Plug-In . SVG Version: 6.00 Build 0)  -->
<!DOCTYPE svg PUBLIC "-//W3C//DTD SVG 1.1//EN" "http://www.w3.org/Graphics/SVG/1.1/DTD/svg11.dtd">
<svg version="1.1" id="Layer_1" xmlns="http://www.w3.org/2000/svg" xmlns:xlink="http://www.w3.org/1999/xlink" x="0px" y="0px"
	 width="1190.55px" height="204.095px" viewBox="0 0 1190.55 204.095" enable-background="new 0 0 1190.55 204.095"
	 xml:space="preserve">
<g>
	<path fill="none" stroke="#000000" stroke-width="3" stroke-miterlimit="10" d="M204.095,34.016
		c37.572,0,68.031,30.459,68.031,68.031c0,37.573-30.459,68.032-68.031,68.032"/>
	<line fill="none" stroke="#000000" stroke-width="3" stroke-miterlimit="10" x1="204.095" y1="34.016" x2="136.063" y2="34.016"/>
	
		<line fill="none" stroke="#000000" stroke-width="3" stroke-miterlimit="10" x1="204.095" y1="170.078" x2="136.063" y2="170.078"/>
	<path fill="none" stroke="#000000" stroke-width="3" stroke-miterlimit="10" d="M272.126,102.045c0,9.395,7.613,17.01,17.008,17.01
		c9.39,0,17.008-7.615,17.008-17.01c0-9.392-7.618-17.007-17.008-17.007C279.739,85.038,272.126,92.653,272.126,102.045z"/>
	
		<line fill="none" stroke="#000000" stroke-width="3" stroke-miterlimit="10" x1="340.157" y1="102.047" x2="306.142" y2="102.047"/>
	<polyline fill="none" stroke="#000000" stroke-width="3" stroke-miterlimit="10" points="136.063,34.016 102.048,34.016 
		102.048,102.047 	"/>
	<polyline fill="none" stroke="#000000" stroke-width="3" stroke-miterlimit="10" points="136.063,170.078 102.048,170.078 
		102.048,102.047 	"/>
	<polyline fill="none" stroke="#000000" stroke-width="3" stroke-miterlimit="10" points="102.048,68.031 68.032,68.031 
		68.032,136.063 102.048,136.063 	"/>
</g>
<g>
	<path fill="none" stroke="#000000" stroke-width="3" stroke-miterlimit="10" d="M476.22,34.016
		c37.572,0,68.031,30.459,68.031,68.031c0,37.573-30.459,68.032-68.031,68.032"/>
	<line fill="none" stroke="#000000" stroke-width="3" stroke-miterlimit="10" x1="476.22" y1="34.016" x2="408.188" y2="34.016"/>
	<line fill="none" stroke="#000000" stroke-width="3" stroke-miterlimit="10" x1="476.22" y1="170.078" x2="408.188" y2="170.078"/>
	<path fill="none" stroke="#000000" stroke-width="3" stroke-miterlimit="10" d="M544.251,102.045c0,9.395,7.613,17.01,17.008,17.01
		c9.39,0,17.008-7.615,17.008-17.01c0-9.392-7.618-17.007-17.008-17.007C551.864,85.038,544.251,92.653,544.251,102.045z"/>
	
		<line fill="none" stroke="#000000" stroke-width="3" stroke-miterlimit="10" x1="612.282" y1="102.047" x2="578.267" y2="102.047"/>
	<polyline fill="none" stroke="#000000" stroke-width="3" stroke-miterlimit="10" points="408.188,34.016 374.173,34.016 
		374.173,102.047 	"/>
	<polyline fill="none" stroke="#000000" stroke-width="3" stroke-miterlimit="10" points="408.188,170.078 374.173,170.078 
		374.173,102.047 	"/>
	<polyline fill="none" stroke="#000000" stroke-width="3" stroke-miterlimit="10" points="374.173,68.031 340.157,68.031 
		340.157,136.063 374.173,136.063 	"/>
</g>
<g>
	<path fill="none" stroke="#000000" stroke-width="3" stroke-miterlimit="10" d="M748.345,34.016
		c37.572,0,68.031,30.459,68.031,68.031c0,37.573-30.459,68.032-68.031,68.032"/>
	<line fill="none" stroke="#000000" stroke-width="3" stroke-miterlimit="10" x1="748.345" y1="34.016" x2="680.313" y2="34.016"/>
	
		<line fill="none" stroke="#000000" stroke-width="3" stroke-miterlimit="10" x1="748.345" y1="170.078" x2="680.313" y2="170.078"/>
	<path fill="none" stroke="#000000" stroke-width="3" stroke-miterlimit="10" d="M816.376,102.045c0,9.395,7.613,17.01,17.008,17.01
		c9.39,0,17.008-7.615,17.008-17.01c0-9.392-7.618-17.007-17.008-17.007C823.989,85.038,816.376,92.653,816.376,102.045z"/>
	
		<line fill="none" stroke="#000000" stroke-width="3" stroke-miterlimit="10" x1="884.407" y1="102.047" x2="850.392" y2="102.047"/>
	<polyline fill="none" stroke="#000000" stroke-width="3" stroke-miterlimit="10" points="680.313,34.016 646.298,34.016 
		646.298,102.047 	"/>
	<polyline fill="none" stroke="#000000" stroke-width="3" stroke-miterlimit="10" points="680.313,170.078 646.298,170.078 
		646.298,102.047 	"/>
	<polyline fill="none" stroke="#000000" stroke-width="3" stroke-miterlimit="10" points="646.298,68.031 612.282,68.031 
		612.282,136.063 646.298,136.063 	"/>
</g>
<g>
	<path fill="none" stroke="#000000" stroke-width="3" stroke-miterlimit="10" d="M1020.47,34.016
		c37.572,0,68.031,30.459,68.031,68.031c0,37.573-30.459,68.032-68.031,68.032"/>
	<line fill="none" stroke="#000000" stroke-width="3" stroke-miterlimit="10" x1="1020.47" y1="34.016" x2="952.438" y2="34.016"/>
	
		<line fill="none" stroke="#000000" stroke-width="3" stroke-miterlimit="10" x1="1020.47" y1="170.078" x2="952.438" y2="170.078"/>
	<path fill="none" stroke="#000000" stroke-width="3" stroke-miterlimit="10" d="M1088.501,102.045
		c0,9.395,7.613,17.01,17.008,17.01c9.39,0,17.008-7.615,17.008-17.01c0-9.392-7.618-17.007-17.008-17.007
		C1096.114,85.038,1088.501,92.653,1088.501,102.045z"/>
	
		<line fill="none" stroke="#000000" stroke-width="3" stroke-miterlimit="10" x1="1156.532" y1="102.047" x2="1122.517" y2="102.047"/>
	<polyline fill="none" stroke="#000000" stroke-width="3" stroke-miterlimit="10" points="952.438,34.016 918.423,34.016 
		918.423,102.047 	"/>
	<polyline fill="none" stroke="#000000" stroke-width="3" stroke-miterlimit="10" points="952.438,170.078 918.423,170.078 
		918.423,102.047 	"/>
	<polyline fill="none" stroke="#000000" stroke-width="3" stroke-miterlimit="10" points="918.423,68.031 884.407,68.031 
		884.407,136.063 918.423,136.063 	"/>
</g>
<line fill="none" stroke="#000000" stroke-width="3" stroke-miterlimit="10" x1="34.016" y1="102.047" x2="68.031" y2="102.047"/>
<path fill="none" stroke="#000000" stroke-width="3" stroke-miterlimit="10" d="M34.017,102.044c0,3.133-2.541,5.672-5.674,5.672
	c-3.127,0-5.666-2.539-5.666-5.672c0-3.13,2.539-5.668,5.666-5.668C31.476,96.376,34.017,98.915,34.017,102.044z"/>
<path fill="none" stroke="#000000" stroke-width="3" stroke-miterlimit="10" d="M1167.876,102.044c0,3.133-2.541,5.672-5.674,5.672
	c-3.127,0-5.666-2.539-5.666-5.672c0-3.13,2.539-5.668,5.666-5.668C1165.335,96.376,1167.876,98.915,1167.876,102.044z"/>
<g>
	<path d="M109.875,78.208l9.896-25.77h3.674l10.547,25.77h-3.885l-3.006-7.805h-10.775l-2.83,7.805H109.875z M117.31,67.626h8.736
		l-2.689-7.137c-0.82-2.168-1.43-3.949-1.828-5.344c-0.328,1.652-0.791,3.293-1.389,4.922L117.31,67.626z"/>
</g>
<g>
	<path d="M112.564,148.764v-25.77h9.668c1.969,0,3.548,0.261,4.737,0.782s2.121,1.324,2.795,2.408s1.011,2.218,1.011,3.401
		c0,1.102-0.299,2.139-0.896,3.111s-1.5,1.758-2.707,2.355c1.559,0.457,2.757,1.236,3.595,2.338s1.257,2.402,1.257,3.902
		c0,1.207-0.255,2.329-0.765,3.366s-1.14,1.837-1.89,2.399s-1.69,0.987-2.821,1.274s-2.517,0.431-4.157,0.431H112.564z
		 M115.974,133.822h5.572c1.512,0,2.596-0.1,3.252-0.299c0.867-0.258,1.521-0.686,1.96-1.283s0.659-1.348,0.659-2.25
		c0-0.855-0.205-1.608-0.615-2.259s-0.996-1.096-1.758-1.336s-2.068-0.36-3.92-0.36h-5.15V133.822z M115.974,145.723h6.416
		c1.102,0,1.875-0.041,2.32-0.123c0.785-0.141,1.441-0.375,1.969-0.703s0.961-0.806,1.301-1.433s0.51-1.351,0.51-2.171
		c0-0.961-0.246-1.796-0.738-2.505s-1.175-1.207-2.048-1.494s-2.13-0.431-3.771-0.431h-5.959V145.723z"/>
</g>
<g>
	<path d="M382,78.208l9.896-25.77h3.674l10.547,25.77h-3.885l-3.006-7.805h-10.775l-2.83,7.805H382z M389.436,67.626h8.736
		l-2.689-7.137c-0.82-2.168-1.43-3.949-1.828-5.344c-0.328,1.652-0.791,3.293-1.389,4.922L389.436,67.626z"/>
</g>
<g>
	<path d="M384.689,148.764v-25.77h9.668c1.969,0,3.549,0.261,4.738,0.782s2.121,1.324,2.795,2.408s1.01,2.218,1.01,3.401
		c0,1.102-0.299,2.139-0.896,3.111s-1.5,1.758-2.707,2.355c1.559,0.457,2.758,1.236,3.596,2.338s1.256,2.402,1.256,3.902
		c0,1.207-0.254,2.329-0.764,3.366s-1.141,1.837-1.891,2.399s-1.689,0.987-2.82,1.274s-2.518,0.431-4.158,0.431H384.689z
		 M388.1,133.822h5.572c1.512,0,2.596-0.1,3.252-0.299c0.867-0.258,1.521-0.686,1.961-1.283s0.658-1.348,0.658-2.25
		c0-0.855-0.205-1.608-0.615-2.259s-0.996-1.096-1.758-1.336s-2.068-0.36-3.92-0.36h-5.15V133.822z M388.1,145.723h6.416
		c1.102,0,1.875-0.041,2.32-0.123c0.785-0.141,1.441-0.375,1.969-0.703s0.961-0.806,1.301-1.433s0.51-1.351,0.51-2.171
		c0-0.961-0.246-1.796-0.738-2.505s-1.174-1.207-2.047-1.494s-2.131-0.431-3.771-0.431H388.1V145.723z"/>
</g>
<g>
	<path d="M654.127,78.208l9.896-25.77h3.674l10.547,25.77h-3.885l-3.006-7.805h-10.775l-2.83,7.805H654.127z M661.563,67.626h8.736
		l-2.689-7.137c-0.82-2.168-1.43-3.949-1.828-5.344c-0.328,1.652-0.791,3.293-1.389,4.922L661.563,67.626z"/>
</g>
<g>
	<path d="M656.816,148.764v-25.77h9.668c1.969,0,3.547,0.261,4.736,0.782s2.121,1.324,2.795,2.408s1.012,2.218,1.012,3.401
		c0,1.102-0.299,2.139-0.896,3.111s-1.5,1.758-2.707,2.355c1.559,0.457,2.756,1.236,3.594,2.338s1.258,2.402,1.258,3.902
		c0,1.207-0.256,2.329-0.766,3.366s-1.139,1.837-1.889,2.399s-1.691,0.987-2.822,1.274s-2.516,0.431-4.156,0.431H656.816z
		 M660.227,133.822h5.572c1.512,0,2.596-0.1,3.252-0.299c0.867-0.258,1.52-0.686,1.959-1.283s0.66-1.348,0.66-2.25
		c0-0.855-0.205-1.608-0.615-2.259s-0.996-1.096-1.758-1.336s-2.068-0.36-3.92-0.36h-5.15V133.822z M660.227,145.723h6.416
		c1.102,0,1.875-0.041,2.32-0.123c0.785-0.141,1.441-0.375,1.969-0.703s0.961-0.806,1.301-1.433s0.51-1.351,0.51-2.171
		c0-0.961-0.246-1.796-0.738-2.505s-1.176-1.207-2.049-1.494s-2.129-0.431-3.77-0.431h-5.959V145.723z"/>
</g>
<g>
	<path d="M926.252,78.208l9.896-25.77h3.674l10.547,25.77h-3.885l-3.006-7.805h-10.775l-2.83,7.805H926.252z M933.688,67.626h8.736
		l-2.689-7.137c-0.82-2.168-1.43-3.949-1.828-5.344c-0.328,1.652-0.791,3.293-1.389,4.922L933.688,67.626z"/>
</g>
<g>
	<path d="M928.941,148.764v-25.77h9.668c1.969,0,3.549,0.261,4.738,0.782s2.121,1.324,2.795,2.408s1.01,2.218,1.01,3.401
		c0,1.102-0.299,2.139-0.896,3.111s-1.5,1.758-2.707,2.355c1.559,0.457,2.758,1.236,3.596,2.338s1.256,2.402,1.256,3.902
		c0,1.207-0.254,2.329-0.764,3.366s-1.141,1.837-1.891,2.399s-1.689,0.987-2.82,1.274s-2.518,0.431-4.158,0.431H928.941z
		 M932.352,133.822h5.572c1.512,0,2.596-0.1,3.252-0.299c0.867-0.258,1.521-0.686,1.961-1.283s0.658-1.348,0.658-2.25
		c0-0.855-0.205-1.608-0.615-2.259s-0.996-1.096-1.758-1.336s-2.068-0.36-3.92-0.36h-5.15V133.822z M932.352,145.723h6.416
		c1.102,0,1.875-0.041,2.32-0.123c0.785-0.141,1.441-0.375,1.969-0.703s0.961-0.806,1.301-1.433s0.51-1.351,0.51-2.171
		c0-0.961-0.246-1.796-0.738-2.505s-1.174-1.207-2.047-1.494s-2.131-0.431-3.771-0.431h-5.959V145.723z"/>
</g>
<g>
	<path d="M18.578,68.031v-25.77h3.41v25.77H18.578z"/>
	<path d="M27.965,68.031v-25.77h3.498l13.535,20.232V42.262h3.27v25.77H44.77l-13.535-20.25v20.25H27.965z"/>
</g>
<g>
	<path d="M1107.249,55.48c0-4.277,1.148-7.626,3.445-10.046s5.262-3.63,8.895-3.63c2.379,0,4.523,0.568,6.434,1.705
		s3.366,2.722,4.368,4.755s1.503,4.339,1.503,6.917c0,2.613-0.527,4.951-1.582,7.014s-2.549,3.624-4.482,4.685
		s-4.02,1.591-6.258,1.591c-2.426,0-4.594-0.586-6.504-1.758s-3.357-2.771-4.342-4.799S1107.249,57.742,1107.249,55.48z
		 M1110.765,55.533c0,3.105,0.835,5.552,2.505,7.339s3.765,2.681,6.284,2.681c2.566,0,4.679-0.902,6.337-2.707
		s2.487-4.365,2.487-7.682c0-2.098-0.354-3.929-1.063-5.493s-1.746-2.777-3.111-3.639s-2.897-1.292-4.597-1.292
		c-2.414,0-4.491,0.829-6.231,2.487S1110.765,51.654,1110.765,55.533z"/>
	<path d="M1153.198,42.262h3.41V57.15c0,2.59-0.293,4.646-0.879,6.17s-1.644,2.763-3.173,3.718s-3.536,1.433-6.021,1.433
		c-2.414,0-4.389-0.416-5.924-1.248s-2.631-2.036-3.287-3.612s-0.984-3.729-0.984-6.46V42.262h3.41v14.871
		c0,2.238,0.208,3.888,0.624,4.948s1.131,1.878,2.145,2.452s2.253,0.861,3.718,0.861c2.508,0,4.295-0.568,5.361-1.705
		s1.6-3.322,1.6-6.557V42.262z"/>
	<path d="M1168.843,68.031V45.303h-8.49v-3.041h20.426v3.041h-8.525v22.729H1168.843z"/>
</g>
</svg>
