<?xml version="1.0" encoding="utf-8"?>
<!-- Generator: Adobe Illustrator 15.1.0, SVG Export Plug-In . SVG Version: 6.00 Build 0)  -->
<!DOCTYPE svg PUBLIC "-//W3C//DTD SVG 1.1//EN" "http://www.w3.org/Graphics/SVG/1.1/DTD/svg11.dtd">
<svg version="1.1" id="Layer_1" xmlns="http://www.w3.org/2000/svg" xmlns:xlink="http://www.w3.org/1999/xlink" x="0px" y="0px"
	 width="1462.677px" height="204.095px" viewBox="0 0 1462.677 204.095" enable-background="new 0 0 1462.677 204.095"
	 xml:space="preserve">
<g>
	<line fill="none" stroke="#000000" stroke-width="3" stroke-miterlimit="10" x1="102.048" y1="34.016" x2="102.048" y2="102.047"/>
	
		<line fill="none" stroke="#000000" stroke-width="3" stroke-miterlimit="10" x1="102.048" y1="102.047" x2="102.048" y2="170.078"/>
	<path fill="none" stroke="#000000" stroke-width="3" stroke-miterlimit="10" d="M204.095,34.016
		c37.572,0,68.031,30.459,68.031,68.031c0,37.573-30.459,68.032-68.031,68.032"/>
	<line fill="none" stroke="#000000" stroke-width="3" stroke-miterlimit="10" x1="204.095" y1="34.016" x2="136.063" y2="34.016"/>
	
		<line fill="none" stroke="#000000" stroke-width="3" stroke-miterlimit="10" x1="204.095" y1="170.078" x2="136.063" y2="170.078"/>
	<path fill="none" stroke="#000000" stroke-width="3" stroke-miterlimit="10" d="M272.126,102.045c0,9.395,7.613,17.01,17.008,17.01
		c9.39,0,17.008-7.615,17.008-17.01c0-9.392-7.618-17.007-17.008-17.007C279.739,85.038,272.126,92.653,272.126,102.045z"/>
	
		<line fill="none" stroke="#000000" stroke-width="3" stroke-miterlimit="10" x1="340.157" y1="102.047" x2="306.142" y2="102.047"/>
	<line fill="none" stroke="#000000" stroke-width="3" stroke-miterlimit="10" x1="136.063" y1="34.016" x2="102.048" y2="34.016"/>
	
		<line fill="none" stroke="#000000" stroke-width="3" stroke-miterlimit="10" x1="136.063" y1="170.078" x2="102.048" y2="170.078"/>
	<polyline fill="none" stroke="#000000" stroke-width="3" stroke-miterlimit="10" points="102.048,68.031 68.032,68.031 
		68.032,136.063 102.048,136.063 	"/>
</g>
<g>
	<line fill="none" stroke="#000000" stroke-width="3" stroke-miterlimit="10" x1="374.173" y1="34.016" x2="374.173" y2="102.047"/>
	
		<line fill="none" stroke="#000000" stroke-width="3" stroke-miterlimit="10" x1="374.173" y1="102.047" x2="374.173" y2="170.078"/>
	<path fill="none" stroke="#000000" stroke-width="3" stroke-miterlimit="10" d="M476.22,34.016
		c37.572,0,68.031,30.459,68.031,68.031c0,37.573-30.459,68.032-68.031,68.032"/>
	<line fill="none" stroke="#000000" stroke-width="3" stroke-miterlimit="10" x1="476.22" y1="34.016" x2="408.188" y2="34.016"/>
	<line fill="none" stroke="#000000" stroke-width="3" stroke-miterlimit="10" x1="476.22" y1="170.078" x2="408.188" y2="170.078"/>
	<path fill="none" stroke="#000000" stroke-width="3" stroke-miterlimit="10" d="M544.251,102.045c0,9.395,7.613,17.01,17.008,17.01
		c9.39,0,17.008-7.615,17.008-17.01c0-9.392-7.618-17.007-17.008-17.007C551.864,85.038,544.251,92.653,544.251,102.045z"/>
	
		<line fill="none" stroke="#000000" stroke-width="3" stroke-miterlimit="10" x1="612.282" y1="102.047" x2="578.267" y2="102.047"/>
	<line fill="none" stroke="#000000" stroke-width="3" stroke-miterlimit="10" x1="408.188" y1="34.016" x2="374.173" y2="34.016"/>
	
		<line fill="none" stroke="#000000" stroke-width="3" stroke-miterlimit="10" x1="408.188" y1="170.078" x2="374.173" y2="170.078"/>
	<polyline fill="none" stroke="#000000" stroke-width="3" stroke-miterlimit="10" points="374.173,68.031 340.157,68.031 
		340.157,136.063 374.173,136.063 	"/>
</g>
<g>
	<line fill="none" stroke="#000000" stroke-width="3" stroke-miterlimit="10" x1="646.298" y1="34.016" x2="646.298" y2="102.047"/>
	
		<line fill="none" stroke="#000000" stroke-width="3" stroke-miterlimit="10" x1="646.298" y1="102.047" x2="646.298" y2="170.078"/>
	<path fill="none" stroke="#000000" stroke-width="3" stroke-miterlimit="10" d="M748.345,34.016
		c37.572,0,68.031,30.459,68.031,68.031c0,37.573-30.459,68.032-68.031,68.032"/>
	<line fill="none" stroke="#000000" stroke-width="3" stroke-miterlimit="10" x1="748.345" y1="34.016" x2="680.313" y2="34.016"/>
	
		<line fill="none" stroke="#000000" stroke-width="3" stroke-miterlimit="10" x1="748.345" y1="170.078" x2="680.313" y2="170.078"/>
	<path fill="none" stroke="#000000" stroke-width="3" stroke-miterlimit="10" d="M816.376,102.045c0,9.395,7.613,17.01,17.008,17.01
		c9.39,0,17.008-7.615,17.008-17.01c0-9.392-7.618-17.007-17.008-17.007C823.989,85.038,816.376,92.653,816.376,102.045z"/>
	
		<line fill="none" stroke="#000000" stroke-width="3" stroke-miterlimit="10" x1="884.407" y1="102.047" x2="850.392" y2="102.047"/>
	<line fill="none" stroke="#000000" stroke-width="3" stroke-miterlimit="10" x1="680.313" y1="34.016" x2="646.298" y2="34.016"/>
	
		<line fill="none" stroke="#000000" stroke-width="3" stroke-miterlimit="10" x1="680.313" y1="170.078" x2="646.298" y2="170.078"/>
	<polyline fill="none" stroke="#000000" stroke-width="3" stroke-miterlimit="10" points="646.298,68.031 612.282,68.031 
		612.282,136.063 646.298,136.063 	"/>
</g>
<g>
	<line fill="none" stroke="#000000" stroke-width="3" stroke-miterlimit="10" x1="918.423" y1="34.016" x2="918.423" y2="102.047"/>
	
		<line fill="none" stroke="#000000" stroke-width="3" stroke-miterlimit="10" x1="918.423" y1="102.047" x2="918.423" y2="170.078"/>
	<path fill="none" stroke="#000000" stroke-width="3" stroke-miterlimit="10" d="M1020.47,34.016
		c37.572,0,68.031,30.459,68.031,68.031c0,37.573-30.459,68.032-68.031,68.032"/>
	<line fill="none" stroke="#000000" stroke-width="3" stroke-miterlimit="10" x1="1020.47" y1="34.016" x2="952.438" y2="34.016"/>
	
		<line fill="none" stroke="#000000" stroke-width="3" stroke-miterlimit="10" x1="1020.47" y1="170.078" x2="952.438" y2="170.078"/>
	<path fill="none" stroke="#000000" stroke-width="3" stroke-miterlimit="10" d="M1088.501,102.045
		c0,9.395,7.613,17.01,17.008,17.01c9.39,0,17.008-7.615,17.008-17.01c0-9.392-7.618-17.007-17.008-17.007
		C1096.114,85.038,1088.501,92.653,1088.501,102.045z"/>
	
		<line fill="none" stroke="#000000" stroke-width="3" stroke-miterlimit="10" x1="1156.532" y1="102.047" x2="1122.517" y2="102.047"/>
	<line fill="none" stroke="#000000" stroke-width="3" stroke-miterlimit="10" x1="952.438" y1="34.016" x2="918.423" y2="34.016"/>
	
		<line fill="none" stroke="#000000" stroke-width="3" stroke-miterlimit="10" x1="952.438" y1="170.078" x2="918.423" y2="170.078"/>
	<polyline fill="none" stroke="#000000" stroke-width="3" stroke-miterlimit="10" points="918.423,68.031 884.407,68.031 
		884.407,136.063 918.423,136.063 	"/>
</g>
<g>
	
		<line fill="none" stroke="#000000" stroke-width="3" stroke-miterlimit="10" x1="1190.548" y1="34.016" x2="1190.548" y2="102.047"/>
	
		<line fill="none" stroke="#000000" stroke-width="3" stroke-miterlimit="10" x1="1190.548" y1="102.047" x2="1190.548" y2="170.078"/>
	<path fill="none" stroke="#000000" stroke-width="3" stroke-miterlimit="10" d="M1292.595,34.016
		c37.572,0,68.031,30.459,68.031,68.031c0,37.573-30.459,68.032-68.031,68.032"/>
	
		<line fill="none" stroke="#000000" stroke-width="3" stroke-miterlimit="10" x1="1292.595" y1="34.016" x2="1224.563" y2="34.016"/>
	
		<line fill="none" stroke="#000000" stroke-width="3" stroke-miterlimit="10" x1="1292.595" y1="170.078" x2="1224.563" y2="170.078"/>
	<path fill="none" stroke="#000000" stroke-width="3" stroke-miterlimit="10" d="M1360.626,102.045
		c0,9.395,7.613,17.01,17.008,17.01c9.39,0,17.008-7.615,17.008-17.01c0-9.392-7.618-17.007-17.008-17.007
		C1368.239,85.038,1360.626,92.653,1360.626,102.045z"/>
	
		<line fill="none" stroke="#000000" stroke-width="3" stroke-miterlimit="10" x1="1428.657" y1="102.047" x2="1394.642" y2="102.047"/>
	
		<line fill="none" stroke="#000000" stroke-width="3" stroke-miterlimit="10" x1="1224.563" y1="34.016" x2="1190.548" y2="34.016"/>
	
		<line fill="none" stroke="#000000" stroke-width="3" stroke-miterlimit="10" x1="1224.563" y1="170.078" x2="1190.548" y2="170.078"/>
	<polyline fill="none" stroke="#000000" stroke-width="3" stroke-miterlimit="10" points="1190.548,68.031 1156.532,68.031 
		1156.532,136.063 1190.548,136.063 	"/>
</g>
<line fill="none" stroke="#000000" stroke-width="3" stroke-miterlimit="10" x1="34.016" y1="102.047" x2="68.031" y2="102.047"/>
<path fill="none" stroke="#000000" stroke-width="3" stroke-miterlimit="10" d="M34.017,102.044c0,3.133-2.541,5.672-5.674,5.672
	c-3.127,0-5.666-2.539-5.666-5.672c0-3.13,2.539-5.668,5.666-5.668C31.476,96.376,34.017,98.915,34.017,102.044z"/>
<path fill="none" stroke="#000000" stroke-width="3" stroke-miterlimit="10" d="M1440.001,102.044c0,3.133-2.541,5.672-5.674,5.672
	c-3.127,0-5.666-2.539-5.666-5.672c0-3.13,2.539-5.668,5.666-5.668C1437.46,96.376,1440.001,98.915,1440.001,102.044z"/>
<g>
	<path d="M22.646,90.708l5.773-15.032h2.143l6.152,15.032h-2.266l-1.753-4.553H26.41l-1.651,4.553H22.646z M26.984,84.536h5.096
		l-1.569-4.163c-0.479-1.265-0.834-2.304-1.066-3.117c-0.191,0.964-0.461,1.921-0.81,2.871L26.984,84.536z"/>
</g>
<g>
	<path d="M1428.754,90.708l5.813-7.834l-5.127-7.198h2.368l2.729,3.855c0.566,0.8,0.97,1.415,1.209,1.846
		c0.335-0.547,0.731-1.118,1.189-1.712l3.025-3.989h2.164l-5.281,7.085l5.691,7.947h-2.461l-3.784-5.363
		c-0.212-0.308-0.431-0.643-0.656-1.005c-0.335,0.547-0.574,0.923-0.718,1.128l-3.773,5.24H1428.754z"/>
</g>
</svg>
