<?xml version="1.0" encoding="utf-8"?>
<!-- Generator: Adobe Illustrator 15.1.0, SVG Export Plug-In . SVG Version: 6.00 Build 0)  -->
<!DOCTYPE svg PUBLIC "-//W3C//DTD SVG 1.1//EN" "http://www.w3.org/Graphics/SVG/1.1/DTD/svg11.dtd">
<svg version="1.1" id="Layer_1" xmlns="http://www.w3.org/2000/svg" xmlns:xlink="http://www.w3.org/1999/xlink" x="0px" y="0px"
	 width="1462.677px" height="204.095px" viewBox="0 0 1462.677 204.095" enable-background="new 0 0 1462.677 204.095"
	 xml:space="preserve">
<g>
	<path fill="none" stroke="#000000" stroke-width="3" stroke-miterlimit="10" d="M204.095,34.016
		c37.572,0,68.031,30.459,68.031,68.031c0,37.573-30.459,68.032-68.031,68.032"/>
	<line fill="none" stroke="#000000" stroke-width="3" stroke-miterlimit="10" x1="204.095" y1="34.016" x2="136.063" y2="34.016"/>
	
		<line fill="none" stroke="#000000" stroke-width="3" stroke-miterlimit="10" x1="204.095" y1="170.078" x2="136.063" y2="170.078"/>
	<path fill="none" stroke="#000000" stroke-width="3" stroke-miterlimit="10" d="M272.126,102.045c0,9.395,7.613,17.01,17.008,17.01
		c9.39,0,17.008-7.615,17.008-17.01c0-9.392-7.618-17.007-17.008-17.007C279.739,85.038,272.126,92.653,272.126,102.045z"/>
	
		<line fill="none" stroke="#000000" stroke-width="3" stroke-miterlimit="10" x1="340.157" y1="102.047" x2="306.142" y2="102.047"/>
	<polyline fill="none" stroke="#000000" stroke-width="3" stroke-miterlimit="10" points="136.063,34.016 102.048,34.016 
		102.048,102.047 	"/>
	<polyline fill="none" stroke="#000000" stroke-width="3" stroke-miterlimit="10" points="136.063,170.078 102.048,170.078 
		102.048,102.047 	"/>
	<polyline fill="none" stroke="#000000" stroke-width="3" stroke-miterlimit="10" points="102.048,68.031 68.032,68.031 
		68.032,136.063 102.048,136.063 	"/>
</g>
<g>
	<path fill="none" stroke="#000000" stroke-width="3" stroke-miterlimit="10" d="M476.22,34.016
		c37.572,0,68.031,30.459,68.031,68.031c0,37.573-30.459,68.032-68.031,68.032"/>
	<line fill="none" stroke="#000000" stroke-width="3" stroke-miterlimit="10" x1="476.22" y1="34.016" x2="408.188" y2="34.016"/>
	<line fill="none" stroke="#000000" stroke-width="3" stroke-miterlimit="10" x1="476.22" y1="170.078" x2="408.188" y2="170.078"/>
	<path fill="none" stroke="#000000" stroke-width="3" stroke-miterlimit="10" d="M544.251,102.045c0,9.395,7.613,17.01,17.008,17.01
		c9.39,0,17.008-7.615,17.008-17.01c0-9.392-7.618-17.007-17.008-17.007C551.864,85.038,544.251,92.653,544.251,102.045z"/>
	
		<line fill="none" stroke="#000000" stroke-width="3" stroke-miterlimit="10" x1="612.282" y1="102.047" x2="578.267" y2="102.047"/>
	<polyline fill="none" stroke="#000000" stroke-width="3" stroke-miterlimit="10" points="408.188,34.016 374.173,34.016 
		374.173,102.047 	"/>
	<polyline fill="none" stroke="#000000" stroke-width="3" stroke-miterlimit="10" points="408.188,170.078 374.173,170.078 
		374.173,102.047 	"/>
	<polyline fill="none" stroke="#000000" stroke-width="3" stroke-miterlimit="10" points="374.173,68.031 340.157,68.031 
		340.157,136.063 374.173,136.063 	"/>
</g>
<g>
	<path fill="none" stroke="#000000" stroke-width="3" stroke-miterlimit="10" d="M748.345,34.016
		c37.572,0,68.031,30.459,68.031,68.031c0,37.573-30.459,68.032-68.031,68.032"/>
	<line fill="none" stroke="#000000" stroke-width="3" stroke-miterlimit="10" x1="748.345" y1="34.016" x2="680.313" y2="34.016"/>
	
		<line fill="none" stroke="#000000" stroke-width="3" stroke-miterlimit="10" x1="748.345" y1="170.078" x2="680.313" y2="170.078"/>
	<path fill="none" stroke="#000000" stroke-width="3" stroke-miterlimit="10" d="M816.376,102.045c0,9.395,7.613,17.01,17.008,17.01
		c9.39,0,17.008-7.615,17.008-17.01c0-9.392-7.618-17.007-17.008-17.007C823.989,85.038,816.376,92.653,816.376,102.045z"/>
	
		<line fill="none" stroke="#000000" stroke-width="3" stroke-miterlimit="10" x1="884.407" y1="102.047" x2="850.392" y2="102.047"/>
	<polyline fill="none" stroke="#000000" stroke-width="3" stroke-miterlimit="10" points="680.313,34.016 646.298,34.016 
		646.298,102.047 	"/>
	<polyline fill="none" stroke="#000000" stroke-width="3" stroke-miterlimit="10" points="680.313,170.078 646.298,170.078 
		646.298,102.047 	"/>
	<polyline fill="none" stroke="#000000" stroke-width="3" stroke-miterlimit="10" points="646.298,68.031 612.282,68.031 
		612.282,136.063 646.298,136.063 	"/>
</g>
<g>
	<path fill="none" stroke="#000000" stroke-width="3" stroke-miterlimit="10" d="M1020.47,34.016
		c37.572,0,68.031,30.459,68.031,68.031c0,37.573-30.459,68.032-68.031,68.032"/>
	<line fill="none" stroke="#000000" stroke-width="3" stroke-miterlimit="10" x1="1020.47" y1="34.016" x2="952.438" y2="34.016"/>
	
		<line fill="none" stroke="#000000" stroke-width="3" stroke-miterlimit="10" x1="1020.47" y1="170.078" x2="952.438" y2="170.078"/>
	<path fill="none" stroke="#000000" stroke-width="3" stroke-miterlimit="10" d="M1088.501,102.045
		c0,9.395,7.613,17.01,17.008,17.01c9.39,0,17.008-7.615,17.008-17.01c0-9.392-7.618-17.007-17.008-17.007
		C1096.114,85.038,1088.501,92.653,1088.501,102.045z"/>
	
		<line fill="none" stroke="#000000" stroke-width="3" stroke-miterlimit="10" x1="1156.532" y1="102.047" x2="1122.517" y2="102.047"/>
	<polyline fill="none" stroke="#000000" stroke-width="3" stroke-miterlimit="10" points="952.438,34.016 918.423,34.016 
		918.423,102.047 	"/>
	<polyline fill="none" stroke="#000000" stroke-width="3" stroke-miterlimit="10" points="952.438,170.078 918.423,170.078 
		918.423,102.047 	"/>
	<polyline fill="none" stroke="#000000" stroke-width="3" stroke-miterlimit="10" points="918.423,68.031 884.407,68.031 
		884.407,136.063 918.423,136.063 	"/>
</g>
<g>
	<path fill="none" stroke="#000000" stroke-width="3" stroke-miterlimit="10" d="M1292.595,34.016
		c37.572,0,68.031,30.459,68.031,68.031c0,37.573-30.459,68.032-68.031,68.032"/>
	
		<line fill="none" stroke="#000000" stroke-width="3" stroke-miterlimit="10" x1="1292.595" y1="34.016" x2="1224.563" y2="34.016"/>
	
		<line fill="none" stroke="#000000" stroke-width="3" stroke-miterlimit="10" x1="1292.595" y1="170.078" x2="1224.563" y2="170.078"/>
	<path fill="none" stroke="#000000" stroke-width="3" stroke-miterlimit="10" d="M1360.626,102.045
		c0,9.395,7.613,17.01,17.008,17.01c9.39,0,17.008-7.615,17.008-17.01c0-9.392-7.618-17.007-17.008-17.007
		C1368.239,85.038,1360.626,92.653,1360.626,102.045z"/>
	
		<line fill="none" stroke="#000000" stroke-width="3" stroke-miterlimit="10" x1="1428.657" y1="102.047" x2="1394.642" y2="102.047"/>
	<polyline fill="none" stroke="#000000" stroke-width="3" stroke-miterlimit="10" points="1224.563,34.016 1190.548,34.016 
		1190.548,102.047 	"/>
	<polyline fill="none" stroke="#000000" stroke-width="3" stroke-miterlimit="10" points="1224.563,170.078 1190.548,170.078 
		1190.548,102.047 	"/>
	<polyline fill="none" stroke="#000000" stroke-width="3" stroke-miterlimit="10" points="1190.548,68.031 1156.532,68.031 
		1156.532,136.063 1190.548,136.063 	"/>
</g>
<line fill="none" stroke="#000000" stroke-width="3" stroke-miterlimit="10" x1="34.016" y1="102.047" x2="68.031" y2="102.047"/>
<path fill="none" stroke="#000000" stroke-width="3" stroke-miterlimit="10" d="M34.017,102.044c0,3.133-2.541,5.672-5.674,5.672
	c-3.127,0-5.666-2.539-5.666-5.672c0-3.13,2.539-5.668,5.666-5.668C31.476,96.376,34.017,98.915,34.017,102.044z"/>
<path fill="none" stroke="#000000" stroke-width="3" stroke-miterlimit="10" d="M1440.001,102.044c0,3.133-2.541,5.672-5.674,5.672
	c-3.127,0-5.666-2.539-5.666-5.672c0-3.13,2.539-5.668,5.666-5.668C1437.46,96.376,1440.001,98.915,1440.001,102.044z"/>
<g>
	<path d="M12.856,90.708l13.195-34.359h4.898l14.063,34.359h-5.18l-4.008-10.406H21.458l-3.773,10.406H12.856z M22.771,76.599
		h11.648l-3.586-9.516c-1.094-2.891-1.907-5.266-2.438-7.125c-0.438,2.203-1.055,4.391-1.852,6.563L22.771,76.599z"/>
</g>
<g>
	<path d="M1418.372,90.708l13.289-17.906l-11.719-16.453h5.414l6.234,8.813c1.297,1.828,2.219,3.234,2.766,4.219
		c0.766-1.25,1.672-2.555,2.719-3.914l6.914-9.117h4.945l-12.07,16.195l13.008,18.164h-5.625l-8.648-12.258
		c-0.484-0.703-0.984-1.468-1.5-2.297c-0.766,1.25-1.313,2.109-1.641,2.578l-8.625,11.977H1418.372z"/>
</g>
</svg>
