<?xml version="1.0" encoding="utf-8"?>
<!-- Generator: Adobe Illustrator 15.1.0, SVG Export Plug-In . SVG Version: 6.00 Build 0)  -->
<!DOCTYPE svg PUBLIC "-//W3C//DTD SVG 1.1//EN" "http://www.w3.org/Graphics/SVG/1.1/DTD/svg11.dtd">
<svg version="1.1" id="Layer_1" xmlns="http://www.w3.org/2000/svg" xmlns:xlink="http://www.w3.org/1999/xlink" x="0px" y="0px"
	 width="1190.55px" height="204.095px" viewBox="0 0 1190.55 204.095" enable-background="new 0 0 1190.55 204.095"
	 xml:space="preserve">
<g>
	<path fill="none" stroke="#000000" stroke-width="3" stroke-miterlimit="10" d="M204.095,34.016
		c37.572,0,68.031,30.459,68.031,68.031c0,37.573-30.459,68.032-68.031,68.032"/>
	<line fill="none" stroke="#000000" stroke-width="3" stroke-miterlimit="10" x1="204.095" y1="34.016" x2="136.063" y2="34.016"/>
	
		<line fill="none" stroke="#000000" stroke-width="3" stroke-miterlimit="10" x1="204.095" y1="170.078" x2="136.063" y2="170.078"/>
	<path fill="none" stroke="#000000" stroke-width="3" stroke-miterlimit="10" d="M272.126,102.045c0,9.395,7.613,17.01,17.008,17.01
		c9.39,0,17.008-7.615,17.008-17.01c0-9.392-7.618-17.007-17.008-17.007C279.739,85.038,272.126,92.653,272.126,102.045z"/>
	
		<line fill="none" stroke="#000000" stroke-width="3" stroke-miterlimit="10" x1="340.157" y1="102.047" x2="306.142" y2="102.047"/>
	<polyline fill="none" stroke="#000000" stroke-width="3" stroke-miterlimit="10" points="136.063,34.016 102.048,34.016 
		102.048,102.047 	"/>
	<polyline fill="none" stroke="#000000" stroke-width="3" stroke-miterlimit="10" points="136.063,170.078 102.048,170.078 
		102.048,102.047 	"/>
	<polyline fill="none" stroke="#000000" stroke-width="3" stroke-miterlimit="10" points="102.048,68.031 68.032,68.031 
		68.032,136.063 102.048,136.063 	"/>
</g>
<g>
	<path fill="none" stroke="#000000" stroke-width="3" stroke-miterlimit="10" d="M476.22,34.016
		c37.572,0,68.031,30.459,68.031,68.031c0,37.573-30.459,68.032-68.031,68.032"/>
	<line fill="none" stroke="#000000" stroke-width="3" stroke-miterlimit="10" x1="476.22" y1="34.016" x2="408.188" y2="34.016"/>
	<line fill="none" stroke="#000000" stroke-width="3" stroke-miterlimit="10" x1="476.22" y1="170.078" x2="408.188" y2="170.078"/>
	<path fill="none" stroke="#000000" stroke-width="3" stroke-miterlimit="10" d="M544.251,102.045c0,9.395,7.613,17.01,17.008,17.01
		c9.39,0,17.008-7.615,17.008-17.01c0-9.392-7.618-17.007-17.008-17.007C551.864,85.038,544.251,92.653,544.251,102.045z"/>
	
		<line fill="none" stroke="#000000" stroke-width="3" stroke-miterlimit="10" x1="612.282" y1="102.047" x2="578.267" y2="102.047"/>
	<polyline fill="none" stroke="#000000" stroke-width="3" stroke-miterlimit="10" points="408.188,34.016 374.173,34.016 
		374.173,102.047 	"/>
	<polyline fill="none" stroke="#000000" stroke-width="3" stroke-miterlimit="10" points="408.188,170.078 374.173,170.078 
		374.173,102.047 	"/>
	<polyline fill="none" stroke="#000000" stroke-width="3" stroke-miterlimit="10" points="374.173,68.031 340.157,68.031 
		340.157,136.063 374.173,136.063 	"/>
</g>
<g>
	<path fill="none" stroke="#000000" stroke-width="3" stroke-miterlimit="10" d="M748.345,34.016
		c37.572,0,68.031,30.459,68.031,68.031c0,37.573-30.459,68.032-68.031,68.032"/>
	<line fill="none" stroke="#000000" stroke-width="3" stroke-miterlimit="10" x1="748.345" y1="34.016" x2="680.313" y2="34.016"/>
	
		<line fill="none" stroke="#000000" stroke-width="3" stroke-miterlimit="10" x1="748.345" y1="170.078" x2="680.313" y2="170.078"/>
	<path fill="none" stroke="#000000" stroke-width="3" stroke-miterlimit="10" d="M816.376,102.045c0,9.395,7.613,17.01,17.008,17.01
		c9.39,0,17.008-7.615,17.008-17.01c0-9.392-7.618-17.007-17.008-17.007C823.989,85.038,816.376,92.653,816.376,102.045z"/>
	
		<line fill="none" stroke="#000000" stroke-width="3" stroke-miterlimit="10" x1="884.407" y1="102.047" x2="850.392" y2="102.047"/>
	<polyline fill="none" stroke="#000000" stroke-width="3" stroke-miterlimit="10" points="680.313,34.016 646.298,34.016 
		646.298,102.047 	"/>
	<polyline fill="none" stroke="#000000" stroke-width="3" stroke-miterlimit="10" points="680.313,170.078 646.298,170.078 
		646.298,102.047 	"/>
	<polyline fill="none" stroke="#000000" stroke-width="3" stroke-miterlimit="10" points="646.298,68.031 612.282,68.031 
		612.282,136.063 646.298,136.063 	"/>
</g>
<g>
	<path fill="none" stroke="#000000" stroke-width="3" stroke-miterlimit="10" d="M1020.47,34.016
		c37.572,0,68.031,30.459,68.031,68.031c0,37.573-30.459,68.032-68.031,68.032"/>
	<line fill="none" stroke="#000000" stroke-width="3" stroke-miterlimit="10" x1="1020.47" y1="34.016" x2="952.438" y2="34.016"/>
	
		<line fill="none" stroke="#000000" stroke-width="3" stroke-miterlimit="10" x1="1020.47" y1="170.078" x2="952.438" y2="170.078"/>
	<path fill="none" stroke="#000000" stroke-width="3" stroke-miterlimit="10" d="M1088.501,102.045
		c0,9.395,7.613,17.01,17.008,17.01c9.39,0,17.008-7.615,17.008-17.01c0-9.392-7.618-17.007-17.008-17.007
		C1096.114,85.038,1088.501,92.653,1088.501,102.045z"/>
	
		<line fill="none" stroke="#000000" stroke-width="3" stroke-miterlimit="10" x1="1156.532" y1="102.047" x2="1122.517" y2="102.047"/>
	<polyline fill="none" stroke="#000000" stroke-width="3" stroke-miterlimit="10" points="952.438,34.016 918.423,34.016 
		918.423,102.047 	"/>
	<polyline fill="none" stroke="#000000" stroke-width="3" stroke-miterlimit="10" points="952.438,170.078 918.423,170.078 
		918.423,102.047 	"/>
	<polyline fill="none" stroke="#000000" stroke-width="3" stroke-miterlimit="10" points="918.423,68.031 884.407,68.031 
		884.407,136.063 918.423,136.063 	"/>
</g>
<line fill="none" stroke="#000000" stroke-width="3" stroke-miterlimit="10" x1="34.016" y1="102.047" x2="68.031" y2="102.047"/>
<path fill="none" stroke="#000000" stroke-width="3" stroke-miterlimit="10" d="M34.017,102.044c0,3.133-2.541,5.672-5.674,5.672
	c-3.127,0-5.666-2.539-5.666-5.672c0-3.13,2.539-5.668,5.666-5.668C31.476,96.376,34.017,98.915,34.017,102.044z"/>
<path fill="none" stroke="#000000" stroke-width="3" stroke-miterlimit="10" d="M1167.876,102.044c0,3.133-2.541,5.672-5.674,5.672
	c-3.127,0-5.666-2.539-5.666-5.672c0-3.13,2.539-5.668,5.666-5.668C1165.335,96.376,1167.876,98.915,1167.876,102.044z"/>
<g>
	<path d="M109.863,78.208l12.096-31.496h4.49l12.891,31.496h-4.748l-3.674-9.539h-13.17l-3.459,9.539H109.863z M118.951,65.275
		h10.678l-3.287-8.723c-1.003-2.649-1.748-4.827-2.234-6.531c-0.401,2.02-0.967,4.025-1.697,6.016L118.951,65.275z"/>
</g>
<g>
	<path d="M113.15,148.764v-31.496h11.816c2.406,0,4.336,0.319,5.79,0.956c1.454,0.638,2.592,1.619,3.416,2.943
		c0.823,1.325,1.235,2.711,1.235,4.157c0,1.347-0.365,2.614-1.096,3.803c-0.73,1.189-1.833,2.148-3.309,2.879
		c1.905,0.559,3.369,1.511,4.394,2.857c1.024,1.347,1.536,2.937,1.536,4.77c0,1.476-0.312,2.847-0.935,4.114
		s-1.393,2.245-2.31,2.933c-0.917,0.688-2.066,1.207-3.448,1.558c-1.382,0.351-3.076,0.526-5.081,0.526H113.15z M117.318,130.502
		h6.811c1.848,0,3.172-0.122,3.975-0.365c1.06-0.315,1.858-0.838,2.396-1.568s0.806-1.647,0.806-2.75
		c0-1.045-0.251-1.966-0.752-2.761c-0.501-0.795-1.218-1.339-2.148-1.633c-0.931-0.293-2.528-0.44-4.791-0.44h-6.295V130.502z
		 M117.318,145.047h7.842c1.346,0,2.292-0.05,2.836-0.15c0.959-0.172,1.762-0.458,2.406-0.859c0.645-0.401,1.174-0.984,1.59-1.751
		c0.415-0.766,0.623-1.65,0.623-2.653c0-1.174-0.301-2.195-0.902-3.062c-0.602-0.866-1.436-1.475-2.503-1.826
		c-1.067-0.351-2.604-0.526-4.608-0.526h-7.283V145.047z"/>
</g>
<g>
	<path d="M381.988,78.208l12.096-31.496h4.49l12.891,31.496h-4.748l-3.674-9.539h-13.17l-3.459,9.539H381.988z M391.076,65.275
		h10.678l-3.287-8.723c-1.002-2.649-1.747-4.827-2.234-6.531c-0.4,2.02-0.967,4.025-1.697,6.016L391.076,65.275z"/>
</g>
<g>
	<path d="M385.275,148.764v-31.496h11.816c2.406,0,4.336,0.319,5.791,0.956c1.453,0.638,2.592,1.619,3.416,2.943
		c0.822,1.325,1.234,2.711,1.234,4.157c0,1.347-0.365,2.614-1.096,3.803c-0.73,1.189-1.833,2.148-3.309,2.879
		c1.905,0.559,3.369,1.511,4.395,2.857c1.023,1.347,1.535,2.937,1.535,4.77c0,1.476-0.311,2.847-0.934,4.114
		s-1.394,2.245-2.311,2.933c-0.916,0.688-2.066,1.207-3.447,1.558c-1.383,0.351-3.076,0.526-5.082,0.526H385.275z M389.443,130.502
		h6.811c1.848,0,3.173-0.122,3.975-0.365c1.061-0.315,1.859-0.838,2.396-1.568s0.805-1.647,0.805-2.75
		c0-1.045-0.25-1.966-0.752-2.761c-0.501-0.795-1.217-1.339-2.148-1.633c-0.931-0.293-2.527-0.44-4.791-0.44h-6.295V130.502z
		 M389.443,145.047h7.842c1.347,0,2.292-0.05,2.836-0.15c0.96-0.172,1.762-0.458,2.406-0.859c0.645-0.401,1.175-0.984,1.59-1.751
		c0.416-0.766,0.623-1.65,0.623-2.653c0-1.174-0.301-2.195-0.902-3.062c-0.602-0.866-1.436-1.475-2.502-1.826
		c-1.068-0.351-2.604-0.526-4.609-0.526h-7.283V145.047z"/>
</g>
<g>
	<path d="M654.115,78.208l12.096-31.496h4.49l12.891,31.496h-4.748l-3.674-9.539H662l-3.459,9.539H654.115z M663.203,65.275h10.678
		l-3.287-8.723c-1.004-2.649-1.748-4.827-2.234-6.531c-0.402,2.02-0.967,4.025-1.697,6.016L663.203,65.275z"/>
</g>
<g>
	<path d="M657.402,148.764v-31.496h11.816c2.406,0,4.336,0.319,5.789,0.956c1.454,0.638,2.593,1.619,3.416,2.943
		c0.824,1.325,1.236,2.711,1.236,4.157c0,1.347-0.365,2.614-1.096,3.803c-0.73,1.189-1.834,2.148-3.309,2.879
		c1.904,0.559,3.369,1.511,4.393,2.857c1.024,1.347,1.537,2.937,1.537,4.77c0,1.476-0.313,2.847-0.936,4.114
		s-1.393,2.245-2.309,2.933c-0.918,0.688-2.066,1.207-3.449,1.558c-1.382,0.351-3.076,0.526-5.08,0.526H657.402z M661.57,130.502
		h6.811c1.848,0,3.172-0.122,3.975-0.365c1.059-0.315,1.857-0.838,2.395-1.568s0.807-1.647,0.807-2.75
		c0-1.045-0.252-1.966-0.752-2.761c-0.502-0.795-1.219-1.339-2.148-1.633c-0.932-0.293-2.529-0.44-4.791-0.44h-6.295V130.502z
		 M661.57,145.047h7.842c1.346,0,2.291-0.05,2.836-0.15c0.959-0.172,1.762-0.458,2.406-0.859c0.645-0.401,1.174-0.984,1.59-1.751
		c0.414-0.766,0.623-1.65,0.623-2.653c0-1.174-0.301-2.195-0.902-3.062c-0.602-0.866-1.437-1.475-2.504-1.826
		c-1.066-0.351-2.604-0.526-4.607-0.526h-7.283V145.047z"/>
</g>
<g>
	<path d="M926.24,78.208l12.096-31.496h4.49l12.891,31.496h-4.748l-3.674-9.539h-13.17l-3.459,9.539H926.24z M935.328,65.275h10.678
		l-3.287-8.723c-1.002-2.649-1.747-4.827-2.234-6.531c-0.4,2.02-0.967,4.025-1.697,6.016L935.328,65.275z"/>
</g>
<g>
	<path d="M929.527,148.764v-31.496h11.816c2.406,0,4.336,0.319,5.791,0.956c1.453,0.638,2.592,1.619,3.416,2.943
		c0.822,1.325,1.234,2.711,1.234,4.157c0,1.347-0.365,2.614-1.096,3.803c-0.73,1.189-1.833,2.148-3.309,2.879
		c1.905,0.559,3.369,1.511,4.395,2.857c1.023,1.347,1.535,2.937,1.535,4.77c0,1.476-0.311,2.847-0.934,4.114
		s-1.394,2.245-2.311,2.933c-0.916,0.688-2.066,1.207-3.447,1.558c-1.383,0.351-3.076,0.526-5.082,0.526H929.527z M933.695,130.502
		h6.811c1.848,0,3.173-0.122,3.975-0.365c1.061-0.315,1.859-0.838,2.396-1.568s0.805-1.647,0.805-2.75
		c0-1.045-0.25-1.966-0.752-2.761c-0.501-0.795-1.217-1.339-2.148-1.633c-0.931-0.293-2.527-0.44-4.791-0.44h-6.295V130.502z
		 M933.695,145.047h7.842c1.347,0,2.292-0.05,2.836-0.15c0.96-0.172,1.762-0.458,2.406-0.859c0.645-0.401,1.175-0.984,1.59-1.751
		c0.416-0.766,0.623-1.65,0.623-2.653c0-1.174-0.301-2.195-0.902-3.062c-0.602-0.866-1.436-1.475-2.502-1.826
		c-1.068-0.351-2.604-0.526-4.609-0.526h-7.283V145.047z"/>
</g>
<g>
	<path d="M13.324,87.031V55.535h4.168v31.496H13.324z"/>
	<path d="M24.797,87.031V55.535h4.275l16.543,24.729V55.535h3.996v31.496h-4.275l-16.543-24.75v24.75H24.797z"/>
</g>
<g>
	<path d="M1095.968,59.358c0-5.228,1.403-9.32,4.211-12.278c2.808-2.958,6.431-4.437,10.871-4.437c2.907,0,5.528,0.695,7.863,2.084
		c2.335,1.39,4.114,3.327,5.339,5.812c1.225,2.485,1.837,5.303,1.837,8.454c0,3.194-0.645,6.052-1.934,8.572
		c-1.289,2.521-3.115,4.43-5.479,5.726c-2.363,1.296-4.913,1.944-7.648,1.944c-2.965,0-5.614-0.716-7.949-2.148
		c-2.335-1.432-4.104-3.387-5.307-5.865C1096.569,64.744,1095.968,62.123,1095.968,59.358z M1100.265,59.422
		c0,3.796,1.021,6.786,3.062,8.97c2.041,2.185,4.602,3.276,7.681,3.276c3.137,0,5.718-1.103,7.745-3.309
		c2.026-2.206,3.04-5.335,3.04-9.389c0-2.563-0.434-4.802-1.3-6.714c-0.867-1.912-2.135-3.395-3.803-4.447
		c-1.669-1.053-3.541-1.579-5.618-1.579c-2.95,0-5.489,1.014-7.616,3.04C1101.328,51.298,1100.265,54.682,1100.265,59.422z"/>
	<path d="M1152.128,43.202h4.168v18.197c0,3.166-0.358,5.679-1.074,7.541c-0.716,1.862-2.009,3.377-3.878,4.544
		c-1.869,1.167-4.322,1.751-7.358,1.751c-2.95,0-5.364-0.509-7.24-1.525s-3.216-2.488-4.018-4.415
		c-0.802-1.926-1.203-4.558-1.203-7.896V43.202h4.168v18.176c0,2.736,0.254,4.752,0.763,6.048c0.508,1.296,1.382,2.295,2.621,2.997
		c1.238,0.702,2.754,1.053,4.544,1.053c3.065,0,5.249-0.694,6.553-2.084c1.304-1.389,1.955-4.061,1.955-8.014V43.202z"/>
	<path d="M1171.249,74.698V46.918h-10.377v-3.717h24.965v3.717h-10.42v27.779H1171.249z"/>
</g>
</svg>
