<?xml version="1.0" encoding="utf-8"?>
<!-- Generator: Adobe Illustrator 15.1.0, SVG Export Plug-In . SVG Version: 6.00 Build 0)  -->
<!DOCTYPE svg PUBLIC "-//W3C//DTD SVG 1.1//EN" "http://www.w3.org/Graphics/SVG/1.1/DTD/svg11.dtd">
<svg version="1.1" id="Layer_1" xmlns="http://www.w3.org/2000/svg" xmlns:xlink="http://www.w3.org/1999/xlink" x="0px" y="0px"
	 width="544.251px" height="374.173px" viewBox="0 0 544.251 374.173" enable-background="new 0 0 544.251 374.173"
	 xml:space="preserve">
<path fill="none" stroke="#000000" stroke-width="3" stroke-miterlimit="10" d="M-68.031,442.205"/>
<line fill="none" stroke="#000000" stroke-width="3" stroke-miterlimit="10" x1="34.015" y1="68.032" x2="34.016" y2="68.032"/>
<line fill="none" stroke="#000000" stroke-width="3" stroke-miterlimit="10" x1="51.023" y1="136.063" x2="34.016" y2="136.063"/>
<path fill="none" stroke="#000000" stroke-width="3" stroke-miterlimit="10" d="M34.016,136.062c0,3.133-2.541,5.672-5.674,5.672
	c-3.127,0-5.666-2.539-5.666-5.672c0-3.13,2.539-5.668,5.666-5.668C31.475,130.394,34.016,132.932,34.016,136.062z"/>
<path fill="none" stroke="#000000" stroke-width="3" stroke-miterlimit="10" d="M34.016,68.03c0,3.133-2.541,5.672-5.674,5.672
	c-3.127,0-5.666-2.539-5.666-5.672c0-3.13,2.539-5.668,5.666-5.668C31.475,62.362,34.016,64.9,34.016,68.03z"/>
<g>
	<path d="M13.986,56.693l12.096-31.496h4.49l12.891,31.496h-4.748l-3.674-9.539h-13.17l-3.459,9.539H13.986z M23.074,43.759h10.678
		l-3.287-8.723c-1.003-2.649-1.747-4.827-2.234-6.531c-0.401,2.02-0.967,4.025-1.697,6.016L23.074,43.759z"/>
</g>
<g>
	<path d="M16.827,125.058V93.562h11.816c2.406,0,4.336,0.319,5.79,0.956c1.454,0.638,2.593,1.619,3.416,2.943
		c0.823,1.325,1.235,2.711,1.235,4.157c0,1.347-0.365,2.614-1.096,3.803c-0.73,1.189-1.833,2.148-3.309,2.879
		c1.905,0.559,3.369,1.511,4.394,2.857c1.024,1.347,1.536,2.937,1.536,4.77c0,1.476-0.312,2.847-0.935,4.114
		s-1.393,2.245-2.31,2.933s-2.066,1.207-3.448,1.558c-1.382,0.351-3.076,0.526-5.081,0.526H16.827z M20.995,106.796h6.811
		c1.848,0,3.173-0.122,3.975-0.365c1.06-0.315,1.858-0.838,2.396-1.568s0.806-1.647,0.806-2.75c0-1.045-0.251-1.966-0.752-2.761
		s-1.218-1.339-2.148-1.633c-0.931-0.293-2.528-0.44-4.791-0.44h-6.295V106.796z M20.995,121.341h7.842
		c1.347,0,2.292-0.05,2.836-0.15c0.96-0.172,1.762-0.458,2.406-0.859c0.645-0.401,1.175-0.984,1.59-1.751
		c0.415-0.766,0.623-1.65,0.623-2.653c0-1.174-0.301-2.195-0.902-3.062c-0.602-0.866-1.436-1.475-2.503-1.826
		c-1.067-0.351-2.604-0.526-4.608-0.526h-7.283V121.341z"/>
	<path d="M45.616,97.729v-4.49h4.146v3.545c0,1.919-0.222,3.302-0.666,4.146c-0.616,1.16-1.575,2.034-2.879,2.621l-0.945-1.525
		c0.773-0.315,1.35-0.813,1.729-1.493c0.38-0.68,0.591-1.615,0.634-2.804H45.616z"/>
</g>
<g>
	<line fill="none" stroke="#000000" stroke-width="3" stroke-miterlimit="10" x1="68.031" y1="136.063" x2="34.016" y2="136.063"/>
	<line fill="none" stroke="#000000" stroke-width="3" stroke-miterlimit="10" x1="68.031" y1="68.031" x2="34.016" y2="68.031"/>
	<path fill="none" stroke="#000000" stroke-width="3" stroke-miterlimit="10" d="M170.078,170.079
		c37.573,0,68.032-30.459,68.032-68.032c0-37.573-30.459-68.032-68.032-68.032"/>
	
		<line fill="none" stroke="#000000" stroke-width="3" stroke-miterlimit="10" x1="170.078" y1="170.079" x2="102.046" y2="170.079"/>
	<line fill="none" stroke="#000000" stroke-width="3" stroke-miterlimit="10" x1="170.078" y1="34.016" x2="102.046" y2="34.016"/>
	<line fill="none" stroke="#000000" stroke-width="3" stroke-miterlimit="10" x1="272.125" y1="102.047" x2="238.11" y2="102.047"/>
	<polyline fill="none" stroke="#000000" stroke-width="3" stroke-miterlimit="10" points="102.046,170.079 68.031,170.079 
		68.031,102.047 	"/>
	<polyline fill="none" stroke="#000000" stroke-width="3" stroke-miterlimit="10" points="102.046,34.016 68.031,34.016 
		68.031,102.047 	"/>
</g>
<path fill="none" stroke="#000000" stroke-width="3" stroke-miterlimit="10" d="M521.574,136.06c0,3.133-2.541,5.672-5.674,5.672
	c-3.127,0-5.666-2.539-5.666-5.672c0-3.13,2.539-5.668,5.666-5.668C519.033,130.392,521.574,132.93,521.574,136.06z"/>
<g>
	<path d="M501.426,125.599l12.182-16.414l-10.742-15.082h4.963l5.715,8.078c1.188,1.676,2.034,2.965,2.535,3.867
		c0.702-1.146,1.532-2.342,2.492-3.588l6.338-8.357h4.533l-11.064,14.846l11.924,16.65h-5.156l-7.928-11.236
		c-0.444-0.645-0.902-1.346-1.375-2.105c-0.702,1.146-1.203,1.934-1.504,2.363l-7.906,10.979H501.426z"/>
</g>
<g>
	<line fill="none" stroke="#000000" stroke-width="3" stroke-miterlimit="10" x1="68.031" y1="306.142" x2="34.015" y2="306.142"/>
	<line fill="none" stroke="#000000" stroke-width="3" stroke-miterlimit="10" x1="68.031" y1="238.11" x2="34.015" y2="238.11"/>
	<path fill="none" stroke="#000000" stroke-width="3" stroke-miterlimit="10" d="M170.078,340.157
		c37.572,0,68.031-30.459,68.031-68.031c0-37.573-30.459-68.032-68.031-68.032"/>
	
		<line fill="none" stroke="#000000" stroke-width="3" stroke-miterlimit="10" x1="170.078" y1="340.157" x2="102.046" y2="340.157"/>
	
		<line fill="none" stroke="#000000" stroke-width="3" stroke-miterlimit="10" x1="170.078" y1="204.095" x2="102.046" y2="204.095"/>
	<polyline fill="none" stroke="#000000" stroke-width="3" stroke-miterlimit="10" points="102.046,340.157 68.031,340.157 
		68.031,272.126 	"/>
	<polyline fill="none" stroke="#000000" stroke-width="3" stroke-miterlimit="10" points="102.046,204.095 68.031,204.095 
		68.031,272.126 	"/>
</g>
<path fill="none" stroke="#000000" stroke-width="3" stroke-miterlimit="10" d="M51.023,136.063"/>
<path fill="none" stroke="#000000" stroke-width="3" stroke-miterlimit="10" d="M34.015,68.032"/>
<g>
	<path fill="none" stroke="#000000" stroke-width="3" stroke-miterlimit="10" d="M374.173,68.04
		c40.909,0,77.105,26.325,102.047,67.993"/>
	<path fill="none" stroke="#000000" stroke-width="3" stroke-miterlimit="10" d="M374.173,204.094
		c40.909,0,77.105-26.325,102.047-67.993"/>
	<path fill="none" stroke="#000000" stroke-width="3" stroke-miterlimit="10" d="M340.158,204.064l-34.016,0.02
		c22.679-37.581,22.674-98.475,0.002-136.044"/>
	<line fill="none" stroke="#000000" stroke-width="3" stroke-miterlimit="10" x1="510.236" y1="136.073" x2="476.22" y2="136.073"/>
	
		<line fill="none" stroke="#000000" stroke-width="3" stroke-miterlimit="10" x1="374.173" y1="204.094" x2="340.158" y2="204.094"/>
	<line fill="none" stroke="#000000" stroke-width="3" stroke-miterlimit="10" x1="374.173" y1="68.032" x2="340.158" y2="68.032"/>
	<path fill="none" stroke="#000000" stroke-width="3" stroke-miterlimit="10" d="M340.158,204.064l-34.016,0.02
		c22.679-37.581,22.674-98.475,0.002-136.044"/>
	<path fill="none" stroke="#000000" stroke-width="3" stroke-miterlimit="10" d="M340.158,68.06l-34.016-0.02
		c22.679,37.581,22.674,98.475,0.002,136.044"/>
	<path fill="none" stroke="#000000" stroke-width="3" stroke-miterlimit="10" d="M340.158,68.06l-34.016-0.02
		c22.679,37.581,22.674,98.475,0.002,136.044"/>
	
		<line fill="none" stroke="#000000" stroke-width="3" stroke-miterlimit="10" x1="319.419" y1="102.045" x2="306.142" y2="102.045"/>
	
		<line fill="none" stroke="#000000" stroke-width="3" stroke-miterlimit="10" x1="319.419" y1="170.079" x2="306.142" y2="170.079"/>
</g>
<line fill="none" stroke="#000000" stroke-width="3" stroke-miterlimit="10" x1="34.016" y1="68.031" x2="34.016" y2="68.031"/>
<line fill="none" stroke="#000000" stroke-width="3" stroke-miterlimit="10" x1="34.016" y1="136.063" x2="51.023" y2="136.063"/>
<line fill="none" stroke="#000000" stroke-width="3" stroke-miterlimit="10" x1="34.016" y1="238.11" x2="34.016" y2="238.11"/>
<line fill="none" stroke="#000000" stroke-width="3" stroke-miterlimit="10" x1="51.023" y1="306.141" x2="34.016" y2="306.141"/>
<line fill="none" stroke="#000000" stroke-width="3" stroke-miterlimit="10" x1="272.125" y1="102.047" x2="306.141" y2="102.047"/>
<line fill="none" stroke="#000000" stroke-width="3" stroke-miterlimit="10" x1="34.015" y1="238.11" x2="34.016" y2="238.11"/>
<line fill="none" stroke="#000000" stroke-width="3" stroke-miterlimit="10" x1="51.023" y1="306.141" x2="34.016" y2="306.141"/>
<path fill="none" stroke="#000000" stroke-width="3" stroke-miterlimit="10" d="M34.016,306.14c0,3.133-2.541,5.672-5.674,5.672
	c-3.127,0-5.666-2.539-5.666-5.672c0-3.13,2.539-5.668,5.666-5.668C31.475,300.472,34.016,303.01,34.016,306.14z"/>
<path fill="none" stroke="#000000" stroke-width="3" stroke-miterlimit="10" d="M34.016,238.108c0,3.133-2.541,5.672-5.674,5.672
	c-3.127,0-5.666-2.539-5.666-5.672c0-3.13,2.539-5.668,5.666-5.668C31.475,232.44,34.016,234.979,34.016,238.108z"/>
<g>
	<path d="M14.169,227.329l12.096-31.496h4.49l12.891,31.496h-4.748l-3.674-9.539h-13.17l-3.459,9.539H14.169z M23.257,214.395
		h10.678l-3.287-8.723c-1.003-2.649-1.747-4.827-2.234-6.531c-0.401,2.02-0.967,4.025-1.697,6.016L23.257,214.395z"/>
	<path d="M42.98,200v-4.49h4.146v3.545c0,1.919-0.222,3.302-0.666,4.146c-0.616,1.16-1.575,2.034-2.879,2.621l-0.945-1.525
		c0.773-0.315,1.35-0.813,1.729-1.493c0.38-0.68,0.591-1.615,0.634-2.804H42.98z"/>
</g>
<g>
	<path d="M16.895,295.36v-31.496h11.816c2.406,0,4.336,0.319,5.79,0.956c1.454,0.638,2.593,1.619,3.416,2.943
		c0.823,1.325,1.235,2.711,1.235,4.157c0,1.347-0.365,2.614-1.096,3.803c-0.73,1.189-1.833,2.148-3.309,2.879
		c1.905,0.559,3.369,1.511,4.394,2.857c1.024,1.347,1.536,2.937,1.536,4.77c0,1.476-0.312,2.847-0.935,4.114
		s-1.393,2.245-2.31,2.933s-2.066,1.207-3.448,1.558c-1.382,0.351-3.076,0.526-5.081,0.526H16.895z M21.063,277.099h6.811
		c1.848,0,3.173-0.122,3.975-0.365c1.06-0.315,1.858-0.838,2.396-1.568s0.806-1.647,0.806-2.75c0-1.045-0.251-1.966-0.752-2.761
		s-1.218-1.339-2.148-1.633c-0.931-0.293-2.528-0.44-4.791-0.44h-6.295V277.099z M21.063,291.644h7.842
		c1.347,0,2.292-0.05,2.836-0.15c0.96-0.172,1.762-0.458,2.406-0.859c0.645-0.401,1.175-0.984,1.59-1.751
		c0.415-0.766,0.623-1.65,0.623-2.653c0-1.174-0.301-2.195-0.902-3.062c-0.602-0.866-1.436-1.475-2.503-1.826
		c-1.067-0.351-2.604-0.526-4.608-0.526h-7.283V291.644z"/>
</g>
<polyline fill="none" stroke="#000000" stroke-width="3" stroke-miterlimit="10" points="306.141,170.079 272.125,170.079 
	272.125,272.126 238.109,272.126 "/>
</svg>
