<?xml version="1.0" encoding="utf-8"?>
<!-- Generator: Adobe Illustrator 15.1.0, SVG Export Plug-In . SVG Version: 6.00 Build 0)  -->
<!DOCTYPE svg PUBLIC "-//W3C//DTD SVG 1.1//EN" "http://www.w3.org/Graphics/SVG/1.1/DTD/svg11.dtd">
<svg version="1.1" id="Layer_1" xmlns="http://www.w3.org/2000/svg" xmlns:xlink="http://www.w3.org/1999/xlink" x="0px" y="0px"
	 width="952.439px" height="408.188px" viewBox="0 0 952.439 408.188" enable-background="new 0 0 952.439 408.188"
	 xml:space="preserve">
<line fill="none" stroke="#000000" stroke-width="3" stroke-miterlimit="10" x1="34.016" y1="68.032" x2="68.031" y2="68.032"/>
<path fill="none" stroke="#000000" stroke-width="3" stroke-miterlimit="10" d="M34.017,68.029c0,3.133-2.541,5.672-5.674,5.672
	c-3.127,0-5.666-2.539-5.666-5.672c0-3.13,2.539-5.668,5.666-5.668C31.476,62.361,34.017,64.899,34.017,68.029z"/>
<path fill="none" stroke="#000000" stroke-width="3" stroke-miterlimit="10" d="M895.751,204.091c0,3.133-2.541,5.672-5.674,5.672
	c-3.127,0-5.666-2.539-5.666-5.672c0-3.13,2.539-5.668,5.666-5.668C893.21,198.423,895.751,200.961,895.751,204.091z"/>
<g>
	<path d="M22.646,56.693l5.773-15.032h2.143l6.152,15.032h-2.266l-1.753-4.553H26.41l-1.651,4.553H22.646z M26.984,50.52h5.096
		l-1.569-4.163c-0.479-1.265-0.834-2.304-1.066-3.117c-0.191,0.964-0.461,1.921-0.81,2.871L26.984,50.52z"/>
</g>
<g>
	<path d="M861.824,192.756l5.813-7.834l-5.127-7.198h2.368l2.729,3.855c0.566,0.8,0.97,1.415,1.209,1.846
		c0.335-0.547,0.731-1.118,1.189-1.712l3.025-3.989h2.164l-5.281,7.085l5.691,7.947h-2.461l-3.784-5.363
		c-0.212-0.308-0.431-0.643-0.656-1.005c-0.335,0.547-0.574,0.923-0.718,1.128l-3.773,5.24H861.824z"/>
	<path d="M886.833,183.917h-9.926v-1.723h9.926V183.917z M886.833,188.48h-9.926v-1.723h9.926V188.48z"/>
	<path d="M887.971,192.756l5.773-15.032h2.143l6.152,15.032h-2.266l-1.754-4.553h-6.285l-1.65,4.553H887.971z M892.309,186.583
		h5.096l-1.568-4.163c-0.479-1.265-0.834-2.304-1.066-3.117c-0.191,0.964-0.461,1.921-0.811,2.871L892.309,186.583z"/>
	<path d="M912.447,177.939c1.62,0,3.107,0.371,4.461,1.112c1.354,0.742,2.414,1.788,3.184,3.138
		c0.769,1.351,1.153,2.873,1.153,4.568c0,1.661-0.374,3.163-1.123,4.507c-0.748,1.343-1.801,2.397-3.158,3.163
		c-1.356,0.766-2.862,1.148-4.517,1.148c-1.634,0-3.129-0.378-4.486-1.133c-1.356-0.756-2.411-1.81-3.163-3.164
		s-1.128-2.861-1.128-4.522c0-1.675,0.385-3.189,1.153-4.542c0.77-1.354,1.827-2.405,3.174-3.153
		C909.344,178.313,910.827,177.939,912.447,177.939z M908.756,180.195c-1.128,0.622-2.014,1.511-2.656,2.666
		c-0.547,0.991-0.857,2.082-0.933,3.271h6.593v-6.85C910.693,179.371,909.692,179.675,908.756,180.195z M906.09,190.603
		c0.629,1.148,1.511,2.044,2.646,2.687c0.943,0.54,1.951,0.854,3.024,0.943v-6.87h-6.593
		C905.242,188.538,905.55,189.618,906.09,190.603z M918.814,182.851c-0.635-1.155-1.518-2.044-2.645-2.666
		c-0.943-0.52-1.977-0.82-3.098-0.902v6.85h6.676C919.666,184.929,919.354,183.835,918.814,182.851z M913.072,187.362v6.88
		c1.142-0.089,2.188-0.407,3.139-0.954c1.127-0.643,2.002-1.542,2.625-2.697c0.525-0.991,0.83-2.068,0.912-3.23H913.072z"/>
	<path d="M924.444,192.756v-15.032h5.64c1.148,0,2.069,0.152,2.764,0.457c0.693,0.304,1.237,0.772,1.63,1.404
		c0.394,0.633,0.59,1.294,0.59,1.984c0,0.643-0.175,1.248-0.522,1.815c-0.35,0.567-0.876,1.025-1.58,1.374
		c0.909,0.267,1.608,0.721,2.098,1.364c0.488,0.643,0.732,1.401,0.732,2.276c0,0.704-0.148,1.358-0.445,1.964
		c-0.298,0.604-0.665,1.071-1.103,1.399s-0.986,0.576-1.646,0.743c-0.66,0.168-1.469,0.251-2.426,0.251H924.444z M926.434,184.04
		h3.25c0.883,0,1.515-0.058,1.897-0.174c0.506-0.15,0.887-0.4,1.144-0.749c0.256-0.349,0.385-0.786,0.385-1.313
		c0-0.499-0.12-0.938-0.359-1.318c-0.239-0.379-0.581-0.639-1.025-0.779c-0.444-0.14-1.207-0.21-2.287-0.21h-3.004V184.04z
		 M926.434,190.982h3.742c0.643,0,1.094-0.024,1.354-0.072c0.458-0.082,0.842-0.219,1.148-0.41c0.309-0.191,0.561-0.47,0.76-0.835
		c0.197-0.366,0.297-0.788,0.297-1.267c0-0.561-0.144-1.047-0.431-1.461s-0.686-0.704-1.194-0.872
		c-0.51-0.167-1.243-0.251-2.199-0.251h-3.477V190.982z"/>
</g>
<line fill="none" stroke="#000000" stroke-width="3" stroke-miterlimit="10" x1="34.016" y1="340.157" x2="68.031" y2="340.157"/>
<path fill="none" stroke="#000000" stroke-width="3" stroke-miterlimit="10" d="M34.017,340.154c0,3.133-2.541,5.672-5.674,5.672
	c-3.127,0-5.666-2.539-5.666-5.672c0-3.13,2.539-5.668,5.666-5.668C31.476,334.486,34.017,337.024,34.017,340.154z"/>
<g>
	<path d="M24.215,328.819v-15.032h5.64c1.148,0,2.069,0.152,2.763,0.456c0.694,0.305,1.237,0.773,1.631,1.405
		c0.393,0.632,0.589,1.293,0.589,1.984c0,0.643-0.174,1.248-0.523,1.815s-0.875,1.025-1.579,1.374
		c0.909,0.267,1.608,0.721,2.097,1.364s0.733,1.401,0.733,2.276c0,0.704-0.148,1.359-0.446,1.963
		c-0.297,0.605-0.665,1.072-1.102,1.4s-0.986,0.576-1.646,0.744s-1.468,0.251-2.425,0.251H24.215z M26.205,320.103h3.25
		c0.882,0,1.514-0.058,1.897-0.174c0.506-0.15,0.887-0.4,1.143-0.749c0.257-0.349,0.385-0.786,0.385-1.313
		c0-0.499-0.12-0.938-0.359-1.317c-0.239-0.38-0.581-0.639-1.025-0.779s-1.207-0.21-2.287-0.21h-3.004V320.103z M26.205,327.045
		h3.743c0.643,0,1.094-0.024,1.354-0.072c0.458-0.082,0.841-0.219,1.148-0.41s0.561-0.47,0.759-0.836
		c0.198-0.365,0.297-0.788,0.297-1.266c0-0.561-0.144-1.047-0.431-1.461c-0.287-0.413-0.686-0.704-1.195-0.871
		s-1.242-0.251-2.199-0.251h-3.476V327.045z"/>
</g>
<line fill="none" stroke="#000000" stroke-width="3" stroke-miterlimit="10" x1="68.031" y1="68.031" x2="340.157" y2="68.031"/>
<line fill="none" stroke="#000000" stroke-width="3" stroke-miterlimit="10" x1="68.031" y1="340.157" x2="340.157" y2="340.157"/>
<g>
	
		<line fill="none" stroke="#000000" stroke-width="3" stroke-miterlimit="10" x1="374.174" y1="340.157" x2="340.158" y2="340.157"/>
	<path fill="none" stroke="#000000" stroke-width="3" stroke-miterlimit="10" d="M476.221,374.173
		c37.572,0,68.031-30.459,68.031-68.031c0-37.573-30.459-68.032-68.031-68.032"/>
	
		<line fill="none" stroke="#000000" stroke-width="3" stroke-miterlimit="10" x1="476.221" y1="374.173" x2="408.189" y2="374.173"/>
	<line fill="none" stroke="#000000" stroke-width="3" stroke-miterlimit="10" x1="476.221" y1="238.11" x2="408.189" y2="238.11"/>
	<path fill="none" stroke="#000000" stroke-width="3" stroke-miterlimit="10" d="M544.252,306.144c0-9.395,7.613-17.01,17.008-17.01
		c9.389,0,17.008,7.615,17.008,17.01c0,9.392-7.619,17.007-17.008,17.007C551.865,323.15,544.252,315.535,544.252,306.144z"/>
	<polyline fill="none" stroke="#000000" stroke-width="3" stroke-miterlimit="10" points="408.189,374.173 374.174,374.173 
		374.174,306.142 	"/>
	<polyline fill="none" stroke="#000000" stroke-width="3" stroke-miterlimit="10" points="408.189,238.11 374.174,238.11 
		374.174,306.142 	"/>
</g>
<g>
	<line fill="none" stroke="#000000" stroke-width="3" stroke-miterlimit="10" x1="374.174" y1="68.032" x2="340.158" y2="68.032"/>
	<path fill="none" stroke="#000000" stroke-width="3" stroke-miterlimit="10" d="M476.221,170.079
		c37.572,0,68.031-30.459,68.031-68.031c0-37.573-30.459-68.032-68.031-68.032"/>
	
		<line fill="none" stroke="#000000" stroke-width="3" stroke-miterlimit="10" x1="476.221" y1="170.079" x2="408.189" y2="170.079"/>
	<line fill="none" stroke="#000000" stroke-width="3" stroke-miterlimit="10" x1="476.221" y1="34.017" x2="408.189" y2="34.017"/>
	<path fill="none" stroke="#000000" stroke-width="3" stroke-miterlimit="10" d="M544.252,102.05c0-9.395,7.613-17.01,17.008-17.01
		c9.389,0,17.008,7.615,17.008,17.01c0,9.392-7.619,17.007-17.008,17.007C551.865,119.057,544.252,111.441,544.252,102.05z"/>
	<polyline fill="none" stroke="#000000" stroke-width="3" stroke-miterlimit="10" points="408.189,170.079 374.174,170.079 
		374.174,102.048 	"/>
	<polyline fill="none" stroke="#000000" stroke-width="3" stroke-miterlimit="10" points="408.189,34.017 374.174,34.017 
		374.174,102.048 	"/>
</g>
<g>
	<path fill="none" stroke="#000000" stroke-width="3" stroke-miterlimit="10" d="M204.096,272.126
		c37.572,0,68.031-30.459,68.031-68.031c0-37.573-30.459-68.032-68.031-68.032"/>
	
		<line fill="none" stroke="#000000" stroke-width="3" stroke-miterlimit="10" x1="204.096" y1="272.126" x2="136.064" y2="272.126"/>
	
		<line fill="none" stroke="#000000" stroke-width="3" stroke-miterlimit="10" x1="204.096" y1="136.063" x2="136.064" y2="136.063"/>
	<path fill="none" stroke="#000000" stroke-width="3" stroke-miterlimit="10" d="M272.127,204.097c0-9.395,7.613-17.01,17.008-17.01
		c9.389,0,17.008,7.615,17.008,17.01c0,9.392-7.619,17.007-17.008,17.007C279.74,221.104,272.127,213.488,272.127,204.097z"/>
	
		<line fill="none" stroke="#000000" stroke-width="3" stroke-miterlimit="10" x1="340.158" y1="204.095" x2="306.143" y2="204.095"/>
	<polyline fill="none" stroke="#000000" stroke-width="3" stroke-miterlimit="10" points="136.064,272.126 102.049,272.126 
		102.049,204.095 	"/>
	<polyline fill="none" stroke="#000000" stroke-width="3" stroke-miterlimit="10" points="136.064,136.063 102.049,136.063 
		102.049,204.095 	"/>
</g>
<g>
	<path fill="none" stroke="#000000" stroke-width="3" stroke-miterlimit="10" d="M748.346,272.126
		c37.572,0,68.031-30.459,68.031-68.031c0-37.573-30.459-68.032-68.031-68.032"/>
	
		<line fill="none" stroke="#000000" stroke-width="3" stroke-miterlimit="10" x1="748.346" y1="272.126" x2="680.314" y2="272.126"/>
	
		<line fill="none" stroke="#000000" stroke-width="3" stroke-miterlimit="10" x1="748.346" y1="136.063" x2="680.314" y2="136.063"/>
	<path fill="none" stroke="#000000" stroke-width="3" stroke-miterlimit="10" d="M816.377,204.097c0-9.395,7.613-17.01,17.008-17.01
		c9.389,0,17.008,7.615,17.008,17.01c0,9.392-7.619,17.007-17.008,17.007C823.99,221.104,816.377,213.488,816.377,204.097z"/>
	
		<line fill="none" stroke="#000000" stroke-width="3" stroke-miterlimit="10" x1="884.408" y1="204.095" x2="850.393" y2="204.095"/>
	<polyline fill="none" stroke="#000000" stroke-width="3" stroke-miterlimit="10" points="680.314,272.126 646.299,272.126 
		646.299,204.095 	"/>
	<polyline fill="none" stroke="#000000" stroke-width="3" stroke-miterlimit="10" points="680.314,136.063 646.299,136.063 
		646.299,204.095 	"/>
</g>
<polyline fill="none" stroke="#000000" stroke-width="3" stroke-miterlimit="10" points="68.031,68.032 68.033,170.079 
	102.049,170.079 "/>
<polyline fill="none" stroke="#000000" stroke-width="3" stroke-miterlimit="10" points="68.031,340.157 68.033,238.11 
	102.049,238.11 "/>
<polyline fill="none" stroke="#000000" stroke-width="3" stroke-miterlimit="10" points="374.174,136.063 340.158,136.063 
	340.158,272.126 374.174,272.126 "/>
<polyline fill="none" stroke="#000000" stroke-width="3" stroke-miterlimit="10" points="578.268,306.142 612.283,306.142 
	612.283,238.11 646.299,238.11 "/>
<polyline fill="none" stroke="#000000" stroke-width="3" stroke-miterlimit="10" points="578.268,102.048 612.283,102.048 
	612.283,170.079 646.299,170.079 "/>
</svg>
