<?xml version="1.0" encoding="utf-8"?>
<!-- Generator: Adobe Illustrator 15.1.0, SVG Export Plug-In . SVG Version: 6.00 Build 0)  -->
<!DOCTYPE svg PUBLIC "-//W3C//DTD SVG 1.1//EN" "http://www.w3.org/Graphics/SVG/1.1/DTD/svg11.dtd">
<svg version="1.1" id="Layer_1" xmlns="http://www.w3.org/2000/svg" xmlns:xlink="http://www.w3.org/1999/xlink" x="0px" y="0px"
	 width="782.361px" height="374.173px" viewBox="0 0 782.361 374.173" enable-background="new 0 0 782.361 374.173"
	 xml:space="preserve">
<path fill="none" stroke="#000000" stroke-width="3" stroke-miterlimit="10" d="M136.063,442.205"/>
<line fill="none" stroke="#000000" stroke-width="3" stroke-miterlimit="10" x1="136.063" y1="68.032" x2="34.016" y2="68.032"/>
<line fill="none" stroke="#000000" stroke-width="3" stroke-miterlimit="10" x1="102.047" y1="136.063" x2="34.016" y2="136.063"/>
<path fill="none" stroke="#000000" stroke-width="3" stroke-miterlimit="10" d="M34.016,136.062c0,3.133-2.541,5.672-5.674,5.672
	c-3.127,0-5.666-2.539-5.666-5.672c0-3.13,2.539-5.668,5.666-5.668C31.475,130.394,34.016,132.932,34.016,136.062z"/>
<path fill="none" stroke="#000000" stroke-width="3" stroke-miterlimit="10" d="M34.016,68.03c0,3.133-2.541,5.672-5.674,5.672
	c-3.127,0-5.666-2.539-5.666-5.672c0-3.13,2.539-5.668,5.666-5.668C31.475,62.362,34.016,64.9,34.016,68.03z"/>
<g>
	<path d="M21.892,57.25l5.773-15.032h2.143L35.96,57.25h-2.266l-1.753-4.553h-6.286l-1.651,4.553H21.892z M26.229,51.077h5.096
		l-1.569-4.163c-0.479-1.265-0.834-2.304-1.066-3.117c-0.191,0.964-0.461,1.921-0.81,2.871L26.229,51.077z"/>
</g>
<g>
	<path d="M20.938,125.282V110.25h5.64c1.148,0,2.069,0.152,2.764,0.457c0.693,0.304,1.237,0.772,1.63,1.404
		c0.393,0.633,0.59,1.294,0.59,1.984c0,0.643-0.174,1.248-0.523,1.815s-0.875,1.025-1.579,1.374
		c0.909,0.267,1.608,0.721,2.097,1.364c0.488,0.643,0.733,1.401,0.733,2.276c0,0.704-0.149,1.358-0.446,1.964
		c-0.298,0.604-0.665,1.071-1.103,1.399s-0.986,0.576-1.646,0.743c-0.66,0.168-1.468,0.251-2.425,0.251H20.938z M22.927,116.566
		h3.25c0.882,0,1.514-0.058,1.897-0.174c0.506-0.15,0.887-0.4,1.144-0.749c0.256-0.349,0.384-0.786,0.384-1.313
		c0-0.499-0.12-0.938-0.359-1.318c-0.239-0.379-0.581-0.639-1.025-0.779c-0.444-0.14-1.207-0.21-2.287-0.21h-3.004V116.566z
		 M22.927,123.508h3.743c0.643,0,1.094-0.024,1.354-0.072c0.458-0.082,0.841-0.219,1.148-0.41s0.561-0.47,0.759-0.835
		s0.297-0.788,0.297-1.267c0-0.561-0.144-1.047-0.431-1.461s-0.686-0.704-1.194-0.872c-0.51-0.167-1.243-0.251-2.2-0.251h-3.476
		V123.508z"/>
	<path d="M34.678,112.239v-2.143h1.979v1.692c0,0.916-0.106,1.576-0.318,1.979c-0.294,0.554-0.752,0.971-1.374,1.251l-0.451-0.728
		c0.369-0.15,0.644-0.388,0.825-0.712s0.282-0.771,0.303-1.338H34.678z"/>
</g>
<g>
	<line fill="none" stroke="#000000" stroke-width="3" stroke-miterlimit="10" x1="272.125" y1="136.063" x2="238.11" y2="136.063"/>
	<line fill="none" stroke="#000000" stroke-width="3" stroke-miterlimit="10" x1="272.125" y1="68.031" x2="238.11" y2="68.031"/>
	<path fill="none" stroke="#000000" stroke-width="3" stroke-miterlimit="10" d="M374.172,170.079
		c37.573,0,68.032-30.459,68.032-68.032c0-37.573-30.459-68.032-68.032-68.032"/>
	
		<line fill="none" stroke="#000000" stroke-width="3" stroke-miterlimit="10" x1="374.172" y1="170.079" x2="306.141" y2="170.079"/>
	<line fill="none" stroke="#000000" stroke-width="3" stroke-miterlimit="10" x1="374.172" y1="34.016" x2="306.141" y2="34.016"/>
	<line fill="none" stroke="#000000" stroke-width="3" stroke-miterlimit="10" x1="476.22" y1="102.047" x2="442.204" y2="102.047"/>
	<polyline fill="none" stroke="#000000" stroke-width="3" stroke-miterlimit="10" points="306.141,170.079 272.125,170.079 
		272.125,102.047 	"/>
	<polyline fill="none" stroke="#000000" stroke-width="3" stroke-miterlimit="10" points="306.141,34.016 272.125,34.016 
		272.125,102.047 	"/>
</g>
<path fill="none" stroke="#000000" stroke-width="3" stroke-miterlimit="10" d="M759.684,136.06c0,3.133-2.541,5.672-5.674,5.672
	c-3.127,0-5.666-2.539-5.666-5.672c0-3.13,2.539-5.668,5.666-5.668C757.143,130.392,759.684,132.93,759.684,136.06z"/>
<g>
	<path d="M747.105,125.599l5.814-7.834l-5.127-7.198h2.369l2.727,3.855c0.568,0.8,0.971,1.415,1.211,1.846
		c0.334-0.547,0.73-1.118,1.189-1.712l3.024-3.989h2.163l-5.28,7.085l5.69,7.947h-2.461l-3.783-5.363
		c-0.212-0.308-0.431-0.643-0.656-1.005c-0.335,0.547-0.574,0.923-0.718,1.128l-3.773,5.24H747.105z"/>
</g>
<g>
	
		<line fill="none" stroke="#000000" stroke-width="3" stroke-miterlimit="10" x1="272.125" y1="306.142" x2="238.109" y2="306.142"/>
	<line fill="none" stroke="#000000" stroke-width="3" stroke-miterlimit="10" x1="272.125" y1="238.11" x2="238.109" y2="238.11"/>
	<path fill="none" stroke="#000000" stroke-width="3" stroke-miterlimit="10" d="M374.172,340.157
		c37.572,0,68.031-30.459,68.031-68.031c0-37.573-30.459-68.032-68.031-68.032"/>
	
		<line fill="none" stroke="#000000" stroke-width="3" stroke-miterlimit="10" x1="374.172" y1="340.157" x2="306.141" y2="340.157"/>
	
		<line fill="none" stroke="#000000" stroke-width="3" stroke-miterlimit="10" x1="374.172" y1="204.095" x2="306.141" y2="204.095"/>
	<polyline fill="none" stroke="#000000" stroke-width="3" stroke-miterlimit="10" points="306.141,340.157 272.125,340.157 
		272.125,272.126 	"/>
	<polyline fill="none" stroke="#000000" stroke-width="3" stroke-miterlimit="10" points="306.141,204.095 272.125,204.095 
		272.125,272.126 	"/>
</g>
<path fill="none" stroke="#000000" stroke-width="3" stroke-miterlimit="10" d="M102.047,136.063"/>
<path fill="none" stroke="#000000" stroke-width="3" stroke-miterlimit="10" d="M136.063,68.032"/>
<g>
	<path fill="none" stroke="#000000" stroke-width="3" stroke-miterlimit="10" d="M612.283,68.04
		c40.909,0,77.105,26.325,102.047,67.993"/>
	<path fill="none" stroke="#000000" stroke-width="3" stroke-miterlimit="10" d="M612.283,204.094
		c40.909,0,77.105-26.325,102.047-67.993"/>
	<path fill="none" stroke="#000000" stroke-width="3" stroke-miterlimit="10" d="M578.268,204.064l-34.016,0.02
		c22.679-37.581,22.674-98.475,0.002-136.044"/>
	<line fill="none" stroke="#000000" stroke-width="3" stroke-miterlimit="10" x1="748.346" y1="136.073" x2="714.33" y2="136.073"/>
	
		<line fill="none" stroke="#000000" stroke-width="3" stroke-miterlimit="10" x1="612.283" y1="204.094" x2="578.268" y2="204.094"/>
	<line fill="none" stroke="#000000" stroke-width="3" stroke-miterlimit="10" x1="612.283" y1="68.032" x2="578.268" y2="68.032"/>
	<path fill="none" stroke="#000000" stroke-width="3" stroke-miterlimit="10" d="M578.268,204.064l-34.016,0.02
		c22.679-37.581,22.674-98.475,0.002-136.044"/>
	<path fill="none" stroke="#000000" stroke-width="3" stroke-miterlimit="10" d="M578.268,68.06l-34.016-0.02
		c22.679,37.581,22.674,98.475,0.002,136.044"/>
	<path fill="none" stroke="#000000" stroke-width="3" stroke-miterlimit="10" d="M578.268,68.06l-34.016-0.02
		c22.679,37.581,22.674,98.475,0.002,136.044"/>
	
		<line fill="none" stroke="#000000" stroke-width="3" stroke-miterlimit="10" x1="557.529" y1="102.045" x2="510.236" y2="102.045"/>
	
		<line fill="none" stroke="#000000" stroke-width="3" stroke-miterlimit="10" x1="557.529" y1="170.079" x2="510.236" y2="170.079"/>
</g>
<line fill="none" stroke="#000000" stroke-width="3" stroke-miterlimit="10" x1="238.11" y1="68.031" x2="136.063" y2="68.031"/>
<line fill="none" stroke="#000000" stroke-width="3" stroke-miterlimit="10" x1="238.11" y1="136.063" x2="102.047" y2="136.063"/>
<line fill="none" stroke="#000000" stroke-width="3" stroke-miterlimit="10" x1="136.063" y1="238.11" x2="238.11" y2="238.11"/>
<line fill="none" stroke="#000000" stroke-width="3" stroke-miterlimit="10" x1="102.047" y1="306.141" x2="238.11" y2="306.141"/>
<line fill="none" stroke="#000000" stroke-width="3" stroke-miterlimit="10" x1="476.22" y1="102.047" x2="510.235" y2="102.047"/>
<line fill="none" stroke="#000000" stroke-width="3" stroke-miterlimit="10" x1="136.063" y1="238.11" x2="34.016" y2="238.11"/>
<line fill="none" stroke="#000000" stroke-width="3" stroke-miterlimit="10" x1="102.047" y1="306.141" x2="34.016" y2="306.141"/>
<path fill="none" stroke="#000000" stroke-width="3" stroke-miterlimit="10" d="M34.016,306.14c0,3.133-2.541,5.672-5.674,5.672
	c-3.127,0-5.666-2.539-5.666-5.672c0-3.13,2.539-5.668,5.666-5.668C31.475,300.472,34.016,303.01,34.016,306.14z"/>
<path fill="none" stroke="#000000" stroke-width="3" stroke-miterlimit="10" d="M34.016,238.108c0,3.133-2.541,5.672-5.674,5.672
	c-3.127,0-5.666-2.539-5.666-5.672c0-3.13,2.539-5.668,5.666-5.668C31.475,232.44,34.016,234.979,34.016,238.108z"/>
<g>
	<path d="M20.148,227.329l5.773-15.032h2.143l6.152,15.032H31.95l-1.753-4.553h-6.286l-1.651,4.553H20.148z M24.485,221.156h5.096
		l-1.569-4.163c-0.479-1.265-0.834-2.304-1.066-3.117c-0.191,0.964-0.461,1.921-0.81,2.871L24.485,221.156z"/>
	<path d="M33.898,214.286v-2.143h1.979v1.692c0,0.916-0.106,1.576-0.318,1.979c-0.294,0.554-0.752,0.971-1.374,1.251l-0.451-0.728
		c0.369-0.15,0.644-0.388,0.825-0.712s0.282-0.771,0.303-1.338H33.898z"/>
</g>
<g>
	<path d="M22.881,295.36v-15.032h5.64c1.148,0,2.069,0.152,2.764,0.457c0.693,0.304,1.237,0.772,1.63,1.404
		c0.393,0.633,0.59,1.294,0.59,1.984c0,0.643-0.174,1.248-0.523,1.815s-0.875,1.025-1.579,1.374
		c0.909,0.267,1.608,0.721,2.097,1.364c0.488,0.643,0.733,1.401,0.733,2.276c0,0.704-0.149,1.358-0.446,1.964
		c-0.298,0.604-0.665,1.071-1.103,1.399s-0.986,0.576-1.646,0.743c-0.66,0.168-1.468,0.251-2.425,0.251H22.881z M24.87,286.645h3.25
		c0.882,0,1.514-0.058,1.897-0.174c0.506-0.15,0.887-0.4,1.144-0.749c0.256-0.349,0.384-0.786,0.384-1.313
		c0-0.499-0.12-0.938-0.359-1.318c-0.239-0.379-0.581-0.639-1.025-0.779c-0.444-0.14-1.207-0.21-2.287-0.21H24.87V286.645z
		 M24.87,293.586h3.743c0.643,0,1.094-0.024,1.354-0.072c0.458-0.082,0.841-0.219,1.148-0.41s0.561-0.47,0.759-0.835
		s0.297-0.788,0.297-1.267c0-0.561-0.144-1.047-0.431-1.461s-0.686-0.704-1.194-0.872c-0.51-0.167-1.243-0.251-2.2-0.251H24.87
		V293.586z"/>
</g>
<polyline fill="none" stroke="#000000" stroke-width="3" stroke-miterlimit="10" points="510.235,170.079 476.22,170.079 
	476.219,272.126 442.203,272.126 "/>
</svg>
