<?xml version="1.0" encoding="utf-8"?>
<!-- Generator: Adobe Illustrator 15.1.0, SVG Export Plug-In . SVG Version: 6.00 Build 0)  -->
<!DOCTYPE svg PUBLIC "-//W3C//DTD SVG 1.1//EN" "http://www.w3.org/Graphics/SVG/1.1/DTD/svg11.dtd">
<svg version="1.1" id="Layer_1" xmlns="http://www.w3.org/2000/svg" xmlns:xlink="http://www.w3.org/1999/xlink" x="0px" y="0px"
	 width="272.126px" height="272.126px" viewBox="0 0 272.126 272.126" enable-background="new 0 0 272.126 272.126"
	 xml:space="preserve">
<g>
	
		<rect x="68.03" y="68.033" fill="none" stroke="#000000" stroke-width="3" stroke-miterlimit="10" width="136.063" height="136.064"/>
	<line fill="none" stroke="#000000" stroke-width="3" stroke-miterlimit="10" x1="34.016" y1="102.048" x2="68.031" y2="102.048"/>
	<line fill="none" stroke="#000000" stroke-width="3" stroke-miterlimit="10" x1="34.016" y1="170.079" x2="68.031" y2="170.079"/>
	
		<line fill="none" stroke="#000000" stroke-width="3" stroke-miterlimit="10" x1="136.063" y1="204.095" x2="136.063" y2="238.111"/>
	<line fill="none" stroke="#000000" stroke-width="3" stroke-miterlimit="10" x1="238.11" y1="136.065" x2="204.094" y2="136.065"/>
	<line fill="none" stroke="#000000" stroke-width="3" stroke-miterlimit="10" x1="136.063" y1="34.017" x2="136.063" y2="68.033"/>
</g>
<path fill="none" stroke="#000000" stroke-width="3" stroke-miterlimit="10" d="M34.017,102.046c0,3.133-2.541,5.672-5.674,5.672
	c-3.127,0-5.666-2.539-5.666-5.672c0-3.13,2.539-5.668,5.666-5.668C31.476,96.378,34.017,98.917,34.017,102.046z"/>
<path fill="none" stroke="#000000" stroke-width="3" stroke-miterlimit="10" d="M34.017,170.078c0,3.133-2.541,5.672-5.674,5.672
	c-3.127,0-5.666-2.539-5.666-5.672c0-3.13,2.539-5.668,5.666-5.668C31.476,164.41,34.017,166.948,34.017,170.078z"/>
<path fill="none" stroke="#000000" stroke-width="3" stroke-miterlimit="10" d="M249.45,136.061c0,3.133-2.541,5.672-5.674,5.672
	c-3.127,0-5.666-2.539-5.666-5.672c0-3.13,2.539-5.668,5.666-5.668C246.909,130.393,249.45,132.931,249.45,136.061z"/>
<path fill="none" stroke="#000000" stroke-width="3" stroke-miterlimit="10" d="M141.733,243.777c0,3.133-2.541,5.672-5.674,5.672
	c-3.127,0-5.666-2.539-5.666-5.672c0-3.13,2.539-5.668,5.666-5.668C139.192,238.109,141.733,240.647,141.733,243.777z"/>
<path fill="none" stroke="#000000" stroke-width="3" stroke-miterlimit="10" d="M141.733,28.345c0,3.133-2.541,5.672-5.674,5.672
	c-3.127,0-5.666-2.539-5.666-5.672c0-3.13,2.539-5.668,5.666-5.668C139.192,22.677,141.733,25.215,141.733,28.345z"/>
<g>
	<path d="M21.548,93.583l5.773-15.032h2.143l6.152,15.032h-2.266l-1.753-4.553h-6.286l-1.651,4.553H21.548z M25.886,87.411h5.096
		l-1.569-4.163c-0.479-1.265-0.834-2.304-1.066-3.117c-0.191,0.964-0.461,1.921-0.81,2.871L25.886,87.411z"/>
</g>
<g>
	<path d="M22.881,161.24v-15.032h5.64c1.148,0,2.069,0.152,2.763,0.457s1.237,0.772,1.631,1.404
		c0.393,0.633,0.589,1.294,0.589,1.984c0,0.643-0.174,1.248-0.523,1.815s-0.875,1.025-1.579,1.374
		c0.909,0.267,1.608,0.721,2.097,1.364s0.733,1.401,0.733,2.276c0,0.704-0.148,1.358-0.446,1.964
		c-0.297,0.604-0.665,1.071-1.102,1.399s-0.986,0.576-1.646,0.743c-0.66,0.168-1.468,0.251-2.425,0.251H22.881z M24.871,152.524
		h3.25c0.882,0,1.514-0.058,1.897-0.174c0.506-0.15,0.887-0.4,1.143-0.749c0.257-0.349,0.385-0.786,0.385-1.313
		c0-0.499-0.12-0.938-0.359-1.318c-0.239-0.379-0.581-0.639-1.025-0.779c-0.444-0.14-1.207-0.21-2.287-0.21h-3.004V152.524z
		 M24.871,159.466h3.743c0.643,0,1.094-0.024,1.354-0.072c0.458-0.082,0.841-0.219,1.148-0.41s0.561-0.47,0.759-0.835
		s0.297-0.788,0.297-1.267c0-0.561-0.144-1.047-0.431-1.461s-0.686-0.704-1.195-0.872c-0.509-0.167-1.242-0.251-2.199-0.251h-3.476
		V159.466z"/>
</g>
<g>
	<path d="M132.835,14.487l1.989,0.502c-0.417,1.634-1.167,2.88-2.251,3.737c-1.083,0.858-2.408,1.287-3.973,1.287
		c-1.62,0-2.938-0.33-3.953-0.989c-1.016-0.66-1.788-1.615-2.317-2.866c-0.53-1.251-0.795-2.594-0.795-4.03
		c0-1.565,0.299-2.931,0.897-4.096c0.598-1.166,1.449-2.051,2.553-2.656c1.104-0.604,2.319-0.907,3.646-0.907
		c1.504,0,2.769,0.383,3.794,1.148s1.74,1.842,2.143,3.23l-1.958,0.461c-0.349-1.094-0.854-1.89-1.518-2.389
		s-1.497-0.749-2.502-0.749c-1.155,0-2.121,0.277-2.896,0.831c-0.776,0.554-1.321,1.297-1.636,2.23
		c-0.314,0.934-0.472,1.896-0.472,2.887c0,1.278,0.186,2.395,0.559,3.348c0.373,0.954,0.952,1.667,1.738,2.138
		s1.637,0.708,2.553,0.708c1.114,0,2.058-0.321,2.83-0.964S132.562,15.751,132.835,14.487z"/>
	<path d="M136.02,16.905c0-1.056,0.293-1.839,0.881-2.347c0.491-0.422,1.088-0.634,1.794-0.634c0.784,0,1.425,0.257,1.923,0.771
		c0.498,0.514,0.747,1.224,0.747,2.129c0,0.734-0.11,1.312-0.33,1.732c-0.221,0.421-0.541,0.748-0.962,0.98
		c-0.42,0.233-0.88,0.349-1.377,0.349c-0.798,0-1.444-0.256-1.936-0.768C136.266,18.606,136.02,17.869,136.02,16.905z
		 M137.014,16.905c0,0.73,0.159,1.277,0.478,1.641c0.319,0.364,0.72,0.545,1.203,0.545c0.48,0,0.879-0.183,1.198-0.548
		s0.478-0.922,0.478-1.67c0-0.706-0.16-1.24-0.481-1.604c-0.32-0.363-0.719-0.545-1.195-0.545c-0.483,0-0.884,0.181-1.203,0.542
		S137.014,16.175,137.014,16.905z"/>
	<path d="M146.236,19.757v-0.838c-0.444,0.645-1.047,0.967-1.81,0.967c-0.336,0-0.651-0.064-0.942-0.193
		c-0.292-0.129-0.509-0.291-0.65-0.486c-0.141-0.195-0.241-0.435-0.298-0.717c-0.04-0.19-0.059-0.491-0.059-0.902v-3.534h0.967
		v3.164c0,0.505,0.02,0.845,0.059,1.021c0.061,0.254,0.19,0.454,0.387,0.599c0.197,0.146,0.44,0.218,0.73,0.218
		s0.562-0.074,0.816-0.223c0.254-0.149,0.434-0.351,0.54-0.607c0.105-0.256,0.158-0.627,0.158-1.114v-3.056h0.967v5.704H146.236z"/>
	<path d="M150.726,18.893l0.14,0.854c-0.272,0.057-0.516,0.086-0.73,0.086c-0.351,0-0.623-0.056-0.816-0.167
		s-0.33-0.257-0.408-0.438c-0.079-0.181-0.118-0.562-0.118-1.142v-3.282h-0.709v-0.752h0.709v-1.413l0.961-0.58v1.993h0.972v0.752
		h-0.972v3.335c0,0.276,0.017,0.453,0.051,0.532c0.034,0.079,0.09,0.142,0.167,0.188c0.077,0.046,0.187,0.07,0.33,0.07
		C150.409,18.93,150.551,18.917,150.726,18.893z"/>
</g>
<g>
	<path d="M136.2,262.188l1.989,0.502c-0.417,1.634-1.167,2.88-2.25,3.737c-1.084,0.858-2.408,1.287-3.974,1.287
		c-1.62,0-2.938-0.33-3.953-0.989c-1.015-0.66-1.788-1.615-2.317-2.866s-0.794-2.594-0.794-4.03c0-1.565,0.299-2.931,0.897-4.096
		s1.449-2.051,2.554-2.656c1.104-0.604,2.319-0.907,3.645-0.907c1.504,0,2.769,0.383,3.794,1.148s1.74,1.842,2.143,3.23
		l-1.958,0.461c-0.349-1.094-0.854-1.89-1.518-2.389s-1.497-0.749-2.502-0.749c-1.155,0-2.121,0.277-2.897,0.831
		s-1.321,1.297-1.635,2.23c-0.314,0.934-0.472,1.896-0.472,2.887c0,1.278,0.186,2.395,0.559,3.348
		c0.372,0.954,0.952,1.667,1.738,2.138s1.637,0.708,2.553,0.708c1.114,0,2.058-0.321,2.83-0.964S135.926,263.453,136.2,262.188z"/>
	<path d="M139.75,260.697v-1.112h0.967v1.112H139.75z M139.75,267.459v-5.704h0.967v5.704H139.75z"/>
	<path d="M142.188,267.459v-5.704h0.87v0.811c0.419-0.626,1.024-0.94,1.815-0.94c0.344,0,0.66,0.062,0.948,0.185
		c0.288,0.124,0.504,0.286,0.647,0.486s0.244,0.438,0.301,0.714c0.036,0.179,0.054,0.492,0.054,0.94v3.507h-0.967v-3.47
		c0-0.394-0.038-0.688-0.113-0.883c-0.075-0.195-0.208-0.351-0.4-0.468c-0.191-0.116-0.416-0.174-0.674-0.174
		c-0.412,0-0.767,0.131-1.066,0.392c-0.299,0.261-0.448,0.757-0.448,1.488v3.115H142.188z"/>
</g>
<g>
	<path d="M237.721,122.395l1.876-0.164c0.089,0.752,0.295,1.369,0.62,1.851c0.325,0.482,0.829,0.872,1.513,1.169
		c0.684,0.298,1.453,0.446,2.307,0.446c0.759,0,1.429-0.113,2.01-0.338s1.013-0.535,1.297-0.928
		c0.283-0.393,0.425-0.822,0.425-1.287c0-0.472-0.137-0.883-0.41-1.236c-0.273-0.352-0.725-0.647-1.354-0.887
		c-0.403-0.157-1.295-0.401-2.676-0.733c-1.381-0.331-2.348-0.644-2.902-0.938c-0.718-0.376-1.253-0.842-1.605-1.4
		c-0.352-0.557-0.528-1.181-0.528-1.871c0-0.759,0.215-1.468,0.646-2.128c0.431-0.659,1.06-1.16,1.887-1.502
		s1.747-0.513,2.758-0.513c1.114,0,2.097,0.18,2.948,0.538c0.852,0.359,1.506,0.887,1.964,1.584s0.704,1.487,0.738,2.369
		l-1.907,0.144c-0.103-0.95-0.45-1.668-1.041-2.153s-1.464-0.728-2.62-0.728c-1.203,0-2.08,0.22-2.63,0.662
		c-0.55,0.44-0.825,0.972-0.825,1.594c0,0.54,0.195,0.984,0.584,1.333c0.383,0.349,1.382,0.706,3,1.072
		c1.616,0.366,2.726,0.685,3.327,0.958c0.875,0.403,1.521,0.915,1.938,1.533c0.417,0.619,0.625,1.332,0.625,2.138
		c0,0.8-0.229,1.553-0.687,2.261c-0.458,0.707-1.116,1.258-1.974,1.65c-0.858,0.393-1.823,0.59-2.896,0.59
		c-1.36,0-2.5-0.198-3.42-0.595s-1.641-0.993-2.163-1.789C238.023,124.3,237.749,123.399,237.721,122.395z"/>
</g>
<g>
	<path d="M118.001,147.401v-25.77h17.385v3.041h-13.975v7.98h12.094v3.041h-12.094v11.707H118.001z"/>
	<path d="M135,147.401l9.896-25.77h3.674l10.547,25.77h-3.885l-3.006-7.805h-10.775l-2.83,7.805H135z M142.435,136.819h8.736
		l-2.689-7.137c-0.82-2.168-1.43-3.949-1.828-5.344c-0.328,1.652-0.791,3.293-1.389,4.922L142.435,136.819z"/>
</g>
</svg>
