<?xml version="1.0" encoding="utf-8"?>
<!-- Generator: Adobe Illustrator 15.1.0, SVG Export Plug-In . SVG Version: 6.00 Build 0)  -->
<!DOCTYPE svg PUBLIC "-//W3C//DTD SVG 1.1//EN" "http://www.w3.org/Graphics/SVG/1.1/DTD/svg11.dtd">
<svg version="1.1" id="Layer_1" xmlns="http://www.w3.org/2000/svg" xmlns:xlink="http://www.w3.org/1999/xlink" x="0px" y="0px"
	 width="510.235px" height="680.314px" viewBox="0 0 510.235 680.314" enable-background="new 0 0 510.235 680.314"
	 xml:space="preserve">
<g>
	<line fill="none" stroke="#000000" stroke-width="3" stroke-miterlimit="10" x1="136.063" y1="40.839" x2="136.063" y2="68.033"/>
	<line fill="none" stroke="#000000" stroke-width="3" stroke-miterlimit="10" x1="153.07" y1="34.016" x2="119.055" y2="47.612"/>
</g>
<g>
	
		<line fill="none" stroke="#000000" stroke-width="3" stroke-miterlimit="10" x1="140.315" y1="645.919" x2="131.811" y2="645.919"/>
	
		<line fill="none" stroke="#000000" stroke-width="3" stroke-miterlimit="10" x1="146.693" y1="639.116" x2="125.433" y2="639.116"/>
	
		<line fill="none" stroke="#000000" stroke-width="3" stroke-miterlimit="10" x1="136.063" y1="612.283" x2="136.063" y2="632.313"/>
	
		<line fill="none" stroke="#000000" stroke-width="3" stroke-miterlimit="10" x1="119.055" y1="632.313" x2="153.071" y2="632.313"/>
	<path fill="none" stroke="#000000" stroke-width="3" stroke-miterlimit="10" d="M140.315,645.919"/>
	<path fill="none" stroke="#000000" stroke-width="3" stroke-miterlimit="10" d="M153.071,632.313"/>
	<path fill="none" stroke="#000000" stroke-width="3" stroke-miterlimit="10" d="M119.055,632.313"/>
	<path fill="none" stroke="#000000" stroke-width="3" stroke-miterlimit="10" d="M131.811,645.919"/>
</g>
<g>
	<polyline fill="none" stroke="#000000" stroke-width="3" stroke-miterlimit="10" points="136.063,204.095 136.063,170.08 
		102.047,170.08 102.047,102.048 136.063,102.048 136.063,68.033 	"/>
	<line fill="none" stroke="#000000" stroke-width="3" stroke-miterlimit="10" x1="90.708" y1="102.048" x2="90.708" y2="170.08"/>
	<circle fill="none" stroke="#000000" stroke-width="3" stroke-miterlimit="10" cx="83.622" cy="136.063" r="7.086"/>
	<path fill="none" stroke="#000000" stroke-width="3" stroke-miterlimit="10" d="M34.016,272.125"/>
</g>
<g>
	<polyline fill="none" stroke="#000000" stroke-width="3" stroke-miterlimit="10" points="136.063,340.157 136.063,306.141 
		102.047,306.141 102.047,238.11 136.063,238.11 136.063,204.094 	"/>
	<line fill="none" stroke="#000000" stroke-width="3" stroke-miterlimit="10" x1="90.708" y1="238.11" x2="90.708" y2="306.141"/>
	<line fill="none" stroke="#000000" stroke-width="3" stroke-miterlimit="10" x1="34.016" y1="272.125" x2="90.708" y2="272.125"/>
	<path fill="none" stroke="#000000" stroke-width="3" stroke-miterlimit="10" d="M34.016,272.124"/>
</g>
<path fill="none" stroke="#000000" stroke-width="3" stroke-miterlimit="10" d="M34.016,272.124c0,3.132-2.54,5.671-5.673,5.671
	c-3.127,0-5.666-2.539-5.666-5.671c0-3.13,2.539-5.668,5.666-5.668C31.476,266.456,34.016,268.994,34.016,272.124z"/>
<g>
	<path d="M21.313,260.786l5.773-15.032h2.143l6.152,15.032h-2.266l-1.753-4.553h-6.286l-1.651,4.553H21.313z M25.651,254.613h5.096
		l-1.569-4.163c-0.479-1.265-0.834-2.304-1.066-3.117c-0.191,0.964-0.461,1.921-0.81,2.871L25.651,254.613z"/>
</g>
<line fill="none" stroke="#000000" stroke-width="3" stroke-miterlimit="10" x1="34.016" y1="136.064" x2="76.535" y2="136.064"/>
<g>
	<path d="M136.058,208.264c-2.296,0-4.165-1.871-4.165-4.17c0-2.299,1.869-4.169,4.165-4.169c2.301,0,4.174,1.87,4.174,4.169
		C140.232,206.393,138.359,208.264,136.058,208.264z"/>
	<path d="M136.058,201.425c1.474,0,2.674,1.197,2.674,2.669c0,1.472-1.2,2.67-2.674,2.67c-1.47,0-2.665-1.198-2.665-2.67
		C133.393,202.622,134.588,201.425,136.058,201.425 M136.058,198.425c-3.125,0-5.665,2.538-5.665,5.669
		c0,3.131,2.54,5.67,5.665,5.67c3.134,0,5.674-2.539,5.674-5.67C141.732,200.962,139.192,198.425,136.058,198.425L136.058,198.425z"
		/>
</g>
<g>
</g>
<g>
	<polyline fill="none" stroke="#000000" stroke-width="3" stroke-miterlimit="10" points="170.079,340.157 170.079,306.141 
		204.095,306.141 204.095,238.11 170.079,238.11 170.079,204.094 	"/>
	<line fill="none" stroke="#000000" stroke-width="3" stroke-miterlimit="10" x1="215.434" y1="238.11" x2="215.434" y2="306.141"/>
	
		<line fill="none" stroke="#000000" stroke-width="3" stroke-miterlimit="10" x1="272.126" y1="272.125" x2="215.434" y2="272.125"/>
	<path fill="none" stroke="#000000" stroke-width="3" stroke-miterlimit="10" d="M272.126,272.124"/>
</g>
<path fill="none" stroke="#000000" stroke-width="3" stroke-miterlimit="10" d="M283.465,272.125c0,3.132-2.541,5.671-5.674,5.671
	c-3.127,0-5.666-2.539-5.666-5.671c0-3.13,2.539-5.668,5.666-5.668C280.924,266.458,283.465,268.995,283.465,272.125z"/>
<g>
	<path d="M272.331,260.787v-15.032h5.64c1.148,0,2.069,0.152,2.763,0.457s1.237,0.772,1.631,1.404
		c0.393,0.633,0.589,1.294,0.589,1.984c0,0.643-0.174,1.248-0.523,1.815s-0.875,1.025-1.579,1.374
		c0.909,0.267,1.608,0.721,2.097,1.364s0.733,1.401,0.733,2.276c0,0.704-0.148,1.358-0.446,1.964
		c-0.297,0.604-0.665,1.071-1.102,1.399s-0.986,0.576-1.646,0.743c-0.66,0.168-1.468,0.251-2.425,0.251H272.331z M274.32,252.071
		h3.25c0.882,0,1.514-0.058,1.897-0.174c0.506-0.15,0.887-0.4,1.143-0.749c0.257-0.349,0.385-0.786,0.385-1.313
		c0-0.499-0.12-0.938-0.359-1.318c-0.239-0.379-0.581-0.639-1.025-0.779c-0.444-0.14-1.207-0.21-2.287-0.21h-3.004V252.071z
		 M274.32,259.013h3.743c0.643,0,1.094-0.024,1.354-0.072c0.458-0.082,0.841-0.219,1.148-0.41s0.561-0.47,0.759-0.835
		s0.297-0.788,0.297-1.267c0-0.561-0.144-1.047-0.431-1.461s-0.686-0.704-1.195-0.872c-0.509-0.167-1.242-0.251-2.199-0.251h-3.476
		V259.013z"/>
</g>
<g>
	<polyline fill="none" stroke="#000000" stroke-width="3" stroke-miterlimit="10" points="136.062,476.221 136.062,442.205 
		102.046,442.205 102.046,374.174 136.062,374.174 136.062,340.158 	"/>
	<line fill="none" stroke="#000000" stroke-width="3" stroke-miterlimit="10" x1="90.707" y1="374.174" x2="90.707" y2="442.205"/>
	<line fill="none" stroke="#000000" stroke-width="3" stroke-miterlimit="10" x1="34.015" y1="408.189" x2="90.707" y2="408.189"/>
	<path fill="none" stroke="#000000" stroke-width="3" stroke-miterlimit="10" d="M34.015,408.188"/>
</g>
<path fill="none" stroke="#000000" stroke-width="3" stroke-miterlimit="10" d="M34.015,408.187c0,3.132-2.54,5.671-5.673,5.671
	c-3.127,0-5.666-2.539-5.666-5.671c0-3.13,2.539-5.668,5.666-5.668C31.475,402.519,34.015,405.057,34.015,408.187z"/>
<g>
	<path d="M33.689,391.578l1.989,0.502c-0.417,1.634-1.167,2.88-2.25,3.737c-1.084,0.858-2.408,1.287-3.974,1.287
		c-1.62,0-2.938-0.33-3.953-0.989c-1.015-0.66-1.788-1.615-2.317-2.866s-0.794-2.594-0.794-4.03c0-1.565,0.299-2.931,0.897-4.096
		s1.449-2.051,2.554-2.656c1.104-0.604,2.319-0.907,3.645-0.907c1.504,0,2.769,0.383,3.794,1.148s1.74,1.842,2.143,3.23
		l-1.958,0.461c-0.349-1.094-0.854-1.89-1.518-2.389s-1.497-0.749-2.502-0.749c-1.155,0-2.121,0.277-2.897,0.831
		s-1.321,1.297-1.635,2.23c-0.314,0.934-0.472,1.896-0.472,2.887c0,1.278,0.186,2.395,0.559,3.348
		c0.372,0.954,0.952,1.667,1.738,2.138s1.637,0.708,2.553,0.708c1.114,0,2.058-0.321,2.83-0.964S33.416,392.843,33.689,391.578z"/>
</g>
<g>
	
		<line fill="none" stroke="#000000" stroke-width="3" stroke-miterlimit="10" x1="215.434" y1="374.174" x2="215.434" y2="442.205"/>
	
		<line fill="none" stroke="#000000" stroke-width="3" stroke-miterlimit="10" x1="272.125" y1="408.189" x2="215.434" y2="408.189"/>
	<path fill="none" stroke="#000000" stroke-width="3" stroke-miterlimit="10" d="M272.125,408.188"/>
</g>
<path fill="none" stroke="#000000" stroke-width="3" stroke-miterlimit="10" d="M283.464,408.187c0,3.132-2.54,5.671-5.673,5.671
	c-3.127,0-5.666-2.539-5.666-5.671c0-3.13,2.539-5.668,5.666-5.668C280.924,402.519,283.464,405.057,283.464,408.187z"/>
<g>
	<path d="M272.414,396.849v-15.032h5.178c1.169,0,2.061,0.072,2.676,0.215c0.861,0.198,1.596,0.557,2.205,1.077
		c0.793,0.67,1.386,1.526,1.779,2.569c0.393,1.042,0.589,2.233,0.589,3.573c0,1.142-0.133,2.153-0.4,3.035s-0.608,1.612-1.025,2.189
		s-0.874,1.032-1.369,1.363c-0.496,0.332-1.094,0.583-1.794,0.754c-0.701,0.171-1.506,0.256-2.415,0.256H272.414z M274.403,395.075
		h3.209c0.991,0,1.769-0.092,2.333-0.277c0.563-0.185,1.013-0.444,1.348-0.779c0.472-0.472,0.839-1.105,1.102-1.902
		s0.395-1.762,0.395-2.897c0-1.572-0.258-2.78-0.774-3.625c-0.517-0.844-1.144-1.41-1.882-1.697
		c-0.533-0.205-1.391-0.308-2.574-0.308h-3.158V395.075z"/>
</g>
<g>
	<path d="M136.058,480.389c-2.297,0-4.165-1.87-4.165-4.17c0-2.299,1.868-4.169,4.165-4.169c2.302,0,4.174,1.87,4.174,4.169
		C140.231,478.519,138.359,480.389,136.058,480.389z"/>
	<path d="M136.058,473.55c1.475,0,2.674,1.197,2.674,2.669c0,1.473-1.199,2.67-2.674,2.67c-1.47,0-2.665-1.197-2.665-2.67
		C133.393,474.747,134.588,473.55,136.058,473.55 M136.058,470.55c-3.125,0-5.665,2.538-5.665,5.669s2.54,5.67,5.665,5.67
		c3.134,0,5.674-2.539,5.674-5.67S139.191,470.55,136.058,470.55L136.058,470.55z"/>
</g>
<g>
	<path d="M170.074,208.264c-2.297,0-4.165-1.871-4.165-4.17c0-2.299,1.868-4.169,4.165-4.169c2.301,0,4.174,1.87,4.174,4.169
		C174.248,206.393,172.375,208.264,170.074,208.264z"/>
	<path d="M170.074,201.425c1.474,0,2.674,1.197,2.674,2.669c0,1.472-1.2,2.67-2.674,2.67c-1.47,0-2.665-1.198-2.665-2.67
		C167.409,202.622,168.604,201.425,170.074,201.425 M170.074,198.425c-3.125,0-5.665,2.538-5.665,5.669
		c0,3.131,2.54,5.67,5.665,5.67c3.134,0,5.674-2.539,5.674-5.67C175.748,200.962,173.208,198.425,170.074,198.425L170.074,198.425z"
		/>
</g>
<polyline fill="none" stroke="#000000" stroke-width="3" stroke-miterlimit="10" points="136.063,476.22 170.078,476.221 
	170.078,442.205 204.094,442.205 204.094,374.174 170.078,374.174 170.078,340.158 "/>
<path fill="none" stroke="#000000" stroke-width="3" stroke-miterlimit="10" d="M34.016,136.062c0,3.132-2.54,5.671-5.673,5.671
	c-3.127,0-5.666-2.539-5.666-5.671c0-3.13,2.539-5.668,5.666-5.668C31.476,130.394,34.016,132.931,34.016,136.062z"/>
<g>
	<path d="M18.015,119.454l1.989,0.502c-0.417,1.634-1.167,2.88-2.25,3.737c-1.084,0.858-2.408,1.287-3.974,1.287
		c-1.62,0-2.938-0.33-3.953-0.989c-1.015-0.66-1.788-1.615-2.317-2.866s-0.794-2.594-0.794-4.03c0-1.565,0.299-2.931,0.897-4.096
		s1.449-2.051,2.554-2.656c1.104-0.604,2.319-0.907,3.645-0.907c1.504,0,2.769,0.383,3.794,1.148s1.74,1.842,2.143,3.23
		l-1.958,0.461c-0.349-1.094-0.854-1.89-1.518-2.389s-1.497-0.749-2.502-0.749c-1.155,0-2.121,0.277-2.897,0.831
		s-1.321,1.297-1.635,2.23c-0.314,0.934-0.472,1.896-0.472,2.887c0,1.278,0.186,2.395,0.559,3.348
		c0.372,0.954,0.952,1.667,1.738,2.138s1.637,0.708,2.553,0.708c1.114,0,2.058-0.321,2.83-0.964S17.742,120.718,18.015,119.454z"/>
	<path d="M22.373,124.724v-15.032h1.989v13.258h7.403v1.774H22.373z"/>
	<path d="M34.052,124.724v-15.032h1.989v7.455l7.465-7.455h2.697l-6.306,6.091l6.583,8.941h-2.625l-5.353-7.608l-2.461,2.399v5.209
		H34.052z"/>
</g>
<g>
	<polyline fill="none" stroke="#000000" stroke-width="3" stroke-miterlimit="10" points="136.062,612.283 136.062,578.268 
		102.046,578.268 102.046,510.236 136.062,510.236 136.062,476.221 	"/>
	<line fill="none" stroke="#000000" stroke-width="3" stroke-miterlimit="10" x1="90.707" y1="510.236" x2="90.707" y2="578.268"/>
	<line fill="none" stroke="#000000" stroke-width="3" stroke-miterlimit="10" x1="34.015" y1="544.252" x2="90.707" y2="544.252"/>
	<path fill="none" stroke="#000000" stroke-width="3" stroke-miterlimit="10" d="M34.015,544.251"/>
</g>
<path fill="none" stroke="#000000" stroke-width="3" stroke-miterlimit="10" d="M34.015,544.249c0,3.132-2.54,5.671-5.673,5.671
	c-3.127,0-5.666-2.539-5.666-5.671c0-3.13,2.539-5.668,5.666-5.668C31.475,538.581,34.015,541.119,34.015,544.249z"/>
<g>
	<path d="M18.015,527.643l1.989,0.502c-0.417,1.634-1.167,2.88-2.25,3.737c-1.084,0.858-2.408,1.287-3.974,1.287
		c-1.62,0-2.938-0.329-3.953-0.989c-1.015-0.66-1.788-1.615-2.317-2.866s-0.794-2.595-0.794-4.03c0-1.564,0.299-2.93,0.897-4.096
		s1.449-2.051,2.554-2.656c1.104-0.604,2.319-0.907,3.645-0.907c1.504,0,2.769,0.383,3.794,1.148s1.74,1.843,2.143,3.229
		l-1.958,0.462c-0.349-1.094-0.854-1.89-1.518-2.39c-0.663-0.498-1.497-0.748-2.502-0.748c-1.155,0-2.121,0.277-2.897,0.83
		c-0.776,0.555-1.321,1.298-1.635,2.23c-0.314,0.934-0.472,1.896-0.472,2.887c0,1.278,0.186,2.395,0.559,3.348
		c0.372,0.954,0.952,1.666,1.738,2.139c0.786,0.471,1.637,0.707,2.553,0.707c1.114,0,2.058-0.321,2.83-0.964
		S17.742,528.906,18.015,527.643z"/>
	<path d="M22.373,532.912v-15.031h1.989v13.258h7.403v1.773H22.373z"/>
	<path d="M34.052,532.912v-15.031h1.989v7.454l7.465-7.454h2.697l-6.306,6.09l6.583,8.941h-2.625l-5.353-7.607l-2.461,2.398v5.209
		H34.052z"/>
</g>
<g>
	<line fill="none" stroke="#000000" stroke-width="3" stroke-miterlimit="10" x1="442.203" y1="40.839" x2="442.203" y2="68.033"/>
	<line fill="none" stroke="#000000" stroke-width="3" stroke-miterlimit="10" x1="459.211" y1="34.016" x2="425.195" y2="47.612"/>
</g>
<g>
	
		<line fill="none" stroke="#000000" stroke-width="3" stroke-miterlimit="10" x1="446.456" y1="373.794" x2="437.952" y2="373.794"/>
	
		<line fill="none" stroke="#000000" stroke-width="3" stroke-miterlimit="10" x1="452.834" y1="366.991" x2="431.574" y2="366.991"/>
	
		<line fill="none" stroke="#000000" stroke-width="3" stroke-miterlimit="10" x1="442.204" y1="340.158" x2="442.204" y2="360.188"/>
	
		<line fill="none" stroke="#000000" stroke-width="3" stroke-miterlimit="10" x1="425.196" y1="360.188" x2="459.212" y2="360.188"/>
	<path fill="none" stroke="#000000" stroke-width="3" stroke-miterlimit="10" d="M446.456,373.794"/>
	<path fill="none" stroke="#000000" stroke-width="3" stroke-miterlimit="10" d="M459.212,360.188"/>
	<path fill="none" stroke="#000000" stroke-width="3" stroke-miterlimit="10" d="M425.196,360.188"/>
	<path fill="none" stroke="#000000" stroke-width="3" stroke-miterlimit="10" d="M437.952,373.794"/>
</g>
<g>
	<polyline fill="none" stroke="#000000" stroke-width="3" stroke-miterlimit="10" points="442.203,204.095 442.203,170.08 
		408.188,170.08 408.188,102.048 442.203,102.048 442.203,68.033 	"/>
	<line fill="none" stroke="#000000" stroke-width="3" stroke-miterlimit="10" x1="396.849" y1="102.048" x2="396.849" y2="170.08"/>
	<circle fill="none" stroke="#000000" stroke-width="3" stroke-miterlimit="10" cx="389.762" cy="136.063" r="7.086"/>
	<polyline fill="none" stroke="#000000" stroke-width="3" stroke-miterlimit="10" points="340.156,204.096 340.156,136.064 
		382.676,136.064 	"/>
</g>
<g>
	<polyline fill="none" stroke="#000000" stroke-width="3" stroke-miterlimit="10" points="442.203,340.158 442.203,306.143 
		408.188,306.143 408.188,238.111 442.203,238.111 442.203,204.096 	"/>
	
		<line fill="none" stroke="#000000" stroke-width="3" stroke-miterlimit="10" x1="396.849" y1="238.111" x2="396.849" y2="306.143"/>
	<polyline fill="none" stroke="#000000" stroke-width="3" stroke-miterlimit="10" points="340.156,204.096 340.156,272.127 
		396.849,272.127 	"/>
</g>
<line fill="none" stroke="#000000" stroke-width="3" stroke-miterlimit="10" x1="306.141" y1="204.096" x2="340.156" y2="204.096"/>
<g>
	<path d="M340.153,208.265c-2.297,0-4.166-1.871-4.166-4.17c0-2.299,1.869-4.169,4.166-4.169c2.301,0,4.173,1.87,4.173,4.169
		C344.326,206.395,342.454,208.265,340.153,208.265z"/>
	<path d="M340.153,201.426c1.474,0,2.673,1.197,2.673,2.669c0,1.472-1.199,2.67-2.673,2.67c-1.47,0-2.666-1.198-2.666-2.67
		C337.487,202.624,338.684,201.426,340.153,201.426 M340.153,198.426c-3.126,0-5.666,2.538-5.666,5.669
		c0,3.131,2.54,5.67,5.666,5.67c3.133,0,5.673-2.539,5.673-5.67C345.826,200.964,343.286,198.426,340.153,198.426L340.153,198.426z"
		/>
</g>
<line fill="none" stroke="#000000" stroke-width="3" stroke-miterlimit="10" x1="442.204" y1="204.096" x2="476.22" y2="204.096"/>
<path fill="none" stroke="#000000" stroke-width="3" stroke-miterlimit="10" d="M487.558,204.094c0,3.132-2.54,5.671-5.673,5.671
	c-3.127,0-5.666-2.539-5.666-5.671c0-3.13,2.539-5.668,5.666-5.668C485.018,198.426,487.558,200.964,487.558,204.094z"/>
<g>
	<path d="M474.937,192.756l5.813-7.834l-5.127-7.198h2.369l2.728,3.855c0.567,0.8,0.971,1.415,1.21,1.846
		c0.335-0.547,0.731-1.118,1.189-1.712l3.025-3.989h2.163l-5.28,7.085l5.69,7.947h-2.461l-3.784-5.363
		c-0.211-0.308-0.43-0.643-0.656-1.005c-0.334,0.547-0.574,0.923-0.717,1.128l-3.773,5.24H474.937z"/>
</g>
<line fill="none" stroke="#000000" stroke-width="3" stroke-miterlimit="10" x1="136.063" y1="204.094" x2="170.079" y2="204.094"/>
<line fill="none" stroke="#000000" stroke-width="3" stroke-miterlimit="10" x1="170.079" y1="204.094" x2="306.142" y2="204.094"/>
<g>
	<path d="M442.2,208.265c-2.297,0-4.166-1.871-4.166-4.17c0-2.299,1.869-4.169,4.166-4.169c2.301,0,4.173,1.87,4.173,4.169
		C446.373,206.395,444.501,208.265,442.2,208.265z"/>
	<path d="M442.2,201.426c1.474,0,2.673,1.197,2.673,2.669c0,1.472-1.199,2.67-2.673,2.67c-1.47,0-2.666-1.198-2.666-2.67
		C439.534,202.624,440.73,201.426,442.2,201.426 M442.2,198.426c-3.126,0-5.666,2.538-5.666,5.669c0,3.131,2.54,5.67,5.666,5.67
		c3.133,0,5.673-2.539,5.673-5.67C447.873,200.964,445.333,198.426,442.2,198.426L442.2,198.426z"/>
</g>
</svg>
