<?xml version="1.0" encoding="utf-8"?>
<!-- Generator: Adobe Illustrator 15.1.0, SVG Export Plug-In . SVG Version: 6.00 Build 0)  -->
<!DOCTYPE svg PUBLIC "-//W3C//DTD SVG 1.1//EN" "http://www.w3.org/Graphics/SVG/1.1/DTD/svg11.dtd">
<svg version="1.1" id="Layer_1" xmlns="http://www.w3.org/2000/svg" xmlns:xlink="http://www.w3.org/1999/xlink" x="0px" y="0px"
	 width="306.142px" height="408.188px" viewBox="0 0 306.142 408.188" enable-background="new 0 0 306.142 408.188"
	 xml:space="preserve">
<g>
	<line fill="none" stroke="#000000" stroke-width="3" stroke-miterlimit="10" x1="238.109" y1="40.839" x2="238.109" y2="68.033"/>
	<line fill="none" stroke="#000000" stroke-width="3" stroke-miterlimit="10" x1="255.117" y1="34.016" x2="221.102" y2="47.612"/>
</g>
<g>
	<polyline fill="none" stroke="#000000" stroke-width="3" stroke-miterlimit="10" points="238.109,340.158 238.109,306.143 
		204.094,306.143 204.094,238.111 238.109,238.111 238.109,204.096 	"/>
	
		<line fill="none" stroke="#000000" stroke-width="3" stroke-miterlimit="10" x1="192.755" y1="238.111" x2="192.755" y2="306.143"/>
	
		<line fill="none" stroke="#000000" stroke-width="3" stroke-miterlimit="10" x1="136.063" y1="272.127" x2="192.755" y2="272.127"/>
	<path fill="none" stroke="#000000" stroke-width="3" stroke-miterlimit="10" d="M136.063,272.125"/>
</g>
<line fill="none" stroke="#000000" stroke-width="3" stroke-miterlimit="10" x1="102.047" y1="272.125" x2="136.063" y2="272.125"/>
<path fill="none" stroke="#000000" stroke-width="3" stroke-miterlimit="10" d="M34.016,272.124c0,3.132-2.54,5.671-5.673,5.671
	c-3.127,0-5.666-2.539-5.666-5.671c0-3.13,2.539-5.668,5.666-5.668C31.476,266.456,34.016,268.994,34.016,272.124z"/>
<line fill="none" stroke="#000000" stroke-width="3" stroke-miterlimit="10" x1="238.11" y1="204.096" x2="272.126" y2="204.096"/>
<path fill="none" stroke="#000000" stroke-width="3" stroke-miterlimit="10" d="M283.464,204.094c0,3.132-2.54,5.671-5.673,5.671
	c-3.127,0-5.666-2.539-5.666-5.671c0-3.13,2.539-5.668,5.666-5.668C280.924,198.426,283.464,200.964,283.464,204.094z"/>
<g>
	<path d="M21.437,260.786l5.814-7.834l-5.127-7.198h2.369l2.728,3.855c0.567,0.8,0.971,1.415,1.21,1.846
		c0.335-0.547,0.731-1.118,1.189-1.712l3.025-3.989h2.164l-5.281,7.085l5.691,7.947h-2.461l-3.784-5.363
		c-0.212-0.308-0.431-0.643-0.656-1.005c-0.335,0.547-0.574,0.923-0.718,1.128l-3.773,5.24H21.437z"/>
</g>
<g>
	<path d="M276.687,192.756v-6.368l-5.793-8.665h2.42l2.963,4.532c0.547,0.848,1.056,1.695,1.528,2.543
		c0.451-0.786,0.998-1.671,1.641-2.656l2.912-4.419h2.317l-5.999,8.665v6.368H276.687z"/>
</g>
<polyline fill="none" stroke="#000000" stroke-width="3" stroke-miterlimit="10" points="238.109,204.094 238.109,170.079 
	221.102,164.409 255.117,153.071 221.102,141.731 255.117,130.393 221.102,119.055 255.117,107.716 238.109,102.048 238.109,68.03 
	"/>
<g>
	<line fill="none" stroke="#000000" stroke-width="3" stroke-miterlimit="10" x1="73.701" y1="238.109" x2="73.701" y2="306.141"/>
	<line fill="none" stroke="#000000" stroke-width="3" stroke-miterlimit="10" x1="62.363" y1="238.109" x2="62.363" y2="306.141"/>
	<line fill="none" stroke="#000000" stroke-width="3" stroke-miterlimit="10" x1="102.047" y1="272.125" x2="74.047" y2="272.125"/>
	<line fill="none" stroke="#000000" stroke-width="3" stroke-miterlimit="10" x1="62.363" y1="272.125" x2="34.016" y2="272.125"/>
</g>
<g>
	<polyline fill="none" stroke="#000000" stroke-width="3" stroke-miterlimit="10" points="136.063,238.109 136.063,204.094 
		102.047,204.094 102.047,136.063 136.063,136.063 136.063,102.047 	"/>
	<line fill="none" stroke="#000000" stroke-width="3" stroke-miterlimit="10" x1="90.708" y1="136.063" x2="90.708" y2="204.094"/>
	<line fill="none" stroke="#000000" stroke-width="3" stroke-miterlimit="10" x1="76.536" y1="170.078" x2="34.016" y2="170.078"/>
	<circle fill="none" stroke="#000000" stroke-width="3" stroke-miterlimit="10" cx="83.622" cy="170.078" r="7.086"/>
</g>
<polyline fill="none" stroke="#000000" stroke-width="3" stroke-miterlimit="10" points="136.063,102.047 136.063,68.03 
	238.109,68.033 "/>
<line fill="none" stroke="#000000" stroke-width="3" stroke-miterlimit="10" x1="136.063" y1="238.109" x2="136.063" y2="272.127"/>
<path fill="none" stroke="#000000" stroke-width="3" stroke-miterlimit="10" d="M34.016,170.077c0,3.132-2.54,5.671-5.673,5.671
	c-3.127,0-5.666-2.539-5.666-5.671c0-3.13,2.539-5.668,5.666-5.668C31.476,164.409,34.016,166.947,34.016,170.077z"/>
<g>
	<path d="M26.461,142.633l-0.359,1.6c-1.415,0.472-2.123,1.709-2.123,3.712c0,1.06,0.278,2.005,0.836,2.835
		c0.557,0.831,1.389,1.366,2.497,1.605v-6.768c0-0.725,0.051-1.283,0.154-1.676s0.336-0.714,0.702-0.964s0.863-0.375,1.492-0.375
		c0.978,0,1.772,0.198,2.384,0.595s1.13,1.022,1.554,1.876s0.636,1.774,0.636,2.758c0,0.82-0.167,1.643-0.502,2.466
		s-0.878,1.581-1.63,2.271s-1.74,1.166-2.963,1.425v3.917h-1.825v-3.917c-1.271,0-2.461-0.557-3.568-1.671s-1.661-2.546-1.661-4.296
		c0-1.62,0.442-2.931,1.328-3.933C24.295,143.093,25.313,142.606,26.461,142.633z M29.137,152.303
		c0.868-0.157,1.611-0.643,2.23-1.456s0.928-1.88,0.928-3.199c0-1.224-0.226-2.116-0.677-2.676s-0.93-0.841-1.436-0.841
		c-0.362,0-0.627,0.125-0.794,0.374c-0.168,0.25-0.251,0.798-0.251,1.646V152.303z"/>
	<path d="M36.233,140.695v-2.143h1.979v1.692c0,0.916-0.106,1.576-0.318,1.979c-0.294,0.554-0.752,0.971-1.374,1.251l-0.451-0.728
		c0.369-0.15,0.644-0.388,0.826-0.712c0.181-0.325,0.282-0.771,0.302-1.338H36.233z"/>
</g>
<path fill="none" stroke="#000000" stroke-width="3" stroke-miterlimit="10" d="M243.779,345.825c0,3.132-2.54,5.671-5.673,5.671
	c-3.127,0-5.666-2.539-5.666-5.671c0-3.13,2.539-5.668,5.666-5.668C241.239,340.157,243.779,342.695,243.779,345.825z"/>
<g>
	<path d="M136.058,276.295c-2.296,0-4.165-1.871-4.165-4.17c0-2.299,1.869-4.169,4.165-4.169c2.301,0,4.174,1.87,4.174,4.169
		C140.232,274.424,138.359,276.295,136.058,276.295z"/>
	<path d="M136.058,269.456c1.474,0,2.674,1.197,2.674,2.669c0,1.472-1.2,2.67-2.674,2.67c-1.47,0-2.665-1.198-2.665-2.67
		C133.393,270.653,134.588,269.456,136.058,269.456 M136.058,266.456c-3.125,0-5.665,2.538-5.665,5.669
		c0,3.131,2.54,5.67,5.665,5.67c3.134,0,5.674-2.539,5.674-5.67C141.732,268.994,139.192,266.456,136.058,266.456L136.058,266.456z"
		/>
</g>
<g>
	<path d="M238.105,208.264c-2.296,0-4.165-1.871-4.165-4.17c0-2.299,1.869-4.169,4.165-4.169c2.301,0,4.174,1.87,4.174,4.169
		C242.279,206.393,240.406,208.264,238.105,208.264z"/>
	<path d="M238.105,201.425c1.474,0,2.674,1.197,2.674,2.669c0,1.472-1.2,2.67-2.674,2.67c-1.47,0-2.665-1.198-2.665-2.67
		C235.44,202.622,236.635,201.425,238.105,201.425 M238.105,198.425c-3.125,0-5.665,2.538-5.665,5.669c0,3.131,2.54,5.67,5.665,5.67
		c3.134,0,5.674-2.539,5.674-5.67C243.779,200.962,241.239,198.425,238.105,198.425L238.105,198.425z"/>
</g>
<g>
	<path d="M238.105,72.201c-2.296,0-4.165-1.871-4.165-4.17c0-2.299,1.869-4.169,4.165-4.169c2.301,0,4.174,1.87,4.174,4.169
		C242.279,70.331,240.406,72.201,238.105,72.201z"/>
	<path d="M238.105,65.362c1.474,0,2.674,1.197,2.674,2.669c0,1.472-1.2,2.67-2.674,2.67c-1.47,0-2.665-1.198-2.665-2.67
		C235.44,66.56,236.635,65.362,238.105,65.362 M238.105,62.362c-3.125,0-5.665,2.538-5.665,5.669c0,3.131,2.54,5.67,5.665,5.67
		c3.134,0,5.674-2.539,5.674-5.67C243.779,64.9,241.239,62.362,238.105,62.362L238.105,62.362z"/>
</g>
<g>
	<path d="M236.264,359.277l-0.359,1.6c-1.415,0.472-2.123,1.709-2.123,3.712c0,1.06,0.278,2.005,0.836,2.835
		c0.557,0.831,1.389,1.366,2.497,1.605v-6.768c0-0.725,0.051-1.283,0.154-1.676s0.336-0.714,0.702-0.964s0.863-0.375,1.492-0.375
		c0.978,0,1.772,0.198,2.384,0.595s1.13,1.022,1.554,1.876s0.636,1.774,0.636,2.758c0,0.82-0.167,1.643-0.502,2.466
		s-0.878,1.581-1.63,2.271s-1.74,1.166-2.963,1.425v3.917h-1.825v-3.917c-1.271,0-2.461-0.557-3.568-1.671s-1.661-2.546-1.661-4.296
		c0-1.62,0.442-2.931,1.328-3.933C234.098,359.737,235.115,359.25,236.264,359.277z M238.94,368.947
		c0.868-0.157,1.611-0.643,2.23-1.456s0.928-1.88,0.928-3.199c0-1.224-0.226-2.116-0.677-2.676s-0.93-0.841-1.436-0.841
		c-0.362,0-0.627,0.125-0.794,0.374c-0.168,0.25-0.251,0.798-0.251,1.646V368.947z"/>
</g>
</svg>
