<?xml version="1.0" encoding="utf-8"?>
<!-- Generator: Adobe Illustrator 15.1.0, SVG Export Plug-In . SVG Version: 6.00 Build 0)  -->
<!DOCTYPE svg PUBLIC "-//W3C//DTD SVG 1.1//EN" "http://www.w3.org/Graphics/SVG/1.1/DTD/svg11.dtd">
<svg version="1.1" id="Layer_1" xmlns="http://www.w3.org/2000/svg" xmlns:xlink="http://www.w3.org/1999/xlink" x="0px" y="0px"
	 width="612.283px" height="408.188px" viewBox="0 0 612.283 408.188" enable-background="new 0 0 612.283 408.188"
	 xml:space="preserve">
<g>
	<line fill="none" stroke="#000000" stroke-width="3" stroke-miterlimit="10" x1="136.063" y1="40.839" x2="136.063" y2="68.033"/>
	<line fill="none" stroke="#000000" stroke-width="3" stroke-miterlimit="10" x1="153.07" y1="34.016" x2="119.055" y2="47.612"/>
</g>
<g>
	
		<line fill="none" stroke="#000000" stroke-width="3" stroke-miterlimit="10" x1="140.315" y1="373.794" x2="131.811" y2="373.794"/>
	
		<line fill="none" stroke="#000000" stroke-width="3" stroke-miterlimit="10" x1="146.693" y1="366.991" x2="125.433" y2="366.991"/>
	
		<line fill="none" stroke="#000000" stroke-width="3" stroke-miterlimit="10" x1="136.063" y1="340.158" x2="136.063" y2="360.188"/>
	
		<line fill="none" stroke="#000000" stroke-width="3" stroke-miterlimit="10" x1="119.055" y1="360.188" x2="153.071" y2="360.188"/>
	<path fill="none" stroke="#000000" stroke-width="3" stroke-miterlimit="10" d="M140.315,373.794"/>
	<path fill="none" stroke="#000000" stroke-width="3" stroke-miterlimit="10" d="M153.071,360.188"/>
	<path fill="none" stroke="#000000" stroke-width="3" stroke-miterlimit="10" d="M119.055,360.188"/>
	<path fill="none" stroke="#000000" stroke-width="3" stroke-miterlimit="10" d="M131.811,373.794"/>
</g>
<g>
	<polyline fill="none" stroke="#000000" stroke-width="3" stroke-miterlimit="10" points="136.063,204.095 136.063,170.08 
		102.047,170.08 102.047,102.048 136.063,102.048 136.063,68.033 	"/>
	<line fill="none" stroke="#000000" stroke-width="3" stroke-miterlimit="10" x1="90.708" y1="102.048" x2="90.708" y2="170.08"/>
	<circle fill="none" stroke="#000000" stroke-width="3" stroke-miterlimit="10" cx="83.622" cy="136.063" r="7.086"/>
	<path fill="none" stroke="#000000" stroke-width="3" stroke-miterlimit="10" d="M34.016,272.125"/>
</g>
<g>
	<polyline fill="none" stroke="#000000" stroke-width="3" stroke-miterlimit="10" points="136.063,340.158 136.063,306.143 
		102.047,306.143 102.047,238.111 136.063,238.111 136.063,204.096 	"/>
	<line fill="none" stroke="#000000" stroke-width="3" stroke-miterlimit="10" x1="90.708" y1="238.111" x2="90.708" y2="306.143"/>
	<line fill="none" stroke="#000000" stroke-width="3" stroke-miterlimit="10" x1="34.016" y1="272.127" x2="90.708" y2="272.127"/>
	<path fill="none" stroke="#000000" stroke-width="3" stroke-miterlimit="10" d="M34.016,272.125"/>
</g>
<path fill="none" stroke="#000000" stroke-width="3" stroke-miterlimit="10" d="M34.016,272.124c0,3.132-2.54,5.671-5.673,5.671
	c-3.127,0-5.666-2.539-5.666-5.671c0-3.13,2.539-5.668,5.666-5.668C31.476,266.456,34.016,268.994,34.016,272.124z"/>
<line fill="none" stroke="#000000" stroke-width="3" stroke-miterlimit="10" x1="544.251" y1="204.096" x2="578.267" y2="204.096"/>
<path fill="none" stroke="#000000" stroke-width="3" stroke-miterlimit="10" d="M589.604,204.094c0,3.132-2.54,5.671-5.673,5.671
	c-3.127,0-5.666-2.539-5.666-5.671c0-3.13,2.539-5.668,5.666-5.668C587.064,198.426,589.604,200.964,589.604,204.094z"/>
<g>
	<path d="M21.313,260.786l5.773-15.032h2.143l6.152,15.032h-2.266l-1.753-4.553h-6.286l-1.651,4.553H21.313z M25.651,254.613h5.096
		l-1.569-4.163c-0.479-1.265-0.834-2.304-1.066-3.117c-0.191,0.964-0.461,1.921-0.81,2.871L25.651,254.613z"/>
</g>
<g>
	<path d="M577.065,192.756l5.813-7.834l-5.127-7.198h2.369l2.728,3.855c0.567,0.8,0.971,1.415,1.21,1.846
		c0.335-0.547,0.731-1.118,1.189-1.712l3.024-3.989h2.164l-5.281,7.085l5.691,7.947h-2.461l-3.784-5.363
		c-0.212-0.308-0.431-0.643-0.656-1.005c-0.335,0.547-0.574,0.923-0.718,1.128l-3.773,5.24H577.065z"/>
</g>
<g>
	<line fill="none" stroke="#000000" stroke-width="3" stroke-miterlimit="10" x1="38.268" y1="203.716" x2="29.764" y2="203.716"/>
	<line fill="none" stroke="#000000" stroke-width="3" stroke-miterlimit="10" x1="44.646" y1="196.913" x2="23.386" y2="196.913"/>
	<line fill="none" stroke="#000000" stroke-width="3" stroke-miterlimit="10" x1="34.016" y1="170.08" x2="34.016" y2="190.109"/>
	<line fill="none" stroke="#000000" stroke-width="3" stroke-miterlimit="10" x1="17.008" y1="190.109" x2="51.024" y2="190.109"/>
	<path fill="none" stroke="#000000" stroke-width="3" stroke-miterlimit="10" d="M38.268,203.716"/>
	<path fill="none" stroke="#000000" stroke-width="3" stroke-miterlimit="10" d="M51.024,190.109"/>
	<path fill="none" stroke="#000000" stroke-width="3" stroke-miterlimit="10" d="M17.008,190.109"/>
	<path fill="none" stroke="#000000" stroke-width="3" stroke-miterlimit="10" d="M29.764,203.716"/>
</g>
<polyline fill="none" stroke="#000000" stroke-width="3" stroke-miterlimit="10" points="34.016,170.08 34.016,136.064 
	76.535,136.064 "/>
<g>
	<path d="M136.058,208.264c-2.296,0-4.165-1.871-4.165-4.17c0-2.299,1.869-4.169,4.165-4.169c2.301,0,4.174,1.87,4.174,4.169
		C140.232,206.393,138.359,208.264,136.058,208.264z"/>
	<path d="M136.058,201.425c1.474,0,2.674,1.197,2.674,2.669c0,1.472-1.2,2.67-2.674,2.67c-1.47,0-2.665-1.198-2.665-2.67
		C133.393,202.622,134.588,201.425,136.058,201.425 M136.058,198.425c-3.125,0-5.665,2.538-5.665,5.669
		c0,3.131,2.54,5.67,5.665,5.67c3.134,0,5.674-2.539,5.674-5.67C141.732,200.962,139.192,198.425,136.058,198.425L136.058,198.425z"
		/>
</g>
<g>
</g>
<g>
	<polyline fill="none" stroke="#000000" stroke-width="3" stroke-miterlimit="10" points="272.125,340.158 272.125,306.143 
		238.109,306.143 238.109,238.111 272.125,238.111 272.125,204.096 	"/>
	
		<line fill="none" stroke="#000000" stroke-width="3" stroke-miterlimit="10" x1="226.771" y1="238.111" x2="226.771" y2="306.143"/>
	
		<line fill="none" stroke="#000000" stroke-width="3" stroke-miterlimit="10" x1="170.078" y1="272.127" x2="226.771" y2="272.127"/>
	<path fill="none" stroke="#000000" stroke-width="3" stroke-miterlimit="10" d="M170.078,272.125"/>
</g>
<path fill="none" stroke="#000000" stroke-width="3" stroke-miterlimit="10" d="M170.078,272.124c0,3.132-2.54,5.671-5.673,5.671
	c-3.127,0-5.666-2.539-5.666-5.671c0-3.13,2.539-5.668,5.666-5.668C167.538,266.456,170.078,268.994,170.078,272.124z"/>
<g>
	<path d="M158.945,260.786v-15.032h5.64c1.148,0,2.069,0.152,2.763,0.457s1.237,0.772,1.631,1.404
		c0.393,0.633,0.589,1.294,0.589,1.984c0,0.643-0.174,1.248-0.523,1.815s-0.875,1.025-1.579,1.374
		c0.909,0.267,1.608,0.721,2.097,1.364s0.733,1.401,0.733,2.276c0,0.704-0.148,1.358-0.446,1.964
		c-0.297,0.604-0.665,1.071-1.102,1.399s-0.986,0.576-1.646,0.743c-0.66,0.168-1.468,0.251-2.425,0.251H158.945z M160.935,252.07
		h3.25c0.882,0,1.514-0.058,1.897-0.174c0.506-0.15,0.887-0.4,1.143-0.749c0.257-0.349,0.385-0.786,0.385-1.313
		c0-0.499-0.12-0.938-0.359-1.318c-0.239-0.379-0.581-0.639-1.025-0.779c-0.444-0.14-1.207-0.21-2.287-0.21h-3.004V252.07z
		 M160.935,259.012h3.743c0.643,0,1.094-0.024,1.354-0.072c0.458-0.082,0.841-0.219,1.148-0.41s0.561-0.47,0.759-0.835
		s0.297-0.788,0.297-1.267c0-0.561-0.144-1.047-0.431-1.461s-0.686-0.704-1.195-0.872c-0.509-0.167-1.242-0.251-2.199-0.251h-3.476
		V259.012z"/>
</g>
<g>
	<polyline fill="none" stroke="#000000" stroke-width="3" stroke-miterlimit="10" points="408.188,340.158 408.188,306.143 
		374.172,306.143 374.172,238.111 408.188,238.111 408.188,204.096 	"/>
	
		<line fill="none" stroke="#000000" stroke-width="3" stroke-miterlimit="10" x1="362.833" y1="238.111" x2="362.833" y2="306.143"/>
	
		<line fill="none" stroke="#000000" stroke-width="3" stroke-miterlimit="10" x1="306.141" y1="272.127" x2="362.833" y2="272.127"/>
	<path fill="none" stroke="#000000" stroke-width="3" stroke-miterlimit="10" d="M306.141,272.125"/>
</g>
<path fill="none" stroke="#000000" stroke-width="3" stroke-miterlimit="10" d="M306.141,272.124c0,3.132-2.54,5.671-5.673,5.671
	c-3.127,0-5.666-2.539-5.666-5.671c0-3.13,2.539-5.668,5.666-5.668C303.601,266.456,306.141,268.994,306.141,272.124z"/>
<g>
	<path d="M305.816,255.515l1.988,0.502c-0.416,1.634-1.167,2.88-2.25,3.737c-1.084,0.858-2.408,1.287-3.974,1.287
		c-1.62,0-2.938-0.33-3.953-0.989c-1.015-0.66-1.788-1.615-2.317-2.866s-0.794-2.594-0.794-4.03c0-1.565,0.299-2.931,0.897-4.096
		s1.449-2.051,2.554-2.656c1.104-0.604,2.318-0.907,3.645-0.907c1.504,0,2.77,0.383,3.795,1.148s1.739,1.842,2.143,3.23
		l-1.959,0.461c-0.348-1.094-0.854-1.89-1.518-2.389c-0.662-0.499-1.496-0.749-2.502-0.749c-1.154,0-2.121,0.277-2.896,0.831
		c-0.776,0.554-1.321,1.297-1.635,2.23c-0.314,0.934-0.472,1.896-0.472,2.887c0,1.278,0.186,2.395,0.559,3.348
		c0.372,0.954,0.952,1.667,1.738,2.138c0.787,0.472,1.637,0.708,2.553,0.708c1.114,0,2.058-0.321,2.83-0.964
		S305.543,256.78,305.816,255.515z"/>
</g>
<g>
	
		<line fill="none" stroke="#000000" stroke-width="3" stroke-miterlimit="10" x1="498.896" y1="238.111" x2="498.896" y2="306.143"/>
	
		<line fill="none" stroke="#000000" stroke-width="3" stroke-miterlimit="10" x1="442.203" y1="272.127" x2="498.896" y2="272.127"/>
	<path fill="none" stroke="#000000" stroke-width="3" stroke-miterlimit="10" d="M442.203,272.125"/>
</g>
<path fill="none" stroke="#000000" stroke-width="3" stroke-miterlimit="10" d="M442.203,272.124c0,3.132-2.54,5.671-5.673,5.671
	c-3.127,0-5.666-2.539-5.666-5.671c0-3.13,2.539-5.668,5.666-5.668C439.663,266.456,442.203,268.994,442.203,272.124z"/>
<g>
	<path d="M431.153,260.786v-15.032h5.179c1.168,0,2.061,0.072,2.676,0.215c0.861,0.198,1.596,0.557,2.205,1.077
		c0.793,0.67,1.385,1.526,1.779,2.569c0.393,1.042,0.589,2.233,0.589,3.573c0,1.142-0.134,2.153-0.399,3.035
		c-0.268,0.882-0.609,1.612-1.025,2.189c-0.418,0.578-0.874,1.032-1.369,1.363c-0.496,0.332-1.094,0.583-1.795,0.754
		s-1.506,0.256-2.414,0.256H431.153z M433.143,259.012h3.209c0.992,0,1.77-0.092,2.334-0.277c0.563-0.185,1.013-0.444,1.348-0.779
		c0.472-0.472,0.839-1.105,1.102-1.902c0.264-0.796,0.396-1.762,0.396-2.897c0-1.572-0.259-2.78-0.774-3.625
		s-1.143-1.41-1.881-1.697c-0.533-0.205-1.392-0.308-2.574-0.308h-3.158V259.012z"/>
</g>
<line fill="none" stroke="#000000" stroke-width="3" stroke-miterlimit="10" x1="272.126" y1="340.157" x2="136.063" y2="340.157"/>
<line fill="none" stroke="#000000" stroke-width="3" stroke-miterlimit="10" x1="408.188" y1="340.157" x2="272.126" y2="340.157"/>
<polyline fill="none" stroke="#000000" stroke-width="3" stroke-miterlimit="10" points="408.188,340.157 544.25,340.158 
	544.25,306.143 510.234,306.143 510.234,238.111 544.25,238.111 544.25,204.096 "/>
<g>
	<path d="M136.058,344.326c-2.296,0-4.165-1.871-4.165-4.17c0-2.299,1.869-4.169,4.165-4.169c2.301,0,4.174,1.87,4.174,4.169
		C140.232,342.456,138.359,344.326,136.058,344.326z"/>
	<path d="M136.058,337.487c1.474,0,2.674,1.197,2.674,2.669c0,1.472-1.2,2.67-2.674,2.67c-1.47,0-2.665-1.198-2.665-2.67
		C133.393,338.685,134.588,337.487,136.058,337.487 M136.058,334.487c-3.125,0-5.665,2.538-5.665,5.669
		c0,3.131,2.54,5.67,5.665,5.67c3.134,0,5.674-2.539,5.674-5.67C141.732,337.025,139.192,334.487,136.058,334.487L136.058,334.487z"
		/>
</g>
<g>
	<path d="M272.121,344.326c-2.297,0-4.165-1.871-4.165-4.17c0-2.299,1.868-4.169,4.165-4.169c2.301,0,4.174,1.87,4.174,4.169
		C276.295,342.456,274.422,344.326,272.121,344.326z"/>
	<path d="M272.121,337.487c1.474,0,2.674,1.197,2.674,2.669c0,1.472-1.2,2.67-2.674,2.67c-1.47,0-2.665-1.198-2.665-2.67
		C269.456,338.685,270.651,337.487,272.121,337.487 M272.121,334.487c-3.125,0-5.665,2.538-5.665,5.669
		c0,3.131,2.54,5.67,5.665,5.67c3.134,0,5.674-2.539,5.674-5.67C277.795,337.025,275.255,334.487,272.121,334.487L272.121,334.487z"
		/>
</g>
<g>
	<path d="M408.184,344.326c-2.297,0-4.165-1.871-4.165-4.17c0-2.299,1.868-4.169,4.165-4.169c2.302,0,4.174,1.87,4.174,4.169
		C412.357,342.456,410.485,344.326,408.184,344.326z"/>
	<path d="M408.184,337.487c1.475,0,2.674,1.197,2.674,2.669c0,1.472-1.199,2.67-2.674,2.67c-1.47,0-2.665-1.198-2.665-2.67
		C405.519,338.685,406.714,337.487,408.184,337.487 M408.184,334.487c-3.125,0-5.665,2.538-5.665,5.669
		c0,3.131,2.54,5.67,5.665,5.67c3.134,0,5.674-2.539,5.674-5.67C413.857,337.025,411.317,334.487,408.184,334.487L408.184,334.487z"
		/>
</g>
<line fill="none" stroke="#000000" stroke-width="3" stroke-miterlimit="10" x1="136.063" y1="204.094" x2="544.251" y2="204.094"/>
</svg>
