<?xml version="1.0" encoding="utf-8"?>
<!-- Generator: Adobe Illustrator 15.1.0, SVG Export Plug-In . SVG Version: 6.00 Build 0)  -->
<!DOCTYPE svg PUBLIC "-//W3C//DTD SVG 1.1//EN" "http://www.w3.org/Graphics/SVG/1.1/DTD/svg11.dtd">
<svg version="1.1" id="Layer_1" xmlns="http://www.w3.org/2000/svg" xmlns:xlink="http://www.w3.org/1999/xlink" x="0px" y="0px"
	 width="238.11px" height="408.188px" viewBox="0 0 238.11 408.188" enable-background="new 0 0 238.11 408.188"
	 xml:space="preserve">
<g>
	<line fill="none" stroke="#000000" stroke-width="3" stroke-miterlimit="10" x1="170.078" y1="40.839" x2="170.078" y2="68.033"/>
	<line fill="none" stroke="#000000" stroke-width="3" stroke-miterlimit="10" x1="187.086" y1="34.016" x2="153.07" y2="47.612"/>
</g>
<g>
	
		<line fill="none" stroke="#000000" stroke-width="3" stroke-miterlimit="10" x1="174.331" y1="373.794" x2="165.827" y2="373.794"/>
	
		<line fill="none" stroke="#000000" stroke-width="3" stroke-miterlimit="10" x1="180.708" y1="366.991" x2="159.449" y2="366.991"/>
	
		<line fill="none" stroke="#000000" stroke-width="3" stroke-miterlimit="10" x1="170.079" y1="340.158" x2="170.079" y2="360.188"/>
	
		<line fill="none" stroke="#000000" stroke-width="3" stroke-miterlimit="10" x1="153.071" y1="360.188" x2="187.086" y2="360.188"/>
	<path fill="none" stroke="#000000" stroke-width="3" stroke-miterlimit="10" d="M174.331,373.794"/>
	<path fill="none" stroke="#000000" stroke-width="3" stroke-miterlimit="10" d="M187.086,360.188"/>
	<path fill="none" stroke="#000000" stroke-width="3" stroke-miterlimit="10" d="M153.071,360.188"/>
	<path fill="none" stroke="#000000" stroke-width="3" stroke-miterlimit="10" d="M165.827,373.794"/>
</g>
<g>
	<polyline fill="none" stroke="#000000" stroke-width="3" stroke-miterlimit="10" points="170.078,340.158 170.078,306.143 
		136.063,306.143 136.063,238.111 170.078,238.111 170.078,204.096 	"/>
	
		<line fill="none" stroke="#000000" stroke-width="3" stroke-miterlimit="10" x1="124.724" y1="238.111" x2="124.724" y2="306.143"/>
	<line fill="none" stroke="#000000" stroke-width="3" stroke-miterlimit="10" x1="68.031" y1="272.127" x2="124.724" y2="272.127"/>
	<path fill="none" stroke="#000000" stroke-width="3" stroke-miterlimit="10" d="M68.031,272.125"/>
</g>
<line fill="none" stroke="#000000" stroke-width="3" stroke-miterlimit="10" x1="34.016" y1="272.125" x2="68.031" y2="272.125"/>
<path fill="none" stroke="#000000" stroke-width="3" stroke-miterlimit="10" d="M34.016,272.124c0,3.132-2.54,5.671-5.673,5.671
	c-3.127,0-5.666-2.539-5.666-5.671c0-3.13,2.539-5.668,5.666-5.668C31.476,266.456,34.016,268.994,34.016,272.124z"/>
<line fill="none" stroke="#000000" stroke-width="3" stroke-miterlimit="10" x1="170.079" y1="204.096" x2="204.094" y2="204.096"/>
<path fill="none" stroke="#000000" stroke-width="3" stroke-miterlimit="10" d="M215.433,204.094c0,3.132-2.54,5.671-5.673,5.671
	c-3.127,0-5.666-2.539-5.666-5.671c0-3.13,2.539-5.668,5.666-5.668C212.893,198.426,215.433,200.964,215.433,204.094z"/>
<g>
	<path d="M21.437,260.786l5.814-7.834l-5.127-7.198h2.369l2.728,3.855c0.567,0.8,0.971,1.415,1.21,1.846
		c0.335-0.547,0.731-1.118,1.189-1.712l3.025-3.989h2.164l-5.281,7.085l5.691,7.947h-2.461l-3.784-5.363
		c-0.212-0.308-0.431-0.643-0.656-1.005c-0.335,0.547-0.574,0.923-0.718,1.128l-3.773,5.24H21.437z"/>
</g>
<g>
	<path d="M208.655,192.756v-6.368l-5.793-8.665h2.42l2.963,4.532c0.547,0.848,1.056,1.695,1.528,2.543
		c0.451-0.786,0.998-1.671,1.641-2.656l2.912-4.419h2.317l-5.999,8.665v6.368H208.655z"/>
</g>
<polyline fill="none" stroke="#000000" stroke-width="3" stroke-miterlimit="10" points="170.078,204.094 170.078,170.079 
	153.07,164.409 187.086,153.071 153.07,141.731 187.086,130.393 153.07,119.055 187.086,107.716 170.078,102.048 170.078,68.03 "/>
<g>
	<path d="M170.074,208.264c-2.296,0-4.165-1.871-4.165-4.17c0-2.299,1.869-4.169,4.165-4.169c2.301,0,4.174,1.87,4.174,4.169
		C174.248,206.393,172.375,208.264,170.074,208.264z"/>
	<path d="M170.074,201.425c1.474,0,2.674,1.197,2.674,2.669c0,1.472-1.2,2.67-2.674,2.67c-1.47,0-2.665-1.198-2.665-2.67
		C167.409,202.622,168.604,201.425,170.074,201.425 M170.074,198.425c-3.125,0-5.665,2.538-5.665,5.669
		c0,3.131,2.54,5.67,5.665,5.67c3.134,0,5.674-2.539,5.674-5.67C175.748,200.962,173.208,198.425,170.074,198.425L170.074,198.425z"
		/>
</g>
</svg>
