<?xml version="1.0" encoding="utf-8"?>
<!-- Generator: Adobe Illustrator 15.1.0, SVG Export Plug-In . SVG Version: 6.00 Build 0)  -->
<!DOCTYPE svg PUBLIC "-//W3C//DTD SVG 1.1//EN" "http://www.w3.org/Graphics/SVG/1.1/DTD/svg11.dtd">
<svg version="1.1" id="Layer_1" xmlns="http://www.w3.org/2000/svg" xmlns:xlink="http://www.w3.org/1999/xlink" x="0px" y="0px"
	 width="1122.518px" height="544.251px" viewBox="0 0 1122.518 544.251" enable-background="new 0 0 1122.518 544.251"
	 xml:space="preserve">
<g>
	<line fill="none" stroke="#000000" stroke-width="3" stroke-miterlimit="10" x1="170.078" y1="108.87" x2="170.078" y2="136.064"/>
	<line fill="none" stroke="#000000" stroke-width="3" stroke-miterlimit="10" x1="187.086" y1="102.047" x2="153.07" y2="115.644"/>
</g>
<g>
	
		<line fill="none" stroke="#000000" stroke-width="3" stroke-miterlimit="10" x1="174.331" y1="441.825" x2="165.827" y2="441.825"/>
	
		<line fill="none" stroke="#000000" stroke-width="3" stroke-miterlimit="10" x1="180.708" y1="435.022" x2="159.449" y2="435.022"/>
	
		<line fill="none" stroke="#000000" stroke-width="3" stroke-miterlimit="10" x1="170.079" y1="408.189" x2="170.079" y2="428.219"/>
	
		<line fill="none" stroke="#000000" stroke-width="3" stroke-miterlimit="10" x1="153.071" y1="428.219" x2="187.086" y2="428.219"/>
	<path fill="none" stroke="#000000" stroke-width="3" stroke-miterlimit="10" d="M174.331,441.825"/>
	<path fill="none" stroke="#000000" stroke-width="3" stroke-miterlimit="10" d="M187.086,428.219"/>
	<path fill="none" stroke="#000000" stroke-width="3" stroke-miterlimit="10" d="M153.071,428.219"/>
	<path fill="none" stroke="#000000" stroke-width="3" stroke-miterlimit="10" d="M165.827,441.825"/>
</g>
<g>
	<polyline fill="none" stroke="#000000" stroke-width="3" stroke-miterlimit="10" points="170.078,272.126 170.078,238.111 
		136.063,238.111 136.063,170.08 170.078,170.08 170.078,136.064 	"/>
	<line fill="none" stroke="#000000" stroke-width="3" stroke-miterlimit="10" x1="124.724" y1="170.08" x2="124.724" y2="238.111"/>
	<circle fill="none" stroke="#000000" stroke-width="3" stroke-miterlimit="10" cx="117.637" cy="204.095" r="7.086"/>
	<polyline fill="none" stroke="#000000" stroke-width="3" stroke-miterlimit="10" points="68.031,272.127 68.031,204.095 
		110.551,204.095 	"/>
</g>
<g>
	<polyline fill="none" stroke="#000000" stroke-width="3" stroke-miterlimit="10" points="170.078,408.189 170.078,374.174 
		136.063,374.174 136.063,306.143 170.078,306.143 170.078,272.127 	"/>
	
		<line fill="none" stroke="#000000" stroke-width="3" stroke-miterlimit="10" x1="124.724" y1="306.143" x2="124.724" y2="374.174"/>
	<polyline fill="none" stroke="#000000" stroke-width="3" stroke-miterlimit="10" points="68.031,272.127 68.031,340.158 
		124.724,340.158 	"/>
</g>
<line fill="none" stroke="#000000" stroke-width="3" stroke-miterlimit="10" x1="34.016" y1="272.127" x2="68.031" y2="272.127"/>
<g>
	<path d="M68.028,276.296c-2.297,0-4.166-1.871-4.166-4.17c0-2.299,1.869-4.169,4.166-4.169c2.301,0,4.173,1.87,4.173,4.169
		C72.201,274.426,70.329,276.296,68.028,276.296z"/>
	<path d="M68.028,269.458c1.474,0,2.673,1.197,2.673,2.669c0,1.472-1.199,2.67-2.673,2.67c-1.47,0-2.666-1.198-2.666-2.67
		C65.362,270.655,66.558,269.458,68.028,269.458 M68.028,266.458c-3.126,0-5.666,2.538-5.666,5.669c0,3.131,2.54,5.67,5.666,5.67
		c3.133,0,5.673-2.539,5.673-5.67C73.701,268.995,71.161,266.458,68.028,266.458L68.028,266.458z"/>
</g>
<path fill="none" stroke="#000000" stroke-width="3" stroke-miterlimit="10" d="M34.016,272.125c0,3.132-2.54,5.671-5.673,5.671
	c-3.127,0-5.666-2.539-5.666-5.671c0-3.13,2.539-5.668,5.666-5.668C31.476,266.458,34.016,268.995,34.016,272.125z"/>
<line fill="none" stroke="#000000" stroke-width="3" stroke-miterlimit="10" x1="170.079" y1="272.127" x2="204.094" y2="272.127"/>
<path fill="none" stroke="#000000" stroke-width="3" stroke-miterlimit="10" d="M215.433,272.125c0,3.132-2.54,5.671-5.673,5.671
	c-3.127,0-5.666-2.539-5.666-5.671c0-3.13,2.539-5.668,5.666-5.668C212.893,266.458,215.433,268.995,215.433,272.125z"/>
<g>
	<path d="M22.77,260.788l5.814-7.834l-5.127-7.198h2.369l2.728,3.855c0.567,0.8,0.971,1.415,1.21,1.846
		c0.335-0.547,0.731-1.118,1.189-1.712l3.025-3.989h2.164l-5.281,7.085l5.691,7.947H34.09l-3.784-5.363
		c-0.212-0.308-0.431-0.643-0.656-1.005c-0.335,0.547-0.574,0.923-0.718,1.128l-3.773,5.24H22.77z"/>
</g>
<g>
	<path d="M204.187,260.788l5.814-7.834l-5.127-7.198h2.369l2.728,3.855c0.567,0.8,0.971,1.415,1.21,1.846
		c0.335-0.547,0.731-1.118,1.189-1.712l3.025-3.989h2.164l-5.281,7.085l5.691,7.947h-2.461l-3.784-5.363
		c-0.212-0.308-0.431-0.643-0.656-1.005c-0.335,0.547-0.574,0.923-0.718,1.128l-3.773,5.24H204.187z"/>
	<path d="M219.373,247.745v-2.143h1.979v1.692c0,0.916-0.106,1.576-0.318,1.979c-0.294,0.554-0.752,0.971-1.374,1.251l-0.451-0.728
		c0.369-0.15,0.644-0.388,0.826-0.712c0.181-0.325,0.282-0.771,0.302-1.338H219.373z"/>
</g>
<g>
	<polyline fill="none" stroke="#000000" stroke-width="3" stroke-miterlimit="10" points="476.22,340.158 476.22,306.142 
		442.204,306.142 442.204,238.11 476.22,238.11 476.22,204.094 	"/>
	<line fill="none" stroke="#000000" stroke-width="3" stroke-miterlimit="10" x1="430.865" y1="238.11" x2="430.865" y2="306.142"/>
	
		<line fill="none" stroke="#000000" stroke-width="3" stroke-miterlimit="10" x1="430.865" y1="272.126" x2="374.173" y2="272.126"/>
</g>
<g>
	<polyline fill="none" stroke="#000000" stroke-width="3" stroke-miterlimit="10" points="476.219,476.221 476.219,442.205 
		442.203,442.205 442.203,374.173 476.219,374.173 476.219,340.158 	"/>
	
		<line fill="none" stroke="#000000" stroke-width="3" stroke-miterlimit="10" x1="430.865" y1="374.173" x2="430.865" y2="442.205"/>
	
		<line fill="none" stroke="#000000" stroke-width="3" stroke-miterlimit="10" x1="430.865" y1="408.189" x2="374.173" y2="408.189"/>
</g>
<g>
	
		<line fill="none" stroke="#000000" stroke-width="3" stroke-miterlimit="10" x1="328.817" y1="102.047" x2="328.817" y2="170.078"/>
	
		<line fill="none" stroke="#000000" stroke-width="3" stroke-miterlimit="10" x1="314.645" y1="136.063" x2="272.125" y2="136.063"/>
	<circle fill="none" stroke="#000000" stroke-width="3" stroke-miterlimit="10" cx="321.731" cy="136.062" r="7.086"/>
	<polyline fill="none" stroke="#000000" stroke-width="3" stroke-miterlimit="10" points="442.204,204.094 374.172,204.094 
		374.172,170.078 340.156,170.078 340.156,102.047 374.172,102.047 374.172,68.031 	"/>
</g>
<line fill="none" stroke="#000000" stroke-width="3" stroke-miterlimit="10" x1="442.204" y1="204.094" x2="510.235" y2="204.094"/>
<g>
	
		<line fill="none" stroke="#000000" stroke-width="3" stroke-miterlimit="10" x1="532.912" y1="102.047" x2="532.912" y2="170.079"/>
	<line fill="none" stroke="#000000" stroke-width="3" stroke-miterlimit="10" x1="518.739" y1="136.063" x2="476.22" y2="136.063"/>
	<circle fill="none" stroke="#000000" stroke-width="3" stroke-miterlimit="10" cx="525.826" cy="136.063" r="7.086"/>
	<polyline fill="none" stroke="#000000" stroke-width="3" stroke-miterlimit="10" points="510.235,204.094 578.266,204.094 
		578.266,170.079 544.25,170.079 544.25,102.047 578.266,102.047 578.266,68.032 	"/>
</g>
<line fill="none" stroke="#000000" stroke-width="3" stroke-miterlimit="10" x1="578.267" y1="204.094" x2="646.298" y2="204.094"/>
<path fill="none" stroke="#000000" stroke-width="3" stroke-miterlimit="10" d="M657.638,204.093c0,3.132-2.54,5.671-5.673,5.671
	c-3.127,0-5.666-2.539-5.666-5.671c0-3.13,2.539-5.668,5.666-5.668C655.098,198.425,657.638,200.963,657.638,204.093z"/>
<path fill="none" stroke="#000000" stroke-width="3" stroke-miterlimit="10" d="M374.173,272.125c0,3.132-2.54,5.671-5.673,5.671
	c-3.127,0-5.666-2.539-5.666-5.671c0-3.13,2.539-5.668,5.666-5.668C371.633,266.457,374.173,268.994,374.173,272.125z"/>
<path fill="none" stroke="#000000" stroke-width="3" stroke-miterlimit="10" d="M374.173,408.187c0,3.132-2.54,5.671-5.673,5.671
	c-3.127,0-5.666-2.539-5.666-5.671c0-3.13,2.539-5.668,5.666-5.668C371.633,402.519,374.173,405.057,374.173,408.187z"/>
<path fill="none" stroke="#000000" stroke-width="3" stroke-miterlimit="10" d="M272.125,136.061c0,3.132-2.54,5.671-5.673,5.671
	c-3.127,0-5.666-2.539-5.666-5.671c0-3.13,2.539-5.668,5.666-5.668C269.585,130.393,272.125,132.931,272.125,136.061z"/>
<path fill="none" stroke="#000000" stroke-width="3" stroke-miterlimit="10" d="M476.219,136.061c0,3.132-2.54,5.671-5.673,5.671
	c-3.127,0-5.666-2.539-5.666-5.671c0-3.13,2.539-5.668,5.666-5.668C473.679,130.393,476.219,132.931,476.219,136.061z"/>
<g>
	<line fill="none" stroke="#000000" stroke-width="3" stroke-miterlimit="10" x1="578.267" y1="40.839" x2="578.267" y2="68.033"/>
	<line fill="none" stroke="#000000" stroke-width="3" stroke-miterlimit="10" x1="595.274" y1="34.016" x2="561.259" y2="47.612"/>
</g>
<g>
	
		<line fill="none" stroke="#000000" stroke-width="3" stroke-miterlimit="10" x1="480.472" y1="510.235" x2="471.968" y2="510.235"/>
	<line fill="none" stroke="#000000" stroke-width="3" stroke-miterlimit="10" x1="486.85" y1="504.565" x2="465.59" y2="504.565"/>
	<line fill="none" stroke="#000000" stroke-width="3" stroke-miterlimit="10" x1="476.22" y1="476.221" x2="476.22" y2="498.896"/>
	
		<line fill="none" stroke="#000000" stroke-width="3" stroke-miterlimit="10" x1="459.212" y1="498.896" x2="493.228" y2="498.896"/>
	<path fill="none" stroke="#000000" stroke-width="3" stroke-miterlimit="10" d="M480.472,509.856"/>
	<path fill="none" stroke="#000000" stroke-width="3" stroke-miterlimit="10" d="M493.228,496.25"/>
	<path fill="none" stroke="#000000" stroke-width="3" stroke-miterlimit="10" d="M459.212,496.25"/>
	<path fill="none" stroke="#000000" stroke-width="3" stroke-miterlimit="10" d="M471.968,509.856"/>
</g>
<g>
	<line fill="none" stroke="#000000" stroke-width="3" stroke-miterlimit="10" x1="374.173" y1="40.839" x2="374.173" y2="68.033"/>
	<line fill="none" stroke="#000000" stroke-width="3" stroke-miterlimit="10" x1="391.181" y1="34.016" x2="357.165" y2="47.612"/>
</g>
<g>
	<path d="M260.757,124.725l5.773-15.032h2.143l6.152,15.032h-2.266l-1.753-4.553h-6.286l-1.651,4.553H260.757z M265.094,118.552
		h5.096l-1.569-4.163c-0.479-1.265-0.834-2.304-1.066-3.117c-0.191,0.964-0.461,1.921-0.81,2.871L265.094,118.552z"/>
</g>
<g>
	<path d="M466.42,124.725v-15.032h5.64c1.148,0,2.069,0.152,2.764,0.457c0.693,0.304,1.237,0.772,1.63,1.404
		c0.393,0.633,0.59,1.294,0.59,1.984c0,0.643-0.174,1.248-0.523,1.815c-0.348,0.567-0.875,1.025-1.578,1.374
		c0.908,0.267,1.607,0.721,2.097,1.364c0.488,0.643,0.733,1.401,0.733,2.276c0,0.704-0.149,1.358-0.446,1.964
		c-0.298,0.604-0.665,1.071-1.103,1.399s-0.986,0.576-1.646,0.743c-0.66,0.168-1.468,0.251-2.425,0.251H466.42z M468.409,116.009
		h3.251c0.881,0,1.514-0.058,1.896-0.174c0.506-0.15,0.887-0.4,1.144-0.749c0.256-0.349,0.384-0.786,0.384-1.313
		c0-0.499-0.119-0.938-0.358-1.318c-0.239-0.379-0.581-0.639-1.025-0.779c-0.444-0.14-1.206-0.21-2.286-0.21h-3.005V116.009z
		 M468.409,122.951h3.743c0.643,0,1.094-0.024,1.354-0.072c0.457-0.082,0.84-0.219,1.148-0.41c0.307-0.191,0.561-0.47,0.758-0.835
		c0.199-0.366,0.298-0.788,0.298-1.267c0-0.561-0.144-1.047-0.431-1.461s-0.686-0.704-1.194-0.872
		c-0.51-0.167-1.243-0.251-2.2-0.251h-3.476V122.951z"/>
</g>
<g>
	<path d="M362.804,260.788l5.772-15.032h2.144l6.152,15.032h-2.267l-1.753-4.553h-6.286l-1.65,4.553H362.804z M367.141,254.615
		h5.097l-1.569-4.163c-0.479-1.265-0.834-2.304-1.066-3.117c-0.191,0.964-0.461,1.921-0.81,2.871L367.141,254.615z"/>
</g>
<g>
	<path d="M364.373,396.851v-15.032h5.64c1.148,0,2.069,0.152,2.764,0.457c0.693,0.304,1.237,0.772,1.63,1.404
		c0.393,0.633,0.59,1.294,0.59,1.984c0,0.643-0.174,1.248-0.523,1.815c-0.348,0.567-0.875,1.025-1.578,1.374
		c0.908,0.267,1.607,0.721,2.097,1.364c0.488,0.643,0.733,1.401,0.733,2.276c0,0.704-0.149,1.358-0.446,1.964
		c-0.298,0.604-0.665,1.071-1.103,1.399s-0.986,0.576-1.646,0.743c-0.66,0.168-1.468,0.251-2.425,0.251H364.373z M366.362,388.135
		h3.251c0.881,0,1.514-0.058,1.896-0.174c0.506-0.15,0.887-0.4,1.144-0.749c0.256-0.349,0.384-0.786,0.384-1.313
		c0-0.499-0.119-0.938-0.358-1.318c-0.239-0.379-0.581-0.639-1.025-0.779c-0.444-0.14-1.206-0.21-2.286-0.21h-3.005V388.135z
		 M366.362,395.077h3.743c0.643,0,1.094-0.024,1.354-0.072c0.457-0.082,0.84-0.219,1.148-0.41c0.307-0.191,0.561-0.47,0.758-0.835
		c0.199-0.366,0.298-0.788,0.298-1.267c0-0.561-0.144-1.047-0.431-1.461s-0.686-0.704-1.194-0.872
		c-0.51-0.167-1.243-0.251-2.2-0.251h-3.476V395.077z"/>
</g>
<g>
	<path d="M646.392,192.756l5.813-7.834l-5.127-7.198h2.369l2.728,3.855c0.567,0.8,0.971,1.415,1.21,1.846
		c0.335-0.547,0.731-1.118,1.189-1.712l3.025-3.989h2.163l-5.28,7.085l5.69,7.947h-2.461l-3.784-5.363
		c-0.211-0.308-0.43-0.643-0.656-1.005c-0.334,0.547-0.574,0.923-0.717,1.128l-3.773,5.24H646.392z"/>
</g>
<g>
	<path d="M578.263,208.264c-2.297,0-4.166-1.871-4.166-4.17c0-2.299,1.869-4.169,4.166-4.169c2.301,0,4.173,1.87,4.173,4.169
		C582.436,206.393,580.563,208.264,578.263,208.264z"/>
	<path d="M578.263,201.425c1.474,0,2.673,1.197,2.673,2.669c0,1.472-1.199,2.67-2.673,2.67c-1.47,0-2.666-1.198-2.666-2.67
		C575.597,202.622,576.793,201.425,578.263,201.425 M578.263,198.425c-3.126,0-5.666,2.538-5.666,5.669
		c0,3.131,2.54,5.67,5.666,5.67c3.133,0,5.673-2.539,5.673-5.67C583.936,200.962,581.396,198.425,578.263,198.425L578.263,198.425z"
		/>
</g>
<g>
	<path d="M476.216,208.264c-2.297,0-4.166-1.871-4.166-4.17c0-2.299,1.869-4.169,4.166-4.169c2.301,0,4.173,1.87,4.173,4.169
		C480.389,206.393,478.517,208.264,476.216,208.264z"/>
	<path d="M476.216,201.425c1.474,0,2.673,1.197,2.673,2.669c0,1.472-1.199,2.67-2.673,2.67c-1.47,0-2.666-1.198-2.666-2.67
		C473.55,202.622,474.746,201.425,476.216,201.425 M476.216,198.425c-3.126,0-5.666,2.538-5.666,5.669c0,3.131,2.54,5.67,5.666,5.67
		c3.133,0,5.673-2.539,5.673-5.67C481.889,200.962,479.349,198.425,476.216,198.425L476.216,198.425z"/>
</g>
<g>
	<path d="M476.216,208.264c-2.297,0-4.166-1.871-4.166-4.17c0-2.299,1.869-4.169,4.166-4.169c2.301,0,4.173,1.87,4.173,4.169
		C480.389,206.393,478.517,208.264,476.216,208.264z"/>
	<path d="M476.216,201.425c1.474,0,2.673,1.197,2.673,2.669c0,1.472-1.199,2.67-2.673,2.67c-1.47,0-2.666-1.198-2.666-2.67
		C473.55,202.622,474.746,201.425,476.216,201.425 M476.216,198.425c-3.126,0-5.666,2.538-5.666,5.669c0,3.131,2.54,5.67,5.666,5.67
		c3.133,0,5.673-2.539,5.673-5.67C481.889,200.962,479.349,198.425,476.216,198.425L476.216,198.425z"/>
</g>
<g>
	
		<line fill="none" stroke="#000000" stroke-width="3" stroke-miterlimit="10" x1="873.068" y1="102.047" x2="873.068" y2="170.078"/>
	
		<line fill="none" stroke="#000000" stroke-width="3" stroke-miterlimit="10" x1="858.896" y1="136.063" x2="816.376" y2="136.063"/>
	<circle fill="none" stroke="#000000" stroke-width="3" stroke-miterlimit="10" cx="865.982" cy="136.062" r="7.086"/>
	<polyline fill="none" stroke="#000000" stroke-width="3" stroke-miterlimit="10" points="918.423,204.094 918.423,170.078 
		884.407,170.078 884.407,102.047 918.423,102.047 918.423,68.031 	"/>
</g>
<line fill="none" stroke="#000000" stroke-width="3" stroke-miterlimit="10" x1="918.423" y1="476.22" x2="986.454" y2="476.22"/>
<path fill="none" stroke="#000000" stroke-width="3" stroke-miterlimit="10" d="M1099.841,340.156c0,3.132-2.54,5.671-5.673,5.671
	c-3.127,0-5.666-2.539-5.666-5.671c0-3.13,2.539-5.668,5.666-5.668C1097.301,334.488,1099.841,337.025,1099.841,340.156z"/>
<path fill="none" stroke="#000000" stroke-width="3" stroke-miterlimit="10" d="M714.329,408.188c0,3.132-2.54,5.671-5.673,5.671
	c-3.127,0-5.666-2.539-5.666-5.671c0-3.131,2.539-5.668,5.666-5.668C711.789,402.519,714.329,405.057,714.329,408.188z"/>
<path fill="none" stroke="#000000" stroke-width="3" stroke-miterlimit="10" d="M918.423,408.188c0,3.132-2.54,5.671-5.673,5.671
	c-3.127,0-5.666-2.539-5.666-5.671c0-3.131,2.539-5.668,5.666-5.668C915.883,402.519,918.423,405.057,918.423,408.188z"/>
<path fill="none" stroke="#000000" stroke-width="3" stroke-miterlimit="10" d="M816.376,136.061c0,3.132-2.54,5.671-5.673,5.671
	c-3.127,0-5.666-2.539-5.666-5.671c0-3.13,2.539-5.668,5.666-5.668C813.836,130.393,816.376,132.931,816.376,136.061z"/>
<path fill="none" stroke="#000000" stroke-width="3" stroke-miterlimit="10" d="M816.376,272.124c0,3.132-2.54,5.671-5.673,5.671
	c-3.127,0-5.666-2.539-5.666-5.671c0-3.13,2.539-5.668,5.666-5.668C813.836,266.456,816.376,268.993,816.376,272.124z"/>
<g>
	
		<line fill="none" stroke="#000000" stroke-width="3" stroke-miterlimit="10" x1="922.675" y1="510.235" x2="914.171" y2="510.235"/>
	
		<line fill="none" stroke="#000000" stroke-width="3" stroke-miterlimit="10" x1="929.053" y1="504.565" x2="907.793" y2="504.565"/>
	
		<line fill="none" stroke="#000000" stroke-width="3" stroke-miterlimit="10" x1="918.423" y1="476.221" x2="918.423" y2="498.896"/>
	
		<line fill="none" stroke="#000000" stroke-width="3" stroke-miterlimit="10" x1="901.415" y1="498.896" x2="935.431" y2="498.896"/>
	<path fill="none" stroke="#000000" stroke-width="3" stroke-miterlimit="10" d="M922.675,509.856"/>
	<path fill="none" stroke="#000000" stroke-width="3" stroke-miterlimit="10" d="M935.431,496.25"/>
	<path fill="none" stroke="#000000" stroke-width="3" stroke-miterlimit="10" d="M901.415,496.25"/>
	<path fill="none" stroke="#000000" stroke-width="3" stroke-miterlimit="10" d="M914.171,509.856"/>
</g>
<g>
	<line fill="none" stroke="#000000" stroke-width="3" stroke-miterlimit="10" x1="918.424" y1="40.839" x2="918.424" y2="68.033"/>
	<line fill="none" stroke="#000000" stroke-width="3" stroke-miterlimit="10" x1="935.432" y1="34.016" x2="901.416" y2="47.612"/>
</g>
<g>
	<path d="M803.842,260.788l5.773-15.032h2.143l6.152,15.032h-2.266l-1.754-4.553h-6.285l-1.65,4.553H803.842z M808.18,254.615h5.096
		l-1.568-4.163c-0.479-1.265-0.834-2.304-1.066-3.117c-0.191,0.964-0.461,1.921-0.811,2.871L808.18,254.615z"/>
</g>
<g>
	<path d="M805.411,124.725v-15.032h5.64c1.148,0,2.069,0.152,2.764,0.457c0.693,0.304,1.236,0.772,1.63,1.404
		c0.394,0.633,0.59,1.294,0.59,1.984c0,0.643-0.175,1.248-0.522,1.815c-0.35,0.567-0.875,1.025-1.58,1.374
		c0.91,0.267,1.608,0.721,2.098,1.364c0.488,0.643,0.732,1.401,0.732,2.276c0,0.704-0.148,1.358-0.445,1.964
		c-0.298,0.604-0.665,1.071-1.103,1.399s-0.986,0.576-1.646,0.743c-0.66,0.168-1.469,0.251-2.426,0.251H805.411z M807.4,116.009
		h3.25c0.883,0,1.515-0.058,1.897-0.174c0.506-0.15,0.887-0.4,1.144-0.749c0.256-0.349,0.385-0.786,0.385-1.313
		c0-0.499-0.12-0.938-0.359-1.318c-0.239-0.379-0.581-0.639-1.025-0.779c-0.444-0.14-1.207-0.21-2.287-0.21H807.4V116.009z
		 M807.4,122.951h3.742c0.643,0,1.094-0.024,1.354-0.072c0.459-0.082,0.842-0.219,1.148-0.41c0.309-0.191,0.561-0.47,0.76-0.835
		c0.197-0.366,0.297-0.788,0.297-1.267c0-0.561-0.144-1.047-0.431-1.461s-0.686-0.704-1.194-0.872
		c-0.51-0.167-1.242-0.251-2.199-0.251H807.4V122.951z"/>
</g>
<g>
	<path d="M702.961,396.851l5.773-15.032h2.143l6.152,15.032h-2.266l-1.754-4.553h-6.285l-1.651,4.553H702.961z M707.299,390.678
		h5.096l-1.568-4.163c-0.479-1.265-0.834-2.304-1.066-3.117c-0.191,0.964-0.462,1.921-0.811,2.871L707.299,390.678z"/>
</g>
<g>
	<path d="M908.625,396.851v-15.032h5.64c1.148,0,2.069,0.152,2.764,0.457c0.693,0.304,1.237,0.772,1.63,1.404
		c0.393,0.633,0.59,1.294,0.59,1.984c0,0.643-0.174,1.248-0.523,1.815c-0.348,0.567-0.875,1.025-1.578,1.374
		c0.908,0.267,1.607,0.721,2.097,1.364c0.488,0.643,0.733,1.401,0.733,2.276c0,0.704-0.149,1.358-0.446,1.964
		c-0.298,0.604-0.665,1.071-1.103,1.399s-0.986,0.576-1.646,0.743c-0.66,0.168-1.468,0.251-2.425,0.251H908.625z M910.614,388.135
		h3.251c0.881,0,1.514-0.058,1.896-0.174c0.506-0.15,0.887-0.4,1.144-0.749c0.256-0.349,0.384-0.786,0.384-1.313
		c0-0.499-0.119-0.938-0.358-1.318c-0.239-0.379-0.581-0.639-1.025-0.779c-0.444-0.14-1.206-0.21-2.286-0.21h-3.005V388.135z
		 M910.614,395.077h3.743c0.643,0,1.094-0.024,1.354-0.072c0.457-0.082,0.84-0.219,1.148-0.41c0.307-0.191,0.561-0.47,0.758-0.835
		c0.199-0.366,0.298-0.788,0.298-1.267c0-0.561-0.144-1.047-0.431-1.461s-0.686-0.704-1.194-0.872
		c-0.51-0.167-1.243-0.251-2.2-0.251h-3.476V395.077z"/>
</g>
<g>
	<path d="M1088.596,328.819l5.814-7.834l-5.127-7.198h2.369l2.727,3.855c0.568,0.8,0.971,1.415,1.211,1.846
		c0.334-0.547,0.73-1.118,1.189-1.712l3.024-3.989h2.163l-5.28,7.085l5.69,7.947h-2.461l-3.783-5.363
		c-0.212-0.308-0.431-0.643-0.656-1.005c-0.335,0.547-0.574,0.923-0.718,1.128l-3.773,5.24H1088.596z"/>
</g>
<g>
	<path d="M918.419,480.389c-2.297,0-4.166-1.871-4.166-4.17s1.869-4.169,4.166-4.169c2.301,0,4.173,1.87,4.173,4.169
		S920.72,480.389,918.419,480.389z"/>
	<path d="M918.419,473.55c1.474,0,2.673,1.197,2.673,2.669c0,1.473-1.199,2.67-2.673,2.67c-1.47,0-2.666-1.197-2.666-2.67
		C915.753,474.747,916.949,473.55,918.419,473.55 M918.419,470.55c-3.126,0-5.666,2.538-5.666,5.669s2.54,5.67,5.666,5.67
		c3.133,0,5.673-2.539,5.673-5.67S921.552,470.55,918.419,470.55L918.419,470.55z"/>
</g>
<g>
	<path d="M918.42,344.326c-2.297,0-4.166-1.871-4.166-4.17c0-2.299,1.869-4.169,4.166-4.169c2.301,0,4.173,1.87,4.173,4.169
		C922.593,342.456,920.721,344.326,918.42,344.326z"/>
	<path d="M918.42,337.487c1.474,0,2.673,1.197,2.673,2.669c0,1.472-1.199,2.67-2.673,2.67c-1.47,0-2.666-1.198-2.666-2.67
		C915.754,338.685,916.95,337.487,918.42,337.487 M918.42,334.487c-3.126,0-5.666,2.538-5.666,5.669c0,3.131,2.54,5.67,5.666,5.67
		c3.133,0,5.673-2.539,5.673-5.67C924.093,337.025,921.553,334.487,918.42,334.487L918.42,334.487z"/>
</g>
<g>
	<path d="M918.42,344.326c-2.297,0-4.166-1.871-4.166-4.17c0-2.299,1.869-4.169,4.166-4.169c2.301,0,4.173,1.87,4.173,4.169
		C922.593,342.456,920.721,344.326,918.42,344.326z"/>
	<path d="M918.42,337.487c1.474,0,2.673,1.197,2.673,2.669c0,1.472-1.199,2.67-2.673,2.67c-1.47,0-2.666-1.198-2.666-2.67
		C915.754,338.685,916.95,337.487,918.42,337.487 M918.42,334.487c-3.126,0-5.666,2.538-5.666,5.669c0,3.131,2.54,5.67,5.666,5.67
		c3.133,0,5.673-2.539,5.673-5.67C924.093,337.025,921.553,334.487,918.42,334.487L918.42,334.487z"/>
</g>
<line fill="none" stroke="#000000" stroke-width="3" stroke-miterlimit="10" x1="850.392" y1="476.22" x2="918.423" y2="476.22"/>
<g>
	
		<line fill="none" stroke="#000000" stroke-width="3" stroke-miterlimit="10" x1="771.021" y1="374.172" x2="771.021" y2="442.204"/>
	
		<line fill="none" stroke="#000000" stroke-width="3" stroke-miterlimit="10" x1="771.021" y1="408.188" x2="714.329" y2="408.188"/>
	<polyline fill="none" stroke="#000000" stroke-width="3" stroke-miterlimit="10" points="850.392,476.22 816.376,476.221 
		816.376,442.204 782.36,442.204 782.36,374.172 816.376,374.172 816.376,340.157 884.407,340.157 	"/>
</g>
<g>
	
		<line fill="none" stroke="#000000" stroke-width="3" stroke-miterlimit="10" x1="975.115" y1="374.173" x2="975.115" y2="442.205"/>
	
		<line fill="none" stroke="#000000" stroke-width="3" stroke-miterlimit="10" x1="975.115" y1="408.189" x2="918.423" y2="408.189"/>
	<polyline fill="none" stroke="#000000" stroke-width="3" stroke-miterlimit="10" points="986.454,476.22 1020.469,476.221 
		1020.469,442.205 986.453,442.205 986.453,374.173 1020.469,374.173 1020.469,340.158 	"/>
</g>
<line fill="none" stroke="#000000" stroke-width="3" stroke-miterlimit="10" x1="1020.47" y1="340.157" x2="1088.501" y2="340.157"/>
<g>
	<line fill="none" stroke="#000000" stroke-width="3" stroke-miterlimit="10" x1="873.068" y1="238.11" x2="873.068" y2="306.142"/>
	
		<line fill="none" stroke="#000000" stroke-width="3" stroke-miterlimit="10" x1="858.896" y1="272.126" x2="816.376" y2="272.126"/>
	<circle fill="none" stroke="#000000" stroke-width="3" stroke-miterlimit="10" cx="865.982" cy="272.125" r="7.086"/>
	<polyline fill="none" stroke="#000000" stroke-width="3" stroke-miterlimit="10" points="918.423,340.157 918.423,306.142 
		884.407,306.142 884.407,238.11 918.423,238.11 918.423,204.095 	"/>
</g>
<line fill="none" stroke="#000000" stroke-width="3" stroke-miterlimit="10" x1="952.438" y1="340.157" x2="1020.47" y2="340.157"/>
<line fill="none" stroke="#000000" stroke-width="3" stroke-miterlimit="10" x1="884.407" y1="340.157" x2="952.438" y2="340.157"/>
<g>
	<path d="M1020.467,344.326c-2.297,0-4.166-1.871-4.166-4.17c0-2.299,1.869-4.169,4.166-4.169c2.301,0,4.173,1.87,4.173,4.169
		C1024.64,342.456,1022.768,344.326,1020.467,344.326z"/>
	<path d="M1020.467,337.487c1.474,0,2.673,1.197,2.673,2.669c0,1.472-1.199,2.67-2.673,2.67c-1.47,0-2.666-1.198-2.666-2.67
		C1017.801,338.685,1018.997,337.487,1020.467,337.487 M1020.467,334.487c-3.126,0-5.666,2.538-5.666,5.669
		c0,3.131,2.54,5.67,5.666,5.67c3.133,0,5.673-2.539,5.673-5.67C1026.14,337.025,1023.6,334.487,1020.467,334.487L1020.467,334.487z
		"/>
</g>
<g>
	<path d="M1020.467,344.326c-2.297,0-4.166-1.871-4.166-4.17c0-2.299,1.869-4.169,4.166-4.169c2.301,0,4.173,1.87,4.173,4.169
		C1024.64,342.456,1022.768,344.326,1020.467,344.326z"/>
	<path d="M1020.467,337.487c1.474,0,2.673,1.197,2.673,2.669c0,1.472-1.199,2.67-2.673,2.67c-1.47,0-2.666-1.198-2.666-2.67
		C1017.801,338.685,1018.997,337.487,1020.467,337.487 M1020.467,334.487c-3.126,0-5.666,2.538-5.666,5.669
		c0,3.131,2.54,5.67,5.666,5.67c3.133,0,5.673-2.539,5.673-5.67C1026.14,337.025,1023.6,334.487,1020.467,334.487L1020.467,334.487z
		"/>
</g>
</svg>
