<?xml version="1.0" encoding="utf-8"?>
<!-- Generator: Adobe Illustrator 15.1.0, SVG Export Plug-In . SVG Version: 6.00 Build 0)  -->
<!DOCTYPE svg PUBLIC "-//W3C//DTD SVG 1.1//EN" "http://www.w3.org/Graphics/SVG/1.1/DTD/svg11.dtd">
<svg version="1.1" id="Layer_1" xmlns="http://www.w3.org/2000/svg" xmlns:xlink="http://www.w3.org/1999/xlink" x="0px" y="0px"
	 width="442.205px" height="544.252px" viewBox="0 0 442.205 544.252" enable-background="new 0 0 442.205 544.252"
	 xml:space="preserve">
<g>
	<polyline fill="none" stroke="#000000" stroke-width="3" stroke-miterlimit="10" points="238.11,340.158 238.11,306.142 
		204.094,306.142 204.094,238.11 238.11,238.11 238.11,204.094 	"/>
	<line fill="none" stroke="#000000" stroke-width="3" stroke-miterlimit="10" x1="192.755" y1="238.11" x2="192.755" y2="306.142"/>
	
		<line fill="none" stroke="#000000" stroke-width="3" stroke-miterlimit="10" x1="192.755" y1="272.126" x2="136.063" y2="272.126"/>
</g>
<g>
	<polyline fill="none" stroke="#000000" stroke-width="3" stroke-miterlimit="10" points="238.109,476.221 238.109,442.205 
		204.094,442.205 204.094,374.173 238.109,374.173 238.109,340.158 	"/>
	
		<line fill="none" stroke="#000000" stroke-width="3" stroke-miterlimit="10" x1="192.756" y1="374.173" x2="192.756" y2="442.205"/>
	
		<line fill="none" stroke="#000000" stroke-width="3" stroke-miterlimit="10" x1="192.756" y1="408.189" x2="136.063" y2="408.189"/>
</g>
<g>
	<line fill="none" stroke="#000000" stroke-width="3" stroke-miterlimit="10" x1="90.708" y1="102.047" x2="90.708" y2="170.078"/>
	<line fill="none" stroke="#000000" stroke-width="3" stroke-miterlimit="10" x1="76.535" y1="136.063" x2="34.016" y2="136.063"/>
	<circle fill="none" stroke="#000000" stroke-width="3" stroke-miterlimit="10" cx="83.622" cy="136.062" r="7.086"/>
	<polyline fill="none" stroke="#000000" stroke-width="3" stroke-miterlimit="10" points="204.095,204.094 136.063,204.094 
		136.063,170.078 102.047,170.078 102.047,102.047 136.063,102.047 136.063,68.031 	"/>
</g>
<line fill="none" stroke="#000000" stroke-width="3" stroke-miterlimit="10" x1="204.094" y1="204.094" x2="272.126" y2="204.094"/>
<g>
	
		<line fill="none" stroke="#000000" stroke-width="3" stroke-miterlimit="10" x1="294.803" y1="102.047" x2="294.803" y2="170.079"/>
	<line fill="none" stroke="#000000" stroke-width="3" stroke-miterlimit="10" x1="280.63" y1="136.063" x2="238.11" y2="136.063"/>
	<circle fill="none" stroke="#000000" stroke-width="3" stroke-miterlimit="10" cx="287.716" cy="136.063" r="7.086"/>
	<polyline fill="none" stroke="#000000" stroke-width="3" stroke-miterlimit="10" points="272.125,204.094 340.156,204.094 
		340.156,170.079 306.141,170.079 306.141,102.047 340.156,102.047 340.156,68.032 	"/>
</g>
<line fill="none" stroke="#000000" stroke-width="3" stroke-miterlimit="10" x1="340.157" y1="204.094" x2="408.188" y2="204.094"/>
<path fill="none" stroke="#000000" stroke-width="3" stroke-miterlimit="10" d="M419.528,204.093c0,3.132-2.54,5.671-5.673,5.671
	c-3.127,0-5.666-2.539-5.666-5.671c0-3.13,2.539-5.668,5.666-5.668C416.988,198.425,419.528,200.963,419.528,204.093z"/>
<path fill="none" stroke="#000000" stroke-width="3" stroke-miterlimit="10" d="M136.063,272.125c0,3.132-2.54,5.671-5.673,5.671
	c-3.127,0-5.666-2.539-5.666-5.671c0-3.13,2.539-5.668,5.666-5.668C133.523,266.457,136.063,268.994,136.063,272.125z"/>
<path fill="none" stroke="#000000" stroke-width="3" stroke-miterlimit="10" d="M136.063,408.187c0,3.132-2.54,5.671-5.673,5.671
	c-3.127,0-5.666-2.539-5.666-5.671c0-3.13,2.539-5.668,5.666-5.668C133.523,402.519,136.063,405.057,136.063,408.187z"/>
<path fill="none" stroke="#000000" stroke-width="3" stroke-miterlimit="10" d="M34.016,136.061c0,3.132-2.54,5.671-5.673,5.671
	c-3.127,0-5.666-2.539-5.666-5.671c0-3.13,2.539-5.668,5.666-5.668C31.476,130.393,34.016,132.931,34.016,136.061z"/>
<path fill="none" stroke="#000000" stroke-width="3" stroke-miterlimit="10" d="M238.109,136.061c0,3.132-2.54,5.671-5.673,5.671
	c-3.127,0-5.666-2.539-5.666-5.671c0-3.13,2.539-5.668,5.666-5.668C235.569,130.393,238.109,132.931,238.109,136.061z"/>
<g>
	<line fill="none" stroke="#000000" stroke-width="3" stroke-miterlimit="10" x1="340.157" y1="40.839" x2="340.157" y2="68.033"/>
	<line fill="none" stroke="#000000" stroke-width="3" stroke-miterlimit="10" x1="357.165" y1="34.016" x2="323.149" y2="47.612"/>
</g>
<g>
	
		<line fill="none" stroke="#000000" stroke-width="3" stroke-miterlimit="10" x1="242.362" y1="510.235" x2="233.858" y2="510.235"/>
	<line fill="none" stroke="#000000" stroke-width="3" stroke-miterlimit="10" x1="248.74" y1="504.565" x2="227.48" y2="504.565"/>
	<line fill="none" stroke="#000000" stroke-width="3" stroke-miterlimit="10" x1="238.11" y1="476.221" x2="238.11" y2="498.896"/>
	
		<line fill="none" stroke="#000000" stroke-width="3" stroke-miterlimit="10" x1="221.103" y1="498.896" x2="255.118" y2="498.896"/>
	<path fill="none" stroke="#000000" stroke-width="3" stroke-miterlimit="10" d="M242.362,509.856"/>
	<path fill="none" stroke="#000000" stroke-width="3" stroke-miterlimit="10" d="M255.118,496.25"/>
	<path fill="none" stroke="#000000" stroke-width="3" stroke-miterlimit="10" d="M221.103,496.25"/>
	<path fill="none" stroke="#000000" stroke-width="3" stroke-miterlimit="10" d="M233.858,509.856"/>
</g>
<g>
	<line fill="none" stroke="#000000" stroke-width="3" stroke-miterlimit="10" x1="136.063" y1="40.839" x2="136.063" y2="68.033"/>
	<line fill="none" stroke="#000000" stroke-width="3" stroke-miterlimit="10" x1="153.071" y1="34.016" x2="119.056" y2="47.612"/>
</g>
<g>
	<path d="M22.646,124.725l5.773-15.032h2.143l6.152,15.032h-2.266l-1.753-4.553H26.41l-1.651,4.553H22.646z M26.984,118.552h5.096
		l-1.569-4.163c-0.479-1.265-0.834-2.304-1.066-3.117c-0.191,0.964-0.461,1.921-0.81,2.871L26.984,118.552z"/>
</g>
<g>
	<path d="M228.31,124.725v-15.032h5.64c1.148,0,2.069,0.152,2.764,0.457c0.693,0.304,1.237,0.772,1.63,1.404
		c0.393,0.633,0.59,1.294,0.59,1.984c0,0.643-0.174,1.248-0.523,1.815s-0.875,1.025-1.579,1.374
		c0.909,0.267,1.608,0.721,2.097,1.364c0.488,0.643,0.733,1.401,0.733,2.276c0,0.704-0.149,1.358-0.446,1.964
		c-0.298,0.604-0.665,1.071-1.103,1.399s-0.986,0.576-1.646,0.743c-0.66,0.168-1.468,0.251-2.425,0.251H228.31z M230.299,116.009
		h3.25c0.882,0,1.514-0.058,1.897-0.174c0.506-0.15,0.887-0.4,1.144-0.749c0.256-0.349,0.384-0.786,0.384-1.313
		c0-0.499-0.12-0.938-0.359-1.318c-0.239-0.379-0.581-0.639-1.025-0.779c-0.444-0.14-1.207-0.21-2.287-0.21h-3.004V116.009z
		 M230.299,122.951h3.743c0.643,0,1.094-0.024,1.354-0.072c0.458-0.082,0.841-0.219,1.148-0.41s0.561-0.47,0.759-0.835
		s0.297-0.788,0.297-1.267c0-0.561-0.144-1.047-0.431-1.461s-0.686-0.704-1.194-0.872c-0.51-0.167-1.243-0.251-2.2-0.251h-3.476
		V122.951z"/>
</g>
<g>
	<path d="M124.693,260.788l5.773-15.032h2.143l6.152,15.032h-2.266l-1.753-4.553h-6.286l-1.651,4.553H124.693z M129.031,254.615
		h5.096l-1.569-4.163c-0.479-1.265-0.834-2.304-1.066-3.117c-0.191,0.964-0.461,1.921-0.81,2.871L129.031,254.615z"/>
</g>
<g>
	<path d="M126.263,396.851v-15.032h5.64c1.148,0,2.069,0.152,2.764,0.457c0.693,0.304,1.237,0.772,1.63,1.404
		c0.393,0.633,0.59,1.294,0.59,1.984c0,0.643-0.174,1.248-0.523,1.815s-0.875,1.025-1.579,1.374
		c0.909,0.267,1.608,0.721,2.097,1.364c0.488,0.643,0.733,1.401,0.733,2.276c0,0.704-0.149,1.358-0.446,1.964
		c-0.298,0.604-0.665,1.071-1.103,1.399s-0.986,0.576-1.646,0.743c-0.66,0.168-1.468,0.251-2.425,0.251H126.263z M128.252,388.135
		h3.25c0.882,0,1.514-0.058,1.897-0.174c0.506-0.15,0.887-0.4,1.144-0.749c0.256-0.349,0.384-0.786,0.384-1.313
		c0-0.499-0.12-0.938-0.359-1.318c-0.239-0.379-0.581-0.639-1.025-0.779c-0.444-0.14-1.207-0.21-2.287-0.21h-3.004V388.135z
		 M128.252,395.077h3.743c0.643,0,1.094-0.024,1.354-0.072c0.458-0.082,0.841-0.219,1.148-0.41s0.561-0.47,0.759-0.835
		s0.297-0.788,0.297-1.267c0-0.561-0.144-1.047-0.431-1.461s-0.686-0.704-1.194-0.872c-0.51-0.167-1.243-0.251-2.2-0.251h-3.476
		V395.077z"/>
</g>
<g>
	<path d="M408.281,192.756l5.814-7.834l-5.127-7.198h2.368l2.728,3.855c0.567,0.8,0.971,1.415,1.21,1.846
		c0.335-0.547,0.731-1.118,1.189-1.712l3.024-3.989h2.164l-5.281,7.085l5.691,7.947h-2.461l-3.783-5.363
		c-0.213-0.308-0.432-0.643-0.656-1.005c-0.336,0.547-0.574,0.923-0.719,1.128l-3.773,5.24H408.281z"/>
</g>
<g>
	<path d="M340.153,208.264c-2.297,0-4.166-1.871-4.166-4.17c0-2.299,1.869-4.169,4.166-4.169c2.301,0,4.173,1.87,4.173,4.169
		C344.326,206.393,342.454,208.264,340.153,208.264z"/>
	<path d="M340.153,201.425c1.474,0,2.673,1.197,2.673,2.669c0,1.472-1.199,2.67-2.673,2.67c-1.47,0-2.666-1.198-2.666-2.67
		C337.487,202.622,338.684,201.425,340.153,201.425 M340.153,198.425c-3.126,0-5.666,2.538-5.666,5.669
		c0,3.131,2.54,5.67,5.666,5.67c3.133,0,5.673-2.539,5.673-5.67C345.826,200.962,343.286,198.425,340.153,198.425L340.153,198.425z"
		/>
</g>
<g>
	<path d="M238.106,208.264c-2.297,0-4.166-1.871-4.166-4.17c0-2.299,1.869-4.169,4.166-4.169c2.301,0,4.173,1.87,4.173,4.169
		C242.279,206.393,240.407,208.264,238.106,208.264z"/>
	<path d="M238.106,201.425c1.474,0,2.673,1.197,2.673,2.669c0,1.472-1.199,2.67-2.673,2.67c-1.47,0-2.666-1.198-2.666-2.67
		C235.44,202.622,236.636,201.425,238.106,201.425 M238.106,198.425c-3.126,0-5.666,2.538-5.666,5.669c0,3.131,2.54,5.67,5.666,5.67
		c3.133,0,5.673-2.539,5.673-5.67C243.779,200.962,241.239,198.425,238.106,198.425L238.106,198.425z"/>
</g>
<g>
	<path d="M136.06,208.264c-2.297,0-4.166-1.871-4.166-4.17c0-2.299,1.869-4.169,4.166-4.169c2.301,0,4.173,1.87,4.173,4.169
		C140.232,206.393,138.36,208.264,136.06,208.264z"/>
	<path d="M136.06,201.425c1.474,0,2.673,1.197,2.673,2.669c0,1.472-1.199,2.67-2.673,2.67c-1.47,0-2.666-1.198-2.666-2.67
		C133.394,202.622,134.589,201.425,136.06,201.425 M136.06,198.425c-3.126,0-5.666,2.538-5.666,5.669c0,3.131,2.54,5.67,5.666,5.67
		c3.133,0,5.673-2.539,5.673-5.67C141.732,200.962,139.192,198.425,136.06,198.425L136.06,198.425z"/>
</g>
<g>
	<path d="M238.106,208.264c-2.297,0-4.166-1.871-4.166-4.17c0-2.299,1.869-4.169,4.166-4.169c2.301,0,4.173,1.87,4.173,4.169
		C242.279,206.393,240.407,208.264,238.106,208.264z"/>
	<path d="M238.106,201.425c1.474,0,2.673,1.197,2.673,2.669c0,1.472-1.199,2.67-2.673,2.67c-1.47,0-2.666-1.198-2.666-2.67
		C235.44,202.622,236.636,201.425,238.106,201.425 M238.106,198.425c-3.126,0-5.666,2.538-5.666,5.669c0,3.131,2.54,5.67,5.666,5.67
		c3.133,0,5.673-2.539,5.673-5.67C243.779,200.962,241.239,198.425,238.106,198.425L238.106,198.425z"/>
</g>
</svg>
