<?xml version="1.0" encoding="utf-8"?>
<!-- Generator: Adobe Illustrator 15.1.0, SVG Export Plug-In . SVG Version: 6.00 Build 0)  -->
<!DOCTYPE svg PUBLIC "-//W3C//DTD SVG 1.1//EN" "http://www.w3.org/Graphics/SVG/1.1/DTD/svg11.dtd">
<svg version="1.1" id="Layer_1" xmlns="http://www.w3.org/2000/svg" xmlns:xlink="http://www.w3.org/1999/xlink" x="0px" y="0px"
	 width="232px" height="365px" viewBox="0 0 232 365" enable-background="new 0 0 232 365" xml:space="preserve">
<line fill="none" stroke="#000000" stroke-width="3" stroke-miterlimit="10" x1="70" y1="107.5" x2="70" y2="137.5"/>
<line fill="none" stroke="#000000" stroke-width="3" stroke-miterlimit="10" x1="70" y1="197.5" x2="70" y2="227.5"/>
<line fill="none" stroke="#000000" stroke-width="3" stroke-miterlimit="10" x1="70" y1="137.5" x2="70" y2="197.5"/>
<path stroke="#000000" stroke-width="3" stroke-miterlimit="10" d="M73.923,167.5c0,2.167-1.758,3.923-3.926,3.923
	c-2.163,0-3.92-1.757-3.92-3.923s1.757-3.922,3.92-3.922C72.166,163.577,73.923,165.333,73.923,167.5z"/>
<path stroke="#000000" stroke-width="3" stroke-miterlimit="10" d="M163.924,167.5c0,2.167-1.758,3.923-3.926,3.923
	c-2.162,0-3.92-1.757-3.92-3.923s1.758-3.922,3.92-3.922C162.166,163.577,163.924,165.333,163.924,167.5z"/>
<g>
	<line fill="none" stroke="#000000" stroke-width="3" stroke-miterlimit="10" x1="172.991" y1="10" x2="147.011" y2="25"/>
	<line fill="none" stroke="#000000" stroke-width="3" stroke-miterlimit="10" x1="160.001" y1="17.5" x2="160.001" y2="47.5"/>
</g>
<line fill="none" stroke="#000000" stroke-width="3" stroke-miterlimit="10" x1="220" y1="167.5" x2="160" y2="167.5"/>
<line fill="none" stroke="#000000" stroke-width="3" stroke-miterlimit="10" x1="70" y1="167.5" x2="10" y2="167.5"/>
<g>
	<path d="M10.105,163.577l6.645-8.953l-5.859-8.227h2.707l3.117,4.406c0.648,0.914,1.109,1.617,1.383,2.109
		c0.383-0.625,0.836-1.277,1.359-1.957l3.457-4.559h2.473l-6.035,8.098l6.504,9.082h-2.813l-4.324-6.129
		c-0.242-0.352-0.492-0.734-0.75-1.148c-0.383,0.625-0.656,1.055-0.82,1.289l-4.313,5.988H10.105z"/>
</g>
<g>
	<path d="M202.439,163.577l6.645-8.953l-5.859-8.227h2.707l3.117,4.406c0.648,0.914,1.109,1.617,1.383,2.109
		c0.383-0.625,0.836-1.277,1.359-1.957l3.457-4.559h2.473l-6.035,8.098l6.504,9.082h-2.813l-4.324-6.129
		c-0.242-0.352-0.492-0.734-0.75-1.148c-0.383,0.625-0.656,1.055-0.82,1.289l-4.313,5.988H202.439z"/>
	<path d="M219.794,148.671v-2.449h2.262v1.934c0,1.047-0.121,1.801-0.363,2.262c-0.336,0.633-0.859,1.109-1.57,1.43l-0.516-0.832
		c0.422-0.172,0.736-0.443,0.943-0.814s0.322-0.881,0.346-1.529H219.794z"/>
</g>
<g>
	<polyline fill="none" stroke="#000000" stroke-width="3" stroke-miterlimit="10" points="160,287.5 160,257.5 130,257.5 130,197.5 
		160,197.5 160,167.5 	"/>
	<line fill="none" stroke="#000000" stroke-width="3" stroke-miterlimit="10" x1="120" y1="197.5" x2="120" y2="257.5"/>
	<line fill="none" stroke="#000000" stroke-width="3" stroke-miterlimit="10" x1="120" y1="227.5" x2="70" y2="227.5"/>
</g>
<g>
	<polyline fill="none" stroke="#000000" stroke-width="3" stroke-miterlimit="10" points="160,167.5 160,137.5 130,137.5 130,77.5 
		160,77.5 160,47.5 	"/>
	<line fill="none" stroke="#000000" stroke-width="3" stroke-miterlimit="10" x1="120" y1="77.5" x2="120" y2="137.5"/>
	<line fill="none" stroke="#000000" stroke-width="3" stroke-miterlimit="10" x1="106.203" y1="107.5" x2="70" y2="107.5"/>
	<circle fill="none" stroke="#000000" stroke-width="3" stroke-miterlimit="10" cx="113.101" cy="107.5" r="6.898"/>
</g>
<g>
	<line fill="none" stroke="#000000" stroke-width="3" stroke-miterlimit="10" x1="163.749" y1="329.5" x2="156.249" y2="329.5"/>
	<line fill="none" stroke="#000000" stroke-width="3" stroke-miterlimit="10" x1="169.374" y1="323.5" x2="150.624" y2="323.5"/>
	<line fill="none" stroke="#000000" stroke-width="3" stroke-miterlimit="10" x1="159.999" y1="287.5" x2="159.999" y2="317.5"/>
	<line fill="none" stroke="#000000" stroke-width="3" stroke-miterlimit="10" x1="144.999" y1="317.5" x2="174.999" y2="317.5"/>
	<path fill="none" stroke="#000000" stroke-width="3" stroke-miterlimit="10" d="M163.749,329.5"/>
	<path fill="none" stroke="#000000" stroke-width="3" stroke-miterlimit="10" d="M174.999,317.5"/>
	<path fill="none" stroke="#000000" stroke-width="3" stroke-miterlimit="10" d="M144.999,317.5"/>
	<path fill="none" stroke="#000000" stroke-width="3" stroke-miterlimit="10" d="M156.249,329.5"/>
</g>
</svg>
