<?xml version="1.0" encoding="utf-8"?>
<!-- Generator: Adobe Illustrator 15.1.0, SVG Export Plug-In . SVG Version: 6.00 Build 0)  -->
<!DOCTYPE svg PUBLIC "-//W3C//DTD SVG 1.1//EN" "http://www.w3.org/Graphics/SVG/1.1/DTD/svg11.dtd">
<svg version="1.1" id="Layer_1" xmlns="http://www.w3.org/2000/svg" xmlns:xlink="http://www.w3.org/1999/xlink" x="0px" y="0px"
	 width="646.299px" height="612.283px" viewBox="0 0 646.299 612.283" enable-background="new 0 0 646.299 612.283"
	 xml:space="preserve">
<g>
	
		<line fill="none" stroke="#000000" stroke-width="3" stroke-miterlimit="10" x1="181.417" y1="102.048" x2="181.417" y2="170.079"/>
	<circle fill="none" stroke="#000000" stroke-width="3" stroke-miterlimit="10" cx="188.504" cy="136.063" r="7.086"/>
	<polyline fill="none" stroke="#000000" stroke-width="3" stroke-miterlimit="10" points="442.205,204.095 374.173,204.095 
		238.11,136.064 195.59,136.064 	"/>
	<polyline fill="none" stroke="#000000" stroke-width="3" stroke-miterlimit="10" points="170.079,204.095 136.063,204.095 
		136.063,170.079 170.079,170.079 170.079,102.048 136.063,102.048 136.063,68.033 	"/>
</g>
<g>
	
		<line fill="none" stroke="#000000" stroke-width="3" stroke-miterlimit="10" x1="430.865" y1="102.048" x2="430.865" y2="170.079"/>
	<circle fill="none" stroke="#000000" stroke-width="3" stroke-miterlimit="10" cx="423.779" cy="136.063" r="7.086"/>
	<polyline fill="none" stroke="#000000" stroke-width="3" stroke-miterlimit="10" points="170.079,204.095 238.111,204.095 
		374.174,136.064 416.693,136.064 	"/>
	<polyline fill="none" stroke="#000000" stroke-width="3" stroke-miterlimit="10" points="442.204,204.095 476.221,204.095 
		476.221,170.079 442.205,170.079 442.205,102.048 476.221,102.048 476.221,68.033 	"/>
</g>
<g>
	<line fill="none" stroke="#000000" stroke-width="3" stroke-miterlimit="10" x1="136.063" y1="40.838" x2="136.063" y2="68.033"/>
	<line fill="none" stroke="#000000" stroke-width="3" stroke-miterlimit="10" x1="153.071" y1="34.015" x2="119.055" y2="47.612"/>
</g>
<g>
	<line fill="none" stroke="#000000" stroke-width="3" stroke-miterlimit="10" x1="476.22" y1="40.838" x2="476.22" y2="68.033"/>
	<line fill="none" stroke="#000000" stroke-width="3" stroke-miterlimit="10" x1="493.228" y1="34.015" x2="459.212" y2="47.612"/>
</g>
<g>
	<polyline fill="none" stroke="#000000" stroke-width="3" stroke-miterlimit="10" points="136.063,408.189 136.063,374.173 
		102.047,374.173 102.047,306.142 136.063,306.142 136.063,272.126 	"/>
	<line fill="none" stroke="#000000" stroke-width="3" stroke-miterlimit="10" x1="90.709" y1="306.142" x2="90.709" y2="374.173"/>
	<line fill="none" stroke="#000000" stroke-width="3" stroke-miterlimit="10" x1="90.709" y1="340.158" x2="34.017" y2="340.158"/>
</g>
<g>
	<polyline fill="none" stroke="#000000" stroke-width="3" stroke-miterlimit="10" points="136.063,544.252 136.063,510.236 
		102.047,510.236 102.047,442.205 136.063,442.205 136.063,408.189 	"/>
	<line fill="none" stroke="#000000" stroke-width="3" stroke-miterlimit="10" x1="90.709" y1="442.205" x2="90.709" y2="510.236"/>
	<line fill="none" stroke="#000000" stroke-width="3" stroke-miterlimit="10" x1="90.709" y1="476.221" x2="34.017" y2="476.221"/>
</g>
<path fill="none" stroke="#000000" stroke-width="3" stroke-miterlimit="10" d="M34.017,340.156c0,3.132-2.54,5.671-5.673,5.671
	c-3.127,0-5.666-2.539-5.666-5.671c0-3.13,2.539-5.668,5.666-5.668C31.477,334.488,34.017,337.026,34.017,340.156z"/>
<path fill="none" stroke="#000000" stroke-width="3" stroke-miterlimit="10" d="M34.017,476.219c0,3.132-2.54,5.671-5.673,5.671
	c-3.127,0-5.666-2.539-5.666-5.671c0-3.131,2.539-5.668,5.666-5.668C31.477,470.551,34.017,473.088,34.017,476.219z"/>
<g>
	<path d="M22.647,328.819l5.773-15.032h2.143l6.152,15.032h-2.266l-1.753-4.553H26.41l-1.651,4.553H22.647z M26.984,322.646h5.096
		l-1.569-4.163c-0.479-1.265-0.834-2.304-1.066-3.117c-0.191,0.964-0.461,1.921-0.81,2.871L26.984,322.646z"/>
</g>
<g>
	<path d="M24.216,464.883V449.85h5.64c1.148,0,2.069,0.152,2.764,0.457c0.693,0.305,1.237,0.772,1.63,1.404
		c0.393,0.633,0.59,1.294,0.59,1.984c0,0.643-0.174,1.248-0.523,1.814c-0.349,0.568-0.875,1.025-1.579,1.375
		c0.909,0.266,1.608,0.721,2.097,1.363c0.488,0.643,0.733,1.401,0.733,2.276c0,0.704-0.149,1.358-0.446,1.964
		c-0.298,0.604-0.665,1.071-1.103,1.399s-0.986,0.576-1.646,0.743c-0.66,0.168-1.468,0.252-2.425,0.252H24.216z M26.206,456.166
		h3.25c0.882,0,1.514-0.058,1.897-0.174c0.506-0.15,0.887-0.4,1.144-0.748c0.256-0.35,0.384-0.787,0.384-1.313
		c0-0.5-0.12-0.938-0.359-1.318c-0.239-0.379-0.581-0.639-1.025-0.779c-0.444-0.14-1.207-0.21-2.287-0.21h-3.004V456.166z
		 M26.206,463.108h3.743c0.643,0,1.094-0.024,1.354-0.071c0.458-0.082,0.841-0.219,1.148-0.41s0.561-0.471,0.759-0.836
		s0.297-0.788,0.297-1.267c0-0.561-0.144-1.048-0.431-1.461s-0.686-0.704-1.194-0.872c-0.51-0.167-1.243-0.251-2.2-0.251h-3.476
		V463.108z"/>
</g>
<g>
	
		<line fill="none" stroke="#000000" stroke-width="3" stroke-miterlimit="10" x1="396.852" y1="306.142" x2="396.852" y2="374.173"/>
	
		<line fill="none" stroke="#000000" stroke-width="3" stroke-miterlimit="10" x1="396.852" y1="340.158" x2="340.158" y2="340.158"/>
	<line fill="none" stroke="#000000" stroke-width="3" stroke-miterlimit="10" x1="555.59" y1="306.142" x2="555.59" y2="374.173"/>
	<line fill="none" stroke="#000000" stroke-width="3" stroke-miterlimit="10" x1="555.59" y1="340.158" x2="612.283" y2="340.158"/>
	<polygon fill="none" stroke="#000000" stroke-width="3" stroke-miterlimit="10" points="510.236,272.126 510.236,306.142 
		544.252,306.142 544.252,374.173 510.236,374.173 510.236,408.189 442.205,408.189 442.205,374.173 408.189,374.173 
		408.189,306.142 442.205,306.142 442.205,272.126 	"/>
</g>
<path fill="none" stroke="#000000" stroke-width="3" stroke-miterlimit="10" d="M340.158,340.156c0,3.132-2.541,5.671-5.674,5.671
	c-3.126,0-5.665-2.539-5.665-5.671c0-3.13,2.539-5.668,5.665-5.668C337.617,334.488,340.158,337.026,340.158,340.156z"/>
<path fill="none" stroke="#000000" stroke-width="3" stroke-miterlimit="10" d="M623.623,340.156c0,3.132-2.541,5.671-5.674,5.671
	c-3.127,0-5.666-2.539-5.666-5.671c0-3.131,2.539-5.668,5.666-5.668C621.082,334.488,623.623,337.025,623.623,340.156z"/>
<g>
	<path d="M328.789,328.819l5.773-15.032h2.143l6.152,15.032h-2.266l-1.754-4.553h-6.285l-1.651,4.553H328.789z M333.127,322.646
		h5.096l-1.568-4.163c-0.479-1.265-0.834-2.304-1.066-3.117c-0.191,0.964-0.462,1.921-0.811,2.871L333.127,322.646z"/>
	<path d="M342.54,315.776v-2.143h1.979v1.692c0,0.916-0.105,1.576-0.317,1.979c-0.294,0.554-0.752,0.971-1.374,1.251l-0.451-0.728
		c0.369-0.15,0.644-0.388,0.825-0.713c0.181-0.324,0.282-0.771,0.303-1.338H342.54z"/>
</g>
<g>
	<path d="M613.822,328.818v-15.032h5.64c1.148,0,2.069,0.152,2.764,0.457c0.693,0.304,1.237,0.772,1.63,1.404
		c0.394,0.633,0.59,1.294,0.59,1.984c0,0.643-0.174,1.248-0.522,1.815s-0.875,1.025-1.579,1.374
		c0.909,0.267,1.607,0.721,2.097,1.364c0.488,0.643,0.733,1.401,0.733,2.276c0,0.704-0.149,1.358-0.446,1.964
		c-0.298,0.604-0.665,1.071-1.103,1.399s-0.986,0.576-1.646,0.743c-0.66,0.168-1.468,0.251-2.425,0.251H613.822z M615.812,320.103
		h3.251c0.882,0,1.514-0.058,1.896-0.174c0.506-0.15,0.887-0.4,1.144-0.749c0.256-0.349,0.385-0.786,0.385-1.313
		c0-0.499-0.12-0.938-0.359-1.318c-0.239-0.379-0.581-0.639-1.025-0.779c-0.444-0.14-1.206-0.21-2.286-0.21h-3.005V320.103z
		 M615.812,327.044h3.743c0.643,0,1.094-0.024,1.354-0.072c0.458-0.082,0.841-0.219,1.148-0.41s0.561-0.47,0.759-0.835
		s0.297-0.788,0.297-1.267c0-0.561-0.144-1.047-0.431-1.461s-0.686-0.704-1.194-0.872c-0.51-0.167-1.242-0.251-2.199-0.251h-3.477
		V327.044z"/>
	<path d="M627.563,315.775v-2.143h1.979v1.692c0,0.916-0.106,1.576-0.318,1.979c-0.294,0.554-0.752,0.971-1.374,1.251l-0.451-0.728
		c0.369-0.15,0.645-0.388,0.825-0.712c0.182-0.325,0.282-0.771,0.303-1.338H627.563z"/>
</g>
<line fill="none" stroke="#000000" stroke-width="3" stroke-miterlimit="10" x1="136.063" y1="204.095" x2="136.063" y2="272.126"/>
<line fill="none" stroke="#000000" stroke-width="3" stroke-miterlimit="10" x1="476.22" y1="204.095" x2="476.22" y2="272.126"/>
<g>
	
		<line fill="none" stroke="#000000" stroke-width="3" stroke-miterlimit="10" x1="140.315" y1="578.268" x2="131.811" y2="578.268"/>
	
		<line fill="none" stroke="#000000" stroke-width="3" stroke-miterlimit="10" x1="146.693" y1="572.598" x2="125.433" y2="572.598"/>
	
		<line fill="none" stroke="#000000" stroke-width="3" stroke-miterlimit="10" x1="136.063" y1="544.253" x2="136.063" y2="566.929"/>
	
		<line fill="none" stroke="#000000" stroke-width="3" stroke-miterlimit="10" x1="119.055" y1="566.929" x2="153.071" y2="566.929"/>
	<path fill="none" stroke="#000000" stroke-width="3" stroke-miterlimit="10" d="M140.315,577.889"/>
	<path fill="none" stroke="#000000" stroke-width="3" stroke-miterlimit="10" d="M153.071,564.282"/>
	<path fill="none" stroke="#000000" stroke-width="3" stroke-miterlimit="10" d="M119.055,564.282"/>
	<path fill="none" stroke="#000000" stroke-width="3" stroke-miterlimit="10" d="M131.811,577.889"/>
</g>
<g>
	
		<line fill="none" stroke="#000000" stroke-width="3" stroke-miterlimit="10" x1="480.472" y1="442.205" x2="471.968" y2="442.205"/>
	<line fill="none" stroke="#000000" stroke-width="3" stroke-miterlimit="10" x1="486.85" y1="436.535" x2="465.59" y2="436.535"/>
	<line fill="none" stroke="#000000" stroke-width="3" stroke-miterlimit="10" x1="476.22" y1="408.19" x2="476.22" y2="430.866"/>
	
		<line fill="none" stroke="#000000" stroke-width="3" stroke-miterlimit="10" x1="459.212" y1="430.866" x2="493.228" y2="430.866"/>
	<path fill="none" stroke="#000000" stroke-width="3" stroke-miterlimit="10" d="M480.472,441.826"/>
	<path fill="none" stroke="#000000" stroke-width="3" stroke-miterlimit="10" d="M493.228,428.22"/>
	<path fill="none" stroke="#000000" stroke-width="3" stroke-miterlimit="10" d="M459.212,428.22"/>
	<path fill="none" stroke="#000000" stroke-width="3" stroke-miterlimit="10" d="M471.968,441.826"/>
</g>
<g>
	<path d="M136.06,208.264c-2.297,0-4.166-1.871-4.166-4.17c0-2.299,1.869-4.169,4.166-4.169c2.301,0,4.173,1.87,4.173,4.169
		C140.232,206.394,138.36,208.264,136.06,208.264z"/>
	<path d="M136.06,201.425c1.474,0,2.673,1.197,2.673,2.669c0,1.472-1.199,2.67-2.673,2.67c-1.47,0-2.666-1.198-2.666-2.67
		C133.394,202.623,134.59,201.425,136.06,201.425 M136.06,198.425c-3.126,0-5.666,2.538-5.666,5.669c0,3.131,2.54,5.67,5.666,5.67
		c3.133,0,5.673-2.539,5.673-5.67C141.732,200.963,139.192,198.425,136.06,198.425L136.06,198.425z"/>
</g>
<g>
	<path d="M476.216,208.264c-2.297,0-4.166-1.871-4.166-4.17c0-2.299,1.869-4.169,4.166-4.169c2.301,0,4.173,1.87,4.173,4.169
		C480.389,206.394,478.517,208.264,476.216,208.264z"/>
	<path d="M476.216,201.425c1.474,0,2.673,1.197,2.673,2.669c0,1.472-1.199,2.67-2.673,2.67c-1.47,0-2.666-1.198-2.666-2.67
		C473.55,202.623,474.746,201.425,476.216,201.425 M476.216,198.425c-3.126,0-5.666,2.538-5.666,5.669c0,3.131,2.54,5.67,5.666,5.67
		c3.133,0,5.673-2.539,5.673-5.67C481.889,200.963,479.349,198.425,476.216,198.425L476.216,198.425z"/>
</g>
<g>
	<path d="M476.216,276.295c-2.297,0-4.166-1.871-4.166-4.17c0-2.299,1.869-4.169,4.166-4.169c2.301,0,4.173,1.87,4.173,4.169
		C480.389,274.425,478.517,276.295,476.216,276.295z"/>
	<path d="M476.216,269.457c1.474,0,2.673,1.197,2.673,2.669c0,1.472-1.199,2.67-2.673,2.67c-1.47,0-2.666-1.198-2.666-2.67
		C473.55,270.654,474.746,269.457,476.216,269.457 M476.216,266.457c-3.126,0-5.666,2.538-5.666,5.669c0,3.131,2.54,5.67,5.666,5.67
		c3.133,0,5.673-2.539,5.673-5.67C481.889,268.994,479.349,266.457,476.216,266.457L476.216,266.457z"/>
</g>
<g>
	<path d="M476.216,412.358c-2.297,0-4.166-1.871-4.166-4.17s1.869-4.169,4.166-4.169c2.301,0,4.173,1.87,4.173,4.169
		S478.517,412.358,476.216,412.358z"/>
	<path d="M476.216,405.52c1.474,0,2.673,1.197,2.673,2.669s-1.199,2.67-2.673,2.67c-1.47,0-2.666-1.198-2.666-2.67
		S474.746,405.52,476.216,405.52 M476.216,402.52c-3.126,0-5.666,2.537-5.666,5.669c0,3.131,2.54,5.67,5.666,5.67
		c3.133,0,5.673-2.539,5.673-5.67C481.889,405.057,479.349,402.52,476.216,402.52L476.216,402.52z"/>
</g>
<g>
	<path d="M136.06,242.28c-2.297,0-4.166-1.871-4.166-4.17c0-2.299,1.869-4.169,4.166-4.169c2.301,0,4.173,1.87,4.173,4.169
		C140.232,240.409,138.36,242.28,136.06,242.28z"/>
	<path d="M136.06,235.441c1.474,0,2.673,1.197,2.673,2.669c0,1.472-1.199,2.67-2.673,2.67c-1.47,0-2.666-1.198-2.666-2.67
		C133.394,236.638,134.589,235.441,136.06,235.441 M136.06,232.441c-3.126,0-5.666,2.538-5.666,5.669c0,3.131,2.54,5.67,5.666,5.67
		c3.133,0,5.673-2.539,5.673-5.67C141.732,234.979,139.192,232.441,136.06,232.441L136.06,232.441z"/>
</g>
<g>
	<path d="M476.216,242.28c-2.297,0-4.166-1.871-4.166-4.17c0-2.299,1.869-4.169,4.166-4.169c2.301,0,4.173,1.87,4.173,4.169
		C480.389,240.409,478.517,242.28,476.216,242.28z"/>
	<path d="M476.216,235.441c1.474,0,2.673,1.197,2.673,2.669c0,1.472-1.199,2.67-2.673,2.67c-1.47,0-2.666-1.198-2.666-2.67
		C473.55,236.638,474.746,235.441,476.216,235.441 M476.216,232.441c-3.126,0-5.666,2.538-5.666,5.669c0,3.131,2.54,5.67,5.666,5.67
		c3.133,0,5.673-2.539,5.673-5.67C481.889,234.979,479.349,232.441,476.216,232.441L476.216,232.441z"/>
</g>
<line fill="none" stroke="#000000" stroke-width="3" stroke-miterlimit="10" x1="68.031" y1="238.11" x2="136.063" y2="238.11"/>
<line fill="none" stroke="#000000" stroke-width="3" stroke-miterlimit="10" x1="476.22" y1="238.11" x2="544.251" y2="238.11"/>
<path fill="none" stroke="#000000" stroke-width="3" stroke-miterlimit="10" d="M68.032,238.109c0,3.132-2.54,5.671-5.673,5.671
	c-3.127,0-5.666-2.539-5.666-5.671c0-3.13,2.539-5.668,5.666-5.668C65.492,232.441,68.032,234.979,68.032,238.109z"/>
<path fill="none" stroke="#000000" stroke-width="3" stroke-miterlimit="10" d="M555.592,238.109c0,3.132-2.541,5.671-5.674,5.671
	c-3.127,0-5.666-2.539-5.666-5.671c0-3.131,2.539-5.668,5.666-5.668C553.051,232.441,555.592,234.979,555.592,238.109z"/>
<g>
	<path d="M57.522,225.333v-6.368l-5.793-8.665h2.42l2.963,4.532c0.547,0.848,1.056,1.695,1.528,2.543
		c0.451-0.786,0.998-1.671,1.641-2.656l2.912-4.419h2.317l-5.999,8.665v6.368H57.522z"/>
	<path d="M76.769,216.495h-9.926v-1.723h9.926V216.495z M76.769,221.058h-9.926v-1.723h9.926V221.058z"/>
	<path d="M77.907,225.333l5.773-15.032h2.143l6.152,15.032h-2.266l-1.753-4.553H81.67l-1.651,4.553H77.907z M82.244,219.161h5.096
		l-1.569-4.163c-0.479-1.265-0.834-2.304-1.066-3.117c-0.191,0.964-0.461,1.921-0.81,2.871L82.244,219.161z"/>
	<path d="M93.482,225.333v-15.032h5.64c1.148,0,2.069,0.152,2.764,0.456c0.693,0.305,1.237,0.773,1.63,1.405s0.59,1.293,0.59,1.984
		c0,0.643-0.174,1.248-0.523,1.815s-0.875,1.025-1.579,1.374c0.909,0.267,1.608,0.721,2.097,1.364
		c0.488,0.643,0.733,1.401,0.733,2.276c0,0.704-0.149,1.359-0.446,1.963c-0.298,0.605-0.665,1.072-1.103,1.4
		s-0.986,0.576-1.646,0.744c-0.66,0.167-1.468,0.251-2.425,0.251H93.482z M95.472,216.618h3.25c0.882,0,1.514-0.058,1.897-0.174
		c0.506-0.15,0.887-0.4,1.144-0.749c0.256-0.349,0.384-0.786,0.384-1.313c0-0.499-0.12-0.938-0.359-1.317
		c-0.239-0.38-0.581-0.639-1.025-0.779s-1.207-0.21-2.287-0.21h-3.004V216.618z M95.472,223.56h3.743
		c0.643,0,1.094-0.024,1.354-0.072c0.458-0.082,0.841-0.219,1.148-0.41s0.561-0.47,0.759-0.836c0.198-0.365,0.297-0.788,0.297-1.266
		c0-0.561-0.144-1.047-0.431-1.461c-0.287-0.413-0.686-0.704-1.194-0.871c-0.51-0.167-1.243-0.251-2.2-0.251h-3.476V223.56z"/>
</g>
<g>
	<path d="M550.107,225.333v-6.368l-5.794-8.665h2.42l2.964,4.532c0.546,0.848,1.056,1.695,1.527,2.543
		c0.451-0.786,0.998-1.671,1.641-2.656l2.912-4.419h2.317l-5.999,8.665v6.368H550.107z"/>
	<path d="M559.53,212.291v-2.143h1.979v1.692c0,0.916-0.106,1.576-0.318,1.979c-0.294,0.554-0.752,0.971-1.374,1.251l-0.451-0.728
		c0.369-0.15,0.645-0.388,0.825-0.713c0.182-0.324,0.282-0.771,0.303-1.338H559.53z"/>
	<path d="M574.019,216.495h-9.926v-1.723h9.926V216.495z M574.019,221.058h-9.926v-1.723h9.926V221.058z"/>
	<path d="M575.156,225.333l5.773-15.032h2.143l6.152,15.032h-2.266l-1.754-4.553h-6.285l-1.65,4.553H575.156z M579.494,219.161
		h5.096l-1.568-4.163c-0.479-1.265-0.834-2.304-1.066-3.117c-0.191,0.964-0.461,1.921-0.811,2.871L579.494,219.161z"/>
	<path d="M590.733,225.333v-15.032h5.64c1.148,0,2.069,0.152,2.764,0.456c0.693,0.305,1.237,0.773,1.63,1.405
		c0.394,0.632,0.59,1.293,0.59,1.984c0,0.643-0.175,1.248-0.522,1.815c-0.35,0.567-0.876,1.025-1.58,1.374
		c0.909,0.267,1.608,0.721,2.098,1.364c0.488,0.643,0.732,1.401,0.732,2.276c0,0.704-0.148,1.359-0.445,1.963
		c-0.298,0.605-0.665,1.072-1.103,1.4s-0.986,0.576-1.646,0.744c-0.66,0.167-1.469,0.251-2.426,0.251H590.733z M592.723,216.618
		h3.25c0.883,0,1.515-0.058,1.897-0.174c0.506-0.15,0.887-0.4,1.144-0.749c0.256-0.349,0.385-0.786,0.385-1.313
		c0-0.499-0.12-0.938-0.359-1.317c-0.239-0.38-0.581-0.639-1.025-0.779s-1.207-0.21-2.287-0.21h-3.004V216.618z M592.723,223.56
		h3.742c0.643,0,1.094-0.024,1.354-0.072c0.458-0.082,0.842-0.219,1.148-0.41c0.309-0.191,0.561-0.47,0.76-0.836
		c0.197-0.365,0.297-0.788,0.297-1.266c0-0.561-0.144-1.047-0.431-1.461c-0.287-0.413-0.686-0.704-1.194-0.871
		c-0.51-0.167-1.243-0.251-2.199-0.251h-3.477V223.56z"/>
</g>
<line fill="none" stroke="#000000" stroke-width="2" stroke-miterlimit="10" x1="77.708" y1="207.792" x2="105.417" y2="207.792"/>
</svg>
