<?xml version="1.0" encoding="utf-8"?>
<!-- Generator: Adobe Illustrator 15.1.0, SVG Export Plug-In . SVG Version: 6.00 Build 0)  -->
<!DOCTYPE svg PUBLIC "-//W3C//DTD SVG 1.1//EN" "http://www.w3.org/Graphics/SVG/1.1/DTD/svg11.dtd">
<svg version="1.1" id="Layer_1" xmlns="http://www.w3.org/2000/svg" xmlns:xlink="http://www.w3.org/1999/xlink" x="0px" y="0px"
	 width="918.424px" height="578.267px" viewBox="0 0 918.424 578.267" enable-background="new 0 0 918.424 578.267"
	 xml:space="preserve">
<g>
	<path d="M646.295,435.036c-2.297,0-4.165-1.871-4.165-4.17s1.868-4.17,4.165-4.17c2.301,0,4.173,1.871,4.173,4.17
		S648.596,435.036,646.295,435.036z"/>
	<path d="M646.295,428.196c1.474,0,2.673,1.197,2.673,2.67c0,1.472-1.199,2.67-2.673,2.67c-1.47,0-2.665-1.198-2.665-2.67
		C643.63,429.394,644.825,428.196,646.295,428.196 M646.295,425.196c-3.126,0-5.665,2.538-5.665,5.67c0,3.131,2.539,5.67,5.665,5.67
		c3.134,0,5.673-2.539,5.673-5.67C651.968,427.734,649.429,425.196,646.295,425.196L646.295,425.196z"/>
</g>
<text transform="matrix(1 0 0 1 612.2822 498.8965)"><tspan x="0" y="0" font-family="'Arial'" font-size="12">Ole Herman Schumacher Elgesem (CC BY 4.0) </tspan><tspan x="0" y="14.4" font-family="'Arial'" font-size="12">github.com/olehermanse/schem</tspan><tspan x="0" y="28.8" font-family="'Arial'" font-size="12">Licensed under CC Attribution 4.0 International:</tspan><tspan x="0" y="43.2" font-family="'Arial'" font-size="12">creativecommons.org/licenses/by/4.0/</tspan></text>
<line fill="none" stroke="#000000" stroke-width="3" stroke-miterlimit="10" x1="623.621" y1="374.173" x2="623.621" y2="408.188"/>
<line fill="none" stroke="#000000" stroke-width="3" stroke-miterlimit="10" x1="612.282" y1="374.173" x2="612.282" y2="442.205"/>
<path fill="none" stroke="#000000" stroke-width="3" stroke-miterlimit="10" d="M668.976,430.864c0,3.133-2.541,5.672-5.674,5.672
	c-3.127,0-5.666-2.539-5.666-5.672c0-3.13,2.539-5.668,5.666-5.668C666.435,425.196,668.976,427.734,668.976,430.864z"/>
<line fill="none" stroke="#000000" stroke-width="3" stroke-miterlimit="10" x1="612.282" y1="453.544" x2="646.298" y2="453.544"/>
<line fill="none" stroke="#000000" stroke-width="3" stroke-miterlimit="10" x1="612.282" y1="464.882" x2="680.314" y2="464.882"/>
<text transform="matrix(1 0 0 1 748.3447 394.2148)"><tspan x="0" y="0" font-family="'Arial'" font-size="14">Grid size:         12mm</tspan><tspan x="0" y="11.3" font-family="'Arial'" font-size="14">Subdivisions:           6</tspan><tspan x="0" y="22.6" font-family="'Arial'" font-size="14">Keyboard Inc:  12mm</tspan></text>
<g>
	<line fill="none" stroke="#000000" stroke-width="3" stroke-miterlimit="10" x1="816.376" y1="34.016" x2="816.376" y2="170.078"/>
	<line fill="none" stroke="#000000" stroke-width="3" stroke-miterlimit="10" x1="816.376" y1="34.016" x2="680.313" y2="102.048"/>

		<line fill="none" stroke="#000000" stroke-width="3" stroke-miterlimit="10" x1="816.376" y1="170.078" x2="680.313" y2="102.048"/>
	<path fill="none" stroke="#000000" stroke-width="3" stroke-miterlimit="10" d="M646.299,102.045c0,9.395,7.613,17.01,17.008,17.01
		c9.39,0,17.008-7.615,17.008-17.01c0-9.392-7.618-17.007-17.008-17.007C653.912,85.038,646.299,92.653,646.299,102.045z"/>
	<line fill="none" stroke="#000000" stroke-width="3" stroke-miterlimit="10" x1="850.393" y1="68.031" x2="816.377" y2="68.031"/>

		<line fill="none" stroke="#000000" stroke-width="3" stroke-miterlimit="10" x1="850.393" y1="136.063" x2="816.377" y2="136.063"/>

		<line fill="none" stroke="#000000" stroke-width="3" stroke-miterlimit="10" x1="646.299" y1="102.047" x2="612.283" y2="102.047"/>
</g>
<g>
	<line fill="none" stroke="#000000" stroke-width="3" stroke-miterlimit="10" x1="544.251" y1="34.016" x2="544.251" y2="102.047"/>

		<line fill="none" stroke="#000000" stroke-width="3" stroke-miterlimit="10" x1="544.251" y1="102.047" x2="544.251" y2="170.078"/>
	<line fill="none" stroke="#000000" stroke-width="3" stroke-miterlimit="10" x1="544.251" y1="68.031" x2="578.267" y2="68.031"/>

		<line fill="none" stroke="#000000" stroke-width="3" stroke-miterlimit="10" x1="544.251" y1="136.063" x2="578.267" y2="136.063"/>
	<path fill="none" stroke="#000000" stroke-width="3" stroke-miterlimit="10" d="M442.204,34.016
		c-37.572,0-68.031,30.459-68.031,68.031c0,37.573,30.459,68.032,68.031,68.032"/>
	<line fill="none" stroke="#000000" stroke-width="3" stroke-miterlimit="10" x1="442.204" y1="34.016" x2="510.235" y2="34.016"/>

		<line fill="none" stroke="#000000" stroke-width="3" stroke-miterlimit="10" x1="442.204" y1="170.078" x2="510.235" y2="170.078"/>
	<path fill="none" stroke="#000000" stroke-width="3" stroke-miterlimit="10" d="M374.173,102.045c0,9.395-7.613,17.01-17.008,17.01
		c-9.39,0-17.008-7.615-17.008-17.01c0-9.392,7.618-17.007,17.008-17.007C366.56,85.038,374.173,92.653,374.173,102.045z"/>

		<line fill="none" stroke="#000000" stroke-width="3" stroke-miterlimit="10" x1="306.142" y1="102.047" x2="340.157" y2="102.047"/>
	<line fill="none" stroke="#000000" stroke-width="3" stroke-miterlimit="10" x1="510.235" y1="34.016" x2="544.251" y2="34.016"/>

		<line fill="none" stroke="#000000" stroke-width="3" stroke-miterlimit="10" x1="510.235" y1="170.078" x2="544.251" y2="170.078"/>
</g>
<g>
	<path fill="none" stroke="#000000" stroke-width="3" stroke-miterlimit="10" d="M476.22,340.148
		c-40.909,0-77.105-26.325-102.047-67.993"/>
	<path fill="none" stroke="#000000" stroke-width="3" stroke-miterlimit="10" d="M476.22,204.094
		c-40.909,0-77.105,26.325-102.047,67.993"/>
	<path fill="none" stroke="#000000" stroke-width="3" stroke-miterlimit="10" d="M510.235,204.124l34.016-0.02
		c-22.679,37.581-22.674,98.475-0.002,136.044"/>
	<path fill="none" stroke="#000000" stroke-width="3" stroke-miterlimit="10" d="M374.173,272.117c0-9.395-7.613-17.01-17.008-17.01
		c-9.39,0-17.008,7.615-17.008,17.01c0,9.392,7.618,17.007,17.008,17.007C366.56,289.124,374.173,281.509,374.173,272.117z"/>

		<line fill="none" stroke="#000000" stroke-width="3" stroke-miterlimit="10" x1="306.142" y1="272.115" x2="340.157" y2="272.115"/>
	<line fill="none" stroke="#000000" stroke-width="3" stroke-miterlimit="10" x1="476.22" y1="204.094" x2="510.235" y2="204.094"/>
	<line fill="none" stroke="#000000" stroke-width="3" stroke-miterlimit="10" x1="476.22" y1="340.156" x2="510.235" y2="340.156"/>
	<path fill="none" stroke="#000000" stroke-width="3" stroke-miterlimit="10" d="M510.235,204.124l34.016-0.02
		c-22.679,37.581-22.674,98.475-0.002,136.044"/>

		<line fill="none" stroke="#000000" stroke-width="3" stroke-miterlimit="10" x1="530.974" y1="238.109" x2="578.267" y2="238.109"/>
	<path fill="none" stroke="#000000" stroke-width="3" stroke-miterlimit="10" d="M510.235,340.128l34.016,0.02
		c-22.679-37.581-22.674-98.475-0.002-136.044"/>
	<path fill="none" stroke="#000000" stroke-width="3" stroke-miterlimit="10" d="M510.235,340.128l34.016,0.02
		c-22.679-37.581-22.674-98.475-0.002-136.044"/>

		<line fill="none" stroke="#000000" stroke-width="3" stroke-miterlimit="10" x1="530.974" y1="306.143" x2="578.267" y2="306.143"/>
</g>
<g>
	<line fill="none" stroke="#000000" stroke-width="3" stroke-miterlimit="10" x1="238.109" y1="34.016" x2="238.109" y2="102.047"/>

		<line fill="none" stroke="#000000" stroke-width="3" stroke-miterlimit="10" x1="238.109" y1="102.047" x2="238.109" y2="170.078"/>
	<line fill="none" stroke="#000000" stroke-width="3" stroke-miterlimit="10" x1="238.109" y1="68.031" x2="272.125" y2="68.031"/>

		<line fill="none" stroke="#000000" stroke-width="3" stroke-miterlimit="10" x1="238.109" y1="136.063" x2="272.125" y2="136.063"/>
	<path fill="none" stroke="#000000" stroke-width="3" stroke-miterlimit="10" d="M136.063,34.016
		c-37.572,0-68.031,30.459-68.031,68.031c0,37.573,30.459,68.032,68.031,68.032"/>
	<line fill="none" stroke="#000000" stroke-width="3" stroke-miterlimit="10" x1="136.063" y1="34.016" x2="204.094" y2="34.016"/>

		<line fill="none" stroke="#000000" stroke-width="3" stroke-miterlimit="10" x1="136.063" y1="170.078" x2="204.094" y2="170.078"/>
	<line fill="none" stroke="#000000" stroke-width="3" stroke-miterlimit="10" x1="34.016" y1="102.047" x2="68.031" y2="102.047"/>
	<line fill="none" stroke="#000000" stroke-width="3" stroke-miterlimit="10" x1="204.094" y1="34.016" x2="238.109" y2="34.016"/>

		<line fill="none" stroke="#000000" stroke-width="3" stroke-miterlimit="10" x1="204.094" y1="170.078" x2="238.109" y2="170.078"/>
</g>
<g>
	<path fill="none" stroke="#000000" stroke-width="3" stroke-miterlimit="10" d="M170.078,340.148
		c-40.909,0-77.105-26.325-102.047-67.993"/>
	<path fill="none" stroke="#000000" stroke-width="3" stroke-miterlimit="10" d="M170.078,204.094
		c-40.909,0-77.105,26.325-102.047,67.993"/>
	<path fill="none" stroke="#000000" stroke-width="3" stroke-miterlimit="10" d="M204.094,204.124l34.016-0.02
		c-22.679,37.581-22.674,98.475-0.002,136.044"/>
	<line fill="none" stroke="#000000" stroke-width="3" stroke-miterlimit="10" x1="34.016" y1="272.115" x2="68.031" y2="272.115"/>

		<line fill="none" stroke="#000000" stroke-width="3" stroke-miterlimit="10" x1="170.078" y1="204.094" x2="204.094" y2="204.094"/>

		<line fill="none" stroke="#000000" stroke-width="3" stroke-miterlimit="10" x1="170.078" y1="340.156" x2="204.094" y2="340.156"/>
	<path fill="none" stroke="#000000" stroke-width="3" stroke-miterlimit="10" d="M204.094,204.124l34.016-0.02
		c-22.679,37.581-22.674,98.475-0.002,136.044"/>

		<line fill="none" stroke="#000000" stroke-width="3" stroke-miterlimit="10" x1="224.832" y1="238.109" x2="272.125" y2="238.109"/>
	<path fill="none" stroke="#000000" stroke-width="3" stroke-miterlimit="10" d="M204.094,340.128l34.016,0.02
		c-22.679-37.581-22.674-98.475-0.002-136.044"/>
	<path fill="none" stroke="#000000" stroke-width="3" stroke-miterlimit="10" d="M204.094,340.128l34.016,0.02
		c-22.679-37.581-22.674-98.475-0.002-136.044"/>

		<line fill="none" stroke="#000000" stroke-width="3" stroke-miterlimit="10" x1="224.832" y1="306.143" x2="272.125" y2="306.143"/>
</g>
<g>
	<path fill="none" stroke="#000000" stroke-width="3" stroke-miterlimit="10" d="M476.22,510.228
		c-40.909,0-77.105-26.325-102.047-67.993"/>
	<path fill="none" stroke="#000000" stroke-width="3" stroke-miterlimit="10" d="M476.22,374.173
		c-40.909,0-77.105,26.325-102.047,67.993"/>
	<path fill="none" stroke="#000000" stroke-width="3" stroke-miterlimit="10" d="M510.235,374.203l34.016-0.02
		c-22.679,37.581-22.674,98.475-0.002,136.044"/>
	<path fill="none" stroke="#000000" stroke-width="3" stroke-miterlimit="10" d="M374.173,442.196c0-9.395-7.613-17.01-17.008-17.01
		c-9.39,0-17.008,7.615-17.008,17.01c0,9.392,7.618,17.007,17.008,17.007C366.56,459.203,374.173,451.588,374.173,442.196z"/>

		<line fill="none" stroke="#000000" stroke-width="3" stroke-miterlimit="10" x1="306.142" y1="442.194" x2="340.157" y2="442.194"/>
	<line fill="none" stroke="#000000" stroke-width="3" stroke-miterlimit="10" x1="476.22" y1="374.173" x2="510.235" y2="374.173"/>
	<line fill="none" stroke="#000000" stroke-width="3" stroke-miterlimit="10" x1="476.22" y1="510.235" x2="510.235" y2="510.235"/>
	<path fill="none" stroke="#000000" stroke-width="3" stroke-miterlimit="10" d="M510.235,374.203l34.016-0.02
		c-22.679,37.581-22.674,98.475-0.002,136.044"/>

		<line fill="none" stroke="#000000" stroke-width="3" stroke-miterlimit="10" x1="530.974" y1="408.188" x2="578.267" y2="408.188"/>
	<path fill="none" stroke="#000000" stroke-width="3" stroke-miterlimit="10" d="M510.235,510.207l34.016,0.02
		c-22.679-37.581-22.674-98.475-0.002-136.044"/>
	<path fill="none" stroke="#000000" stroke-width="3" stroke-miterlimit="10" d="M510.235,510.207l34.016,0.02
		c-22.679-37.581-22.674-98.475-0.002-136.044"/>

		<line fill="none" stroke="#000000" stroke-width="3" stroke-miterlimit="10" x1="530.974" y1="476.222" x2="578.267" y2="476.222"/>
	<path fill="none" stroke="#000000" stroke-width="3" stroke-miterlimit="10" d="M555.589,510.227
		c-22.679-37.581-22.674-98.475-0.002-136.044"/>
</g>
<g>
	<path fill="none" stroke="#000000" stroke-width="3" stroke-miterlimit="10" d="M170.078,510.228
		c-40.909,0-77.105-26.325-102.047-67.993"/>
	<path fill="none" stroke="#000000" stroke-width="3" stroke-miterlimit="10" d="M170.078,374.173
		c-40.909,0-77.105,26.325-102.047,67.993"/>
	<path fill="none" stroke="#000000" stroke-width="3" stroke-miterlimit="10" d="M204.094,374.203l34.016-0.02
		c-22.679,37.581-22.674,98.475-0.002,136.044"/>
	<line fill="none" stroke="#000000" stroke-width="3" stroke-miterlimit="10" x1="34.016" y1="442.194" x2="68.031" y2="442.194"/>

		<line fill="none" stroke="#000000" stroke-width="3" stroke-miterlimit="10" x1="170.078" y1="374.173" x2="204.094" y2="374.173"/>

		<line fill="none" stroke="#000000" stroke-width="3" stroke-miterlimit="10" x1="170.078" y1="510.235" x2="204.094" y2="510.235"/>
	<path fill="none" stroke="#000000" stroke-width="3" stroke-miterlimit="10" d="M204.094,374.203l34.016-0.02
		c-22.679,37.581-22.674,98.475-0.002,136.044"/>

		<line fill="none" stroke="#000000" stroke-width="3" stroke-miterlimit="10" x1="224.832" y1="408.188" x2="272.125" y2="408.188"/>
	<path fill="none" stroke="#000000" stroke-width="3" stroke-miterlimit="10" d="M204.094,510.207l34.016,0.02
		c-22.679-37.581-22.674-98.475-0.002-136.044"/>
	<path fill="none" stroke="#000000" stroke-width="3" stroke-miterlimit="10" d="M204.094,510.207l34.016,0.02
		c-22.679-37.581-22.674-98.475-0.002-136.044"/>

		<line fill="none" stroke="#000000" stroke-width="3" stroke-miterlimit="10" x1="224.832" y1="476.222" x2="272.125" y2="476.222"/>
	<path fill="none" stroke="#000000" stroke-width="3" stroke-miterlimit="10" d="M249.447,510.227
		c-22.679-37.581-22.674-98.475-0.002-136.044"/>
</g>
<g>

		<rect x="646.299" y="204.094" fill="none" stroke="#000000" stroke-width="3" stroke-miterlimit="10" width="102.047" height="136.063"/>

		<line fill="none" stroke="#000000" stroke-width="3" stroke-miterlimit="10" x1="646.298" y1="238.109" x2="612.282" y2="238.109"/>

		<line fill="none" stroke="#000000" stroke-width="3" stroke-miterlimit="10" x1="646.298" y1="306.141" x2="612.282" y2="306.141"/>
	<line fill="none" stroke="#000000" stroke-width="3" stroke-miterlimit="10" x1="782.36" y1="272.125" x2="748.345" y2="272.125"/>
</g>
<path fill="none" stroke="#000000" stroke-width="3" stroke-miterlimit="10" d="M680.313,391.18c0,9.395-7.613,17.01-17.008,17.01
	c-9.39,0-17.008-7.615-17.008-17.01c0-9.392,7.618-17.007,17.008-17.007C672.7,374.173,680.313,381.788,680.313,391.18z"/>
</svg>
